<svg xmlns="http://www.w3.org/2000/svg" width="395" height="460" viewBox="0 0 395 460">
    <g fill="none" fill-rule="evenodd">
        <path fill="#FFF" d="M394.812 262.21c0 108.749-88.158 196.906-196.906 196.906S1 370.96 1 262.21C1 153.462 89.158 65.304 197.906 65.304s196.906 88.158 196.906 196.906"/>
        <path fill="#FF7348" d="M203.541 348.33l-48.03 21.238a295.188 295.188 0 0 1-96.136 24.299 25.68 25.68 0 0 0-6.596 1.411c35.995 39.236 87.685 63.838 145.127 63.838 58.262 0 110.607-25.312 146.658-65.53-31.585-2.828-63.054-10.742-93.158-24.068l-47.865-21.189z"/>
        <path fill="#FFD03F" d="M311.83 190.764a32.075 32.075 0 0 0-11.906.361l-.214-2.262-.006-77.405C299.7 74.753 269.944 45 233.24 45H173.67c-36.707 0-66.464 29.756-66.464 66.463l-.003 77.475-.206 2.192a32.065 32.065 0 0 0-11.927-.366c-5.492.866-9.464 5.762-9.464 11.323v22.321c0 11.898 7.353 22.448 18.29 26.666a97.629 97.629 0 0 0 27.263 55.527l28.482 28.855a61.985 61.985 0 0 0 7.78 6.674V364.3l-11.911 5.267a295.548 295.548 0 0 1-11.037 4.613c12.237 20.896 40.602 42.219 64.855 40.805 24.934-1.455 45.304-18.602 53.839-40.565a294.82 294.82 0 0 1-11.761-4.903l-11.66-5.161v-22.405a62.085 62.085 0 0 0 7.533-6.496l28.482-28.855a97.63 97.63 0 0 0 27.264-55.535c10.924-4.224 18.268-14.768 18.268-26.658v-22.321c0-5.56-3.971-10.457-9.464-11.323"/>
        <path fill="#55198D" d="M169.33 259.212h68.262c11.572 0 20.564 10.076 19.25 21.573l-5.806 50.866-3.756 3.805c-24.107 24.425-63.53 24.425-87.638 0l-3.757-3.806-5.807-50.865c-1.312-11.497 7.68-21.573 19.251-21.573"/>
        <path fill="#000" d="M249.633 197.677h-10.085c-2.548 0-4.734 2.007-4.748 4.555v.05c0 5.334 4.264 9.672 9.57 9.79 4.12.091 7.696-2.572 9.285-6.375.521-1.246.735-2.396.728-3.468-.017-2.547-2.203-4.552-4.75-4.552m-82.031 0h-10.054c-2.55 0-4.746 2.005-4.762 4.555v.05c0 5.236 4.109 9.511 9.278 9.779 4.16.216 7.823-2.45 9.511-6.257.549-1.237.784-2.379.795-3.444.027-2.6-2.168-4.683-4.768-4.683m15.818-22.633a5.835 5.835 0 0 0-2.37-7.904c-9.814-5.287-21.265-7.133-32.241-5.197l-12.685 2.237a5.835 5.835 0 0 0 2.027 11.492l12.685-2.236a38.248 38.248 0 0 1 24.679 3.977 5.835 5.835 0 0 0 7.905-2.37m45.215 3.07a5.835 5.835 0 0 1-2.772-10.973 49.962 49.962 0 0 1 32.24-5.197l12.685 2.237a5.834 5.834 0 0 1 4.734 6.76 5.832 5.832 0 0 1-6.76 4.732l-12.685-2.236a38.248 38.248 0 0 0-24.68 3.978 5.808 5.808 0 0 1-2.762.698"/>
        <path fill="#E79942" d="M183.57 250.214a5.001 5.001 0 0 1-3.394-8.675l5.469-5.052a20.154 20.154 0 0 0 6.459-14.757l.006-26.81c0-2.762 2.24-5.001 5.001-5.001h.002c2.762 0 5 2.24 5 5.002l-.006 26.811a30.185 30.185 0 0 1-9.675 22.102l-5.47 5.052a4.983 4.983 0 0 1-3.392 1.328"/>
        <path fill="#0E0F2D" d="M268.864 209.546a15.277 15.277 0 0 1-14.925 11.814h-17.821a15.278 15.278 0 0 1-14.926-11.814l-4.627-19.616c18.435-5.74 38.489-5.74 56.926 0l-4.627 19.616zm-98.06 11.814h-17.82a15.277 15.277 0 0 1-14.927-11.814l-4.626-19.616c18.435-5.74 38.49-5.74 56.926 0l-4.628 19.616a15.277 15.277 0 0 1-14.925 11.814zm131.63-34.933h-25.08a2.294 2.294 0 0 0-.423-.194c-20.573-6.912-43.233-6.912-63.807 0a2.289 2.289 0 0 0-1.498 2.694l.9 3.812h-18.13l.898-3.812a2.288 2.288 0 0 0-1.498-2.694c-20.573-6.912-43.233-6.912-63.805 0-.15.05-.29.117-.422.194h-25.082a2.288 2.288 0 1 0 0 4.576h24.495l4.621 19.594a19.838 19.838 0 0 0 19.38 15.34h17.82c9.28 0 17.25-6.308 19.38-15.34l3.133-13.281h20.29l3.132 13.28a19.839 19.839 0 0 0 19.38 15.341h17.82c9.28 0 17.25-6.308 19.38-15.34l4.622-19.594h24.495a2.288 2.288 0 1 0 0-4.576z"/>
        <path fill="#E79942" d="M227.738 285.433h-48.554a5.001 5.001 0 1 1 0-10.003h48.554a5.001 5.001 0 1 1 0 10.003"/>
    </g>
</svg>
