<svg xmlns="http://www.w3.org/2000/svg" width="394" height="460" viewBox="0 0 394 460">
    <g fill="none" fill-rule="evenodd">
        <path fill="#FFF" d="M393.812 263.54c0 108.747-88.158 196.905-196.906 196.905S0 372.287 0 263.54 88.158 66.633 196.906 66.633s196.906 88.158 196.906 196.906"/>
        <path fill="#FF7374" d="M356.434 295.097a57.244 57.244 0 0 0-3.219-4.668v-.002a67.62 67.62 0 0 1-12.393-55.645h-.001a67.612 67.612 0 0 0-12.393-55.645c-8.436-10.998-13.38-26.252-13.736-40.846l.246-28.695a8.829 8.829 0 0 0-.104-1.424C313.497 68.64 281.034 37 241.175 37h-29.368a132.007 132.007 0 0 0-93.343 38.664l-1.396 1.396a114.874 114.874 0 0 0-33.218 71.398c-1.86 11.252-6.271 22.224-12.757 30.679A67.617 67.617 0 0 0 58.7 234.782a67.618 67.618 0 0 1-12.393 55.645l-.002.002c-5.153 6.719-9.003 15.026-11.3 23.8l-.083.319c-4.238 16.48 1.504 33.949 13.757 45.757a115.085 115.085 0 0 0 79.86 32.217h149.093a98.597 98.597 0 0 0 68.42-27.602c18.907-18.22 24.216-47.505 10.382-69.823"/>
        <path fill="#1A2D3D" d="M196.906 358.092l-142.51 41.324c35.86 37.6 86.449 61.03 142.51 61.03 56.062 0 106.65-23.43 142.51-61.03l-142.51-41.324z"/>
        <path fill="#FFD03F" d="M305.42 172.69a32.163 32.163 0 0 0-4.473-.386l-7.785 34.412a9.505 9.505 0 0 1-9.5-9.506v-27.868c0-7.388-4.47-14-11.267-16.841h-20.447c-28.155 0-50.98-22.824-50.98-50.978-14.741-8.007-33.1-1.484-39.698 13.94-3.625 8.472-5.693 17.554-5.696 26.154-.003 9.344-2.444 19.255-6.669 28.336-4.226 9.08-10.236 17.331-17.382 23.352h-.002c-7.145 6.02-13.155 14.27-17.38 23.351-4.226 9.08-6.666 18.992-6.67 28.336v.001c-.002 6.005-1.015 12.243-2.857 18.346.964 3.38 2.095 6.717 3.403 9.995l4.378 10.975c9.083 22.769 26.716 40.384 48.348 49.741v34.528l-30.25 8.772c7.136 36.624 34.153 63.877 66.413 63.877s59.276-27.253 66.414-63.877l-35.029-10.157V335.88c23.341-8.63 42.636-26.666 52.501-50.556l4.523-10.95a103.67 103.67 0 0 0 7.848-39.569v-.702l.975-.278a28.588 28.588 0 0 0 20.746-27.492v-22.322c0-5.56-3.972-10.456-9.465-11.322"/>
        <path fill="#000" d="M148.5 170.797c-2.376 4.946-5.28 9.628-8.607 13.819a38.267 38.267 0 0 1 23.216-1.068 5.835 5.835 0 0 0 3.049-11.264 49.818 49.818 0 0 0-17.659-1.487M266.657 182.7a5.835 5.835 0 0 0-3.365-7.535 49.963 49.963 0 0 0-32.641-1.016 5.835 5.835 0 0 0 3.485 11.138 38.248 38.248 0 0 1 24.986.777c.687.263 1.39.387 2.084.387a5.838 5.838 0 0 0 5.451-3.751M153.774 199.006H143.72c-2.55 0-4.746 2.005-4.762 4.555v.05c0 5.236 4.109 9.511 9.278 9.779 4.16.216 7.823-2.45 9.512-6.257.548-1.237.783-2.379.794-3.444.026-2.6-2.169-4.683-4.768-4.683M250.094 199.006H240.01c-2.548 0-4.733 2.007-4.748 4.555v.05c0 5.334 4.264 9.672 9.57 9.79 4.12.091 7.696-2.572 9.286-6.375.52-1.246.734-2.396.727-3.468-.017-2.547-2.203-4.552-4.75-4.552"/>
        <path fill="#E79942" d="M190.679 306.255c-2.126 0-4.286-.046-6.488-.14a5.002 5.002 0 0 1-4.784-5.21c.117-2.76 2.476-4.909 5.21-4.784 18.07.768 33.188-1.84 46.207-7.98a5.002 5.002 0 0 1 4.267 9.047c-12.899 6.084-27.483 9.067-44.412 9.067M179.206 241.853a5.002 5.002 0 0 1-4.133-7.813 46.16 46.16 0 0 0 8.01-25.928l.025-10.19a5.001 5.001 0 0 1 5.001-4.99h.012a5.001 5.001 0 0 1 4.99 5.013l-.025 10.191a56.127 56.127 0 0 1-9.739 31.526 4.996 4.996 0 0 1-4.14 2.19"/>
    </g>
</svg>
