<svg xmlns="http://www.w3.org/2000/svg" width="394" height="460" viewBox="0 0 394 460">
    <g fill="none" fill-rule="evenodd">
        <path fill="#FFF" d="M393.812 262.394c0 108.749-88.158 196.906-196.906 196.906S0 371.143 0 262.394C0 153.646 88.158 65.488 196.906 65.488s196.906 88.158 196.906 196.906"/>
        <path fill="#FF9D37" d="M343.025 394.377c-13.256-14.049-30.263-24.707-49.814-30.258l-97.732-27.752-97.732 27.752c-18.825 5.345-35.295 15.43-48.338 28.705 36.076 40.766 88.78 66.477 147.497 66.477 57.97 0 110.086-25.056 146.119-64.924"/>
        <path fill="#FFD03F" d="M301.814 194.145l-.004-57.189c-1.18-45.905-48.46-90.41-104.926-90.41-56.47 0-103.749 44.505-104.927 90.41l-.004 57.189c-10.231.274-18.443 8.647-18.443 18.944v21.056c0 10.47 8.488 18.957 18.958 18.957h5.195a237.334 237.334 0 0 0 8.072 28l9.743 27.324c7.552 21.183 25.92 36.278 47.573 39.983l.001 15.547a47.83 47.83 0 0 0 16.36 36.016l17.49 15.28 17.375-15.303a47.829 47.829 0 0 0 16.219-35.893v-15.499c21.694-3.662 40.121-18.755 47.7-39.975l9.794-27.423a237.318 237.318 0 0 0 8.101-28.057h5.208c10.47 0 18.957-8.488 18.957-18.957v-21.056c0-10.298-8.211-18.67-18.442-18.944"/>
        <path fill="#E79942" d="M221.16 280.61h-48.553a5.001 5.001 0 1 1 0-10.003h48.553a5.001 5.001 0 1 1 0 10.003M206.78 244.574h-17.527a5.001 5.001 0 1 1 0-10.002h12.53l.017-21.301a58.008 58.008 0 0 1 6.714-26.903 5.001 5.001 0 1 1 8.84 4.68 47.956 47.956 0 0 0-5.55 22.239l-.022 26.29a5.001 5.001 0 0 1-5.001 4.997"/>
        <path fill="#534741" d="M272.428 277.23l-17.117-12.826c-17.325-12.981-41.098-13.087-58.538-.282-17.439-12.805-41.212-12.7-58.538.282l-16.97 12.715c-9.1-14.064-14.386-30.827-14.386-48.826v-46.815l10.965-73.377 26.587 7.203c29.889 8.097 55.3 8.19 77.454 5.201 30.31-4.09 58.347 16.512 62.869 46.762l2.123 14.21.01.058v46.758c0 18.046-5.315 34.85-14.459 48.937m-75.545 41.067c-21.9 0-41.97-7.825-57.575-20.827l57.465-33.177 57.597 33.253c-15.593 12.957-35.629 20.751-57.487 20.751m24.848-274.871l-45.363-11.879c-27.855-7.293-55.115 12.059-58.225 39.867-18.853 19.037-30.017 45.634-28.581 74.645l1.407 28.428v115.628a54.387 54.387 0 0 0 26.261 46.55l44.743 27.034a67.192 67.192 0 0 0 69.378.07l45.091-27.12a54.39 54.39 0 0 0 26.355-46.606v-115.57l1.407-28.416c2.52-50.966-33.834-94.482-82.473-102.631"/>
        <path fill="#000" d="M271.963 179.526c-.108 0-.218-.003-.327-.01l-46.389-2.568a5.836 5.836 0 0 1-5.504-6.15c.18-3.217 2.956-5.685 6.15-5.503l46.387 2.57a5.835 5.835 0 0 1-.317 11.66M121.802 179.526a5.835 5.835 0 0 1-.357-11.66l41.251-2.568c3.226-.21 5.985 2.245 6.186 5.46a5.835 5.835 0 0 1-5.46 6.187l-41.252 2.569a5.848 5.848 0 0 1-.368.012M155.053 197.537c-.011 1.065-.246 2.207-.795 3.444-1.688 3.808-5.351 6.472-9.511 6.257-5.17-.268-9.278-4.543-9.278-9.779v-.05c.016-2.55 2.212-4.554 4.762-4.554h10.054c2.6 0 4.795 2.082 4.768 4.682M259.097 197.407c.008 1.07-.206 2.22-.727 3.467-1.59 3.803-5.165 6.466-9.285 6.374-5.305-.117-9.57-4.455-9.57-9.789v-.05c.014-2.548 2.2-4.554 4.747-4.554h10.086c2.547 0 4.732 2.005 4.75 4.552"/>
        <path fill="#988575" d="M273.407 141.1c5.818 7.325 9.86 16.22 11.347 26.167l2.123 14.21c.003.018.008.034.01.05v11.327h15.91v-18.382l1.407-28.415c.081-1.661.119-3.314.12-4.958h-30.917zM106.88 192.854v-11.376l6.033-40.379H89.442c0 1.645.038 3.298.12 4.96l1.407 28.427v18.368h15.91z"/>
    </g>
</svg>
