<svg xmlns="http://www.w3.org/2000/svg" width="341" height="341"><path fill="#FFF" fill-opacity=".1" fill-rule="evenodd" d="M282.152 54.596a1.542 1.542 0 0 0-.403-.524c-2.35-1.975-5.444.404-4.14 3.182.095.2.233.38.403.524 2.35 1.976 5.445-.403 4.14-3.182zm2.49-2.635c.117.112.218.243.295.385 3.73 6.844-4.165 12.91-9.817 7.543a1.545 1.545 0 0 1-.296-.385c-3.73-6.844 4.166-12.91 9.818-7.543zM94.107 47.883a.099.099 0 0 0 .003-.024c.035-3.453-4.336-4.084-5.278-.762a.107.107 0 0 0-.003.025c-.035 3.452 4.336 4.083 5.278.76zm-1.76-6.554c.007 0 .015 0 .023.003 7.775 2.19 6.3 12.416-1.777 12.32a.085.085 0 0 1-.023-.003c-7.776-2.19-6.3-12.417 1.777-12.32zM208.4 63.434a.07.07 0 0 0-.001-.025c-.561-3.407-4.975-3.274-5.33.16a.07.07 0 0 0 0 .025c.56 3.407 4.976 3.274 5.33-.16zm-2.863-6.153c.008 0 .016-.002.023 0 8.036.817 8.345 11.145.372 12.441a.06.06 0 0 1-.023.001c-8.036-.818-8.345-11.146-.372-12.442zM88.155 143.024c.17-.154.304-.345.392-.556 1.177-2.822-2-5.063-4.263-3.006-.17.154-.304.345-.392.556-1.178 2.823 2 5.063 4.263 3.006zm1.427-6.983c.15.074.29.172.408.288 5.584 5.426-.147 13.554-7.133 10.116a1.6 1.6 0 0 1-.409-.288c-5.584-5.426.148-13.554 7.134-10.116zm34.425 46.762a.074.074 0 0 0-.01-.022c-1.792-2.952-5.837-1.18-4.885 2.138a.072.072 0 0 0 .01.022c1.792 2.952 5.837 1.181 4.885-2.138zm3.249-1.449a.078.078 0 0 1 .009.021c2.244 7.76-7.221 11.904-11.402 4.993a.078.078 0 0 1-.009-.02c-2.244-7.76 7.221-11.906 11.402-4.994zm24.412-103.321a.103.103 0 0 0 .001-.025c-.338-3.436-4.75-3.591-5.33-.188v.025c.337 3.436 4.75 3.592 5.33.188zm-2.457-6.327h.023c7.966 1.34 7.602 11.667-.438 12.44a.059.059 0 0 1-.023 0c-7.966-1.338-7.602-11.665.438-12.44zm136.754 133.546c.083-.21.12-.437.105-.663-.184-3.058-4.032-3.67-5.154-.818-.083.21-.119.438-.105.663.184 3.058 4.032 3.668 5.154.818zm-1.797-6.892c.165 0 .33.026.487.077 7.41 2.406 5.848 12.233-1.94 12.226-.166 0-.332-.026-.488-.077-7.41-2.406-5.849-12.234 1.941-12.226zm4.728-82.463c.001-.008.002-.016.001-.025-.312-3.438-4.724-3.626-5.328-.227 0 .008-.002.017 0 .025.311 3.44 4.723 3.627 5.327.227zm-2.41-6.344a.059.059 0 0 1 .023.001c7.956 1.397 7.516 11.721-.53 12.436a.087.087 0 0 1-.023 0c-7.956-1.398-7.516-11.722.53-12.437zm25.165-14.656a.1.1 0 0 0 .004-.024c.103-3.452-4.255-4.168-5.262-.865a.064.064 0 0 0-.004.024c-.103 3.45 4.254 4.167 5.262.865zm-1.63-6.588c.007 0 .015.002.023.004 7.73 2.343 6.053 12.539-2.02 12.282a.066.066 0 0 1-.024-.004c-7.73-2.343-6.053-12.54 2.021-12.282zm-11.244-62.026c5.149.766 8.896 5.114 9.088 10.137a1.668 1.668 0 0 1-1.91 1.714l-.786-.117c-.78-.116-1.392-.756-1.435-1.544a6.548 6.548 0 0 0-5.565-6.107c-3.12-.464-6.06 1.368-7.102 4.222-.27.741-1.042 1.175-1.822 1.06l-.787-.118a1.667 1.667 0 0 1-1.327-2.196c1.646-4.749 6.497-7.817 11.646-7.05zm-35.715 210.242c1.649-4.926 6.567-7.855 11.535-7.184a1.692 1.692 0 0 1 1.376 2.214l-.241.72c-.251.75-.99 1.24-1.774 1.146-3.015-.364-5.98 1.425-6.981 4.415-1.002 2.99.288 6.204 2.914 7.728.684.397.978 1.234.727 1.983l-.242.72a1.692 1.692 0 0 1-2.432.94c-4.37-2.457-6.531-7.756-4.882-12.682zm-42.087 77.251a1.679 1.679 0 0 1 .42-2.552c4.333-2.533 10.006-1.715 13.421 2.206 3.415 3.922 3.446 9.654.341 13.598a1.679 1.679 0 0 1-2.585.064l-.512-.587c-.518-.595-.568-1.479-.089-2.106 1.843-2.415 1.803-5.879-.268-8.258-2.07-2.378-5.498-2.894-8.143-1.4-.687.388-1.555.217-2.073-.377l-.512-.588zm60.902-229.173c3.087.647 6.13-1.009 7.34-3.796.312-.723 1.108-1.111 1.88-.95l.778.164a1.665 1.665 0 0 1 1.196 2.269c-1.923 4.644-6.946 7.422-12.04 6.354-5.096-1.069-8.58-5.63-8.477-10.655a1.667 1.667 0 0 1 2.008-1.598l.778.163c.772.162 1.345.837 1.341 1.625-.013 3.038 2.11 5.777 5.196 6.424zM29.427 9.495l.06-.058c.929-.91 2.478-.733 3.146.38 2.482 4.137 1.907 9.596-1.689 13.111-3.595 3.517-9.064 3.973-13.145 1.4-1.1-.694-1.24-2.247-.311-3.155l.059-.057c.672-.659 1.7-.747 2.5-.253 2.497 1.544 5.82 1.256 8.01-.886a6.55 6.55 0 0 0 1.065-7.989c-.477-.81-.366-1.835.305-2.493zM60.08 32.472a6.545 6.545 0 0 0 8.302-3.938.078.078 0 0 1 .099-.048l3.748 1.311a.08.08 0 0 1 .049.102c-1.97 5.502-8.036 8.402-13.561 6.47-5.525-1.933-8.46-7.982-6.572-13.512a.08.08 0 0 1 .102-.05l3.748 1.311a.079.079 0 0 1 .048.1 6.544 6.544 0 0 0 4.037 8.254zm69.05 307.058a.078.078 0 0 1 .052.096 6.617 6.617 0 0 0-.208 1.182.078.078 0 0 1-.078.072h-3.977a.08.08 0 0 1-.08-.084c.04-.765.16-1.537.374-2.304a.08.08 0 0 1 .1-.056l3.816 1.094zM48.438 202.8a6.548 6.548 0 0 0 7.748 2.216c.872-.353 1.871-.093 2.423.668l.05.066c.763 1.053.363 2.56-.837 3.059-4.454 1.85-9.77.486-12.725-3.584-2.954-4.07-2.606-9.547.534-13.208.846-.987 2.402-.9 3.166.151l.05.067c.551.761.49 1.791-.117 2.51-1.892 2.244-2.092 5.576-.292 8.054zm42.434 66.932a1.666 1.666 0 0 1 2.565.071c3.104 3.953 3.061 9.693-.368 13.609-3.43 3.916-9.113 4.716-13.442 2.161a1.666 1.666 0 0 1-.408-2.533l.523-.598c.52-.593 1.39-.762 2.075-.372 2.641 1.501 6.068.995 8.146-1.378 2.077-2.372 2.127-5.837.291-8.257-.477-.628-.425-1.512.095-2.105l.523-.598zm-48.091 41.911c4.323-2.858 9.985-2.147 13.488 1.42a1.72 1.72 0 0 1-.284 2.636l-.586.387a1.707 1.707 0 0 1-2.14-.194c-2.15-2.129-5.578-2.54-8.201-.805a6.544 6.544 0 0 0-2.472 7.862c.296.747.01 1.601-.66 2.044l-.586.387a1.72 1.72 0 0 1-2.537-.771c-1.91-4.62-.345-10.108 3.978-12.966zm235.846-144.007a6.03 6.03 0 0 1 4.93-4.5c1.182-.183 2.162.921 1.873 2.083l-.009.037c-.162.654-.686 1.176-1.352 1.282a2.582 2.582 0 0 0-2.103 1.927 2.584 2.584 0 0 0 .958 2.687c.54.405.758 1.111.595 1.765l-.009.037c-.288 1.162-1.67 1.68-2.63.965a6.03 6.03 0 0 1-2.253-6.283zM252.903 67.277a2.584 2.584 0 0 0 2.782-.629c.467-.487 1.194-.62 1.824-.38l.073.027c1.1.419 1.439 1.826.633 2.685a6.032 6.032 0 0 1-6.535 1.513 6.033 6.033 0 0 1-3.88-5.472c-.031-1.178 1.157-2.005 2.258-1.586l.073.028c.63.239 1.085.822 1.11 1.495a2.586 2.586 0 0 0 1.662 2.319zM96.359 7.298a.08.08 0 0 1 .113-.016 6.027 6.027 0 0 1 1.208 8.37 6.028 6.028 0 0 1-8.353 1.32.08.08 0 0 1-.019-.112l1.95-2.644a.077.077 0 0 1 .107-.016 2.585 2.585 0 0 0 3.546-.59 2.583 2.583 0 0 0-.484-3.56.078.078 0 0 1-.016-.11l1.948-2.642zm22.604 146.42a2.586 2.586 0 0 0 2.43-1.496c.284-.61.929-.972 1.603-.949 1.242.043 2.023 1.35 1.484 2.47a6.03 6.03 0 0 1-5.635 3.412 6.028 6.028 0 0 1-5.386-3.787c-.463-1.156.404-2.407 1.648-2.365.673.023 1.293.428 1.534 1.057a2.586 2.586 0 0 0 2.322 1.657zM329.23 32.494a6.029 6.029 0 0 1 6.697-.372c1.014.6 1.082 2.045.14 2.755l-.06.046c-.538.406-1.274.482-1.858.145a2.584 2.584 0 0 0-2.847.172 2.584 2.584 0 0 0-.948 2.691c.164.654-.111 1.34-.65 1.746l-.061.047c-.941.71-2.312.247-2.61-.893a6.03 6.03 0 0 1 2.197-6.337zM239.062 222.37a6.031 6.031 0 0 1 6.151-2.35c1.217.263 1.77 1.681 1.04 2.688-.396.546-1.077.834-1.734.682a2.584 2.584 0 0 0-2.672 1 2.583 2.583 0 0 0-.118 2.85c.348.577.286 1.313-.109 1.86-.731 1.007-2.251.922-2.878-.153a6.027 6.027 0 0 1 .32-6.577zM22.648 300.34a6.027 6.027 0 0 1 .496 8.442.08.08 0 0 1-.113.007l-1.481-1.335c-.501-.45-.715-1.159-.495-1.796a2.581 2.581 0 0 0-3.531-3.182c-.611.285-1.337.146-1.838-.306l-.057-.05c-.876-.79-.682-2.224.38-2.734a6.031 6.031 0 0 1 6.639.954zM157.566 17.621c.888-.872 2.373-.534 2.812.631a6.03 6.03 0 0 1-1.413 6.431 6.029 6.029 0 0 1-6.458 1.29c-1.354-.542-1.618-1.802-.577-2.823l.922-.905a.08.08 0 0 1 .11.001c1 .962 2.596.96 3.594-.019.761-.747.96-1.855.592-2.79-.247-.628-.063-1.344.418-1.816zM30.9 171.467a6.029 6.029 0 0 1 6.378-1.634c1.179.399 1.568 1.87.728 2.789-.456.497-1.165.705-1.8.48a2.585 2.585 0 0 0-2.77.688 2.585 2.585 0 0 0-.441 2.818c.28.613.135 1.338-.32 1.836-.84.918-2.341.66-2.842-.48a6.03 6.03 0 0 1 1.067-6.497zm36.516 88.51a6.03 6.03 0 0 1 6.69.482c.93.724.813 2.166-.21 2.75l-.067.038c-.585.335-1.324.316-1.861-.091a2.583 2.583 0 0 0-2.846-.192 2.586 2.586 0 0 0-1.282 2.55c.08.668-.28 1.315-.865 1.649l-.067.038c-1.023.584-2.325-.049-2.476-1.218a6.03 6.03 0 0 1 2.984-6.005zm162.833-65.487c.552 2.2 2.568 2.755 3.951 1.966a1.704 1.704 0 0 1 1.866.125l.007.006c.996.747.885 2.266-.2 2.875a6.03 6.03 0 0 1-6.57-.43 6.028 6.028 0 0 1-.949-8.743c.355-.413.488-.98.355-1.51-.552-2.199-2.569-2.755-3.95-1.966a1.704 1.704 0 0 1-1.867-.125l-.008-.006c-.995-.747-.884-2.265.201-2.875a6.03 6.03 0 0 1 6.57.431 6.027 6.027 0 0 1 .948 8.742 1.696 1.696 0 0 0-.354 1.51zm58.263 106.144c1.213 1.987 3.352 1.881 4.422.665.435-.493 1.135-.659 1.759-.448l.113.04c1.116.378 1.505 1.772.73 2.66a6.028 6.028 0 0 1-6.475 1.746 6.026 6.026 0 0 1-3.625-8.01 1.648 1.648 0 0 0-.101-1.493c-1.212-1.986-3.351-1.88-4.422-.665a1.639 1.639 0 0 1-1.758.448l-.114-.039c-1.116-.378-1.505-1.772-.73-2.66a6.032 6.032 0 0 1 6.476-1.747 6.028 6.028 0 0 1 3.625 8.011 1.647 1.647 0 0 0 .1 1.492zM120.152 122.61a1.705 1.705 0 0 1 1.266-1.377l.01-.002c1.206-.309 2.32.728 2.117 1.956a6.03 6.03 0 0 1-4.448 4.855 6.027 6.027 0 0 1-7.412-4.73 1.692 1.692 0 0 0-.956-1.222c-2.061-.946-3.756.28-4.006 1.852a1.702 1.702 0 0 1-1.265 1.376l-.01.003c-1.205.308-2.32-.728-2.116-1.956a6.029 6.029 0 0 1 4.447-4.855 6.026 6.026 0 0 1 7.412 4.73c.1.536.46.995.956 1.222 2.06.946 3.757-.279 4.006-1.852zm-15.672 92.486c1.526 1.675 3.563 1.211 4.408-.138a1.711 1.711 0 0 1 1.707-.775 1.722 1.722 0 0 1 1.19 2.632 6.03 6.03 0 0 1-5.989 2.73 6.027 6.027 0 0 1-4.975-7.25c-.141-.528-.26-.973-.403-1.499-1.527-1.675-3.565-1.21-4.409.137a1.711 1.711 0 0 1-1.707.775 1.721 1.721 0 0 1-1.19-2.63 6.03 6.03 0 0 1 5.99-2.73 6.027 6.027 0 0 1 4.974 7.25c.143.526.262.971.404 1.498zm72.166-12.083c.79-.963 2.302-.788 2.865.322a6.028 6.028 0 0 1-.707 6.546 6.028 6.028 0 0 1-8.774.58 1.696 1.696 0 0 0-1.494-.418c-2.221.46-2.862 2.45-2.13 3.865a1.704 1.704 0 0 1-.204 1.86l-.006.006c-.788.963-2.3.79-2.864-.32a6.032 6.032 0 0 1 .707-6.548 6.028 6.028 0 0 1 8.774-.58c.398.373.96.53 1.494.418 2.22-.459 2.86-2.45 2.13-3.865a1.703 1.703 0 0 1 .203-1.858l.007-.008zm-.112-133.337c-.623 2.25.926 3.74 2.55 3.683.65-.023 1.242.373 1.51.965l.072.16a1.636 1.636 0 0 1-1.418 2.311 6.031 6.031 0 0 1-5.744-3.53 6.028 6.028 0 0 1 3.371-8.123l1.021-1.093c.623-2.248-.926-3.74-2.55-3.681-.65.023-1.242-.374-1.51-.966l-.073-.16a1.637 1.637 0 0 1 1.42-2.312 6.03 6.03 0 0 1 5.742 3.532 6.027 6.027 0 0 1-3.37 8.121l-1.02 1.094zm-10.741 228.847c-.473 2.503 1.41 3.871 3.093 3.506a1.316 1.316 0 0 1 1.39.598l.44.705c.46.741.098 1.733-.742 1.97a6.03 6.03 0 0 1-6.75-2.614 6.026 6.026 0 0 1 2.41-8.56c.368-.186.627-.534.703-.938.474-2.503-1.41-3.87-3.092-3.506a1.318 1.318 0 0 1-1.392-.598l-.44-.706c-.46-.74-.097-1.732.743-1.969a6.032 6.032 0 0 1 6.75 2.614 6.027 6.027 0 0 1-2.411 8.561 1.323 1.323 0 0 0-.702.937zm41.235-137.454c.317 2.246 2.263 3.011 3.722 2.372a1.701 1.701 0 0 1 1.84.321l.009.007c.91.848.64 2.346-.504 2.838a6.03 6.03 0 0 1-6.488-1.122 6.027 6.027 0 0 1-.02-8.793c.397-.374.588-.925.512-1.464-.317-2.246-2.263-3.012-3.722-2.372a1.703 1.703 0 0 1-1.841-.322l-.008-.007c-.91-.848-.64-2.346.504-2.837a6.03 6.03 0 0 1 6.488 1.122 6.027 6.027 0 0 1 .02 8.793 1.694 1.694 0 0 0-.512 1.464zm55.078-21.045a1.65 1.65 0 0 0-1.029 1.086c-.638 2.238.89 3.738 2.51 3.701.658-.015 1.254.387 1.521.989l.05.11c.477 1.077-.283 2.307-1.46 2.34a6.03 6.03 0 0 1-5.676-3.575 6.027 6.027 0 0 1 3.43-8.096 1.652 1.652 0 0 0 1.03-1.086c.637-2.238-.89-3.739-2.51-3.701-.659.015-1.255-.388-1.522-.989l-.049-.11c-.478-1.077.282-2.308 1.46-2.34a6.03 6.03 0 0 1 5.675 3.575 6.027 6.027 0 0 1-3.43 8.096zm4.952 181.242a1.677 1.677 0 0 1 2.24.779l.038.077a1.677 1.677 0 0 1-.778 2.24l-3.172 1.538a1.678 1.678 0 0 0-.778 2.241l1.537 3.173a1.677 1.677 0 0 1-.778 2.24l-.077.038a1.677 1.677 0 0 1-2.241-.779l-1.537-3.172a1.678 1.678 0 0 0-2.242-.777l-3.172 1.536a1.677 1.677 0 0 1-2.241-.779l-.037-.075a1.677 1.677 0 0 1 .778-2.242l3.172-1.536a1.678 1.678 0 0 0 .778-2.243l-1.537-3.171a1.677 1.677 0 0 1 .778-2.242l.077-.036a1.677 1.677 0 0 1 2.24.778l1.538 3.171a1.678 1.678 0 0 0 2.242.779l3.172-1.538zm-111.787-5.114c.644.348.884 1.153.536 1.797l-2.011 3.72a1.326 1.326 0 0 0 .536 1.797l3.72 2.01c.644.349.883 1.153.536 1.797l-.375.694a1.326 1.326 0 0 1-1.797.536l-3.72-2.011a1.327 1.327 0 0 0-1.797.536l-2.01 3.72a1.326 1.326 0 0 1-1.798.536l-.694-.375a1.326 1.326 0 0 1-.535-1.797l2.01-3.72a1.327 1.327 0 0 0-.536-1.797l-3.72-2.01a1.326 1.326 0 0 1-.536-1.797l.375-.694a1.326 1.326 0 0 1 1.797-.536l3.72 2.01a1.326 1.326 0 0 0 1.797-.535l2.011-3.72a1.325 1.325 0 0 1 1.797-.536l.694.375zm158.363-142.63c.718.599.815 1.665.218 2.383l-2.239 2.688c-.597.718-.5 1.784.218 2.382l2.688 2.238c.717.598.814 1.664.217 2.382l-.037.044a1.691 1.691 0 0 1-2.382.218l-2.688-2.238a1.69 1.69 0 0 0-2.382.217l-2.238 2.688a1.691 1.691 0 0 1-2.382.217l-.045-.037a1.692 1.692 0 0 1-.217-2.382l2.238-2.687a1.692 1.692 0 0 0-.217-2.383l-2.688-2.238a1.69 1.69 0 0 1-.217-2.382l.037-.044a1.69 1.69 0 0 1 2.382-.217l2.687 2.238c.718.598 1.785.5 2.383-.218l2.238-2.687a1.691 1.691 0 0 1 2.382-.218l.044.037zM152.726 42.758a1.637 1.637 0 0 1 2.06 1.055l.05.16a1.636 1.636 0 0 1-1.054 2.059l-3.434 1.107a1.638 1.638 0 0 0-1.056 2.06l1.108 3.434a1.636 1.636 0 0 1-1.056 2.059l-.16.052a1.638 1.638 0 0 1-2.06-1.056l-1.106-3.434a1.636 1.636 0 0 0-2.06-1.055l-3.433 1.107a1.635 1.635 0 0 1-2.06-1.055l-.051-.16a1.636 1.636 0 0 1 1.055-2.06l3.434-1.106a1.636 1.636 0 0 0 1.055-2.06l-1.107-3.433a1.637 1.637 0 0 1 1.056-2.06l.159-.051a1.637 1.637 0 0 1 2.06 1.055l1.107 3.434a1.636 1.636 0 0 0 2.059 1.055l3.434-1.107zM194.11 32.67a1.636 1.636 0 0 1 1.657 1.616l.002.167a1.637 1.637 0 0 1-1.616 1.657l-3.607.045a1.637 1.637 0 0 0-1.616 1.657l.045 3.608a1.636 1.636 0 0 1-1.615 1.656l-.168.002a1.636 1.636 0 0 1-1.657-1.615l-.045-3.608a1.636 1.636 0 0 0-1.657-1.615l-3.607.045a1.636 1.636 0 0 1-1.657-1.616l-.002-.167a1.637 1.637 0 0 1 1.616-1.657l3.607-.045a1.638 1.638 0 0 0 1.616-1.657l-.046-3.608a1.638 1.638 0 0 1 1.616-1.657l.168-.003a1.636 1.636 0 0 1 1.656 1.617l.046 3.608a1.635 1.635 0 0 0 1.656 1.615l3.608-.045zm36.92 100.387a1.665 1.665 0 0 1 1.015 2.125l-1.184 3.347a1.665 1.665 0 0 0 1.014 2.125l3.348 1.184a1.666 1.666 0 0 1 1.015 2.125l-.037.104a1.665 1.665 0 0 1-2.125 1.014l-3.348-1.184a1.665 1.665 0 0 0-2.124 1.015l-1.184 3.348a1.666 1.666 0 0 1-2.125 1.014l-.104-.037a1.666 1.666 0 0 1-1.015-2.125l1.184-3.348a1.664 1.664 0 0 0-1.014-2.124l-3.348-1.184a1.665 1.665 0 0 1-1.014-2.125l.037-.104a1.665 1.665 0 0 1 2.124-1.015l3.348 1.185a1.666 1.666 0 0 0 2.125-1.015l1.184-3.348a1.664 1.664 0 0 1 2.124-1.014l.105.037zm-69.91 36.118a1.717 1.717 0 0 1 2.195 1.034l.004.01a1.716 1.716 0 0 1-1.035 2.194l-3.246 1.166a1.715 1.715 0 0 0-1.034 2.195l1.166 3.246a1.715 1.715 0 0 1-1.035 2.194l-.008.003a1.715 1.715 0 0 1-2.195-1.034l-1.166-3.246a1.716 1.716 0 0 0-2.196-1.035l-3.245 1.167a1.715 1.715 0 0 1-2.195-1.035l-.004-.008a1.716 1.716 0 0 1 1.035-2.195l3.246-1.166a1.716 1.716 0 0 0 1.036-2.195l-1.167-3.246a1.717 1.717 0 0 1 1.034-2.195l.008-.003a1.716 1.716 0 0 1 2.196 1.035l1.166 3.246a1.715 1.715 0 0 0 2.194 1.034l3.246-1.166zm-20.775 122.138a1.326 1.326 0 0 1 1.804.511l.385.688c.357.64.128 1.447-.512 1.805l-3.69 2.062a1.325 1.325 0 0 0-.512 1.804l2.062 3.692a1.326 1.326 0 0 1-.51 1.804l-.69.384a1.326 1.326 0 0 1-1.804-.51l-2.062-3.693a1.326 1.326 0 0 0-1.804-.51l-3.692 2.061a1.325 1.325 0 0 1-1.804-.51l-.384-.689a1.324 1.324 0 0 1 .511-1.804l3.692-2.062a1.325 1.325 0 0 0 .51-1.804l-2.062-3.692a1.326 1.326 0 0 1 .511-1.804l.69-.385a1.326 1.326 0 0 1 1.803.511l2.062 3.692a1.326 1.326 0 0 0 1.804.511l3.692-2.062zm-74.138-129.12a1.717 1.717 0 0 1 2.403.337l.005.008c.57.756.42 1.832-.337 2.402l-2.755 2.076a1.715 1.715 0 0 0-.337 2.403l2.076 2.755c.57.756.42 1.832-.337 2.402l-.008.006a1.715 1.715 0 0 1-2.402-.338l-2.077-2.754a1.715 1.715 0 0 0-2.402-.338l-2.755 2.077a1.715 1.715 0 0 1-2.402-.338l-.006-.007a1.717 1.717 0 0 1 .337-2.403l2.755-2.076c.757-.57.908-1.646.337-2.402l-2.076-2.755a1.716 1.716 0 0 1 .338-2.403l.007-.005a1.717 1.717 0 0 1 2.403.337l2.076 2.755c.57.756 1.646.907 2.402.337l2.755-2.076zm238.482 72.617a1.69 1.69 0 0 1 2.16 1.028l.019.054a1.691 1.691 0 0 1-1.027 2.16l-3.296 1.17a1.691 1.691 0 0 0-1.028 2.16l1.17 3.297a1.69 1.69 0 0 1-1.027 2.16l-.054.019a1.693 1.693 0 0 1-2.16-1.028l-1.171-3.296a1.69 1.69 0 0 0-2.16-1.027l-3.296 1.17a1.691 1.691 0 0 1-2.16-1.027l-.02-.054a1.691 1.691 0 0 1 1.029-2.16l3.296-1.171a1.691 1.691 0 0 0 1.027-2.16l-1.17-3.296a1.691 1.691 0 0 1 1.027-2.16l.054-.02a1.69 1.69 0 0 1 2.16 1.028l1.17 3.296a1.692 1.692 0 0 0 2.16 1.028l3.297-1.171zM251.882 92.685a1.665 1.665 0 0 1 .54-2.292l.094-.058a1.664 1.664 0 0 1 2.291.539l5.556 8.973a1.665 1.665 0 0 1-.539 2.292l-8.973 5.556a1.666 1.666 0 0 1-2.292-.54l-.058-.094a1.664 1.664 0 0 1 .54-2.291l6.047-3.745a1.665 1.665 0 0 0 .54-2.292l-3.746-6.048zm-60.036 80.424a1.716 1.716 0 0 1 1.013 2.204l-2.433 6.576a1.716 1.716 0 0 0 1.013 2.205l6.576 2.433a1.717 1.717 0 0 1 1.014 2.205l-.004.008a1.714 1.714 0 0 1-2.204 1.014l-9.802-3.628a1.715 1.715 0 0 1-1.014-2.204l3.628-9.803a1.716 1.716 0 0 1 2.204-1.013l.009.003zM112.95 22.923a1.665 1.665 0 0 1 .104-2.352l.081-.075a1.664 1.664 0 0 1 2.352.104l7.128 7.783a1.664 1.664 0 0 1-.104 2.352l-7.783 7.127a1.665 1.665 0 0 1-2.352-.103l-.075-.082a1.664 1.664 0 0 1 .104-2.352l5.246-4.804a1.665 1.665 0 0 0 .103-2.352l-4.804-5.246zm-76.187 260.47a1.665 1.665 0 0 0 1.808-1.508l.64-7.084a1.666 1.666 0 0 1 1.808-1.509l.11.01a1.665 1.665 0 0 1 1.51 1.808l-.95 10.511a1.664 1.664 0 0 1-1.809 1.508l-10.51-.95a1.664 1.664 0 0 1-1.509-1.808l.01-.11a1.665 1.665 0 0 1 1.808-1.508l7.084.64zM62.511 63.295a1.691 1.691 0 0 1-1.183-2.079l.015-.055a1.692 1.692 0 0 1 2.079-1.184l10.126 2.781a1.691 1.691 0 0 1 1.183 2.08l-2.78 10.124a1.693 1.693 0 0 1-2.079 1.184l-.056-.016a1.691 1.691 0 0 1-1.183-2.079l1.869-6.808a1.69 1.69 0 0 0-1.183-2.079l-6.808-1.869zm162.366 11.246a1.665 1.665 0 0 1 .758-2.229l.1-.049a1.664 1.664 0 0 1 2.228.758l4.664 9.468a1.666 1.666 0 0 1-.758 2.23L222.4 89.38a1.665 1.665 0 0 1-2.23-.758l-.048-.1a1.664 1.664 0 0 1 .758-2.228l6.38-3.144a1.664 1.664 0 0 0 .759-2.228l-3.143-6.382zm-6.946 43.17a1.664 1.664 0 0 1 .297-2.336l8.347-6.46a1.664 1.664 0 0 1 2.335.298l6.46 8.346a1.665 1.665 0 0 1-.298 2.335l-.088.068a1.664 1.664 0 0 1-2.335-.297l-4.354-5.626a1.665 1.665 0 0 0-2.335-.298l-5.626 4.354a1.664 1.664 0 0 1-2.335-.297l-.068-.088zm33.892-84.385a1.665 1.665 0 0 1-1.26-1.989l.024-.108a1.666 1.666 0 0 1 1.99-1.26l10.297 2.311a1.666 1.666 0 0 1 1.26 1.99l-2.31 10.297a1.666 1.666 0 0 1-1.99 1.26l-.108-.025a1.664 1.664 0 0 1-1.26-1.988l1.558-6.94a1.665 1.665 0 0 0-1.26-1.99l-6.94-1.558zM213.75 204.542a1.715 1.715 0 0 1 2.413.253l.006.007a1.716 1.716 0 0 1-.253 2.413l-5.447 4.415a1.714 1.714 0 0 0-.253 2.413l4.415 5.447a1.716 1.716 0 0 1-.253 2.413l-.007.006a1.715 1.715 0 0 1-2.413-.253l-6.58-8.12a1.716 1.716 0 0 1 .252-2.413l8.12-6.58zm-186.39 13.76a1.665 1.665 0 0 1 1.368-1.918l.109-.018a1.665 1.665 0 0 1 1.917 1.367l1.742 10.41a1.665 1.665 0 0 1-1.367 1.916l-10.41 1.742a1.666 1.666 0 0 1-1.916-1.368l-.018-.109a1.665 1.665 0 0 1 1.367-1.917l7.016-1.174a1.664 1.664 0 0 0 1.367-1.917l-1.174-7.015zm165.532-94.006c.55.482 1.386.426 1.868-.124l2.788-3.184a1.324 1.324 0 0 1 1.87-.124l.595.521c.55.482.605 1.32.124 1.87l-5.055 5.772a1.323 1.323 0 0 1-1.868.123l-5.773-5.054a1.324 1.324 0 0 1-.124-1.868l.522-.596a1.324 1.324 0 0 1 1.868-.124l3.185 2.788zm-84.449 191.432a1.325 1.325 0 0 0 1.357 1.294l4.227-.099a1.326 1.326 0 0 1 1.357 1.294l.018.788a1.325 1.325 0 0 1-1.294 1.357l-7.667.18a1.324 1.324 0 0 1-1.356-1.294l-.18-7.667a1.326 1.326 0 0 1 1.294-1.356l.788-.019a1.327 1.327 0 0 1 1.357 1.294l.1 4.228zm132.646-150.16a1.717 1.717 0 0 0 2.144-1.137l1.012-3.297a1.716 1.716 0 0 1 2.144-1.137l.008.003a1.716 1.716 0 0 1 1.137 2.144l-2.022 6.586a1.716 1.716 0 0 1-2.144 1.136l-6.586-2.022a1.715 1.715 0 0 1-1.137-2.143l.003-.009a1.716 1.716 0 0 1 2.144-1.136l3.297 1.012zM39.546 54.972c.552.754 1.61.918 2.364.367l2.823-2.064a1.691 1.691 0 0 1 2.364.367l.034.046a1.692 1.692 0 0 1-.367 2.364l-5.6 4.095a1.692 1.692 0 0 1-2.365-.367l-4.094-5.601a1.691 1.691 0 0 1 .367-2.364l.046-.034a1.692 1.692 0 0 1 2.364.367l2.064 2.824zm194.936-38.736a1.72 1.72 0 0 1-.325-2.411l4.17-5.472a1.72 1.72 0 0 1 2.412-.325l5.472 4.172a1.72 1.72 0 1 1-2.086 2.735l-2.736-2.085a1.719 1.719 0 0 0-2.41.325l-2.086 2.736a1.72 1.72 0 0 1-2.411.325zm-204.56 91.81a1.325 1.325 0 0 1 1.246-1.4l7.66-.441a1.326 1.326 0 0 1 1.398 1.246l.442 7.659a1.326 1.326 0 0 1-1.246 1.399l-.79.045a1.325 1.325 0 0 1-1.399-1.246l-.244-4.224a1.324 1.324 0 0 0-1.398-1.246l-4.225.244a1.324 1.324 0 0 1-1.398-1.246l-.046-.79zm302.521 184.04c.735.552.883 1.596.331 2.331l-2.134 2.84a1.665 1.665 0 0 0 .331 2.33l2.838 2.133c.736.553.884 1.596.331 2.331l-.066.09a1.664 1.664 0 0 1-2.33.33l-5.59-4.2a1.665 1.665 0 0 1-.33-2.332l4.2-5.589a1.664 1.664 0 0 1 2.331-.33l.088.066zm3.447-208.31a1.665 1.665 0 0 1 2.341.25l.07.086a1.666 1.666 0 0 1-.249 2.34l-2.763 2.233a1.665 1.665 0 0 0-.249 2.34l2.232 2.763a1.665 1.665 0 0 1-.249 2.34l-.086.07a1.665 1.665 0 0 1-2.34-.248l-4.394-5.44a1.665 1.665 0 0 1 .248-2.34l5.44-4.393zm-27.372 126.207a1.691 1.691 0 0 1 1.639-1.742l6.935-.211a1.69 1.69 0 0 1 1.742 1.639l.21 6.934a1.692 1.692 0 0 1-1.638 1.743h-.057a1.69 1.69 0 0 1-1.742-1.638l-.107-3.496a1.691 1.691 0 0 0-1.742-1.64l-3.496.108a1.692 1.692 0 0 1-1.742-1.64l-.002-.057zM150.61 235.709a1.665 1.665 0 0 1 1.018-2.123l.104-.037a1.665 1.665 0 0 1 2.123 1.018l2.32 6.594a1.664 1.664 0 0 1-1.016 2.123l-6.595 2.322a1.665 1.665 0 0 1-2.123-1.018l-.037-.104a1.665 1.665 0 0 1 1.018-2.123l3.35-1.18a1.666 1.666 0 0 0 1.017-2.123l-1.18-3.35zm-10.06-93.963a1.716 1.716 0 0 1-1.379-1.996l.002-.009a1.715 1.715 0 0 1 1.996-1.379l5.085.93a1.715 1.715 0 0 1 1.38 1.996l-.001.01a1.716 1.716 0 0 1-1.998 1.378l-5.084-.93zM19.007 158.024a1.717 1.717 0 0 1 .237-2.415l3.994-3.281a1.717 1.717 0 0 1 2.415.237l.006.007a1.715 1.715 0 0 1-.237 2.414l-3.995 3.282a1.715 1.715 0 0 1-2.414-.237l-.006-.007zm63.467 179.132a.078.078 0 0 1-.076-.082l.3-8.437a.079.079 0 0 1 .082-.076l3.28.117a.078.078 0 0 1 .076.082l-.3 8.437a.08.08 0 0 1-.082.076l-3.28-.117zm9.531-84.654a1.666 1.666 0 0 1 .387-2.323l4.29-3.062a1.665 1.665 0 0 1 2.323.387l.063.09a1.664 1.664 0 0 1-.387 2.322l-4.289 3.063a1.665 1.665 0 0 1-2.323-.387l-.064-.09zm161.553 15.005a1.678 1.678 0 0 1 .712-2.263l.075-.04a1.678 1.678 0 0 1 2.264.713l2.424 4.65c.43.823.11 1.836-.712 2.264l-.075.039a1.676 1.676 0 0 1-2.263-.712l-2.425-4.651zM171.133 7.886a1.715 1.715 0 0 1 .034-2.426l.006-.006a1.715 1.715 0 0 1 2.425.034l3.604 3.705c.661.68.647 1.766-.032 2.427l-.007.006a1.716 1.716 0 0 1-2.427-.034l-3.603-3.706zm-152.55 79.59a1.691 1.691 0 0 1 .09-2.39l.042-.038a1.691 1.691 0 0 1 2.39.089l3.549 3.826a1.691 1.691 0 0 1-.09 2.39l-.042.039a1.692 1.692 0 0 1-2.391-.09l-3.548-3.825zM317.052 119a1.664 1.664 0 0 1-.326-2.33l.067-.09a1.665 1.665 0 0 1 2.332-.326l4.207 3.176c.734.554.88 1.598.326 2.332l-.067.088a1.665 1.665 0 0 1-2.332.326L317.052 119zM195.02 264.261a1.678 1.678 0 0 1 .582-2.3l4.505-2.687a1.678 1.678 0 0 1 2.3.582l.044.073a1.678 1.678 0 0 1-.582 2.3l-4.505 2.687a1.68 1.68 0 0 1-2.3-.582l-.043-.073zM36.434 249.862a1.665 1.665 0 0 1-.875-2.186l.044-.102a1.665 1.665 0 0 1 2.186-.874l12.75 5.464a1.665 1.665 0 0 1 .875 2.186l-.044.101a1.665 1.665 0 0 1-2.186.875l-12.75-5.464zm206.89 44.56a1.678 1.678 0 0 1-1.33-1.965l.016-.083a1.678 1.678 0 0 1 1.965-1.33l13.596 2.618a1.678 1.678 0 0 1 1.33 1.965l-.016.083a1.678 1.678 0 0 1-1.965 1.33l-13.596-2.618zM68.657 198.964a1.715 1.715 0 0 1 .937-2.238l12.74-5.224a1.714 1.714 0 0 1 2.238.936l.004.009a1.716 1.716 0 0 1-.937 2.238l-12.74 5.224a1.717 1.717 0 0 1-2.239-.937l-.003-.008zm82.627 70.214a1.664 1.664 0 0 1 1.484-1.828l13.797-1.436a1.665 1.665 0 0 1 1.828 1.483l.011.11a1.663 1.663 0 0 1-1.483 1.828l-13.797 1.437a1.666 1.666 0 0 1-1.829-1.484l-.01-.11zM111.547 63.52a1.664 1.664 0 0 1-1.233-2.006l.026-.107a1.664 1.664 0 0 1 2.006-1.233l13.492 3.22a1.664 1.664 0 0 1 1.233 2.006l-.025.107a1.666 1.666 0 0 1-2.006 1.233l-13.493-3.22zM306.63 8.781a1.665 1.665 0 0 1-.395-2.321l.064-.09a1.665 1.665 0 0 1 2.321-.395L319.935 14c.75.532.926 1.57.394 2.32l-.064.09a1.665 1.665 0 0 1-2.32.396L306.63 8.78zM185.92 285.698a1.677 1.677 0 0 1-.943-2.177l.03-.079a1.677 1.677 0 0 1 2.178-.943l12.876 5.091a1.678 1.678 0 0 1 .943 2.177l-.031.08a1.677 1.677 0 0 1-2.177.942l-12.876-5.09zm97.152 50.887a3.361 3.361 0 0 1 4.541-1.404.079.079 0 0 1 .033.107l-2.929 5.55a.08.08 0 0 1-.07.043h-3.71a.08.08 0 0 1-.071-.117l2.206-4.18zM45.906 87.896a1.692 1.692 0 0 1 1.642-1.74l13.812-.399A1.692 1.692 0 0 1 63.1 87.4l.002.057a1.692 1.692 0 0 1-1.642 1.74l-13.813.4a1.692 1.692 0 0 1-1.74-1.643l-.001-.057zm263.259 185.587a4.309 4.309 0 0 0 4.745 2.019 1.67 1.67 0 0 1 1.849.777l.058.1c.55.947.055 2.172-1.006 2.444-3.273.839-6.844-.55-8.622-3.613l-.061-.106c-.956-1.648-2.881-2.514-4.995-2.004a1.541 1.541 0 0 0-.414.17l-.574.334c-3.692 2.142-8.438.88-10.581-2.811l-.33-.57a1.588 1.588 0 0 0-.275-.356c-1.231-1.162-2.778-1.543-4.181-1.204-.731.176-1.493-.123-1.87-.773l-.058-.1a1.667 1.667 0 0 1 1.035-2.452c2.598-.661 5.482.056 7.745 2.273.105.103.194.22.268.349l.642 1.107a4.305 4.305 0 0 0 5.878 1.56l.105-.06c3.013-1.748 6.869-1.344 9.73 1.46.106.103.195.22.269.349l.643 1.107zm-114.673-40.841c1.69-.12 3.018-.998 3.719-2.26.365-.657 1.1-1.015 1.835-.852l.113.025a1.667 1.667 0 0 1 1.102 2.422c-1.273 2.359-3.755 3.995-6.92 4.158a1.63 1.63 0 0 1-.434-.04l-1.251-.276a4.306 4.306 0 0 0-5.131 3.266l-.026.119c-.755 3.4-3.665 5.964-7.667 6.169a1.64 1.64 0 0 1-.436-.038l-1.25-.278a4.309 4.309 0 0 0-4.7 2.123 1.67 1.67 0 0 1-1.824.834l-.113-.025a1.668 1.668 0 0 1-1.097-2.43c1.607-2.955 5.035-4.625 8.479-3.861l.119.027c1.86.413 3.8-.416 4.858-2.316.073-.132.123-.275.155-.421l.144-.648c.925-4.167 5.067-6.804 9.234-5.88l.643.144c.147.033.298.048.448.038zm-55.913-36.087c-.302-.689-.14-1.49.435-1.976l.088-.075a1.668 1.668 0 0 1 2.595.592c1.103 2.443.9 5.408-.89 8.023a1.6 1.6 0 0 1-.296.325l-.978.825a4.306 4.306 0 0 0-.513 6.06l.079.093c2.246 2.662 2.519 6.53.258 9.836-.083.122-.185.23-.297.325l-.98.826a4.307 4.307 0 0 0-1.16 5.024 1.67 1.67 0 0 1-.443 1.956l-.088.075c-.837.706-2.13.432-2.582-.565-1.397-3.077-.651-6.835 2.056-9.12l.093-.078c1.456-1.228 1.973-3.275 1.104-5.267a1.552 1.552 0 0 0-.241-.379l-.428-.507c-2.753-3.263-2.338-8.156.924-10.908l.504-.425c.115-.097.219-.207.302-.333.93-1.416 1.036-3.005.458-4.327zm94.892-150a4.308 4.308 0 0 0 2.948 4.231 1.672 1.672 0 0 1 1.154 1.641l-.004.116a1.668 1.668 0 0 1-2.188 1.524c-3.2-1.04-5.47-4.104-5.348-7.63l.004-.122c.066-1.904-1.105-3.66-3.167-4.35a1.576 1.576 0 0 0-.442-.077l-.663-.023c-4.266-.146-7.617-3.736-7.471-8l.023-.66a1.534 1.534 0 0 0-.044-.448c-.426-1.639-1.534-2.783-2.902-3.24-.713-.24-1.2-.898-1.174-1.649l.004-.116a1.667 1.667 0 0 1 2.179-1.527c2.552.82 4.616 2.96 5.355 6.041.034.143.046.29.04.435l-.043 1.281a4.306 4.306 0 0 0 4.15 4.445l.122.004c3.482.12 6.535 2.512 7.47 6.41.034.142.046.29.04.435l-.043 1.28zm-33.443 265.648c1.692.037 3.095-.716 3.909-1.907.424-.62 1.19-.909 1.906-.679l.093.03a1.68 1.68 0 0 1 .882 2.533c-1.488 2.222-4.105 3.617-7.263 3.487a1.637 1.637 0 0 1-.433-.079l-1.22-.392a4.305 4.305 0 0 0-5.408 2.78l-.038.115c-1.065 3.317-4.2 5.6-8.202 5.436a1.637 1.637 0 0 1-.433-.079l-1.218-.392a4.306 4.306 0 0 0-4.87 1.673 1.688 1.688 0 0 1-1.908.667l-.085-.027a1.68 1.68 0 0 1-.875-2.54c1.876-2.785 5.437-4.125 8.79-3.048l.116.037c1.813.583 3.822-.063 5.05-1.857.086-.124.149-.263.195-.408l.202-.63c1.306-4.064 5.674-6.307 9.738-5.002l.625.202c.145.047.295.077.447.08zM327.43 59.973c1.601.554 3.168.266 4.307-.62.593-.462 1.411-.503 2.022-.065l.094.067c.901.645.931 1.97.065 2.66-2.096 1.672-5.02 2.204-7.994 1.114a1.61 1.61 0 0 1-.386-.206l-1.043-.746a4.305 4.305 0 0 0-6 .994l-.07.099c-2.028 2.833-5.71 4.05-9.473 2.67a1.597 1.597 0 0 1-.386-.207l-1.04-.745a4.308 4.308 0 0 0-5.156.11 1.67 1.67 0 0 1-2.005.054l-.095-.068a1.667 1.667 0 0 1-.057-2.665c2.637-2.09 6.446-2.282 9.315-.23l.1.073c1.548 1.108 3.658 1.106 5.376-.227.118-.092.22-.205.307-.327l.387-.54c2.484-3.47 7.33-4.273 10.8-1.79l.535.385c.122.088.255.162.397.21zm-159.936 59.033l-.891.916a4.31 4.31 0 0 0-.666 5.102 1.694 1.694 0 0 1-.251 2.014l-.06.062c-.768.79-2.092.645-2.642-.31-1.686-2.922-1.312-6.73 1.152-9.265l.085-.087c1.327-1.366 1.64-3.453.579-5.35a1.546 1.546 0 0 0-.28-.355l-.474-.461c-3.061-2.975-3.131-7.885-.157-10.947l.459-.471c.106-.108.199-.23.27-.364.784-1.5.733-3.091.027-4.35-.368-.655-.286-1.47.238-2.008l.07-.073a1.678 1.678 0 0 1 2.658.336c1.332 2.319 1.419 5.283-.1 8.056-.07.13-.161.249-.264.355l-.891.917a4.305 4.305 0 0 0 .088 6.08l.087.086c2.498 2.427 3.152 6.248 1.228 9.762-.071.13-.162.249-.265.355zM78.813 307.485c-.004.15.01.302.05.447.45 1.633 1.576 2.76 2.951 3.198.717.228 1.214.879 1.199 1.63l-.003.116a1.667 1.667 0 0 1-2.156 1.56c-2.564-.782-4.659-2.891-5.445-5.96a1.636 1.636 0 0 1-.047-.435l.025-1.28a4.305 4.305 0 0 0-4.218-4.383l-.12-.003c-3.484-.067-6.572-2.412-7.565-6.294a1.632 1.632 0 0 1-.049-.435l.026-1.281a4.308 4.308 0 0 0-3.011-4.186 1.671 1.671 0 0 1-1.178-1.624l.002-.115a1.668 1.668 0 0 1 2.164-1.557c3.215.99 5.53 4.02 5.462 7.548l-.003.122c-.037 1.905 1.16 3.643 3.232 4.304.143.045.293.066.444.068l.664.013c4.267.083 7.672 3.622 7.59 7.889l-.014.658zm52.653-52.342a4.308 4.308 0 0 0 3.317 3.948 1.671 1.671 0 0 1 1.299 1.53l.006.116a1.668 1.668 0 0 1-2.041 1.715c-3.281-.747-5.817-3.594-6.016-7.116l-.006-.122c-.107-1.902-1.43-3.546-3.546-4.049a1.606 1.606 0 0 0-.448-.035l-.662.037c-4.261.239-7.922-3.034-8.162-7.295l-.035-.658c-.008-.15-.034-.3-.085-.442-.573-1.594-1.78-2.634-3.184-2.967-.73-.173-1.276-.785-1.318-1.535l-.005-.116a1.667 1.667 0 0 1 2.032-1.717c2.616.586 4.864 2.532 5.878 5.534.047.138.073.283.08.429l.073 1.279a4.304 4.304 0 0 0 4.534 4.053l.12-.006c3.48-.195 6.734 1.912 8.018 5.708.047.139.072.284.08.43l.071 1.279zm6.568-147.092c.353 1.656 1.408 2.85 2.755 3.368.7.27 1.158.95 1.099 1.699l-.01.115a1.669 1.669 0 0 1-2.245 1.429c-2.513-.934-4.478-3.163-5.08-6.274a1.599 1.599 0 0 1-.021-.437l.1-1.278a4.306 4.306 0 0 0-3.947-4.626l-.121-.01c-3.473-.275-6.415-2.8-7.175-6.734a1.601 1.601 0 0 1-.022-.437l.1-1.278a4.308 4.308 0 0 0-2.755-4.358 1.673 1.673 0 0 1-1.08-1.691l.01-.116a1.667 1.667 0 0 1 2.253-1.424c3.15 1.18 5.28 4.344 5.002 7.86l-.01.122c-.15 1.899.94 3.706 2.969 4.489.14.054.289.083.439.095l.66.052c4.257.337 7.444 4.073 7.108 8.328l-.053.657c-.013.15-.007.302.024.449zM95.53 172.564a6.89 6.89 0 0 0 6.29 7.352c.043.003.075.04.072.083l-.236 3.274a.08.08 0 0 1-.086.074c-5.636-.45-9.88-5.38-9.471-11.03a6.888 6.888 0 0 0-6.29-7.352.078.078 0 0 1-.072-.084l.236-3.273a.08.08 0 0 1 .086-.074c5.636.45 9.878 5.381 9.47 11.03zm165.582 6.731l.048-.034c.865-.61 2.083-.289 2.514.679 1.966 4.408.612 9.747-3.478 12.633-2.712 1.914-3.62 5.447-2.339 8.376.327.748.106 1.621-.56 2.091l-.048.034c-.866.61-2.083.289-2.515-.679-1.966-4.408-.61-9.747 3.478-12.633 2.713-1.914 3.62-5.446 2.34-8.376-.327-.748-.107-1.621.56-2.091zm-189.74 50.63a6.893 6.893 0 0 0 8.608 1.352 1.679 1.679 0 0 1 2.109.312l.075.084a1.664 1.664 0 0 1-.38 2.535c-4.157 2.478-9.633 1.75-12.977-1.99-2.217-2.481-5.842-2.974-8.608-1.353a1.677 1.677 0 0 1-2.108-.312l-.075-.083a1.664 1.664 0 0 1 .38-2.536c4.157-2.477 9.634-1.75 12.977 1.99zm229.312-85.717c1.903 2.72 5.433 3.642 8.367 2.371.749-.323 1.621-.099 2.089.57l.033.047c.607.869.281 2.084-.688 2.512-4.416 1.948-9.749.573-12.62-3.526-1.903-2.72-5.432-3.641-8.367-2.372-.749.323-1.621.1-2.088-.569l-.034-.048c-.607-.868-.281-2.084.688-2.512 4.416-1.949 9.75-.574 12.62 3.527zm17.11 178.922a6.89 6.89 0 0 0 8.973 3.617.077.077 0 0 1 .102.04l1.302 3.013a.08.08 0 0 1-.042.106c-5.207 2.203-11.247-.212-13.494-5.41a6.89 6.89 0 0 0-8.974-3.618.077.077 0 0 1-.102-.04l-1.303-3.013a.081.081 0 0 1 .043-.106c5.207-2.203 11.247.212 13.494 5.411zm-264.393 8.22a.08.08 0 0 1 .087-.073c5.11.43 9.056 4.543 9.423 9.517a.08.08 0 0 1-.08.086h-3.3a.079.079 0 0 1-.078-.07c-.35-3.2-2.918-5.812-6.23-6.103a.078.078 0 0 1-.072-.084l.25-3.272zm19.89-218.902c2.42 2.408 6.199 2.641 8.88.703a1.308 1.308 0 0 1 1.698.116l.583.58a1.327 1.327 0 0 1-.147 2.006c-4.03 3.001-9.773 2.682-13.44-.966-2.42-2.409-6.198-2.641-8.88-.703a1.31 1.31 0 0 1-1.697-.116l-.583-.58a1.328 1.328 0 0 1 .147-2.006c4.03-3.002 9.773-2.683 13.44.966zm257.925 120.541l2.86-1.61a.08.08 0 0 1 .11.031c2.736 4.947.967 11.207-3.969 13.986a6.889 6.889 0 0 0-2.657 9.303.08.08 0 0 1-.029.107l-2.86 1.61a.08.08 0 0 1-.11-.03c-2.736-4.949-.967-11.208 3.968-13.987a6.89 6.89 0 0 0 2.657-9.304.077.077 0 0 1 .03-.106zM218.521 333.08c.044.001.08.038.08.082a10.3 10.3 0 0 1-3.7 7.7.081.081 0 0 1-.053.018h-10.952c-.086 0-.11-.117-.03-.152a10.244 10.244 0 0 1 4.33-.897 6.887 6.887 0 0 0 6.964-6.715.078.078 0 0 1 .08-.077l3.281.041zm3.724-54.599c-.04-3.715 2.556-6.855 6.044-7.638a1.33 1.33 0 0 1 1.628 1.277l.01.81a1.336 1.336 0 0 1-1.014 1.301 4.309 4.309 0 0 0-3.228 4.213l.001.121c.04 3.496-2.23 6.665-6.107 7.763a1.326 1.326 0 0 1-1.685-1.262l-.023-2.115h.122c1.918-.022 3.63-1.288 4.216-3.405a1.29 1.29 0 0 0 .044-.355l-.008-.71zm14.832-29.606a.078.078 0 0 1 .011.018l.59 1.282a.079.079 0 0 1-.039.105l-3.052 1.405-.05-.11c-.824-1.787-2.754-2.841-4.997-2.431l-.02.007-.8.368c-3.852 1.774-8.425.105-10.235-3.72a.08.08 0 0 1 .04-.107l2.98-1.373a.08.08 0 0 1 .104.037 4.305 4.305 0 0 0 5.672 2.038l.11-.051c3.22-1.483 7.1-.664 9.686 2.532zm-61.91-100.983c3.454.598 6.162 3.414 6.53 7.44.009.1.004.2-.013.296l-.038.22a1.13 1.13 0 0 1-1.305.92l-2.277-.395.02-.12c.329-1.898-.614-3.819-2.607-4.776a1.144 1.144 0 0 0-.291-.09l-.725-.126c-3.77-.653-6.432-3.945-6.42-7.649.002-.692.64-1.209 1.32-1.09l1.188.205c.518.09.917.524.935 1.05a4.306 4.306 0 0 0 3.564 4.094l.12.021zm164.958-6.548c.224-.036.447-.061.67-.077a.08.08 0 0 1 .085.08v3.299a.08.08 0 0 1-.072.079 2.315 2.315 0 0 0-.142.016 4.277 4.277 0 0 0-2.805 1.723l-.072.098c-2.05 2.827-5.67 3.858-8.81 2.767-1.096-.381-1.524-1.702-.844-2.641a1.737 1.737 0 0 1 1.983-.605 4.309 4.309 0 0 0 4.887-1.541l.07-.098a7.69 7.69 0 0 1 5.05-3.1zm-.15 66.93a.08.08 0 0 1-.04-.106l.794-1.734c.036-.077.152-.052.152.033v2.035a.08.08 0 0 1-.104.076 7.432 7.432 0 0 1-.802-.303zm-228.053 71.51c-.93-3.598.837-7.269 4.035-8.866a1.33 1.33 0 0 1 1.887.85l.203.783a1.334 1.334 0 0 1-.671 1.507 4.307 4.307 0 0 0-2.123 4.864l.03.117c.876 3.385-.567 7.005-4.067 9.002a1.326 1.326 0 0 1-1.939-.822l-.53-2.047.119-.03c1.857-.48 3.215-2.12 3.277-4.317a1.293 1.293 0 0 0-.043-.355l-.178-.687zM59.335 140.386l.01.02.407 1.351a.08.08 0 0 1-.053.1l-3.218.97-.035-.117c-.568-1.883-2.335-3.194-4.613-3.096a.066.066 0 0 0-.02.003l-.843.254c-4.06 1.226-8.36-1.058-9.624-5.096a.081.081 0 0 1 .053-.1l3.143-.95a.079.079 0 0 1 .097.052 4.305 4.305 0 0 0 5.337 2.801l.116-.035c3.393-1.024 7.122.321 9.243 3.843zm278.125 34.215a7.696 7.696 0 0 1 3.372.642.081.081 0 0 1 .048.073v3.897c0 .07-.085.105-.136.054a4.283 4.283 0 0 0-3.16-1.227l-.121.004c-3.542.129-6.806-2.12-7.963-6.066a.064.064 0 0 1-.003-.02l-.051-1.412a.08.08 0 0 1 .076-.083l3.359-.12.004.12c.07 1.966 1.446 3.684 3.675 4.168a.15.15 0 0 0 .02.002l.88-.031zM205.194 94.24a1.324 1.324 0 0 1 .27 2.087l-1.502 1.491-.086-.086c-1.35-1.36-3.453-1.707-5.38-.652-.105.057-.2.132-.284.216l-.504.5c-2.636 2.617-6.696 2.943-9.688.99a1.33 1.33 0 0 1-.222-2.059l.577-.573a1.333 1.333 0 0 1 1.638-.18 4.307 4.307 0 0 0 5.271-.619l.086-.086c2.481-2.464 6.334-3.044 9.824-1.029zM97.503 80.402a1.737 1.737 0 0 1-.265 2.056 4.307 4.307 0 0 0-.608 5.087l.06.105c1.759 3.081 1.28 7.021-1.686 9.877l-.153.088a1.324 1.324 0 0 1-1.807-.494l-1.05-1.837.107-.06c1.666-.95 2.546-2.89 2.028-5.026a1.253 1.253 0 0 0-.135-.33l-.352-.617c-1.737-3.042-1.177-6.777 1.127-9.189a1.72 1.72 0 0 1 2.734.34zm-84.164 39.896c0-.008 0-.017-.002-.025-.723-3.376-5.125-3.033-5.317.414 0 .008 0 .017.002.025.723 3.377 5.126 3.034 5.317-.414zm3.545-.3c0 .007.002.015 0 .022-.43 8.066-10.732 8.87-12.408.97-.002-.009-.002-.017-.002-.025.43-8.065 10.732-8.869 12.41-.968zm-5.94 138.84c.34-1.127 1.72-1.565 2.635-.822a6.033 6.033 0 0 1 1.97 6.411 6.027 6.027 0 0 1-7.881 3.9 1.653 1.653 0 0 0-1.488.152c-1.943 1.281-1.764 3.416-.512 4.444a1.64 1.64 0 0 1 .509 1.741l-.035.115c-.34 1.129-1.72 1.565-2.633.822a6.029 6.029 0 0 1-1.97-6.411 6.027 6.027 0 0 1 7.88-3.9 1.647 1.647 0 0 0 1.488-.153c1.944-1.28 1.764-3.413.512-4.442a1.64 1.64 0 0 1-.51-1.741l.036-.115zm-3.406 64.433a1.72 1.72 0 0 1 2.822-1.967l7.87 11.289a1.72 1.72 0 1 1-2.823 1.967l-7.869-11.29zm3.537-278.899c.629-.853 1.885-.932 2.6-.15 3.256 3.563 3.655 9.057.685 13.086-1.97 2.672-1.717 6.31.423 8.686.546.607.612 1.504.127 2.161l-.034.047c-.63.853-1.886.931-2.6.15-3.256-3.563-3.656-9.057-.685-13.086 1.97-2.672 1.717-6.31-.423-8.686-.546-.607-.612-1.504-.127-2.161l.034-.047zM2.987 145.507a4.266 4.266 0 0 0-2.9-.798.078.078 0 0 1-.087-.077v-3.295a.08.08 0 0 1 .076-.08 7.684 7.684 0 0 1 4.931 1.465l.098.072-2.02 2.784-.098-.071zm6.296 58.921c-1.622 3.54-5.594 5.271-9.225 4.2A.08.08 0 0 1 0 208.55v-2.429c0-.012.002-.023.007-.033l.414-.904a.079.079 0 0 1 .103-.039 4.305 4.305 0 0 0 5.63-2.15l.05-.11c1.477-3.223 4.953-5.129 8.998-4.39.007.001.014.004.02.006l1.283.588c.04.02.058.066.039.105l-1.4 3.056-.11-.05c-1.79-.82-3.94-.363-5.374 1.41l-.011.018-.367.8zm-4.69-22.451a.08.08 0 0 1-.076.084l-3.282.119a.078.078 0 0 1-.08-.075 4.279 4.279 0 0 0-1.134-2.675.078.078 0 0 1-.021-.052v-3.989a.08.08 0 0 1 .114-.073 7.75 7.75 0 0 1 4.479 6.661zM132.548 10.725C127.716 9.34 124.62 4.815 124.833 0h4.134c-.219 3.019 1.696 5.889 4.718 6.755 2.945.844 6.007-.482 7.47-3.026.468-.816 1.415-1.227 2.32-.968l.078.023c1.25.358 1.864 1.79 1.225 2.924-2.367 4.202-7.395 6.402-12.23 5.016zm208.313-.096a1.5 1.5 0 0 1-2.114.156l-.335-.29a1.5 1.5 0 0 1-.156-2.114l2.485-2.879a.08.08 0 0 1 .14.052v5.023a.081.081 0 0 1-.02.052zm-60.404-2.6a1.72 1.72 0 1 1-3.042-1.606l3.367-6.38a.08.08 0 0 1 .071-.042h3.71c.06 0 .098.063.07.116l-4.176 7.913zM59.481 1.207a6.743 6.743 0 0 0-.012-1.12.079.079 0 0 1 .078-.086h3.295a.08.08 0 0 1 .08.075c.027.459.025.923-.01 1.393a6.89 6.89 0 0 0 6.257 7.379.078.078 0 0 1 .072.084l-.25 3.272a.08.08 0 0 1-.086.074c-5.635-.474-9.856-5.424-9.424-11.071zm138.345 7.937a.081.081 0 0 1-.08-.082c.082-3.98 2.423-7.4 5.777-9.052a.073.073 0 0 1 .036-.008h11.095c.074 0 .109.095.05.14a10.27 10.27 0 0 1-6.552 2.25 6.887 6.887 0 0 0-6.965 6.716.078.078 0 0 1-.08.077l-3.281-.041zM1.965 3.065a.08.08 0 0 1 .112-.008L4.56 5.2a.08.08 0 0 1 .008.112l-4.43 5.133A.08.08 0 0 1 0 10.393V5.37c0-.02.006-.038.019-.052l1.945-2.254z"/></svg>