<svg xmlns="http://www.w3.org/2000/svg" width="394" height="460" viewBox="0 0 394 460">
    <g fill="none" fill-rule="evenodd">
        <path fill="#FFF" d="M393.812 262.65c0 108.749-88.158 196.907-196.906 196.907S0 371.399 0 262.65 88.158 65.745 196.906 65.745s196.906 88.158 196.906 196.906"/>
        <path fill="#39C37E" d="M53.298 397.35c35.922 38.284 86.968 62.207 143.608 62.207 56.655 0 107.713-23.937 143.637-62.238l-142.448-30.873-144.797 30.905z"/>
        <path fill="#FFD03F" d="M301.853 195.177l-.004-57.189c-1.178-45.905-48.457-90.41-104.927-90.41-56.467 0-103.746 44.505-104.926 90.41l-.004 57.189c-10.231.273-18.442 8.647-18.442 18.945v29.325c0 10.47 8.487 18.957 18.957 18.957h4.291a265.31 265.31 0 0 0 2.496 11.545l5.047 21.052a67.893 67.893 0 0 0 48.067 49.648l.589.162c3.416.936 6.856 1.757 10.312 2.471l.001 30.512c0 18.621 15.094 33.721 33.716 33.721 18.626 0 33.728-15.095 33.728-33.72l.001-30.56c3.76-.783 7.502-1.696 11.215-2.743a67.892 67.892 0 0 0 47.616-49.591l5.032-21.091a264.948 264.948 0 0 0 2.457-11.406h4.263c10.47 0 18.957-8.487 18.957-18.957v-29.325c0-10.298-8.211-18.672-18.442-18.945"/>
        <path fill="#E79942" d="M172.601 269.154a5 5 0 0 1-4.693-6.73l2.1-5.71c2.305-6.26 7.555-10.886 13.807-12.52l-.021-35.913a5.001 5.001 0 0 1 4.998-5.004h.003c2.76 0 5 2.237 5.002 4.998l.024 40.273a5.003 5.003 0 0 1-5.001 5.004h-.001c-4.18 0-7.966 2.659-9.423 6.617l-2.1 5.71a5.003 5.003 0 0 1-4.695 3.275"/>
        <path fill="#000" d="M314.09 66.349h.015c0-34.436-25.38-62.349-56.69-62.349H144.507c0 16.805 6.047 32.055 15.877 43.268-35.193 10.427-62.085 39.795-69.096 76.046a99.22 99.22 0 0 0-1.685 23.775l.179 72.451c8.837 0 16-7.163 16-16v-13.612a50.252 50.252 0 0 1 14.022-34.821v-16.662c0-8.357 6.774-15.13 15.13-15.13h124.81c8.356 0 15.132 6.773 15.132 15.13v16.662a50.253 50.253 0 0 1 14.02 34.821v13.612c0 8.837 7.164 16 16 16l.18-72.451a99.22 99.22 0 0 0-1.685-23.775 97.994 97.994 0 0 0-3.792-13.964c8.79-9.462 14.507-24.803 14.507-42.122 0-.295-.009-.587-.015-.88"/>
        <path fill="#000" d="M134.26 184.882a5.837 5.837 0 0 1-2.299-11.201 49.966 49.966 0 0 1 32.577-2.286 5.834 5.834 0 0 1 4.108 7.157 5.834 5.834 0 0 1-7.156 4.108 38.245 38.245 0 0 0-24.937 1.75 5.811 5.811 0 0 1-2.293.472M259.587 185.563a5.822 5.822 0 0 1-2.084-.387 38.242 38.242 0 0 0-24.986-.777 5.833 5.833 0 0 1-7.311-3.827 5.834 5.834 0 0 1 3.826-7.311 49.961 49.961 0 0 1 32.64 1.015 5.835 5.835 0 0 1-2.085 11.287M158.563 202.8c-.01 1.066-.246 2.208-.794 3.445-1.688 3.807-5.352 6.472-9.512 6.256-5.168-.267-9.278-4.543-9.278-9.778v-.05c.016-2.55 2.213-4.555 4.762-4.555h10.054c2.6 0 4.795 2.083 4.768 4.682M254.865 202.67c.008 1.071-.206 2.221-.727 3.467-1.59 3.804-5.165 6.467-9.286 6.375-5.305-.118-9.57-4.455-9.57-9.789v-.051c.015-2.547 2.2-4.554 4.748-4.554h10.085c2.548 0 4.733 2.005 4.75 4.552"/>
        <path fill="#E79942" d="M221.2 305.231h-48.555a5.001 5.001 0 0 1 0-10.003H221.2a5.001 5.001 0 1 1 0 10.003"/>
    </g>
</svg>
