<svg width="268" height="319" viewBox="0 0 268 319" fill="none" xmlns="http://www.w3.org/2000/svg"><g filter="url(#filter0_d)" fill-rule="evenodd" clip-rule="evenodd"><path d="M264.875 174.427c0 72.341-58.474 130.985-130.606 130.985S3.663 246.768 3.663 174.427c0-72.341 58.475-130.986 130.606-130.986 72.132 0 130.606 58.645 130.606 130.986z" fill="#fff"/><path d="M138.007 231.715l-31.858 14.128a195.35 195.35 0 01-63.766 16.164 16.96 16.96 0 00-4.375.939c23.875 26.1 58.16 42.466 96.261 42.466 38.645 0 73.365-16.838 97.277-43.592a195.137 195.137 0 01-61.79-16.01l-31.749-14.095z" fill="#FF7348"/><path d="M209.834 126.901a21.192 21.192 0 00-7.897.24l-.142-1.505-.004-51.492c-.002-24.416-19.739-44.209-44.085-44.209h-39.511c-24.348 0-44.085 19.795-44.086 44.213l-.001 51.537-.137 1.458a21.203 21.203 0 00-7.911-.242c-3.643.575-6.278 3.832-6.278 7.531v14.849c0 7.914 4.878 14.933 12.132 17.739a65.019 65.019 0 0018.084 36.937l18.891 19.195a41.17 41.17 0 005.16 4.44v14.748l-7.9 3.504a197.313 197.313 0 01-7.32 3.068c8.116 13.901 26.93 28.085 43.017 27.145 16.539-.968 30.05-12.375 35.711-26.985a193.433 193.433 0 01-7.801-3.261l-7.733-3.434v-14.904a41.307 41.307 0 004.996-4.321l18.891-19.195a65.014 65.014 0 0018.085-36.943c7.246-2.81 12.117-9.824 12.117-17.733v-14.849c0-3.699-2.634-6.956-6.278-7.531z" fill="#FFD03F"/><path d="M115.315 172.434h45.278c7.675 0 13.64 6.703 12.769 14.351l-3.852 33.836-2.492 2.532c-15.989 16.247-42.139 16.247-58.129 0l-2.492-2.532-3.851-33.836c-.871-7.648 5.093-14.351 12.769-14.351z" fill="#55198D"/><path d="M168.58 131.5h-6.69c-1.69 0-3.14 1.335-3.149 3.029v.034c0 3.548 2.828 6.434 6.347 6.512 2.733.061 5.105-1.711 6.159-4.24.346-.829.488-1.594.483-2.307-.011-1.694-1.461-3.028-3.15-3.028zm-54.411 0H107.5c-1.691 0-3.148 1.333-3.158 3.029v.034c0 3.483 2.725 6.327 6.153 6.505 2.76.143 5.19-1.629 6.309-4.162.364-.823.52-1.583.528-2.291.017-1.73-1.439-3.115-3.163-3.115zm10.492-15.056a3.888 3.888 0 00-1.572-5.258 33.056 33.056 0 00-21.385-3.457l-8.414 1.488a3.88 3.88 0 00-3.14 4.496 3.872 3.872 0 004.484 3.149l8.414-1.488a25.3 25.3 0 0116.369 2.646 3.843 3.843 0 001.833.465 3.87 3.87 0 003.411-2.041zm29.99 2.041a3.867 3.867 0 01-3.41-2.041 3.888 3.888 0 011.572-5.259 33.058 33.058 0 0121.385-3.456l8.414 1.488a3.88 3.88 0 013.139 4.496 3.87 3.87 0 01-4.483 3.149l-8.414-1.488a25.303 25.303 0 00-16.37 2.646 3.84 3.84 0 01-1.833.465z" fill="#000"/><path d="M124.761 166.447c-.894 0-1.784-.36-2.438-1.069a3.335 3.335 0 01.186-4.702l3.628-3.361a13.425 13.425 0 004.284-9.816l.004-17.834a3.322 3.322 0 013.317-3.327h.001a3.322 3.322 0 013.317 3.328l-.004 17.835a20.108 20.108 0 01-6.417 14.702l-3.628 3.361a3.3 3.3 0 01-2.25.883z" fill="#E79942"/><path d="M181.335 139.394c-1.088 4.628-5.159 7.859-9.9 7.859h-11.82a10.14 10.14 0 01-9.9-7.859l-3.069-13.049c12.228-3.818 25.529-3.818 37.758 0l-3.069 13.049zm-65.042 7.859h-11.821a10.14 10.14 0 01-9.9-7.859l-3.068-13.049c12.228-3.818 25.53-3.818 37.758 0l-3.07 13.049c-1.088 4.628-5.159 7.859-9.899 7.859zm87.309-23.238h-16.636a1.521 1.521 0 00-.28-.129c-13.646-4.598-28.676-4.598-42.322 0a1.524 1.524 0 00-.994 1.792l.596 2.536h-12.025l.596-2.536a1.523 1.523 0 00-.994-1.792c-13.645-4.598-28.676-4.598-42.321 0-.1.034-.193.078-.28.129H72.305a1.52 1.52 0 00-1.518 1.523c0 .84.68 1.521 1.518 1.521h16.248l3.065 13.034c1.413 6.009 6.699 10.205 12.854 10.205h11.821c6.155 0 11.441-4.196 12.854-10.205l2.078-8.834h13.458l2.077 8.834c1.414 6.009 6.7 10.205 12.855 10.205h11.82c6.156 0 11.442-4.196 12.855-10.205l3.065-13.034h16.247a1.52 1.52 0 001.518-1.521 1.52 1.52 0 00-1.518-1.523z" fill="#0E0F2D"/><path d="M154.056 189.877h-32.205a3.322 3.322 0 01-3.317-3.327 3.322 3.322 0 013.317-3.327h32.205a3.322 3.322 0 013.318 3.327 3.322 3.322 0 01-3.318 3.327z" fill="#E79942"/></g><defs><filter id="filter0_d" x="0" y="0" width="268" height="319" filterUnits="userSpaceOnUse" color-interpolation-filters="sRGB"><feFlood flood-opacity="0" result="BackgroundImageFix"/><feColorMatrix in="SourceAlpha" type="matrix" values="0 0 0 0 0 0 0 0 0 0 0 0 0 0 0 0 0 0 127 0"/><feOffset dy="10"/><feGaussianBlur stdDeviation="1.5"/><feColorMatrix type="matrix" values="0 0 0 0 0.0634303 0 0 0 0 0.313801 0 0 0 0 0.683396 0 0 0 0.3 0"/><feBlend mode="normal" in2="BackgroundImageFix" result="effect1_dropShadow"/><feBlend mode="normal" in="SourceGraphic" in2="effect1_dropShadow" result="shape"/></filter></defs></svg>