<svg width="268" height="319" viewBox="0 0 268 319" fill="none" xmlns="http://www.w3.org/2000/svg"><g filter="url(#filter0_d)" fill-rule="evenodd" clip-rule="evenodd"><path d="M264.875 174.55c0 72.341-58.623 130.985-130.937 130.985C61.623 305.535 3 246.891 3 174.55 3 102.209 61.623 43.564 133.938 43.564c72.314 0 130.937 58.645 130.937 130.986z" fill="#fff"/><path d="M231.103 262.348c-8.815-9.346-20.124-16.436-33.125-20.129l-64.99-18.461-64.989 18.461c-12.518 3.556-23.47 10.264-32.143 19.095 23.99 27.119 59.036 44.222 98.082 44.222 38.548 0 73.204-16.668 97.165-43.188z" fill="#FF9D37"/><path d="M203.699 129.15l-.003-38.043c-.785-30.537-32.224-60.142-69.773-60.142-37.551 0-68.99 29.605-69.774 60.142l-.003 38.043c-6.803.182-12.263 5.752-12.263 12.602v14.007c0 6.964 5.644 12.61 12.606 12.61h3.454a157.905 157.905 0 005.368 18.626l6.479 18.177c5.022 14.091 17.236 24.133 31.635 26.597l.001 10.342a31.82 31.82 0 0010.878 23.958l11.63 10.165 11.555-10.179a31.822 31.822 0 0010.785-23.877v-10.31c14.426-2.436 26.68-12.476 31.72-26.593l6.512-18.242a157.885 157.885 0 005.387-18.664h3.463c6.962 0 12.607-5.646 12.607-12.61v-14.007c0-6.85-5.461-12.42-12.264-12.602z" fill="#FFD03F"/><path d="M150.066 186.668h-32.287a3.327 3.327 0 010-6.654h32.287a3.326 3.326 0 010 6.654zm-9.562-23.972h-11.655a3.327 3.327 0 010-6.654h8.332l.011-14.17a38.6 38.6 0 014.465-17.896 3.327 3.327 0 015.878 3.114 31.9 31.9 0 00-3.691 14.793l-.014 17.488a3.327 3.327 0 01-3.326 3.325z" fill="#E79942"/><path d="M184.158 184.418l-11.383-8.531c-11.52-8.636-27.328-8.706-38.926-.188-11.596-8.518-27.405-8.448-38.926.188l-11.284 8.458c-6.051-9.356-9.567-20.507-9.567-32.48v-31.142l7.292-48.812 17.679 4.792c19.875 5.386 36.773 5.448 51.505 3.46 20.156-2.721 38.799 10.984 41.806 31.106l1.412 9.454.007.038v31.104c0 12.005-3.534 23.182-9.615 32.553zm-50.235 27.319c-14.564 0-27.91-5.205-38.287-13.854l38.213-22.07 38.3 22.12c-10.368 8.619-23.692 13.804-38.226 13.804zm16.523-182.849l-30.166-7.902c-18.522-4.851-36.65 8.022-38.718 26.52-12.537 12.664-19.96 30.357-19.005 49.656l.935 18.91v76.918a36.182 36.182 0 0017.463 30.966l29.753 17.983a44.667 44.667 0 0046.135.047l29.984-18.04a36.185 36.185 0 0017.526-31.004v-76.88l.935-18.902c1.676-33.903-22.499-62.851-54.842-68.272z" fill="#534741"/><path d="M183.849 119.424c-.073 0-.145-.002-.218-.007l-30.847-1.708a3.881 3.881 0 01-3.66-4.091 3.888 3.888 0 014.089-3.66l30.846 1.708a3.883 3.883 0 01-.21 7.758zm-99.853 0a3.88 3.88 0 01-.238-7.756l27.431-1.708a3.873 3.873 0 014.114 3.632 3.88 3.88 0 01-3.632 4.115l-27.43 1.709a3.353 3.353 0 01-.245.008zm22.11 11.981c-.007.709-.163 1.469-.528 2.292-1.123 2.533-3.559 4.305-6.325 4.162a6.513 6.513 0 01-6.17-6.505v-.034c.011-1.696 1.472-3.029 3.167-3.029h6.686c1.728 0 3.188 1.385 3.17 3.114zm69.187-.086c.005.712-.137 1.478-.483 2.306-1.057 2.53-3.435 4.302-6.175 4.241a6.513 6.513 0 01-6.364-6.512v-.034c.01-1.694 1.464-3.029 3.157-3.029h6.707c1.693 0 3.147 1.334 3.158 3.028z" fill="#000"/><path d="M184.809 93.861a36.588 36.588 0 017.545 17.408l1.412 9.453.007.033v7.535h10.58v-12.229l.935-18.902c.054-1.105.079-2.204.08-3.298h-20.559zM74.072 128.29v-7.568l4.013-26.86H62.477c0 1.094.025 2.193.08 3.299l.935 18.91v12.219h10.58z" fill="#988575"/></g><defs><filter id="filter0_d" x="0" y="0" width="268" height="319" filterUnits="userSpaceOnUse" color-interpolation-filters="sRGB"><feFlood flood-opacity="0" result="BackgroundImageFix"/><feColorMatrix in="SourceAlpha" type="matrix" values="0 0 0 0 0 0 0 0 0 0 0 0 0 0 0 0 0 0 127 0"/><feOffset dy="10"/><feGaussianBlur stdDeviation="1.5"/><feColorMatrix type="matrix" values="0 0 0 0 0.0634303 0 0 0 0 0.313801 0 0 0 0 0.683396 0 0 0 0.3 0"/><feBlend mode="normal" in2="BackgroundImageFix" result="effect1_dropShadow"/><feBlend mode="normal" in="SourceGraphic" in2="effect1_dropShadow" result="shape"/></filter></defs></svg>