<svg width="268" height="319" viewBox="0 0 268 319" fill="none" xmlns="http://www.w3.org/2000/svg"><g filter="url(#filter0_d)" fill-rule="evenodd" clip-rule="evenodd"><path d="M264.875 174.72c0 72.341-58.623 130.985-130.937 130.985C61.623 305.705 3 247.061 3 174.72 3 102.379 61.623 43.734 133.938 43.734c72.314 0 130.937 58.645 130.937 130.986z" fill="#fff"/><path d="M38.442 264.324c23.887 25.466 57.831 41.38 95.496 41.38 37.674 0 71.626-15.923 95.515-41.401l-94.725-20.537-96.286 20.558z" fill="#39C37E"/><path d="M203.724 129.833l-.002-38.042c-.784-30.538-32.222-60.143-69.773-60.143-37.55 0-68.989 29.605-69.774 60.143l-.003 38.042c-6.803.182-12.263 5.752-12.263 12.603v19.508c0 6.964 5.644 12.61 12.606 12.61h2.853c.497 2.571 1.05 5.131 1.66 7.68l3.356 14.004a45.157 45.157 0 0031.964 33.027l.391.107c2.272.623 4.559 1.17 6.858 1.645v20.296c.001 12.388 10.038 22.43 22.421 22.432 12.385.002 22.427-10.041 22.428-22.431l.001-20.329c2.5-.521 4.988-1.128 7.457-1.825a45.157 45.157 0 0031.664-32.988l3.345-14.031a174.778 174.778 0 001.634-7.587h2.835c6.962 0 12.607-5.646 12.607-12.61v-19.508c0-6.851-5.461-12.421-12.265-12.603z" fill="#FFD03F"/><path d="M117.775 179.045a3.326 3.326 0 01-3.12-4.476l1.396-3.799a13.429 13.429 0 019.182-8.329l-.015-23.889a3.326 3.326 0 013.324-3.329h.002a3.326 3.326 0 013.326 3.325l.016 26.79a3.329 3.329 0 01-3.326 3.329c-2.779 0-5.297 1.769-6.266 4.401l-1.397 3.798a3.326 3.326 0 01-3.122 2.179z" fill="#E79942"/><path d="M211.862 44.136h.01c0-22.908-16.878-41.476-37.697-41.476H99.093c0 11.179 4.021 21.324 10.558 28.783-23.402 6.936-41.285 26.472-45.947 50.587a66.027 66.027 0 00-1.12 15.815l.118 48.196c5.877 0 10.64-4.765 10.64-10.644v-9.054a33.434 33.434 0 019.324-23.164V92.095c0-5.56 4.505-10.065 10.062-10.065h82.995c5.557 0 10.062 4.506 10.062 10.065v11.084a33.436 33.436 0 019.324 23.164v9.054c0 5.879 4.763 10.644 10.639 10.644l.119-48.196a66.032 66.032 0 00-1.12-15.815 65.219 65.219 0 00-2.522-9.29c5.845-6.293 9.647-16.498 9.647-28.02 0-.195-.006-.39-.01-.584z" fill="#000"/><path d="M92.28 122.986a3.883 3.883 0 01-1.528-7.451 33.219 33.219 0 0121.662-1.52 3.881 3.881 0 01-2.028 7.493 25.43 25.43 0 00-16.582 1.164 3.868 3.868 0 01-1.525.314zm83.339.452c-.461 0-.93-.083-1.386-.257a25.42 25.42 0 00-16.615-.518 3.881 3.881 0 01-2.318-7.408 33.21 33.21 0 0121.706.675 3.882 3.882 0 01-1.387 7.508zm-67.178 11.467c-.008.709-.164 1.469-.529 2.292-1.122 2.533-3.558 4.305-6.325 4.162a6.513 6.513 0 01-6.169-6.539c.01-1.696 1.471-3.029 3.167-3.029h6.685c1.729 0 3.188 1.385 3.171 3.114zm64.038-.086c.005.712-.137 1.478-.484 2.306-1.057 2.53-3.434 4.302-6.174 4.241a6.513 6.513 0 01-6.364-6.512v-.034c.009-1.694 1.463-3.029 3.157-3.029h6.706c1.694 0 3.147 1.334 3.159 3.028z" fill="#000"/><path d="M150.092 203.045h-32.287a3.327 3.327 0 010-6.654h32.287a3.326 3.326 0 010 6.654z" fill="#E79942"/></g><defs><filter id="filter0_d" x="0" y="0" width="268" height="319" filterUnits="userSpaceOnUse" color-interpolation-filters="sRGB"><feFlood flood-opacity="0" result="BackgroundImageFix"/><feColorMatrix in="SourceAlpha" type="matrix" values="0 0 0 0 0 0 0 0 0 0 0 0 0 0 0 0 0 0 127 0"/><feOffset dy="10"/><feGaussianBlur stdDeviation="1.5"/><feColorMatrix type="matrix" values="0 0 0 0 0.0634303 0 0 0 0 0.313801 0 0 0 0 0.683396 0 0 0 0.3 0"/><feBlend mode="normal" in2="BackgroundImageFix" result="effect1_dropShadow"/><feBlend mode="normal" in="SourceGraphic" in2="effect1_dropShadow" result="shape"/></filter></defs></svg>