<svg width="268" height="320" viewBox="0 0 268 320" fill="none" xmlns="http://www.w3.org/2000/svg"><g filter="url(#filter0_d)" fill-rule="evenodd" clip-rule="evenodd"><path d="M264.875 175.312c0 72.341-58.623 130.985-130.937 130.985C61.623 306.297 3 247.653 3 175.312 3 102.97 61.623 44.326 133.938 44.326c72.314 0 130.937 58.644 130.937 130.986z" fill="#fff"/><path d="M240.02 196.304a38.23 38.23 0 00-2.141-3.106l-.001-.001a44.99 44.99 0 01-8.241-37.015v-.001a44.986 44.986 0 00-8.241-37.016c-5.609-7.316-8.897-17.463-9.134-27.171l.164-19.089a5.979 5.979 0 00-.069-.947c-.889-26.298-22.477-47.345-48.982-47.345h-19.529a87.766 87.766 0 00-62.07 25.72l-.93.929a76.429 76.429 0 00-22.088 47.495c-1.236 7.485-4.17 14.784-8.483 20.408a44.988 44.988 0 00-8.241 37.016v.001a44.995 44.995 0 01-8.241 37.015l-.002.001c-3.426 4.47-5.986 9.996-7.514 15.833l-.055.212c-2.818 10.962 1 22.583 9.148 30.438a76.514 76.514 0 0053.105 21.432h99.143a65.553 65.553 0 0045.497-18.361c12.574-12.121 16.104-31.602 6.905-46.448z" fill="#FF7374"/><path d="M133.937 238.209l-94.766 27.489c23.846 25.013 57.487 40.598 94.766 40.598 37.28 0 70.92-15.585 94.766-40.598l-94.766-27.489z" fill="#1A2D3D"/><path d="M206.096 114.876c-.98-.154-1.974-.24-2.974-.257l-5.176 22.892a6.322 6.322 0 01-6.318-6.323v-18.539c0-4.915-2.973-9.312-7.492-11.203h-13.597c-18.722 0-33.9-15.182-33.9-33.911-9.803-5.326-22.011-.987-26.399 9.273-2.41 5.635-3.785 11.677-3.788 17.398-.001 6.216-1.624 12.809-4.434 18.85-2.81 6.041-6.807 11.529-11.558 15.534h-.002c-4.75 4.005-8.748 9.493-11.557 15.534-2.81 6.04-4.433 12.633-4.435 18.849v.001c-.002 3.994-.676 8.144-1.9 12.204a69.191 69.191 0 002.263 6.649l2.91 7.3a60.424 60.424 0 0032.151 33.089v22.969l-20.116 5.835c4.746 24.363 22.711 42.492 44.163 42.492 21.453 0 39.417-18.129 44.164-42.492l-23.293-6.757v-20.83a60.431 60.431 0 0034.912-33.63l3.007-7.285a68.975 68.975 0 005.219-26.321v-.467l.648-.186a19.017 19.017 0 0013.796-18.287v-14.849c0-3.699-2.641-6.956-6.294-7.532z" fill="#FFD03F"/><path d="M101.748 113.618c-1.579 3.29-3.51 6.405-5.723 9.193a25.434 25.434 0 0115.438-.71 3.882 3.882 0 002.028-7.494 33.147 33.147 0 00-11.743-.989zm78.572 7.918a3.882 3.882 0 00-2.237-5.012 33.216 33.216 0 00-21.706-.676 3.882 3.882 0 002.318 7.409 25.427 25.427 0 0116.615.517 3.881 3.881 0 005.01-2.238zm-75.064 10.847H98.57c-1.695 0-3.156 1.333-3.166 3.029v.034a6.513 6.513 0 006.169 6.505c2.767.143 5.202-1.629 6.325-4.163.365-.822.521-1.582.528-2.29.018-1.73-1.442-3.115-3.17-3.115zm64.05 0H162.6c-1.694 0-3.148 1.335-3.157 3.029l-.001.034a6.513 6.513 0 006.365 6.512c2.739.061 5.117-1.711 6.174-4.24.346-.829.489-1.595.484-2.307-.012-1.694-1.465-3.028-3.159-3.028z" fill="#000"/><path d="M129.797 203.726c-1.414 0-2.851-.031-4.314-.094a3.327 3.327 0 01-3.182-3.465c.078-1.836 1.647-3.266 3.465-3.183 12.015.511 22.069-1.224 30.726-5.308a3.327 3.327 0 012.838 6.018c-8.578 4.047-18.276 6.032-29.533 6.032zm-7.629-42.841a3.33 3.33 0 01-2.749-5.198 30.714 30.714 0 005.327-17.247l.016-6.779a3.326 3.326 0 013.326-3.319h.008a3.326 3.326 0 013.318 3.335l-.017 6.779a37.338 37.338 0 01-6.476 20.971 3.322 3.322 0 01-2.753 1.458z" fill="#E79942"/></g><defs><filter id="filter0_d" x="0" y="0" width="268" height="319.297" filterUnits="userSpaceOnUse" color-interpolation-filters="sRGB"><feFlood flood-opacity="0" result="BackgroundImageFix"/><feColorMatrix in="SourceAlpha" type="matrix" values="0 0 0 0 0 0 0 0 0 0 0 0 0 0 0 0 0 0 127 0"/><feOffset dy="10"/><feGaussianBlur stdDeviation="1.5"/><feColorMatrix type="matrix" values="0 0 0 0 0.0634303 0 0 0 0 0.313801 0 0 0 0 0.683396 0 0 0 0.3 0"/><feBlend mode="normal" in2="BackgroundImageFix" result="effect1_dropShadow"/><feBlend mode="normal" in="SourceGraphic" in2="effect1_dropShadow" result="shape"/></filter></defs></svg>