<svg width="90" height="90" viewBox="0 0 90 90" fill="none" xmlns="http://www.w3.org/2000/svg"><g clip-path="url(#clip0)"><path d="M4 40v40c0 6.052 4.948 11 11 11h65c3.302 0 6-2.698 6-6V35c0-3.302-2.698-6-6-6h-9.25V10c0-6.052-4.948-11-11-11-6.053 0-11 4.948-11 11v19H15C8.948 29 4 33.948 4 40z" fill="#FFAE34" stroke="#fff" stroke-width="2" stroke-linecap="round" stroke-linejoin="round"/><path d="M45 37.5c0 4.25-3.25 7.5-7.5 7.5H5v-5c0-5.5 4.5-10 10-10h22.5c4.25 0 7.5 3.25 7.5 7.5zm0 15c0 4.25-3.25 7.5-7.5 7.5H5V45h32.5c4.25 0 7.5 3.25 7.5 7.5zm0 15c0 4.25-3.25 7.5-7.5 7.5H5V60h32.5c4.25 0 7.5 3.25 7.5 7.5zm0 15c0 4.25-3.25 7.5-7.5 7.5H15C9.5 90 5 85.5 5 80v-5h32.5c4.25 0 7.5 3.25 7.5 7.5z" fill="#FFD03F"/><path d="M37.5 45c4.25 0 7.5-3.25 7.5-7.5 0-1.91-.73-3.675-1.967-5.07M37.5 45H7m30.5 0c4.25 0 7.5 3.25 7.5 7.5S41.75 60 37.5 60m0 0H7m30.5 0c4.25 0 7.5 3.25 7.5 7.5m0 0c0 4.25-3.25 7.5-7.5 7.5m7.5-7.5c3.5-3.5 9.5-6.75 14.75-6.75-5.5 0-10-4.5-10-10V32.5M37.5 75H7m30.5 0c4.25 0 7.5 3.25 7.5 7.5 0 1.915-.734 3.684-1.977 5.082" stroke="#fff" stroke-width="2" stroke-miterlimit="10" stroke-linecap="round" stroke-linejoin="round"/></g><defs><clipPath id="clip0"><path fill="#fff" d="M0 0h90v90H0z"/></clipPath></defs></svg>