<svg width="90" height="90" viewBox="0 0 90 90" fill="none" xmlns="http://www.w3.org/2000/svg"><g clip-path="url(#clip0)"><path d="M85.75 50V10c0-6.052-4.948-11-11-11h-65c-3.302 0-6 2.698-6 6v50c0 3.302 2.698 6 6 6H19v19c0 6.052 4.948 11 11 11 6.053 0 11-4.948 11-11V61h33.75c6.052 0 11-4.948 11-11z" fill="#FFAE34" stroke="#fff" stroke-width="2" stroke-linecap="round" stroke-linejoin="round"/><path d="M44.75 52.5c0-4.25 3.25-7.5 7.5-7.5h32.5v5c0 5.5-4.5 10-10 10h-22.5c-4.25 0-7.5-3.25-7.5-7.5zm0-15c0-4.25 3.25-7.5 7.5-7.5h32.5v15h-32.5c-4.25 0-7.5-3.25-7.5-7.5zm0-15c0-4.25 3.25-7.5 7.5-7.5h32.5v15h-32.5c-4.25 0-7.5-3.25-7.5-7.5zm0-15c0-4.25 3.25-7.5 7.5-7.5h22.5c5.5 0 10 4.5 10 10v5h-32.5c-4.25 0-7.5-3.25-7.5-7.5z" fill="#FFD03F"/><path d="M52.25 45c-4.25 0-7.5 3.25-7.5 7.5 0 1.91.73 3.675 1.967 5.07M52.25 45h30.5m-30.5 0c-4.25 0-7.5-3.25-7.5-7.5S48 30 52.25 30m0 0h30.5m-30.5 0c-4.25 0-7.5-3.25-7.5-7.5m0 0c0-4.25 3.25-7.5 7.5-7.5m-7.5 7.5c-3.5 3.5-9.5 6.75-14.75 6.75 5.5 0 10 4.5 10 10V57.5M52.25 15h30.5m-30.5 0c-4.25 0-7.5-3.25-7.5-7.5 0-1.915.734-3.684 1.977-5.082" stroke="#fff" stroke-width="2" stroke-miterlimit="10" stroke-linecap="round" stroke-linejoin="round"/></g><defs><clipPath id="clip0"><path fill="#fff" d="M0 0h90v90H0z"/></clipPath></defs></svg>