<svg width="120" height="120" viewBox="0 0 120 120" fill="none" xmlns="http://www.w3.org/2000/svg"><circle cx="60" cy="60" r="58" fill="#FFD03F" stroke="#FFAE34" stroke-width="4"/><path opacity=".5" d="M77.787 60.6A32.078 32.078 0 0060 55.25a32.078 32.078 0 00-17.788 5.35" stroke="#FFAE34" stroke-width="12" stroke-linecap="round"/><path d="M94.233 71.441C88.225 58.556 75.155 49.625 60 49.625c-15.155 0-28.224 8.93-34.232 21.816" stroke="#DB8C16" stroke-width="6" stroke-linecap="round"/><path d="M30.222 30.529a4.904 4.904 0 014.904-4.904h7.192a4.904 4.904 0 014.904 4.904 7.846 7.846 0 01-7.846 7.846h-1.308a7.846 7.846 0 01-7.846-7.846zm42 0a4.904 4.904 0 014.904-4.904h7.192a4.904 4.904 0 014.904 4.904 7.846 7.846 0 01-7.846 7.846h-1.308a7.846 7.846 0 01-7.846-7.846z" fill="#111"/></svg>