<svg width="48" height="20" viewBox="0 0 48 20" fill="none" xmlns="http://www.w3.org/2000/svg"><path d="M4.506 0h39.246C46.085 0 48 1.862 48 4.207v11.586C48 18.103 46.12 20 43.752 20H4.506C2.173 20 .258 18.138.258 15.793V4.207C.258 1.862 2.173 0 4.506 0z" fill="#fff"/><path d="M17.983 12.414v1.448h-6.024V6.104h5.884v1.448h-4.109v1.69h3.622v1.379h-3.622v1.793h4.249zm8.601-6.31v7.724h-1.497l-3.866-4.69v4.69h-1.776V6.104h1.498l3.865 4.69v-4.69h1.776zm1.846 0h3.552c.835 0 1.601.172 2.228.482.662.31 1.15.759 1.532 1.345.349.586.558 1.241.558 2.035 0 .758-.175 1.448-.558 2.034-.348.586-.87 1.035-1.532 1.345a5.154 5.154 0 01-2.228.483H28.43V6.104zm3.447 6.275c.766 0 1.393-.207 1.88-.655.453-.414.697-1 .697-1.758 0-.725-.244-1.31-.697-1.759-.452-.414-1.079-.655-1.88-.655H30.24v4.793h1.637v.034z" fill="#0088CF"/></svg>