<svg width="50" height="50" viewBox="0 0 50 50" fill="none" xmlns="http://www.w3.org/2000/svg"><path d="M44.1 29.9c-.4 1.5-1 3-1.8 4.4l4.3 3.6-8.2 8.1-3.6-4.3c-1.4.8-2.8 1.4-4.4 1.8l.5 5.6H19.3l.5-5.6c-1.5-.4-3-1-4.4-1.8L11.8 46l-8.2-8.2 4.3-3.6c-.8-1.4-1.4-2.8-1.8-4.4l-5.6.5V18.8l5.6.5c.4-1.5 1-3 1.8-4.4l-4.3-3.6 8.2-8.2 3.6 4.3c1.4-.8 2.8-1.4 4.4-1.8L19.3 0h11.5l-.5 5.6c1.5.4 3 1 4.4 1.8l3.6-4.3 8.2 8.2-4.3 3.6c.8 1.4 1.4 2.8 1.8 4.4l5.6-.5v11.5l-5.5-.4zm-19-14.8c-5.2 0-9.4 4.2-9.4 9.4s4.2 9.4 9.4 9.4 9.4-4.2 9.4-9.4-4.2-9.4-9.4-9.4z" fill="#fff"/></svg>