<svg width="137" height="99" viewBox="0 0 137 99" fill="none" xmlns="http://www.w3.org/2000/svg"><path d="M134.879 77.882H2.121A2.116 2.116 0 010 75.752V2.63C0 1.447.943.5 2.12.5h132.76c1.178 0 2.12.947 2.12 2.13v73.093a2.104 2.104 0 01-2.12 2.16z" fill="#5CC7FF"/><path d="M127.073 66.435H9.957c-.884 0-1.62-.71-1.62-1.627V18.04c0-.887.706-1.627 1.62-1.627h117.116c.884 0 1.62.71 1.62 1.627v46.767c-.029.917-.736 1.627-1.62 1.627z" fill="#005ACF"/><path d="M52.962 37.21H31.518a1.153 1.153 0 01-1.149-1.154v-3.343c0-.621.5-1.153 1.149-1.153h21.414c.619 0 1.15.502 1.15 1.153v3.343c.029.621-.502 1.153-1.12 1.153zm26.245 0H57.792a1.153 1.153 0 01-1.148-1.154v-3.343c0-.621.5-1.153 1.148-1.153h21.415c.618 0 1.149.502 1.149 1.153v3.343c0 .621-.501 1.153-1.15 1.153zm26.275 0H84.067a1.153 1.153 0 01-1.148-1.154v-3.343c0-.621.5-1.153 1.148-1.153h21.415c.618 0 1.148.502 1.148 1.153v3.343c0 .621-.5 1.153-1.148 1.153zm-52.52 8.578H31.518a1.153 1.153 0 01-1.149-1.153v-3.313c0-.622.5-1.154 1.149-1.154h21.414c.619 0 1.15.503 1.15 1.154v3.342c.029.621-.502 1.124-1.12 1.124zm26.245 0H57.792a1.153 1.153 0 01-1.148-1.153v-3.313c0-.622.5-1.154 1.148-1.154h21.415c.618 0 1.149.503 1.149 1.154v3.342c0 .621-.501 1.124-1.15 1.124zm26.275 0H84.067a1.153 1.153 0 01-1.148-1.153v-3.313c0-.622.5-1.154 1.148-1.154h21.415c.618 0 1.148.503 1.148 1.154v3.342c0 .621-.5 1.124-1.148 1.124zm-52.52 8.282H31.518a1.153 1.153 0 01-1.149-1.153v-3.313c0-.621.5-1.154 1.149-1.154h21.414c.619 0 1.15.503 1.15 1.154v3.342c.029.622-.502 1.125-1.12 1.125zm26.245 0H57.792a1.153 1.153 0 01-1.148-1.153v-3.313c0-.621.5-1.154 1.148-1.154h21.415c.618 0 1.149.503 1.149 1.154v3.342c0 .622-.501 1.125-1.15 1.125zm26.275 0H84.067a1.153 1.153 0 01-1.148-1.153v-3.313c0-.621.5-1.154 1.148-1.154h21.415c.618 0 1.148.503 1.148 1.154v3.342c0 .622-.5 1.125-1.148 1.125z" fill="#0088CF"/><path d="M84.538 6.387l-16.053.532h-.059l-15.965-.532a.945.945 0 00-.972 1.124l2.68 15.589a.968.968 0 001.031.798l13.197-1.005h.147l13.314 1.005c.5.03.942-.295 1.03-.798L85.57 7.51c.06-.59-.412-1.153-1.03-1.123z" fill="#FFD03F"/><path d="M84.42 18.929a81.248 81.248 0 00-31.841 0c-1.768.355-3.535-.71-3.947-2.455-.442-1.746.766-3.52 2.71-3.905a88.296 88.296 0 0134.345 0c1.915.384 3.123 2.189 2.71 3.905-.442 1.745-2.21 2.81-3.977 2.455z" fill="#FAFAF0"/><path d="M36.267 83.503c1.031.148 1.974-.621 1.944-1.657a1.821 1.821 0 012.328-1.834c.53.148 1.06.266 1.59.385a7.464 7.464 0 005.744-1.243c2.18-1.597 3.505-3.786 4.153-7.336.265-1.36.177-2.78-.206-4.111a9.224 9.224 0 01-.324-2.958c.059-1.243.118-2.574.177-3.816a5.763 5.763 0 00-4.065-5.768l-17.084-5.147a12.684 12.684 0 00-1.827 5.916l-.5 9.82c-.177 3.58 1.708 7.336 4.89 10.176l-2.416 6.744 5.596.829z" fill="#5B331D"/><path d="M51.88 96.252c-.266-4.585-1.267-9.437-4.242-10.886-.088-.06-.206-.089-.295-.177-.589-.415-1.296-.77-2.15-1.065-.03-.03-.088-.03-.118-.03l-11.281-3.875a2.256 2.256 0 00-.884-.089l-11.105 1.124c-.324.03-.648.089-.972.148-4.595.828-8.218 4.408-9.514 8.933-.03.119-.059.237-.059.385l-.5 5.502a2.088 2.088 0 002.06 2.278h36.997c1.178-.06 2.12-1.065 2.062-2.248z" fill="#FFD03F"/><path d="M13.145 74.244a9.696 9.696 0 00-1.384-6.36c-2.799-4.496-.972-10.441 3.917-12.453l.177-.06a9.458 9.458 0 003.093-2.691c6.775-9.2 19.676-12.394 30.575-6.863 6.186 2.692 6.922 8.638 4.507 12.72-.795 1.716-1.915 2.84-3.24 3.55a3.048 3.048 0 00-1.561 2.514 2.156 2.156 0 01-1.208 1.834c-.5.266-.972 0-1.06-.562v-.089c.088-1.893-1.208-3.668-3.093-3.904-1.296-.148-2.445.236-3.211 1.538-.707 1.213-.707 2.721-.088 3.993.088.207.206.414.324.621 2.533 4.644-.648 10.058-5.273 12.602-.265.147-.5.295-.736.443-3.623 2.426-8.336 2.574-12.166.503l-8.188-4.437c-.973-.621-1.532-1.745-1.385-2.899z" fill="#0E0F2D"/><path d="M43.396 72.913c.83 0 1.502-.676 1.502-1.509 0-.833-.673-1.508-1.502-1.508-.83 0-1.502.675-1.502 1.508s.672 1.509 1.502 1.509z" fill="#F7FCEF"/><path d="M101.395 72.35l1.914.947c1.296.65 2.74.207 3.417-1.065l1.178-2.16c.619-1.153.118-2.75-1.06-3.342l-4.33-2.16c-1.178-.59-2.416.12-2.592 1.45-.118.829-.265 1.746-.383 2.574-.236 1.508.559 3.106 1.856 3.757z" stroke="#0E0F2D" stroke-width="5.902" stroke-linecap="round"/><path fill-rule="evenodd" clip-rule="evenodd" d="M92.533 58.614h.001l4.33 2.16c1.616.81 2.289 2.948 1.437 4.537l-.001.002-1.178 2.16c-.906 1.696-2.864 2.284-4.567 1.43l-.003-.001-1.912-.945-.002-.002c-1.651-.829-2.615-2.805-2.327-4.666.06-.417.126-.855.191-1.287v-.003c.067-.435.132-.866.19-1.274.123-.914.622-1.673 1.356-2.087.74-.418 1.65-.444 2.485-.024zM90.9 60.16c-.222.125-.43.385-.485.8v.004l-.001.004c-.06.418-.126.858-.192 1.292v.003c-.067.437-.133.869-.191 1.278v.006l-.002.006c-.18 1.153.446 2.367 1.384 2.84l1.914.946.003.001c.887.446 1.812.148 2.261-.696l.002-.003 1.179-2.16c.383-.72.055-1.774-.684-2.145l-.001-.001-4.33-2.16c-.343-.171-.64-.137-.857-.015z" fill="#0E0F2D"/><path d="M97.33 65.31c.324-.562.972-.769 1.59-.444.62.296.973 1.006.914 1.687" stroke="#0E0F2D" stroke-width="5.902" stroke-linecap="round"/><path d="M112.5 87.851c-.236-2.1-.265-4.23-.118-6.36a35.676 35.676 0 012.415-10.59c.884-2.218-.206-4.762-2.415-5.65-2.209-.887-4.742.208-5.626 2.426a44.077 44.077 0 00-3.005 13.164v.089a46.904 46.904 0 00.148 7.868l8.601-.947z" fill="#FFB096"/><path d="M100.334 83.118c7.541 1.687 15.052-3.105 16.731-10.708l3.711-16.831-21.444-4.792a5.218 5.218 0 00-6.215 3.964 6.8 6.8 0 00.766 4.91L93 63.654l-2.033 9.23c-.942 4.289 1.738 8.519 5.98 9.465l3.387.77z" fill="#FFB096"/><path d="M112.499 80.397l-3.77-3.52a13.056 13.056 0 01-3.623-5.71 4.036 4.036 0 002.415-2.898c.413-2.13-1.001-4.2-3.092-4.674l-.649-.148a3.495 3.495 0 00-3.593 2.721l-.088.385c-.148.71-.796 1.213-1.503 1.124a1.413 1.413 0 01-1.237-1.716l.59-2.721a3.77 3.77 0 00-1.385-3.106 3.03 3.03 0 01-1.06-2.988 3.996 3.996 0 00-.383-1.863c-4.301 0-7.129-4.141-6.48-8.076.53-3.254 4.24-4.792 7.04-3.106.088.06.205.119.294.148a5.39 5.39 0 01.972-2.189c1.414-1.893 3.917-2.662 6.127-1.834a5.414 5.414 0 012.385 1.775c1.355 1.775 3.27 3.047 5.479 3.52.118.03.206.06.324.06l4.831 1.064c7.541 1.686 12.195 9.289 10.251 16.802a13.73 13.73 0 01-3.417 6.123l-10.428 10.827z" fill="#2E2B33"/><path fill-rule="evenodd" clip-rule="evenodd" d="M88.861 62.056a.87.87 0 01.9-.842l15.081.533a.87.87 0 01.838.903.87.87 0 01-.899.842l-15.082-.533a.871.871 0 01-.838-.903z" fill="#0E0F2D"/><path d="M126.845 98.44a2.05 2.05 0 002.032-2.425l-.353-2.041a11.419 11.419 0 00-8.572-9.2l-2.239-.532a26.987 26.987 0 00-18.527 2.248l-7.63 3.905c-1.62.887-2.798 2.81-3.652 5.295a2.063 2.063 0 001.944 2.75h36.997z" fill="#581FA6"/></svg>