<svg width="137" height="98" viewBox="0 0 137 98" fill="none" xmlns="http://www.w3.org/2000/svg"><path d="M0 6.062v88.342C0 96.395 1.59 98 3.563 98h129.874c1.973 0 3.563-1.605 3.563-3.596V6.062H0z" fill="#FAFAF0"/><path d="M133.319 0H3.681C1.65 0 0 1.664 0 3.714v2.348h137V3.714C137 1.664 135.351 0 133.319 0z" fill="#FFD03F"/><path d="M4.182 4.577c.732 0 1.325-.599 1.325-1.337 0-.739-.593-1.338-1.325-1.338s-1.326.599-1.326 1.338c0 .738.594 1.337 1.326 1.337zm4.123 0c.732 0 1.325-.599 1.325-1.337 0-.739-.593-1.338-1.325-1.338s-1.326.599-1.326 1.338c0 .738.594 1.337 1.326 1.337zm4.123 0c.732 0 1.325-.599 1.325-1.337 0-.739-.593-1.338-1.325-1.338s-1.326.599-1.326 1.338c0 .738.594 1.337 1.326 1.337zm120.39 0c.732 0 1.325-.599 1.325-1.337 0-.739-.593-1.338-1.325-1.338s-1.325.599-1.325 1.338c0 .738.593 1.337 1.325 1.337z" fill="#FAFAF0"/><path d="M131.022 67.987H95.093c-1.737 0-3.121 1.427-3.121 3.15v20.8c0 1.754 1.413 3.15 3.121 3.15h35.9c1.737 0 3.121-1.426 3.121-3.15v-20.8a3.094 3.094 0 00-3.092-3.15z" fill="#DA5F2E"/><path d="M122.364 92.295c.088.03.147.03.206.06l-.265 2.763h2.002v-.594c0-1.16-.854-2.11-1.943-2.23z" fill="#0E0F2D"/><path d="M99.57 92.473c-.413.119-.766.386-1.031.713a2.148 2.148 0 012.267-.178 2.202 2.202 0 011.178 2.11h1.944v-4.13c-1.208.475-2.651.98-4.359 1.485zm22.793-.179a764.7 764.7 0 00-4.211-1.07v3.893h4.152l.265-2.763c-.059-.03-.147-.03-.206-.06z" fill="#102333"/><path d="M108.198 88.877l-.029.03c0-.03.029-.03.029-.03zm-1.885 1.04a31.637 31.637 0 001.709-.92c-.648.385-1.974 1.128-4.064 1.96v4.13h4.034l-1.679-5.17zm11.839 1.307c-1.678-.445-3.504-.891-5.094-1.307.824.208 1.708.446 2.591.654l-1.472 4.546h3.975v-3.893zm-10.013-2.317c-.059.03-.088.06-.147.09a.654.654 0 00.147-.09zm.118-.059l-.029.03c0-.03.029-.03.029-.03z" fill="#0E0F2D"/><path d="M108.405 88.759s-.03 0 0 0c-.03 0-.03 0 0 0l-.03.03s-.029 0-.029.03h-.089l-.029.029h-.03l-.029.03h-.029c-.059.03-.089.06-.148.089a22.95 22.95 0 01-1.708.921l1.679 5.17h.648l2.444-2.288-2.65-4.011zm4.623 1.158l-1.973 2.912 1.502 1.426.942.892h.648l1.472-4.547c-.883-.267-1.767-.475-2.591-.683z" fill="#ECE6E1"/><path d="M112.586 94.226l-.471.891h1.384l-.913-.891zm-1.502-1.396v-.03l-2.444 2.318h1.384l-.441-.892 1.501-1.397z" fill="#D8D0BC"/><path d="M112.586 94.226l-1.502-1.426v.03l-1.502 1.396.442.892h2.091l.471-.892z" fill="#6B9C38"/><path d="M100.836 92.978a2.149 2.149 0 00-2.268.178c-.265.208-.5.446-.648.773l-.589 1.159h4.683a2.231 2.231 0 00-1.178-2.11z" fill="#102333"/><path d="M108.375 84.212v4.517l.029.03 2.68 4.07 1.974-2.912V87.51a4.25 4.25 0 01-.442-.802c-1.532-.565-3.004-1.456-4.241-2.496z" fill="#563F35"/><path d="M114.824 69.86h-5.86l.766 3.655.382 1.872a3.328 3.328 0 00-1.207 2.585v1.04c0 .535-.353 1.01-.854 1.1a.984.984 0 01-.854-.238v.891h-1.443c.501 1.248 1.443 2.437 2.591 3.477a13.447 13.447 0 004.212 2.466 3.651 3.651 0 01-.236-1.278v-2.704c0-.861.707-1.574 1.561-1.574h3.946c.854 0 1.561.713 1.561 1.575v2.228c1.266-1.426 1.679-3.001 1.679-4.576v-1.308a2.52 2.52 0 00-1.149-2.139V73.13a6.363 6.363 0 00-2.562-5.111h-.442c-.029 1.04-1.001 1.842-2.091 1.842zm-2.326 7.815a.53.53 0 01-.53-.535.53.53 0 111.06 0 .53.53 0 01-.53.535zm5.566-1.07a.53.53 0 01.53.535.53.53 0 11-1.06 0 .53.53 0 01.53-.535z" fill="#563F35"/><path d="M107.197 79.874c-.235-.178-.353-.475-.353-.802v-1.664c0-.565-.56-1.01-1.266-1.01h-.972a2.189 2.189 0 00-1.738 2.139c0 1.218.972 2.199 2.179 2.199h2.18v-.862h-.03z" fill="#563F35"/><path d="M118.064 77.675a.53.53 0 00.53-.535.53.53 0 10-1.06 0 .53.53 0 00.53.535zm-5.567-1.069a.53.53 0 00-.53.534.53.53 0 101.06 0 .53.53 0 00-.53-.534z" fill="#0E0F2D"/><path d="M117.887 81.151h-3.946c-.854 0-1.561.714-1.561 1.575v2.704c0 .446.088.862.235 1.278.118.297.266.565.442.802.736 1.01 1.944 1.635 3.328 1.456 1.767-.237 3.063-1.842 3.063-3.654v-2.587c-.03-.891-.707-1.575-1.561-1.575zm-3.446 1.219h3.77c0 1.188-1.031 2.14-2.297 2.14a2.328 2.328 0 01-2.062-1.22c-.235-.415.118-.92.589-.92z" fill="#2E2B33"/><path d="M115.914 84.51c1.267 0 2.297-.951 2.297-2.14h-3.769c-.471 0-.825.505-.589.951.353.713 1.148 1.189 2.061 1.189z" fill="#F6E8E7"/><path d="M104.281 74.495l5.449-.98-.766-3.656h5.86c1.09 0 2.032-.802 2.121-1.872H105.43a5.663 5.663 0 00-1.178 3.447v3.06h.029z" fill="#0E0F2D"/><path d="M105.548 76.397c.707 0 1.266.446 1.266 1.01v1.664c0 .327.147.595.353.803.236.178.531.297.855.237.5-.089.854-.564.854-1.1v-1.04a3.37 3.37 0 011.207-2.584l-.383-1.872-5.448.98v1.872h1.296v.03z" fill="#2E2B33"/><path d="M86.435 67.987h-35.9c-1.737 0-3.12 1.427-3.12 3.15v20.8c0 1.754 1.413 3.15 3.12 3.15h35.9c1.737 0 3.122-1.426 3.122-3.15v-20.8c.029-1.753-1.385-3.15-3.122-3.15z" fill="#CB4B5C"/><path d="M64.878 85.816l3.475.714v-.03l-3.475-.684zm14.077-9.508c-.03-.09-.06-.208-.118-.297a10.376 10.376 0 01-1.06 5.794l-1.62 3.21c-.59 1.218-1.944 1.812-3.24 1.485l-.736-.178v1.01l5.124 1.07a12.633 12.633 0 003.387-8.618V73.04c-.03 1.218-.53 2.377-1.737 3.269z" fill="#0E0F2D"/><path d="M79.102 90.274l.118.03-.177 4.814h3.534a86.01 86.01 0 00-1.855-3.685c-.354-.653-.972-1.07-1.62-1.159z" fill="#656A72"/><path d="M68.176 93.484l-1.944-4.725-4.977 1.04c.295-.03.619.03.913.148 1.06.476 1.532 1.754 1.12 2.883-.266.713-.53 1.486-.766 2.258h6.331l-.677-1.604zm10.926-3.21l-3.357-.862 1.178.297v5.408h2.15l.176-4.813-.147-.03z" fill="#828889"/><path d="M75.745 89.412c-.648 2.556-2.916 4.428-5.625 4.428a5.755 5.755 0 01-1.914-.327l.647 1.604h8.1V89.71l-1.208-.297z" fill="#90414D"/><path d="M72.181 88.877a1.9 1.9 0 01-1.944 1.902c-1.06 0-1.914-.892-1.884-1.961v-.505l-2.091.445 1.943 4.725a5.755 5.755 0 001.915.327 5.793 5.793 0 005.624-4.428l-3.563-.92v.415z" fill="#E99257"/><path d="M62.14 89.977a1.912 1.912 0 00-.914-.15c-.824.06-1.59.625-1.944 1.546a39.436 39.436 0 00-1.177 3.744h4.358c.236-.772.5-1.545.766-2.258.47-1.13 0-2.407-1.09-2.882z" fill="#929497"/><path d="M70.915 86.025a5.893 5.893 0 01-2.209-1.07c.147.535.177 1.07.088 1.634l-.441-.089v.06l-.03 1.783v.505c0 1.07.825 1.96 1.885 1.96s1.944-.831 1.944-1.9v-.387l.03-1.13v-1.01l-1.267-.356z" fill="#E99257"/><path d="M68.706 76.962l.089 3.774h-1.473v.089c0 .089-.03.208-.059.297v.446c0 .802.265 1.575.766 2.169l.03.03c.294.356.5.772.618 1.188a5.892 5.892 0 002.208 1.07l1.296.327.737.178a2.845 2.845 0 003.239-1.486l1.62-3.209a10.634 10.634 0 001.06-5.794c-.59-1.635-2.15-3.536-3.652-4.695l-7.922 5.645 1.443-.03zm5.713 6.686a2.158 2.158 0 01-2.12-1.783l4.211-.03c-.176 1.04-1.06 1.813-2.09 1.813zm3.534-6.508h-1.767a.92.92 0 01.884-.713.89.89 0 01.883.713zm-5.595-.713a.89.89 0 01.883.713h-1.766a.89.89 0 01.883-.713z" fill="#E99257"/><path d="M74.42 83.648c1.06 0 1.913-.803 2.09-1.813l-4.211.03c.176 1.01 1.06 1.812 2.12 1.783z" fill="#F5F5F5"/><path d="M76.069 70.692l-.854.624c1.502 1.189 3.063 3.09 3.652 4.695.03.09.058.208.117.297 1.208-.891 1.709-2.08 1.738-3.268 0-.595-.118-1.219-.324-1.783-.589-1.605-2.209-2.348-3.74-2.942-.177-.06-.383-.149-.56-.178l1.149.445c-.383.714-.795 1.397-1.178 2.11zM63.17 72.89l.058-.267a.862.862 0 00-.059.267z" fill="#0E0F2D"/><path d="M63.199 72.623l4.064 1.338v3.03l7.922-5.645.854-.624c.383-.713.795-1.397 1.148-2.11l-1.148-.446c-.147-.06-.265-.089-.413-.148h-9.011a7.004 7.004 0 00-3.416 4.605z" fill="#0E0F2D"/><path d="M68.794 86.59c.118-.535.089-1.1-.088-1.635-.118-.446-.353-.832-.618-1.188l-.03-.03a3.419 3.419 0 01-.766-2.17v-.445a.724.724 0 01-.647.416.72.72 0 01-.707-.713v-.09h-.177c-1.03 0-1.855-.861-1.855-1.901s.854-1.872 1.885-1.872h1.502V73.93l-4.065-1.337-.059.267-1.53 8.112a4.135 4.135 0 003.239 4.814l3.475.684.441.118z" fill="#0E0F2D"/><path d="M66.644 80.112c.354 0 .648.267.707.624h1.473l-.089-3.774H65.82c-1.03 0-1.885.832-1.885 1.872a1.9 1.9 0 001.855 1.902h.177a.677.677 0 01.677-.624z" fill="#E99257"/><path d="M67.352 80.735c-.03-.356-.354-.624-.707-.624a.728.728 0 00-.707.624v.09a.72.72 0 00.707.713c.294 0 .53-.179.648-.416a.88.88 0 00.059-.297v-.09z" fill="#F6E8E7"/><path d="M76.186 77.14h1.767a.914.914 0 00-.883-.713c-.413 0-.766.297-.884.713zm-3.828-.713a.89.89 0 00-.884.713h1.767c-.118-.416-.471-.713-.883-.713z" fill="#0E0F2D"/><path d="M41.877 67.987H5.978c-1.737 0-3.122 1.427-3.122 3.15v20.8c0 1.754 1.414 3.15 3.122 3.15h35.9c1.737 0 3.121-1.426 3.121-3.15v-20.8c.03-1.753-1.384-3.15-3.122-3.15z" fill="#B573BD"/><path d="M17.729 73.336c0 1.308.265 2.526.706 3.655a1.972 1.972 0 011.06-.505h-.147v-4.041c0-1.694.59-3.239 1.561-4.487h-1.855a6.748 6.748 0 00-1.325 4.011v1.367zm17.316 4.488a4.732 4.732 0 002.592-4.22 4.705 4.705 0 00-2.621-4.22h.03v8.44zm1.649 13.906l.884 3.388h1.678c-.618-.773-1.178-1.515-1.53-2.258-.236-.505-.59-.892-1.032-1.13z" fill="#0E0F2D"/><path d="M35.134 91.255c.118.03.206.06.324.06-.089 0-.206-.03-.324-.06zm.589.148c.059 0 .088.03.147.03-.059 0-.088-.03-.147-.03zm-18.524-.179c.176-.03.383-.089.589-.118-.206.059-.413.089-.59.118zm-.737.179c.177-.03.354-.09.501-.119-.147.03-.324.09-.5.119zm5.419-.891c-1.325.148-2.65.327-3.946.594a35.13 35.13 0 013.946-.594zm-6.361 1.129l.706-.178-.706.178zm9.925 3.209l.471-.505h-.03l-.47.475.029.03z" fill="#ECE6E1"/><path d="M30.039 90.482s.03 0 0 0c.235.03.47.06.706.06h.06a40.89 40.89 0 014.27.683c-1.68-.327-3.387-.595-5.036-.743l-1.708-1.754-.06.03v1.248l-.912 2.259-.943-.595 1.002 1.1-1.532 1.604.383-.356 1.178-1.189 2.297 2.318h.295v-4.665z" fill="#ECE6E1"/><path d="M30.245 95.118h.736l-.147-.714-.59.714z" fill="#ECE6E1"/><path d="M30.039 90.482v4.636h.206l.589-.713-.795-3.923z" fill="#D8D0BC"/><path d="M28.271 88.759l.06-.06h-.06v.06zm-2.856 6.061l.471-.475 1.532-1.605-1.002-1.099-2.62-1.664v-1.278h-.06l-1.884 1.783.029.03 3.534 4.308z" fill="#ECE6E1"/><path d="M25.445 94.85l.206.267h1.207l-.942-.772-.471.505zm.824-.862l1.149-1.07 1.531 1.427v.773h.795L27.447 92.8l-1.178 1.188z" fill="#D8D0BC"/><path d="M36.665 91.64c-.265-.058-.53-.148-.795-.207-.06 0-.089-.03-.148-.03-.088-.03-.176-.03-.264-.06-.118-.029-.207-.059-.325-.059-.029 0-.058 0-.088-.03a39.957 39.957 0 00-4.27-.683h-.059c-.236-.03-.442-.06-.677-.06h-.03l.795 3.923.148.713h6.596l-.883-3.387v-.12zm-11.25 3.18l-3.534-4.308c-1.326.148-2.65.327-3.947.594-.059 0-.088.03-.147.03-.206.03-.383.089-.589.119-.088.03-.147.03-.235.059-.177.03-.354.09-.501.119-.088.03-.147.03-.236.06l-.706.178.029.059a2.121 2.121 0 011.65.06c1.118.564 1.56 1.93 1.089 3.12-.03.089-.06.148-.088.237h7.48l-.265-.327z" fill="#2E2B33"/><path d="M27.418 92.919l-1.149 1.07-.383.356h.03l.942.773h2.091v-.773l-1.531-1.426z" fill="#6B9C38"/><path d="M17.199 91.76a2 2 0 00-1.65-.06 2.528 2.528 0 00-1.442 1.426 5.201 5.201 0 00-.383 1.991h4.447c.029-.089.058-.148.088-.237.5-1.16.03-2.556-1.06-3.12z" fill="#2E2B33"/><path d="M26.416 91.64l.943.595.913-2.258v-3.388h-.236a7.421 7.421 0 01-4.24-1.337v4.725l2.62 1.664z" fill="#9D644D"/><path d="M28.272 86.619c.383 0 1.237 0 2.032.03 1.266 0 2.474-.595 3.21-1.635a9.505 9.505 0 001.56-4.397V69.414h-.029c-.177 1.872-1.443 3.477-3.269 4.012l-7.568 2.228a2.1 2.1 0 00-1.149.862h.059l.118 4.19H20.79a7.6 7.6 0 003.034 4.576 7.492 7.492 0 004.24 1.337c0-.03.089-.03.207 0zm4.506-11.232c.5 0 .913.416.913.92h-1.826c.029-.504.412-.92.913-.92zm.147 5.883c0 1.13-.707 2.08-1.708 2.437-.06.03-.089.03-.148.03h-.029c-.088.03-.206.06-.294.06h-.708c-.117-.03-.205-.03-.294-.06h-.03c-.058 0-.088-.03-.146-.03a2.573 2.573 0 01-1.709-2.437h5.066zm-5.448-5.883c.5 0 .913.416.913.92h-1.826c0-.504.412-.92.913-.92z" fill="#9D644D"/><path d="M23.206 80.676l-.117-4.19h-.06a2.209 2.209 0 00-.382 1.219v1.96H22.5a1.748 1.748 0 01-1.738-1.752c0-.713-.53-1.337-1.237-1.397-.412.06-.765.238-1.06.505a2.078 2.078 0 00-.707 1.575c0 1.159.943 2.11 2.091 2.11h3.357v-.03z" fill="#9D644D"/><path d="M19.348 76.516h.148a1.407 1.407 0 011.236 1.396c0 .98.796 1.753 1.738 1.753h.147v-1.96a2.209 2.209 0 011.532-2.081l7.568-2.229c1.826-.534 3.092-2.14 3.27-4.011 0-.119.029-.267.029-.386 0-.357-.06-.684-.148-1.01H20.88a7.202 7.202 0 00-1.561 4.486l.03 4.041z" fill="#0E0F2D"/><path d="M27.476 75.387c-.5 0-.912.416-.912.92h1.825a.922.922 0 00-.913-.92zm5.301 0c-.5 0-.913.416-.913.92h1.826a.922.922 0 00-.913-.92z" fill="#0E0F2D"/><path d="M29.685 83.737c-.059 0-.088-.03-.147-.03.059 0 .118.03.147.03zm.354.059c-.118-.03-.207-.03-.295-.06a.73.73 0 00.295.06zm1.031-.06a1.04 1.04 0 01-.295.06c.088 0 .177-.03.294-.06zm.147-.029c-.06.03-.089.03-.148.03.06 0 .118-.03.148-.03z" fill="#F6E8E7"/><path d="M27.83 81.27c0 1.13.707 2.08 1.708 2.437a2.491 2.491 0 01-1.355-1.159h4.418a2.604 2.604 0 01-1.355 1.16 2.573 2.573 0 001.708-2.438H27.83z" fill="#F6E8E7"/><path d="M32.6 82.548h-4.417c.295.535.795.95 1.355 1.159.059.03.088.03.147.03h.03c.088.03.206.059.294.059h.707c.118-.03.206-.03.294-.06h.03c.059 0 .088-.03.147-.03a2.516 2.516 0 001.414-1.158z" fill="#0E0F2D"/><path d="M95.093 38.451h35.9c1.737 0 3.121 1.426 3.121 3.15v20.8c0 1.754-1.413 3.15-3.121 3.15h-35.9c-1.737 0-3.121-1.426-3.121-3.15v-20.8c0-1.724 1.384-3.15 3.121-3.15z" fill="#F6921E"/><path d="M50.536 38.451h35.899c1.737 0 3.122 1.426 3.122 3.15v20.8c0 1.754-1.414 3.15-3.122 3.15h-35.9c-1.737 0-3.12-1.426-3.12-3.15v-20.8c0-1.724 1.383-3.15 3.12-3.15z" fill="#D94547"/><path d="M60.902 62.699v-.565c.03 0 .059 0 .088-.03-1.06.03-1.944.862-2.061 1.932l-.177 1.545h2.18l-.03-2.853v-.03z" fill="#2B2D44"/><path d="M75.598 61.153l-2.74 4.428 2.74-4.428zm-4.3 3.299l.382.356-1.531-1.604.53-.595a2.62 2.62 0 01-2.209-2.614v-.03l-.913.95H67.5h.029v4.636h.294l2.298-2.318 1.178 1.219zm.382.386l.737.743-.707-.743h-.03z" fill="#ECE6E1"/><path d="M75.715 60.945l-1.885-1.783h-.147v.832c0 1.456-1.178 2.645-2.621 2.645-.147 0-.265 0-.412-.03l-.53.594 1.531 1.605.736.772h.413l2.738-4.427.177-.208z" fill="#ECE6E1"/><path d="M70.15 63.412l1.148 1.04-1.178-1.188-2.297 2.317h.795v-.772l1.531-1.397zm.559 2.168h1.708l-.737-.742-.972.743z" fill="#D8D0BC"/><path d="M67.528 60.945a42.942 42.942 0 00-6.537 1.13c-.03 0-.06 0-.089.03v.623l.03 2.852h6.626l-.03-4.636zm13.252 1.159a2.03 2.03 0 011.267.09v-.06a40.332 40.332 0 00-6.331-1.13l-.118.18-2.74 4.427h6.539l-.206-.862c-.266-1.189.441-2.377 1.59-2.645z" fill="#484C5B"/><path d="M71.71 64.838v-.03l-.412-.356-1.149-1.04-1.531 1.397v.772h2.09l.972-.743h.03zm-8.776-22.375l-.383 1.783a3.366 3.366 0 00.766 2.942c.235-1.1.56-2.2.972-3.27a4.56 4.56 0 01-1.355-1.455z" fill="#0E0F2D"/><path d="M69.501 57.676H68.5v2.348a2.67 2.67 0 002.209 2.615c.117.03.265.03.412.03 1.443 0 2.621-1.19 2.621-2.645v-3.566a7.26 7.26 0 01-4.035 1.218h-.206z" fill="#E99257"/><path d="M75.804 50.278a1.21 1.21 0 01-.442.208 1.1 1.1 0 01-1.296-1.1v-.565c0-.92-.883-1.485-1.737-1.485l.56-2.615h-6.067a4.56 4.56 0 01-2.533-.773 20.842 20.842 0 00-.972 3.269 24.466 24.466 0 00-.589 5.29v2.644c0 1.396 1.149 2.555 2.533 2.555h4.388a7.189 7.189 0 004.034-1.218 7.39 7.39 0 003.151-4.606h-1.03v-1.604zM69.5 47.633c.501 0 .913.416.913.921h-1.796c0-.505.383-.921.883-.921zm-4.712 0c.501 0 .913.416.913.921h-1.825c0-.505.412-.921.913-.921zm1.414 7.518a2.215 2.215 0 01-2.15-1.694h4.3c-.265.98-1.12 1.694-2.15 1.694z" fill="#E99257"/><path d="M64.79 47.633a.922.922 0 00-.914.921h1.826c-.03-.505-.412-.921-.913-.921zm4.711 0c-.5 0-.913.416-.913.921h1.826a.922.922 0 00-.913-.921zm-6.567-5.171c.354.594.796 1.07 1.355 1.456a4.56 4.56 0 002.533.773h6.066l-.56 2.615c.884 0 1.738.564 1.738 1.485v.565a1.1 1.1 0 001.296 1.1.771.771 0 00.442-.209v-.98a1.59 1.59 0 011.59-1.605c.177 0 .383.03.56.06l.324-2.11c.47-3.001-1.002-5.824-3.416-7.191H62.61l-.089.297c-.412 1.367-.206 2.674.412 3.744z" fill="#0E0F2D"/><path d="M75.804 49.297v2.526h1.708c1.178 0 2.12-.98 2.061-2.17-.059-.92-.736-1.663-1.62-1.901-.176-.06-.353-.06-.559-.06a1.61 1.61 0 00-1.59 1.605z" fill="#E99257"/><path d="M66.203 55.15c1.03 0 1.914-.712 2.15-1.693h-4.3a2.215 2.215 0 002.15 1.694z" fill="#F6E8E7"/><path d="M82.047 62.193a2.27 2.27 0 00-1.266-.09 2.159 2.159 0 00-1.59 2.616l.206.862h4.447l-.442-1.873a2.186 2.186 0 00-1.355-1.515z" fill="#484C5B"/><path d="M41.877 38.451H5.978c-1.737 0-3.122 1.426-3.122 3.15v20.8c0 1.754 1.414 3.15 3.122 3.15h35.9c1.737 0 3.121-1.426 3.121-3.15v-20.8c.03-1.724-1.384-3.15-3.122-3.15z" fill="#52B09C"/><path d="M30.569 57.172l2.326 4.814s-.677 1.664-1.443 3.595h4.27l-.677-7.666a36.086 36.086 0 00-4.476-.743zm-8.776.029a40.78 40.78 0 00-6.627 1.248v.06a1.958 1.958 0 011.09-.149c1.09.208 1.738 1.486 1.473 2.793a98.278 98.278 0 00-.825 4.428h7.127l-3.092-3.596.854-4.784z" fill="#2E2B33"/><path d="M30.569 57.172l-.471 4.487-.412 3.922h1.767c.765-1.931 1.443-3.595 1.443-3.595l-2.327-4.814zm-8.776.029l-.854 4.784 3.092 3.596h2.061c-1.119-2.17-2.12-4.13-2.12-4.13l-2.18-4.25z" fill="#0E0F2D"/><path d="M27.918 62.966l-3.946-1.516s1.002 1.961 2.12 4.13h3.623l.412-3.922-2.209 1.308z" fill="#E6C80A"/><path d="M27.742 58.48c-.088 1.07-1.002 1.871-2.062 1.782a1.927 1.927 0 01-1.767-2.08l.089-1.188c-.736.03-1.473.089-2.209.178v.03l2.18 4.249 3.946 1.515 2.179-1.307.471-4.487v-.03a40.986 40.986 0 00-2.739-.178l-.088 1.515z" fill="#CE8569"/><path d="M21.322 49.624a.72.72 0 01-.707-.713v-.09c-1.031 0-1.856-.86-1.856-1.901 0-.505.177-.95.501-1.278 0-.03-.03-.089-.03-.119-1.295.506-2.179 1.783-2.179 3.24 0 1.93 1.561 3.476 3.446 3.476a3.34 3.34 0 002.18-.802 7.177 7.177 0 01-1.032-1.932.44.44 0 01-.323.12z" fill="#0E0F2D"/><path d="M24.267 53.012l-.294 3.981-.089 1.19a1.927 1.927 0 001.767 2.08c1.06.088 1.973-.714 2.062-1.784l.117-1.515.207-2.823h-.089a6.576 6.576 0 01-3.681-1.13z" fill="#CE8569"/><path d="M31.305 39.878c-1.679 2.704-4.476 4.754-7.628 5.824v.654c0 .148-.029.297-.088.445l.06 2.021h-1.62v.09a.694.694 0 01-.384.623 6.393 6.393 0 001.031 1.932c.442.594 1.002 1.1 1.62 1.545a6.6 6.6 0 003.71 1.13h.148s6.155 1.128 6.155-5.38l.03-4.783c-.472-1.338-1.738-3.002-3.034-4.101zm-3.799 5.794c.294 0 .56.238.56.535 0 .297-.236.565-.53.565-.295 0-.56-.238-.56-.535-.03-.327.206-.565.53-.565zm2.385 6.24a2.158 2.158 0 01-2.12-1.782l4.211-.03c-.176 1.04-1.03 1.813-2.09 1.813zm2.74-5.705c0 .297-.236.565-.53.565-.295 0-.56-.238-.56-.535 0-.297.235-.565.53-.565.324 0 .56.238.56.535z" fill="#CE8569"/><path d="M29.892 51.912c1.06 0 1.914-.802 2.09-1.812l-4.21.03a2.158 2.158 0 002.12 1.782z" fill="#F5F5F5"/><path d="M31.63 39.312c-.09.179-.207.357-.325.535 1.296 1.1 2.562 2.764 2.975 4.13v.03c1.148-1.1 1.148-3.06.736-4.487a4.165 4.165 0 00-.5-1.1H32.1c-.147.328-.324.625-.47.892z" fill="#0E0F2D"/><path d="M19.2 45.523c0 .03.03.09.03.119a1.815 1.815 0 011.384-.595h.472c-.148-.03-.324-.059-.472-.089v-.713h3.947a1.899 1.899 0 00-.884 1.278v.178c3.151-1.07 5.978-3.12 7.628-5.824.117-.178.206-.357.324-.535.147-.297.323-.564.47-.861H20.056a6.85 6.85 0 00-1.443 4.1c0 .654.235 1.783.589 2.942z" fill="#2E2B33"/><path d="M20.615 48.822a.728.728 0 01.707-.624c.353 0 .647.267.706.624h1.62l-.059-2.02a1.163 1.163 0 01-1.06.713c.059-1.813-.619-2.288-1.443-2.496h-.471c-.56 0-1.031.237-1.384.594a1.91 1.91 0 00-.501 1.278c0 1.07.854 1.931 1.885 1.931z" fill="#CE8569"/><path d="M21.322 48.197a.728.728 0 00-.707.624v.09a.72.72 0 00.707.713.59.59 0 00.323-.09.694.694 0 00.383-.624v-.089a.728.728 0 00-.706-.624z" fill="#F6E8E7"/><path d="M27.506 46.771c.294 0 .53-.237.53-.564 0-.297-.236-.535-.56-.535-.294 0-.53.238-.53.565 0 .267.265.534.56.534zm4.064-.565c0 .297.235.535.56.535.294 0 .53-.238.53-.565 0-.297-.236-.534-.56-.534-.295.03-.56.267-.53.564z" fill="#0E0F2D"/><path d="M22.529 47.544a1.163 1.163 0 001.148-1.159v-.832a1.9 1.9 0 01.884-1.278h-3.946v.714c.176.03.324.059.47.089.825.148 1.503.624 1.444 2.466zM16.256 58.36c-.383-.06-.736-.03-1.09.148-.648.298-1.178.981-1.354 1.843-.265 1.694-.648 3.447-.972 5.23h4.035c.265-1.486.559-2.972.824-4.428.294-1.307-.353-2.555-1.443-2.793z" fill="#2E2B33"/><path d="M131.022 8.944H95.093c-1.737 0-3.121 1.427-3.121 3.15v20.8c0 1.754 1.413 3.15 3.121 3.15h35.9c1.737 0 3.121-1.426 3.121-3.15v-20.8a3.094 3.094 0 00-3.092-3.15z" fill="#AF2542"/><path d="M122.039 33.191c0-1.189-.942-2.17-2.12-2.199h-.148l1.149.357-.942 4.695h2.032v-.149l.029-2.704z" fill="#656A72"/><path d="M100.718 30.22l-.442.089c.177-.03.295-.06.442-.09zm17.581.416c.177.03.324.089.501.119-.147-.03-.324-.09-.501-.12zm-11.338-1.129zm12.163 1.307c-.029 0-.088-.03-.118-.03.03.03.059.03.118.03zm-2.238-.504c.176.03.353.059.53.118-.177-.03-.354-.089-.53-.118zm.677.148c.206.06.412.09.618.149-.206-.06-.412-.12-.618-.149zm-2.149-.416c.441.06.883.149 1.295.238-.412-.09-.854-.149-1.295-.238zm-4.124 4.517h-2.621l.766 1.515h2.297l.206-.921-.648-.594zm-4.269-5.052v.089l.117-.09h-.117zm0 .416v1.515l1.649 3.12.235-.178-1.884-4.457zm-6.951.416c-.118.03-.236.06-.324.06.118 0 .236-.03.324-.06zm-1.325.297c-.06.03-.118.03-.177.03.059 0 .118-.03.177-.03zm.677-.149c-.089.03-.177.03-.265.06a.84.84 0 01.265-.06zm15.932-.445c-.088-.03-.206-.03-.294-.06l-1.325-2.08-.207.149v1.13l-.913 2.257-1.737-1.099 1.148 1.605-.647.564.677-.505 2.503 2.585h-1.531l-.118.565.118.95h1.178l1.178-3.892-.03-2.17z" fill="#ECE6E1"/><path d="M109.053 29.18v-1.218l-1.915 1.545-.117.09v.326l1.884 4.457 1.178-.92 1.296-.952.648-.564-1.149-1.605-1.825-1.159zm4.476-1.13l.206-.148h-.206v.149z" fill="#ECE6E1"/><path d="M108.669 34.558h2.621l-1.207-1.099-1.178.921-.236.178zm4.359.001h1.531l-2.503-2.585 1.237 1.307-.265 1.278z" fill="#D8D0BC"/><path d="M113.028 34.559l.265-1.278-1.237-1.307-.677.534-1.296.951 1.207 1.1.648.594-.206.921h1.296l-.118-.95.118-.565z" fill="#24455B"/><path d="M114.206 36.074h1.149V32.15l-1.149 3.923zm-5.536-1.515l-1.649-3.12.029 4.635h2.385l-.765-1.515z" fill="#656A72"/><path d="M121.804 15.69a.36.36 0 00.354-.357.36.36 0 00-.354-.356h-.383c.118.208.207.445.207.683l.176.03zm-1.502 0h.648a.589.589 0 00-.177-.417.76.76 0 00-.471-.267v.683z" fill="#0E0F2D"/><path d="M109.052 24.218v4.992l1.826 1.159 1.738 1.1.913-2.26v-3.535h-.148a7.512 7.512 0 01-4.329-1.456z" fill="#FFB096"/><path d="M118.387 18.9a1.926 1.926 0 01-1.884-1.576l-.206-1.04a.41.41 0 00-.383-.327c-.177 0-.354.12-.383.297l-.177 1.01a1.906 1.906 0 01-1.885 1.605h-1.119a1.925 1.925 0 01-1.884-1.575l-.236-1.307c-.03-.119-.03-.208-.03-.327h-1.708l.118 4.1h-2.415a7.244 7.244 0 002.857 4.399 7.276 7.276 0 004.329 1.426h2.768c2.297 0 4.153-1.872 4.153-4.19v-2.734a1.743 1.743 0 01-.795.179h-1.12v.06zm-.441 2.198a2.642 2.642 0 01-4.594 0c-.089-.149-.03-.327.117-.416.148-.09.324-.03.413.119.383.654 1.03 1.04 1.796 1.04.736 0 1.414-.386 1.797-1.04.088-.149.265-.178.412-.119.088.09.118.267.059.416zm-6.008-9.302c-.971 0-1.767.713-1.943 1.635v1.188c-.442 0-.825.149-1.149.386h1.561c.029-.059.088-.118.118-.178a1.45 1.45 0 011.119-.535h2.533c.412 0 .824.179 1.089.505.118.15.236.327.265.535.118-.03.236-.059.383-.059.118 0 .265.03.383.06.059-.179.147-.357.265-.506a1.45 1.45 0 011.119-.535h2.621v-2.525h-8.364v.03z" fill="#FFB096"/><path d="M111.143 17.175c.118.595.619 1.01 1.208 1.01h1.119c.589 0 1.119-.445 1.207-1.04l.236-1.277a.82.82 0 00-.177-.624.721.721 0 00-.559-.267h-2.533a.738.738 0 00-.589.267.7.7 0 00-.147.624l.235 1.307zm1.944-1.574c.295 0 .501.237.501.505a.499.499 0 01-.501.505.5.5 0 01-.501-.505c0-.297.236-.505.501-.505zm4.594-.595a.74.74 0 00-.589.267.7.7 0 00-.147.624l.236 1.308a1.23 1.23 0 001.207 1.01h1.119c.295 0 .589-.119.795-.297v-2.882h-2.621v-.03zm.236 1.604a.499.499 0 01-.501-.505c0-.297.236-.505.501-.505.294 0 .5.238.5.505a.498.498 0 01-.5.505zm-9.424-.92h-.236a1.827 1.827 0 00-.177.564v2.199h-1.472V15.69h-1.738c-.942.178-1.649 1.04-1.649 2.02 0 1.159.913 2.08 2.062 2.08h3.327l-.117-4.1z" fill="#FFB096"/><path d="M117.828 20.681c-.147-.089-.324-.03-.412.12-.383.653-1.031 1.04-1.796 1.04a2.073 2.073 0 01-1.797-1.04c-.088-.15-.265-.179-.412-.12-.147.09-.177.268-.118.416a2.642 2.642 0 004.594 0c.118-.148.089-.326-.059-.416z" fill="#CA7F5C"/><path d="M113.087 16.61a.499.499 0 00.501-.504.499.499 0 00-.501-.505.5.5 0 00-.501.505c0 .297.236.505.501.505zm4.829-1.01c-.294 0-.5.238-.5.506 0 .297.235.505.5.505a.499.499 0 00.501-.505.499.499 0 00-.501-.505z" fill="#0E0F2D"/><path d="M104.812 11.797h15.461c1.678-.119 3.092-1.278 3.592-2.853h-18.818c-.147.476-.235.98-.235 1.486v1.367z" fill="#DA5F2E"/><path d="M108.846 15.006a1.978 1.978 0 011.149-.386v-1.19c.176-.921.972-1.634 1.943-1.634h-7.126v3.21h4.034zm-2.238 3.447h1.443v-2.199a1.8 1.8 0 01.177-.565h-1.649v2.764h.029z" fill="#D27F29"/><path d="M106.608 15.69h3.593c0-.238.089-.476.206-.684h-6.155a.36.36 0 00-.353.356.36.36 0 00.353.357h.619l1.737-.03z" fill="#0E0F2D"/><path d="M110.23 16.016l.236 1.308a1.926 1.926 0 001.885 1.574h1.119c.942 0 1.737-.683 1.884-1.604l.177-1.01c-.029.178-.236.297-.412.267-.177-.03-.295-.238-.265-.416.088-.357.353-.654.677-.773a2.254 2.254 0 00-.265-.535 1.408 1.408 0 00-1.09-.505h-2.532c-.442 0-.825.179-1.119.535a.613.613 0 00-.118.178c-.118.208-.206.446-.206.684 0 .089 0 .208.029.297zm.825-.743a.738.738 0 01.589-.267h2.532c.236 0 .442.089.56.267a.79.79 0 01.177.624l-.236 1.278a1.234 1.234 0 01-1.207 1.04h-1.119c-.589 0-1.09-.416-1.208-1.01l-.236-1.308a.68.68 0 01.148-.624zm6.626-.98a1.4 1.4 0 00-1.119.535 1.655 1.655 0 00-.265.505c.324.119.589.416.677.773.03.178-.059.386-.265.416h-.088a.346.346 0 01-.324-.268l.206 1.04a1.927 1.927 0 001.885 1.575h1.119c.294 0 .559-.06.795-.178.56-.268 1.001-.773 1.09-1.426l.235-1.278c.03-.09.03-.208.03-.297 0-.238-.089-.476-.206-.684-.03-.06-.089-.119-.118-.178a1.492 1.492 0 00-1.002-.505h-2.65v-.03zm2.621.713c.177.03.353.119.471.268.089.118.147.267.177.416v.178l-.236 1.278a1.326 1.326 0 01-.412.742 1.25 1.25 0 01-.795.298h-1.119c-.589 0-1.09-.416-1.208-1.01l-.235-1.308a.937.937 0 01.147-.624.738.738 0 01.589-.268h2.533c.029.03.059.03.088.03z" fill="#0E0F2D"/><path d="M114.854 16.135c-.03.179.059.387.265.416.176.03.383-.06.412-.267.059-.178.206-.297.383-.297a.38.38 0 01.383.327.345.345 0 00.324.267h.088c.177-.03.294-.238.265-.416a1.06 1.06 0 00-.677-.773 1.485 1.485 0 00-.383-.059c-.147 0-.265.03-.383.06-.324.089-.589.356-.677.742z" fill="#0E0F2D"/><path d="M96.86 31.587l-3.269 4.1c.442.238.972.387 1.502.387h2.916l-.03-5.23a2.033 2.033 0 00-1.119.743zm10.16-1.664v-.417h-.059a43.82 43.82 0 00-6.184.714h-.059l-.442.09c-.059 0-.147.029-.206.029-.118.03-.236.06-.324.06-.118.029-.206.059-.324.059-.088.03-.177.03-.265.06-.147.029-.265.059-.412.088-.06.03-.118.03-.177.03-.206.06-.412.09-.589.149l.03 5.23h9.041l-.03-4.606v-1.486zm12.751 1.099c-.235-.06-.441-.119-.677-.178-.029 0-.088-.03-.118-.03-.059 0-.117-.03-.176-.03-.177-.03-.324-.089-.501-.118-.059 0-.088-.03-.147-.03-.206-.06-.413-.09-.619-.149-.059 0-.088-.03-.147-.03a3.387 3.387 0 01-.53-.118c-.059 0-.118-.03-.147-.03-.442-.09-.884-.178-1.296-.238h-.059v6.003h4.624l.942-4.695a7.364 7.364 0 00-1.149-.357z" fill="#828889"/><path d="M86.435 8.944h-35.9c-1.737 0-3.12 1.427-3.12 3.15v20.8c0 1.754 1.413 3.15 3.12 3.15h35.9c1.737 0 3.122-1.426 3.122-3.15v-20.8c.029-1.753-1.385-3.15-3.122-3.15z" fill="#36967A"/><path d="M64.642 34.707h.059c.884 0 1.62.564 1.914 1.367h3.623l-1.767-2.318-3.829.95zm12.251 1.367h3.858l-5.095-1.962c.884.297 1.325 1.16 1.237 1.962z" fill="#FF7262"/><path d="M75.686 34.083l-1.944-.743.03 1.218-.206 1.308s-4.005-.565-4.035-1.754l-.03-.653-1.06.267 1.767 2.318h6.715c.059-.773-.383-1.634-1.237-1.961z" fill="#5B331D"/><path d="M69.501 33.46l.03.653c.03 1.189 4.034 1.753 4.034 1.753l.206-1.307-.029-1.218-.088-2.586a10.72 10.72 0 01-4.3-2.258l.147 4.962z" fill="#5B331D"/><path d="M58.193 11.945l.618 3.09c.53 2.615 3.004 4.339 5.595 3.923l-.765-3.863c-.324-2.259 1.413-4.28 3.652-4.28h.736l-.177-.831a7.396 7.396 0 00-.324-1.07h-8.982c-.442.95-.59 1.991-.353 3.031z" fill="#0E0F2D"/><path d="M69.295 17.918c.206.594.324.98.442 1.278v.03c-1.178 0-2.15.95-2.209 2.11h.648l.118 3.951h-1.855l1.737 2.021c.353.416.766.802 1.178 1.159a11.12 11.12 0 004.3 2.258c.913.238 1.826.357 2.797.357h.59c1.972 0 3.563-1.605 3.563-3.596V26.09a14.65 14.65 0 00-.825-4.903l-2.12-6.122h-6.39c-1.444.03-2.475 1.486-1.974 2.853zm8.364 2.645c.265 0 .471.208.471.475a.467.467 0 01-.471.476.467.467 0 01-.471-.476c0-.267.206-.475.47-.475zm-2.827 5.735c.176-.09.383-.03.5.148.324.565.854.921 1.473.921.618 0 1.148-.356 1.472-.92.089-.179.324-.238.5-.15.178.09.236.328.148.506-.442.802-1.237 1.307-2.09 1.307-.855 0-1.68-.505-2.092-1.307-.147-.178-.088-.416.089-.505zm-1.62-5.735c.265 0 .471.208.471.475a.467.467 0 01-.471.476.467.467 0 01-.471-.476c0-.267.235-.475.47-.475z" fill="#5B331D"/><path d="M68.176 21.365h-.648v2.318H66.41v-.743c0-.862-.707-1.575-1.56-1.575a1.957 1.957 0 00-1.709 1.961c0 1.1.884 1.962 1.973 1.962h3.181l-.118-3.923z" fill="#5B331D"/><path d="M76.775 28.11c.854 0 1.679-.505 2.091-1.307.089-.178.03-.386-.147-.505-.177-.09-.383-.03-.5.148-.325.565-.855.921-1.473.921-.618 0-1.149-.356-1.473-.92-.088-.179-.323-.238-.5-.15-.177.09-.236.328-.147.506.5.802 1.295 1.307 2.15 1.307z" fill="#6C4430"/><path d="M63.611 15.095l.766 3.863.471 2.407a1.56 1.56 0 011.561 1.575v.743h1.12v-2.318a2.211 2.211 0 012.208-2.11v-.03c-.118-.326-.236-.713-.442-1.277-.5-1.367.5-2.823 1.973-2.823h6.39a6.257 6.257 0 00-5.86-4.25L68 10.847h-.736c-2.268-.03-3.976 1.99-3.652 4.25zm14.048 6.418a.467.467 0 00.47-.475.467.467 0 00-.47-.476.467.467 0 00-.472.476c0 .238.207.475.472.475zm-4.447 0a.467.467 0 00.471-.475.467.467 0 00-.471-.476.467.467 0 00-.471.476c0 .238.235.475.47.475z" fill="#0E0F2D"/><path d="M64.672 34.707h-.06c-.853.03-1.59.594-1.855 1.367h3.829a2.011 2.011 0 00-1.914-1.367z" fill="#EC8D75"/><path d="M5.978 8.944h35.9c1.737 0 3.121 1.427 3.121 3.15v20.8c0 1.754-1.414 3.15-3.122 3.15H5.978c-1.737 0-3.122-1.426-3.122-3.15v-20.8c0-1.753 1.385-3.15 3.122-3.15z" fill="#1B587A"/><path d="M15.284 32.657a57.322 57.322 0 01-1.237 3.388h1.473l-.118-3.358-.118-.03zm24.856.505c-3.593-.891-5.979-1.396-7.952-1.664l-1.826 4.576h5.183a7.617 7.617 0 00-.324-.713l4.919-2.199z" fill="#102333"/><path d="M15.402 32.568v.148l.118 3.358h7.922l-1.826-4.635a45.99 45.99 0 00-6.214 1.129z" fill="#102333"/><path d="M32.188 31.468a30.635 30.635 0 00-2.886-.297 2.6 2.6 0 01-2.62 2.555c-1.414 0-2.563-1.129-2.622-2.555-.854.06-1.678.149-2.503.267v.03l1.826 4.636h2.297l1.178-.892 1.178.892h2.327l1.825-4.636z" fill="#ECE6E1"/><path d="M26.888 35.152l1.178.922-1.178-.922z" fill="#D8D0BC"/><path d="M26.888 35.152l-1.178.922h2.356l-1.178-.922z" fill="#DB3333"/><path d="M40.14 33.162l-4.889 2.199c.118.238.206.475.324.713h5.772a54.051 54.051 0 00-1.207-2.912z" fill="#102333"/><path d="M26.711 33.727c1.414 0 2.562-1.13 2.621-2.556v-3.089a7.26 7.26 0 01-4.034 1.217H24.12v1.843a2.6 2.6 0 002.591 2.585zm-6.008-11.975h2.532c1.385 0 2.622.832 3.152 2.11l.942 2.288a5.84 5.84 0 003.475-3.833h-1.001l.707-4.16h.058a2.36 2.36 0 00-1.914-.981v-.03c.265-.832-.03-.06 1.502-3.774a2.155 2.155 0 00-.618-2.436c-.854-.713-2.15-.595-2.916.208a8.83 8.83 0 01-5.684 2.615h-.795a5.642 5.642 0 01.177-2.437c-1.266 1.337-2.003 3.239-2.003 5.319v7.815-.357c.03-1.277 1.09-2.347 2.386-2.347zm5.949-3.595h1.502c.206 0 .353.148.353.356a.342.342 0 01-.353.357h-1.502a.342.342 0 01-.354-.357c0-.178.177-.357.354-.357zm-.413 1.218a.342.342 0 01.471-.149l1.002.535c.177.09.235.297.147.476a.342.342 0 01-.471.148l-1.001-.535c-.148-.06-.236-.297-.148-.475zm-.883-1.218c.265 0 .5.237.5.505a.518.518 0 01-.5.505.518.518 0 01-.5-.505c0-.268.205-.505.5-.505zm-4.712 0c.265 0 .5.237.5.505a.518.518 0 01-.5.505.518.518 0 01-.5-.505c0-.268.205-.505.5-.505z" fill="#FFA685"/><path d="M22.058 26.535h3.21c.148 0 .295 0 .442-.03l-.825-2.02-.088-.178a2.23 2.23 0 01-1.973 1.189c-1.178 0-2.15-.922-2.238-2.11a.738.738 0 00-.619.743v.356c0 1.13.943 2.05 2.091 2.05zM32.63 21.87v.446h.53a2.058 2.058 0 002.062-2.08c0-.892-.59-1.664-1.384-1.962l-1.178 1.16v2.436h-.03zm-2.857.445h1.002c.147-.475.206-.98.206-1.515v-1.248a2.46 2.46 0 00-.442-1.397h-.059l-.707 4.16z" fill="#FFA685"/><path d="M22.824 25.495a2.23 2.23 0 001.973-1.188 1.804 1.804 0 00-1.561-.921h-2.651a2.218 2.218 0 002.239 2.11z" fill="#F6E8E7"/><path d="M20.644 19.166c.265 0 .5-.238.5-.506a.518.518 0 00-.5-.505c-.265 0-.5.238-.5.505 0 .268.206.506.5.506zm4.712 0c.265 0 .5-.238.5-.506a.518.518 0 00-.5-.505c-.265 0-.5.238-.5.505 0 .268.206.506.5.506z" fill="#0E0F2D"/><path d="M25.09 29.299h.177a7.189 7.189 0 004.035-1.218 7.446 7.446 0 003.298-5.765v-2.882l-1.62 1.575V20.8c0 .506-.088 1.01-.205 1.516a5.84 5.84 0 01-3.476 3.833l-.942-2.288a3.407 3.407 0 00-3.151-2.11h-2.533c-1.295 0-2.356 1.07-2.356 2.378v1.486c0 2.05 1.65 3.684 3.711 3.684h3.062zm-5.123-5.2a.76.76 0 01.618-.743h2.65c.648 0 1.237.356 1.561.921l.089.178.824 2.021c-.147 0-.294.03-.442.03h-3.209a2.083 2.083 0 01-2.091-2.08v-.327z" fill="#828889"/><path d="M20.35 11.322a5.164 5.164 0 00-.177 2.436h.795a8.83 8.83 0 005.684-2.615c.795-.802 2.061-.92 2.915-.208.737.624.943 1.605.619 2.437-1.502 3.714-1.207 2.942-1.502 3.774v.03c.795 0 1.473.386 1.914.98.295.386.442.862.442 1.397v1.456l1.62-1.575 1.178-1.16.059-.059v-5.764a4.728 4.728 0 00-1.532-3.507H21.911a5.404 5.404 0 00-1.561 2.377z" fill="#828889"/><path d="M26.652 18.899h1.502a.342.342 0 00.354-.357.342.342 0 00-.354-.357h-1.502a.342.342 0 00-.353.357c0 .178.177.357.353.357zm-.236.981l.972.504a.34.34 0 00.471-.148.348.348 0 00-.147-.476l-1.001-.535a.342.342 0 00-.471.15c-.089.177 0 .415.176.504z" fill="#EC8D75"/><path d="M99.982 62.818c.029.92.029 1.842.029 2.763h1.532l-.471-4.725c-.648.416-1.09 1.16-1.09 1.962z" fill="#0E0F2D"/><path d="M116.562 48.316v.208c0 3.358 2.68 6.062 6.008 6.062h.942v-5.052a6.07 6.07 0 00-4.682-5.913c-.089.832-.766 1.456-1.591 1.456h-.117c-.089.327-.177.654-.295.98.147.268.236.595.236.952 0 .505-.206.95-.501 1.307z" fill="#3B2314"/><path d="M118.829 43.651v-.148c0-.773-.53-1.427-1.237-1.575 0 .148.03.327.03.475 0 .624-.206 1.635-.501 2.704h.118c.824 0 1.502-.654 1.59-1.456z" fill="#FF7262"/><path d="M114.56 49c-.324 1.189-1.002 2.318-1.974 3.298 1.149-.297 2.091-.832 2.71-2.02.235-.446.442-.951.618-1.486-.265.119-.53.178-.854.178h-.5V49z" fill="#3B2314"/><path d="M105.607 59.073h.029l-4.535 1.753v.03l.471 4.725h3.122l1.148-4.963-.235-1.545zm11.014 4.636c-1.031-.357-1.59-1.605-1.267-2.793.295-1.07 1.326-1.694 2.415-1.516l-4.123-1.04-1.325 4.28-.707.505-.677 2.436h6.832l.089-1.426-1.237-.446z" fill="#102333"/><path d="M108.198 65.581h2.739l.677-2.437-3.416 2.437zm-3.504-.001h1.855l-.707-4.962-1.148 4.963z" fill="#ECE6E1"/><path d="M108.051 59.935l-.206-1.308v-.297l-1.001 7.25h.412l3.328-6.27c-1.119.417-2.533.625-2.533.625z" fill="#FFB096"/><path d="M107.874 58.211l-.029.12v.296l.206 1.308s1.413-.208 2.562-.624l1.502-2.853.118-3.833c-1.149 1.07-2.621 1.931-4.3 2.437l-.029 1.426-.03 1.723z" fill="#FFB096"/><path d="M112.586 52.298c.942-.98 1.649-2.139 1.973-3.298h-1.472v-1.367c-.648 0-1.178-.564-1.208-1.218v-.832c-3.18-1.159-6.007-3.269-7.716-6.032-1.354 1.159-2.709 2.882-3.18 4.308 0 1.694 0 4.042.029 5.082.207 3.714 1.326 5.319 3.858 6.537 1.06 0 2.091-.149 3.034-.416a10.268 10.268 0 004.299-2.437c.177-.089.295-.208.383-.327zm-4.565-6.3a.89.89 0 01.884.714h-1.767a.89.89 0 01.883-.713zm-5.624.684a.913.913 0 01.883-.713c.442 0 .795.297.883.713h-1.766zm4.152 6.27s-.03 0 0 0c-.059.03-.118.03-.147.06h-.03c-.088.03-.206.06-.294.06h-.707c-.118-.03-.206-.03-.295-.06h-.029c-.059 0-.088-.03-.147-.03a2.572 2.572 0 01-1.708-2.437h5.094c-.029 1.1-.765 2.05-1.737 2.407z" fill="#FFB096"/><path d="M100.954 44.008c0-.06.029-.09.059-.149.471-1.456 1.825-3.15 3.18-4.308-.118-.208-.235-.387-.353-.595-.089-.178-.177-.327-.265-.505h-3.063c-.147.238-.236.505-.324.803-.412 1.545-.442 3.565.766 4.754z" fill="#3B2314"/><path d="M103.839 38.956c.118.208.236.386.354.594 1.708 2.764 4.535 4.844 7.715 6.032v.832a1.2 1.2 0 001.208 1.219v-.624c0-1.1.883-1.991 1.973-1.991.766 0 1.414.416 1.738 1.07.088-.327.206-.654.294-.981.295-1.07.501-2.08.501-2.704 0-.149 0-.327-.03-.476a7.332 7.332 0 00-1.207-3.447h-12.811a6.6 6.6 0 01.265.476z" fill="#5B331D"/><path d="M113.087 49h1.973c.295 0 .589-.06.854-.178.236-.12.471-.298.648-.506a2.03 2.03 0 00.471-1.307c0-.327-.088-.654-.235-.951-.324-.624-1.002-1.07-1.738-1.07-1.09 0-1.973.892-1.973 1.991V49z" fill="#FFB096"/><path d="M117.769 59.4a2.14 2.14 0 00-2.414 1.516c-.324 1.188.235 2.436 1.266 2.793.412.149.824.297 1.237.475a26.46 26.46 0 012.915 1.427h10.249c.353 0 .677-.06.972-.149-4.212-2.971-10.514-4.665-13.871-5.943-.118-.06-.236-.089-.354-.119z" fill="#102333"/><path d="M112.322 62.639l1.325-4.28-1.502-1.871-.03-.03-1.502 2.853-3.327 6.27h.913l3.416-2.437.707-.505z" fill="#D8D0BC"/><path d="M107.874 58.211l.03-1.753v.03l-2.268 2.585h-.03l.236 1.545.707 4.962h.294l1.002-7.25.029-.119z" fill="#ECE6E1"/><path d="M103.31 45.999a.89.89 0 00-.884.713h1.767c-.118-.416-.471-.713-.883-.713zm4.712 0a.89.89 0 00-.884.713h1.767a.89.89 0 00-.883-.713z" fill="#0E0F2D"/><path d="M106.519 52.952c-.059.03-.088.03-.147.03.059 0 .118-.03.147-.03zm-1.531.03c-.059 0-.088-.03-.147-.03.059 0 .118.03.147.03zm.353.089c-.117-.03-.206-.03-.294-.06.088 0 .177.03.294.06z" fill="#F6E8E7"/><path d="M103.163 50.516a2.57 2.57 0 001.708 2.436 2.49 2.49 0 01-1.355-1.159h4.417a2.602 2.602 0 01-1.354 1.16 2.573 2.573 0 001.708-2.437h-5.124zm3.209 2.465c-.088.03-.206.06-.294.06.088 0 .176-.03.294-.06z" fill="#F6E8E7"/><path d="M107.904 51.793h-4.418c.295.535.795.95 1.355 1.159.059.03.088.03.147.03h.03c.088.03.206.059.294.059h.707c.118-.03.206-.03.295-.06h.029c.059 0 .088-.03.147-.03a2.517 2.517 0 001.414-1.158z" fill="#0E0F2D"/></svg>