<svg width="337" height="102" viewBox="0 0 337 102" fill="none" xmlns="http://www.w3.org/2000/svg"><path d="M129.4.1H9.4C8.3.1 7.5 1 7.5 2v27.6c0 1.1.9 1.9 1.9 1.9h18l6.9 6.9c.6.6 1.5.6 2.1 0l6.9-6.9h86.1c1.1 0 1.9-.9 1.9-1.9V2.1c.1-1.1-.8-2-1.9-2z" fill="#0088CF"/><path d="M29.2 17.5h2.7v2.2H29l-.4 3.3h-2.3l.4-3.3h-3l-.4 3.3H21l.4-3.3h-2.7v-2.2h3l.4-3.3h-2.7V12h3l.4-3.3h2.3l-.4 3.3h3l.4-3.3h2.3L30 12h2.7v2.2h-3l-.5 3.3zm-2.4 0l.4-3.3h-3l-.4 3.3h3zm10.7 4.8c-1.1-.7-2.1-1.5-2.7-2.7-.7-1.1-1-2.4-1-3.8s.3-2.7 1-3.8c.7-1.1 1.6-2 2.8-2.6 1.2-.6 2.5-1 4-1 1.2 0 2.4.2 3.4.7 1 .4 1.8 1.1 2.5 1.9l-2.1 2c-1-1.1-2.2-1.7-3.6-1.7-.9 0-1.7.2-2.4.6-.7.4-1.2.9-1.6 1.6-.4.7-.6 1.5-.6 2.4 0 .9.2 1.7.6 2.4.4.7.9 1.2 1.6 1.6.7.4 1.5.6 2.4.6 1.4 0 2.6-.6 3.6-1.7l2.1 2c-.7.8-1.5 1.5-2.5 1.9-1 .4-2.1.7-3.4.7-1.6-.2-2.9-.5-4.1-1.1zm22-9.3c.8.8 1.3 2 1.3 3.7V23h-3.2v-5.8c0-.9-.2-1.5-.6-2-.4-.4-.9-.6-1.7-.6-.8 0-1.4.2-1.9.7-.5.5-.7 1.2-.7 2.2V23h-3.3V7.8h3.2v5.3c.4-.4.9-.7 1.5-1 .6-.2 1.3-.3 2-.3 1.4 0 2.5.4 3.4 1.2zm15 5.4h-8.3c.2.7.5 1.2 1.1 1.6.6.4 1.3.6 2.1.6.6 0 1.1-.1 1.5-.3.4-.2.9-.4 1.2-.8l1.7 1.8c-1 1.2-2.6 1.8-4.6 1.8-1.2 0-2.3-.2-3.3-.7-1-.5-1.7-1.2-2.2-2-.5-.9-.8-1.8-.8-2.9 0-1.1.3-2.1.8-2.9.5-.9 1.2-1.5 2.1-2 .9-.5 1.9-.7 3-.7s2.1.2 2.9.7c.9.5 1.6 1.1 2.1 2 .5.9.7 1.9.7 3 .1 0 0 .2 0 .8zM67 14.8c-.5.4-.8 1-.9 1.7h5.4c-.1-.7-.4-1.3-.9-1.7-.5-.4-1.1-.6-1.8-.6s-1.3.2-1.8.6zm11.8 7.6c-.9-.5-1.7-1.2-2.2-2-.5-.9-.8-1.8-.8-2.9 0-1.1.3-2.1.8-2.9.5-.9 1.3-1.5 2.2-2 .9-.5 2-.7 3.2-.7 1.2 0 2.2.2 3 .7.9.5 1.5 1.2 1.9 2.1L84.4 16c-.6-1-1.4-1.5-2.5-1.5-.8 0-1.5.3-2.1.8-.5.5-.8 1.3-.8 2.2 0 .9.3 1.7.8 2.2.5.5 1.2.8 2.1.8 1.1 0 1.9-.5 2.5-1.5l2.5 1.4c-.4.9-1 1.6-1.9 2.1-.9.5-1.9.7-3 .7-1.2 0-2.2-.3-3.2-.8zm14.7-3.7L92 20.2V23h-3.2V7.8H92v8.6l4.7-4.4h3.8l-4.6 4.7 5 6.4H97l-3.5-4.4zm9-10.1h3.3V23h-3.3V8.6zM119 13c.8.8 1.3 2 1.3 3.7V23h-3.2v-5.8c0-.9-.2-1.5-.6-2-.4-.4-.9-.6-1.7-.6-.8 0-1.4.2-1.9.7-.5.5-.7 1.2-.7 2.2V23H109V12h3.1v1.3c.4-.5 1-.8 1.6-1.1.6-.3 1.3-.4 2.1-.4 1.3 0 2.4.4 3.2 1.2z" fill="#fff"/><path d="M16.9 53.2h4.8v9.2c-1.2.9-2.6 1.6-4.3 2.1-1.6.5-3.2.7-4.9.7-2.3 0-4.5-.5-6.3-1.5-1.9-1-3.3-2.4-4.4-4.2-1.1-1.8-1.6-3.8-1.6-6s.5-4.2 1.6-6c1.1-1.8 2.5-3.2 4.4-4.2 1.9-1 4-1.5 6.4-1.5 2 0 3.8.3 5.4 1 1.6.7 3 1.6 4.1 2.9l-3.4 3.1c-1.6-1.7-3.6-2.5-5.8-2.5-1.4 0-2.7.3-3.8.9-1.1.6-2 1.5-2.6 2.5-.6 1.1-.9 2.4-.9 3.8s.3 2.6.9 3.7c.6 1.1 1.5 2 2.6 2.6 1.1.6 2.4.9 3.8.9 1.5 0 2.9-.3 4.1-1v-6.5h-.1zm21.7-4.1c1.4 1.3 2.2 3.2 2.2 5.8v9.9h-4.7v-2.2c-.9 1.6-2.7 2.4-5.3 2.4-1.3 0-2.5-.2-3.5-.7-1-.5-1.7-1.1-2.2-1.9-.5-.8-.8-1.7-.8-2.7 0-1.6.6-2.9 1.8-3.8 1.2-.9 3.1-1.4 5.6-1.4h4c0-1.1-.3-1.9-1-2.5-.7-.6-1.7-.9-3-.9-.9 0-1.8.1-2.7.4-.9.3-1.7.7-2.3 1.2l-1.8-3.5c.9-.7 2.1-1.2 3.4-1.5 1.3-.4 2.7-.5 4.1-.5 2.7 0 4.8.7 6.2 1.9zm-4.3 12c.7-.4 1.1-1 1.4-1.8v-1.8h-3.5c-2.1 0-3.1.7-3.1 2 0 .6.3 1.2.8 1.5.5.4 1.2.6 2.1.6.9.1 1.7-.1 2.3-.5zm37.6-12c1.3 1.3 1.9 3.2 1.9 5.8v9.9h-5v-9.2c0-1.4-.3-2.4-.9-3.1-.6-.7-1.4-1-2.4-1-1.2 0-2.1.4-2.8 1.1-.7.8-1 1.9-1 3.4v8.7h-5v-9.2c0-2.7-1.1-4.1-3.3-4.1-1.2 0-2.1.4-2.8 1.1-.7.8-1 1.9-1 3.4v8.7h-5V47.5h4.8v2c.6-.7 1.4-1.3 2.4-1.7.9-.4 2-.6 3.1-.6 1.2 0 2.3.2 3.3.7 1 .5 1.8 1.2 2.4 2.1.7-.9 1.6-1.6 2.7-2.1s2.3-.7 3.6-.7c2 0 3.7.7 5 1.9zm20.3-.8c1.3.7 2.4 1.8 3.1 3.1.8 1.3 1.1 2.9 1.1 4.7 0 1.8-.4 3.4-1.1 4.7-.8 1.3-1.8 2.4-3.1 3.1-1.3.7-2.8 1.1-4.4 1.1-2.4 0-4.2-.8-5.5-2.3v2h-4.8V40.9h5v8.4c1.3-1.4 3-2.1 5.2-2.1 1.7 0 3.2.4 4.5 1.1zm-2.1 11.4c.8-.9 1.2-2 1.2-3.5s-.4-2.6-1.2-3.5c-.8-.9-1.9-1.3-3.2-1.3-1.3 0-2.4.4-3.2 1.3-.8.9-1.2 2-1.2 3.5s.4 2.6 1.2 3.5c.8.9 1.9 1.3 3.2 1.3 1.3 0 2.4-.5 3.2-1.3zm9.1-18.8h5v23.9h-5V40.9zm25.9 16.7H112c.2 1.1.8 1.9 1.7 2.5.9.6 2 .9 3.3.9.9 0 1.7-.1 2.4-.4.7-.3 1.3-.7 2-1.3l2.7 2.9c-1.6 1.9-4 2.8-7.2 2.8-2 0-3.7-.4-5.2-1.1-1.5-.8-2.7-1.8-3.5-3.2-.8-1.4-1.2-2.9-1.2-4.6 0-1.7.4-3.2 1.2-4.6.8-1.4 1.9-2.4 3.3-3.2 1.4-.8 3-1.1 4.7-1.1 1.7 0 3.2.4 4.6 1.1 1.4.7 2.5 1.8 3.2 3.1.8 1.4 1.2 3 1.2 4.8 0 .1 0 .5-.1 1.4zM113.4 52c-.8.6-1.2 1.5-1.4 2.6h8.6c-.2-1.1-.6-2-1.4-2.6-.8-.7-1.7-1-2.8-1-1.3 0-2.3.4-3 1zm29.6 8h-10.5l-2 4.8h-5.4l10.1-22.6h5.2l10.1 22.6H145l-2-4.8zm-1.6-4l-3.6-8.6-3.6 8.6h7.2zm37.4-8.5l-6.3 17.4h-4.8l-3.9-10.8-4 10.8H155l-6.3-17.4h4.7l4.1 11.7 4.3-11.7h4.3l4.1 11.7 4.2-11.7h4.4zm14.9 1.6c1.4 1.3 2.2 3.2 2.2 5.8v9.9h-4.7v-2.2c-.9 1.6-2.7 2.4-5.3 2.4-1.3 0-2.5-.2-3.5-.7-1-.5-1.7-1.1-2.2-1.9-.5-.8-.8-1.7-.8-2.7 0-1.6.6-2.9 1.8-3.8 1.2-.9 3.1-1.4 5.6-1.4h4c0-1.1-.3-1.9-1-2.5-.7-.6-1.7-.9-3-.9-.9 0-1.8.1-2.7.4-.9.3-1.7.7-2.3 1.2l-1.8-3.5c.9-.7 2.1-1.2 3.4-1.5 1.3-.4 2.7-.5 4.1-.5 2.7 0 4.7.7 6.2 1.9zm-4.3 12c.7-.4 1.1-1 1.4-1.8v-1.8h-3.4c-2.1 0-3.1.7-3.1 2 0 .6.3 1.2.8 1.5.5.4 1.2.6 2.1.6.8.1 1.5-.1 2.2-.5zm17.4-13.2c1-.4 2.2-.6 3.5-.6v4.6c-.6 0-.9-.1-1.1-.1-1.4 0-2.6.4-3.4 1.2-.8.8-1.2 2-1.2 3.6v8.2h-5V47.5h4.8v2.3c.6-.9 1.4-1.5 2.4-1.9zm22.7 9.7h-13.1c.2 1.1.8 1.9 1.7 2.5.9.6 2 .9 3.3.9.9 0 1.7-.1 2.4-.4.7-.3 1.3-.7 2-1.3l2.7 2.9c-1.6 1.9-4 2.8-7.2 2.8-2 0-3.7-.4-5.2-1.1-1.5-.8-2.7-1.8-3.5-3.2-.8-1.4-1.2-2.9-1.2-4.6 0-1.7.4-3.2 1.2-4.6.8-1.4 1.9-2.4 3.3-3.2 1.4-.8 3-1.1 4.7-1.1 1.7 0 3.2.4 4.6 1.1 1.4.7 2.5 1.8 3.2 3.1.8 1.4 1.2 3 1.2 4.8 0 .1 0 .5-.1 1.4zM217.7 52c-.8.6-1.2 1.5-1.4 2.6h8.6c-.2-1.1-.6-2-1.4-2.6-.8-.7-1.7-1-2.8-1-1.2 0-2.2.4-3 1zm58.9-9.8l-7.4 22.6h-5.6l-5-15.3-5.1 15.3h-5.6l-7.4-22.6h5.4l5.1 15.9 5.3-15.9h4.8l5.2 16 5.3-16h5zm17.9 15.4h-13.1c.2 1.1.8 1.9 1.7 2.5.9.6 2 .9 3.3.9.9 0 1.7-.1 2.4-.4.7-.3 1.3-.7 2-1.3l2.7 2.9c-1.6 1.9-4 2.8-7.2 2.8-2 0-3.7-.4-5.2-1.1-1.5-.8-2.7-1.8-3.5-3.2-.8-1.4-1.2-2.9-1.2-4.6 0-1.7.4-3.2 1.2-4.6.8-1.4 1.9-2.4 3.3-3.2 1.4-.8 3-1.1 4.7-1.1 1.7 0 3.2.4 4.6 1.1 1.4.7 2.5 1.8 3.2 3.1.8 1.4 1.2 3 1.2 4.8 0 .1-.1.5-.1 1.4zM282.7 52c-.8.6-1.2 1.5-1.4 2.6h8.6c-.2-1.1-.6-2-1.4-2.6-.8-.7-1.7-1-2.8-1-1.3 0-2.2.4-3 1zm31.6 5.6h-13.1c.2 1.1.8 1.9 1.7 2.5.9.6 2 .9 3.3.9.9 0 1.7-.1 2.4-.4.7-.3 1.3-.7 2-1.3l2.7 2.9c-1.6 1.9-4 2.8-7.2 2.8-2 0-3.7-.4-5.2-1.1-1.5-.8-2.7-1.8-3.5-3.2-.8-1.4-1.2-2.9-1.2-4.6 0-1.7.4-3.2 1.2-4.6.8-1.4 1.9-2.4 3.3-3.2 1.4-.8 3-1.1 4.7-1.1 1.7 0 3.2.4 4.6 1.1 1.4.7 2.5 1.8 3.2 3.1.8 1.4 1.2 3 1.2 4.8 0 .1 0 .5-.1 1.4zM302.5 52c-.8.6-1.2 1.5-1.4 2.6h8.6c-.2-1.1-.6-2-1.4-2.6-.8-.7-1.7-1-2.8-1-1.2 0-2.2.4-3 1zm22 6l-2.4 2.4v4.4h-5V40.9h5v13.6l7.4-7h6l-7.2 7.4 7.9 10h-6.1l-5.6-6.9zM5 100.199c-1.6-.8-2.8-2-3.7-3.5-.9-1.5-1.3-3.2-1.3-5 0-1.9.4-3.5 1.3-5S3.4 84 5 83.2c1.6-.8 3.3-1.3 5.3-1.3s3.7.4 5.3 1.3c1.6.8 2.8 2 3.7 3.5.9 1.5 1.4 3.2 1.4 5 0 1.9-.5 3.5-1.4 5-.9 1.5-2.1 2.7-3.7 3.5-1.6.8-3.3 1.3-5.3 1.3-1.9 0-3.7-.4-5.3-1.3zm8.4-3.2c.9-.5 1.6-1.2 2.1-2.1.5-.9.8-2 .8-3.1 0-1.2-.3-2.2-.8-3.1-.5-.9-1.2-1.6-2.1-2.1-.9-.5-1.9-.8-3-.8s-2.1.3-3 .8c-.9.5-1.6 1.2-2.1 2.1-.5.9-.8 2-.8 3.1 0 1.2.3 2.2.8 3.1.5.9 1.2 1.6 2.1 2.1.9.5 1.9.8 3 .8s2.1-.3 3-.8zm12.8 3.4c-1.2-.6-2.2-1.5-2.9-2.7-.7-1.1-1-2.4-1-3.9 0-1.4.3-2.7 1-3.9.7-1.1 1.7-2 2.9-2.7 1.2-.6 2.6-1 4.2-1 1.5 0 2.9.3 4 1 1.1.6 2 1.6 2.5 2.7l-3.3 1.8c-.8-1.3-1.8-2-3.3-2-1.1 0-2 .4-2.7 1.1-.7.7-1.1 1.7-1.1 2.9s.4 2.2 1.1 2.9c.7.7 1.6 1.1 2.7 1.1 1.4 0 2.5-.7 3.3-2l3.3 1.8c-.5 1.2-1.4 2.1-2.5 2.7-1.1.6-2.5 1-4 1-1.6.2-2.9-.1-4.2-.8zm22.7.101c-.4.3-.9.5-1.5.7-.6.2-1.2.2-1.9.2-1.7 0-3.1-.4-4-1.3-.9-.9-1.4-2.2-1.4-3.9v-6h-2.2V87h2.2v-3.5h4.2V87h3.6v3.2h-3.6v5.9c0 .6.2 1.1.5 1.4.3.3.8.5 1.3.5.7 0 1.2-.2 1.7-.5l1.1 3zm4.4-.101c-1.2-.6-2.2-1.5-2.9-2.7-.7-1.1-1-2.4-1-3.9 0-1.4.3-2.7 1-3.9.7-1.1 1.6-2 2.9-2.7 1.2-.6 2.6-1 4.1-1 1.5 0 2.9.3 4.1 1 1.2.6 2.2 1.5 2.8 2.7.7 1.1 1 2.4 1 3.9 0 1.4-.3 2.7-1 3.9-.7 1.1-1.6 2-2.8 2.7-1.2.6-2.6 1-4.1 1-1.5 0-2.9-.3-4.1-1zm6.8-3.6c.7-.7 1-1.7 1-2.9s-.3-2.2-1-2.9c-.7-.7-1.6-1.1-2.7-1.1s-2 .4-2.7 1.1c-.7.7-1.1 1.7-1.1 2.9s.4 2.2 1.1 2.9c.7.7 1.6 1.1 2.7 1.1s2-.4 2.7-1.1zM79.9 87.3c1.1.6 2 1.5 2.6 2.6.6 1.1.9 2.4.9 3.9s-.3 2.8-.9 3.9c-.6 1.1-1.5 2-2.6 2.599-1.1.6-2.3.9-3.7.9-2 0-3.5-.6-4.6-1.9v1.7h-4v-20.1h4.2V88c1.1-1.2 2.5-1.8 4.4-1.8 1.4.2 2.6.5 3.7 1.1zm-1.7 9.5c.7-.7 1-1.7 1-2.9s-.3-2.2-1-2.9c-.7-.7-1.6-1.1-2.7-1.1s-2 .4-2.7 1.1c-.7.7-1 1.7-1 2.9s.3 2.2 1 2.9c.7.7 1.6 1.1 2.7 1.1s2-.4 2.7-1.1zm21.8-1.7H89c.2.9.7 1.6 1.4 2.1s1.7.8 2.8.8c.8 0 1.4-.1 2-.3.6-.2 1.1-.6 1.6-1.1L99 99c-1.4 1.599-3.4 2.399-6 2.399-1.6 0-3.1-.3-4.4-1-1.3-.6-2.2-1.5-2.9-2.7-.7-1.1-1-2.4-1-3.9 0-1.4.3-2.7 1-3.9.7-1.1 1.6-2 2.8-2.7 1.2-.6 2.5-1 4-1 1.4 0 2.7.3 3.9.9 1.2.6 2.1 1.5 2.7 2.6.7 1.1 1 2.5 1 4 0 .3 0 .7-.1 1.4zm-9.8-4.7c-.6.5-1 1.3-1.2 2.2h7.2c-.1-.9-.5-1.7-1.2-2.2-.6-.5-1.4-.8-2.4-.8s-1.8.3-2.4.8zm18.2-3.5c.9-.4 1.8-.5 3-.5v3.9c-.5 0-.8-.1-.9-.1-1.2 0-2.2.3-2.8 1-.7.7-1 1.7-1 3v6.899h-4.2v-14.5h4v1.9c.4-.7 1-1.2 1.9-1.6zm19.6-4.7v18.899h-4.4v-15.3h-3.8v-3.5h8.2v-.1zm16 2.1c1.5 1.6 2.2 3.9 2.2 7 0 2.1-.4 4-1.2 5.5-.8 1.5-1.9 2.7-3.4 3.499-1.5.8-3.1 1.2-5.1 1.2-1 0-2-.1-2.9-.3-.9-.2-1.7-.5-2.4-1l1.6-3.2c.9.6 2.1.9 3.5.9 1.6 0 2.9-.5 3.8-1.4.9-.9 1.4-2.3 1.5-4.1-1.1 1.1-2.7 1.7-4.7 1.7-1.2 0-2.3-.2-3.3-.7-1-.5-1.8-1.2-2.4-2.1-.6-.9-.9-1.9-.9-3.1 0-1.3.3-2.4.9-3.3.6-1 1.5-1.7 2.6-2.2 1.1-.5 2.3-.8 3.6-.8 3 0 5.1.8 6.6 2.4zm-3.6 5.7c.6-.5.9-1.2.9-2s-.3-1.5-.9-2c-.6-.5-1.4-.8-2.4-.8-.9 0-1.7.3-2.3.8-.6.5-.9 1.2-.9 2.1 0 .9.3 1.6.9 2.1.6.5 1.4.8 2.3.8 1.1-.2 1.8-.4 2.4-1zm14.5 2.2h13.5v2.6h-13.5v-2.6zm36.4 5.4v3.6H177v-2.8l7.3-6.9c.8-.7 1.3-1.4 1.6-1.9.3-.5.4-1.1.4-1.6 0-.8-.3-1.3-.8-1.7-.5-.4-1.3-.6-2.3-.6-.8 0-1.6.2-2.2.5-.7.3-1.2.8-1.7 1.4l-3.2-2.1c.7-1.1 1.8-2 3.1-2.6 1.3-.6 2.8-.9 4.5-.9 1.4 0 2.6.2 3.7.7 1.1.5 1.9 1.1 2.5 1.9.6.8.9 1.8.9 3 0 1-.2 2-.6 2.9-.4.9-1.3 1.9-2.5 3.1l-4.4 4.1h8v-.1zm14.3-6.7c1.3 1.1 1.9 2.5 1.9 4.3 0 1.2-.3 2.2-.9 3.1-.6.9-1.5 1.7-2.6 2.299-1.2.6-2.6.9-4.4.9-1.3 0-2.6-.2-3.9-.5-1.3-.4-2.4-.9-3.3-1.5l1.7-3.4c.7.5 1.5 1 2.5 1.3.9.3 1.9.4 2.9.4 1.1 0 2-.2 2.6-.6.6-.4.9-1 .9-1.8s-.3-1.4-1-1.8c-.7-.4-1.8-.6-3.4-.6h-4.8l1-10.6h11.6v3.5h-7.9l-.3 3.6h1.5c2.7-.2 4.7.4 5.9 1.4z" fill="#000"/></svg>