<svg width="61" height="67" viewBox="0 0 61 67" fill="none" xmlns="http://www.w3.org/2000/svg"><path d="M16.463 51.426L6.625 39.89H2.427v18.09h4.066V46.445l9.84 11.535h4.197V39.89h-4.067v11.536zM55.49 39.89l-2.689 11.601-2.82-11.6h-3.87l-2.886 11.47L40.6 39.89h-4.264l4.724 18.09h4.198l2.755-11.47 2.82 11.47h4.133l.065-.131 4.723-17.959H55.49zM2.033 63.55c0-1.572 1.18-2.883 2.886-2.883.984 0 1.574.262 2.165.786l-.656.721c-.46-.393-.853-.59-1.574-.59-1.05 0-1.837.918-1.837 1.967 0 1.18.787 2.032 1.902 2.032.525 0 .984-.197 1.378-.394v-1.048H4.854v-.852h2.36v2.36c-.524.458-1.377.851-2.36.851-1.706-.065-2.82-1.31-2.82-2.95zm5.838 0c0-1.572 1.246-2.883 2.951-2.883 1.706 0 2.952 1.31 2.952 2.884 0 1.573-1.246 2.884-2.951 2.884-1.771 0-2.952-1.311-2.952-2.884zm4.788 0c0-1.113-.787-2.03-1.902-2.03-1.115 0-1.902.917-1.902 1.965 0 1.115.787 1.966 1.902 1.966 1.18.066 1.902-.851 1.902-1.9zm.984-2.817h1.115l1.705 4.325 1.706-4.325h1.05l-2.362 5.636h-.853l-2.361-5.636zm6.165 0h4.133v.852h-3.149v1.441h2.82v.852h-2.82v1.508h3.214v.852h-4.198v-5.505zm5.182 0h2.493c.721 0 1.246.196 1.64.59.327.327.459.72.459 1.18 0 .917-.525 1.441-1.312 1.703l1.508 2.098h-1.18l-1.378-1.967h-1.246v1.967h-.984v-5.571zm2.427 2.752c.722 0 1.18-.393 1.18-.917 0-.59-.458-.918-1.18-.918h-1.443v1.9h1.443v-.065zm3.017-2.752h.919L34.37 64.6v-3.867h.984v5.57H34.5l-3.083-3.997v3.998h-.984v-5.571zm5.903 0h1.05l1.705 2.621 1.706-2.621h1.05v5.57h-.985v-3.997l-1.77 2.621-1.772-2.622v3.999h-.983v-5.571zm6.428 0h4.133v.852h-3.149v1.441h2.82v.852h-2.82v1.508h3.214v.852h-4.197v-5.505zm5.182 0h.918l3.018 3.867v-3.867h.984v5.57h-.853l-3.083-3.997v3.998h-.984v-5.571zm7.412.917h-1.77v-.917h4.525v.917h-1.771v4.72h-.984v-4.72zm-33.714-6.16l2.361-2.885c1.64 1.377 3.411 2.229 5.51 2.229 1.64 0 2.624-.656 2.624-1.704v-.066c0-1.048-.656-1.573-3.739-2.36-3.739-.917-6.1-1.965-6.1-5.636v-.065c0-3.343 2.69-5.571 6.428-5.571 2.69 0 4.985.852 6.822 2.36l-2.1 3.014c-1.64-1.114-3.213-1.835-4.788-1.835-1.574 0-2.361.72-2.361 1.573v.065c0 1.18.787 1.573 3.936 2.425 3.738.983 5.837 2.294 5.837 5.506v.065c0 3.67-2.755 5.703-6.756 5.703-2.623.13-5.444-.852-7.674-2.819z" fill="#002664"/><path d="M12.134 5.547c.132 0 .263 0 .328.065 0 0 .197.066.525.197.525.262 3.41 1.507 6.756 3.67a2.01 2.01 0 00-.984 1.377v.065c-.197 1.049-.984 4.85-.984 9.241 0 3.212.394 6.03 1.18 8.39.788 2.49 2.362 4.129 3.608 5.112-3.28-.131-6.23-2.163-8.33-5.768-2.689-4.719-3.28-10.945-3.28-15.27 0-1.967.132-3.54.197-4.589.132-1.114.197-1.77.197-1.77.197-.458.394-.72.787-.72zm28.533 5.112a.497.497 0 00-.263.131s-.13.066-.262.262c-.197.131-.46.393-.853.721A33.156 33.156 0 0036.6 14.46c-1.902 2.098-4.395 5.44-5.575 9.242-.656 2.228-1.05 4.194-.984 5.767 0 1.18.197 2.163.59 2.95.394.786.918 1.31 1.706 1.704.327.13.721.196 1.246.196 2.296 0 6.1-1.9 7.412-6.16.721-2.294 1.05-4.982 1.05-7.997 0-3.801-.526-7.078-.788-8.323a7.893 7.893 0 00-.131-.721c-.197-.197-.262-.46-.46-.46zm-20.137 0c-.197 0-.328.262-.393.524 0 .066-.066.262-.132.721-.065.328-.196.983-.328 1.966-.196 1.508-.459 3.802-.459 6.358 0 3.08.394 5.768 1.05 7.996 1.312 4.26 5.247 6.16 7.608 6.16.525 0 .919-.065 1.312-.261.197-.066.394-.197.59-.328-.196-.262-.327-.524-.459-.787-.459-.917-.656-2.097-.721-3.539 0-1.77.393-3.801 1.115-6.16.066-.197.131-.46.197-.656 0-.066.065-.197.065-.262-2.492-6.227-8.264-10.88-8.855-11.404a1.458 1.458 0 00-.328-.263c-.13-.065-.196-.065-.262-.065zM30.566.5c-.132 0-.263.131-.394.328 0 0-.131.196-.328.459-.262.458-.59.917-.853 1.441-.59 1.115-1.574 2.884-2.492 5.047a56.651 56.651 0 00-1.771 4.653c1.836 1.836 4.329 4.72 6.034 8.259 1.312-2.753 3.214-5.506 5.772-8.127-1.77-5.31-4.197-9.635-5.181-11.274a15.36 15.36 0 00-.328-.524C30.762.5 30.63.5 30.565.5zM48.93 5.547c-.065 0-.197 0-.328.065 0 0-.197.066-.525.197-.327.13-.721.328-1.311.59l-.197.065a55.836 55.836 0 00-4.788 2.622c-.197.065-.328.197-.525.328.46.262.853.72.984 1.376v.066c.197 1.048.918 4.85.918 9.24 0 3.147-.393 5.965-1.115 8.39-.787 2.556-2.296 4.13-3.542 5.112 3.214-.13 6.1-2.162 8.2-5.767 2.688-4.72 3.279-10.946 3.279-15.271 0-1.573-.066-3.08-.197-4.588-.131-1.115-.197-1.77-.197-1.77 0-.393-.262-.655-.656-.655zm-8.986-3.67h-.131c-.131 0-.197.065-.328.13 0 0-.721.46-1.836 1.246-.59.459-1.575 1.18-2.755 2.097a63.002 63.002 0 012.295 5.374c1.378-1.114 2.952-2.162 4.723-3.211-.525-2.49-1.05-4.391-1.312-5.112v-.066c-.066-.262-.328-.459-.656-.459zm-18.825 0c-.328 0-.524.196-.655.524v.065c-.197.721-.788 2.556-1.312 5.112a45.569 45.569 0 014.722 3.212c.656-1.77 1.378-3.54 2.296-5.374-.918-.787-1.837-1.508-2.755-2.098-1.115-.786-1.836-1.245-1.836-1.245-.132-.066-.197-.131-.328-.131-.066-.066-.066-.066-.131-.066zM5.313 13.607H3.804c-.393 0-.721.197-.918.59a1.32 1.32 0 00-.197.721c.066.655.525 3.015 3.345 6.62 1.443-.721 2.886-1.377 4.264-1.9a50.87 50.87 0 01-.525-5.769c-1.705-.13-3.083-.196-3.935-.196-.197-.066-.394-.066-.525-.066zm50.505 0h-.524c-.853 0-2.23.066-3.936.197-.066 1.966-.197 3.932-.525 5.768 1.378.524 2.82 1.18 4.264 1.9 2.82-3.605 3.28-5.964 3.345-6.62 0-.196-.131-.524-.197-.72-.262-.328-.59-.525-.918-.59 0 .13-.59.065-1.509.065zm-5.247 7.34c-.59 2.95-1.509 5.44-2.69 7.604-1.245 2.228-2.82 3.867-4.722 4.98 13.446-.72 17.25-5.046 17.644-5.57.132-.197.197-.459.197-.656 0-.393-.197-.786-.46-.983 0 0-.13-.13-.458-.327-.197-.131-.525-.394-.919-.59-.13-.066-.196-.131-.327-.197-.984-.59-2.493-1.573-4.395-2.49a22.762 22.762 0 00-3.87-1.77zm-40.076 0c-4.526 1.705-8.2 4.13-9.577 5.048-.262.196-.459.327-.459.327-.262.197-.459.59-.459.983 0 .262.066.46.197.656v.065s.065.066.065.131l.066.066c.066.131.328.328.656.59.59.459 1.574 1.245 3.214 1.966 3.41 1.508 8.068 2.49 13.643 2.818-1.837-1.114-3.477-2.818-4.723-4.98a30.071 30.071 0 01-2.623-7.67zm38.435 13.57c-.721 0-1.705.131-3.28.328-.196 0-.459.065-.72.13-.657.066-1.51.132-2.624.132h-2.165c-.722 0-1.509-.066-2.296-.066-1.64 0-3.804.066-5.64.59-.066 0-.132.131-.132.197 0 .065.131.065.197.065h.066c.721-.065 1.443-.13 2.164-.13 2.427 0 4.132.392 5.772.851 1.509.394 2.952.721 4.985.721 2.165 0 3.804-.459 4.526-1.245.262-.262.328-.524.328-.852-.066-.459-.263-.721-1.18-.721zm-36.731 0c-.918 0-1.115.262-1.18.852 0 .262.065.59.327.852.656.72 2.427 1.245 4.526 1.245 1.968 0 3.41-.393 4.985-.72 1.64-.394 3.28-.853 5.772-.853.656 0 1.378.066 2.165.131h.065c.066 0 .197 0 .197-.065 0-.066-.066-.197-.131-.197-1.902-.524-4.001-.59-5.641-.59-.787 0-1.574 0-2.296.066h-2.165c-1.114 0-1.901-.066-2.623-.131-.262-.066-.525-.066-.721-.131-1.575-.328-2.624-.46-3.28-.46z" fill="#D7153A"/></svg>