<svg width="122" height="55" viewBox="0 0 122 55" fill="none" xmlns="http://www.w3.org/2000/svg"><path d="M3.898 40.3c1.389 0 2.488.706 3.105 1.96l-.014-.158-.022-.276a15.86 15.86 0 01-.041-1.39h1.099l.04 7.722v1.234c0 2.842-1.409 4.646-4.36 4.646-.927 0-1.775-.157-2.855-.568l.077-1.273c1.061.528 1.87.743 2.759.743 1.33 0 2.41-.587 2.874-1.605.482-1.06.385-2.411.443-3.548-.405 1.332-1.677 2.253-3.086 2.253C1.601 50.04 0 48.002 0 45.043 0 42.162 1.544 40.3 3.898 40.3zm56.354 0c1.389 0 2.487.706 3.105 1.96l-.014-.158-.023-.276a15.97 15.97 0 01-.04-1.39h1.1l.039 7.722v1.234c0 2.842-1.409 4.646-4.359 4.646-.927 0-1.775-.157-2.855-.568l.077-1.273c1.062.528 1.87.743 2.76.743 1.33 0 2.409-.587 2.873-1.605.482-1.06.386-2.411.443-3.548-.405 1.332-1.678 2.253-3.087 2.253-2.314 0-3.916-2.038-3.916-4.997 0-2.881 1.544-4.743 3.897-4.743zM33.84 35.81v4.803h.001c0 .548 0 1.097-.077 1.646.521-1.177 1.775-1.961 3.163-1.961 2.316 0 3.801 1.862 3.801 4.782 0 2.45-1.081 4.979-3.839 4.979-1.448 0-2.47-.628-3.125-1.942 0 .608.038 1.197.038 1.804h-1.099l-.059-14.11h1.196zm-20.663 4.488c1.39 0 2.412.588 2.874 1.647.252.549.31 1.097.329 2.488.019 1.822.038 3.665.116 5.487h-1.1a10.464 10.464 0 01-.018-.532l-.001-.174c0-.353.019-.567.038-1.038-.714 1.313-1.697 1.882-3.203 1.882-1.794 0-2.989-1.098-2.989-2.765 0-2.038 1.794-3.154 5.132-3.154.269 0 .481.02.868.059 0-1.704-.483-2.861-2.354-2.861-.868 0-1.543.216-2.586.842l.02-1.254a6.914 6.914 0 012.874-.627zm14.624-.02c2.701 0 2.99 2.51 2.99 4.647v4.998h-1.177v-4.96c0-1.391-.059-3.645-1.948-3.645-1.485 0-2.624 1.45-2.624 3.313v5.292h-1.157v-4.508c-.039-1.45.116-4.097-1.929-4.097-1.003 0-1.891.706-2.335 1.842-.231.588-.289 1.059-.289 2.137v4.626h-1.176v-4.626c0-1.626-.02-3.254-.116-4.881h1.119c0 .373 0 .745.019 1.117 0 .177-.019.394-.039.766.617-1.314 1.66-2.02 2.971-2.02 1.408 0 2.45.843 2.624 2.116.443-1.273 1.659-2.116 3.067-2.116zm24.232.02c1.409 0 2.489.706 2.932 1.94.214.588.29 1.234.29 2.88v4.804h-1.178v-4.764c0-1.606-.056-2.115-.289-2.606-.346-.784-1.06-1.215-1.929-1.215-.983 0-1.871.549-2.392 1.47-.328.608-.443 1.196-.443 2.41v4.705h-1.177v-5.92c0-1.195-.02-2.392-.097-3.586h1.118c.022.49.04.726.04 1.078 0 .333-.019.49-.039.823.56-1.254 1.756-2.018 3.164-2.018zm-6.212.117v9.506h-1.177v-9.506h1.177zm-2.643-4.605v14.11H42V35.81h1.178zm-28.669 9.31c-1.467 0-4.071.196-4.071 2.234 0 1.019.811 1.745 1.949 1.745 2.16 0 2.855-1.687 2.855-3.587v-.354c-.329-.018-.598-.038-.733-.038zm22.322-3.861c-1.736 0-2.99 1.606-2.99 3.86 0 2.352 1.176 3.979 2.895 3.979 1.696 0 2.776-1.51 2.776-3.901 0-2.428-1.041-3.938-2.681-3.938zm-32.914.078c-1.602 0-2.701 1.53-2.701 3.724C1.216 47.433 2.335 49 3.994 49c1.717 0 2.932-1.627 2.932-3.9 0-2.175-1.273-3.763-3.009-3.763zm56.353 0c-1.6 0-2.7 1.53-2.7 3.724 0 2.372 1.119 3.939 2.778 3.939 1.717 0 2.932-1.627 2.932-3.9 0-2.175-1.272-3.763-3.01-3.763zm-14.352-5.25v1.605h-1.37v-1.605h1.37z" fill="#fff"/><path d="M94.358 40.115c.927 0 1.882.09 2.677.633.738.53 1.172 1.426 1.172 2.353 0 2.263-1.707 3.13-3.704 3.13-.275 0-.564-.014-.839-.03v3.72h-1.953v-9.806h2.647zm-24.33.001V44.1h3.847v-3.984h1.94v9.804h-1.94v-4.218h-3.848v4.218h-1.953v-9.804h1.953zm13.38 0v1.618h-3.762V44.1h3.444v1.602h-3.444v2.617h3.82v1.601h-5.773v-9.804h5.715zm3.572 0v8.203h3.762v1.601h-5.715v-9.804h1.953zm6.684 1.5v3.072c1.128 0 2.46-.059 2.46-1.544 0-1.529-1.347-1.5-2.46-1.529zm27.602-27.605a17.975 17.975 0 01-1.42 11.667s-3.15 5.96-6.282 9.226c-1.633 1.704-2.418 2.857-5.738 5.078-.729.49-2.027-.205-1.257-1.145 1.103-1.349.858-3.1-1.033-3.3-.453-.029-1.164.041-1.164.041-8.147.11-15.518-5.604-17.315-14.008-2.055-9.599 3.938-19.073 13.384-21.16 9.447-2.088 18.771 4 20.825 13.601zm-17.107-3.15c-3.768 0-6.822 3.101-6.822 6.93 0 3.828 3.055 6.932 6.822 6.932 3.769 0 6.822-3.104 6.822-6.932 0-3.83-3.053-6.93-6.822-6.93z" fill="#07A9E0"/></svg>