<svg width="150" height="63" viewBox="0 0 150 63" fill="none" xmlns="http://www.w3.org/2000/svg"><path d="M126.596 3.483L75.078 5.17h-.21L23.671 3.483c-1.957-.065-3.478 1.687-3.155 3.634l8.576 49.828c.275 1.573 1.699 2.692 3.284 2.563l42.345-3.228c.162-.016.307-.016.469 0l42.684 3.228a3.109 3.109 0 003.285-2.563l8.591-49.828c.324-1.947-1.197-3.699-3.155-3.634z" fill="#FFD03F"/><path d="M95.708 11.496a.591.591 0 00-.372-.762l-.032-.016a.59.59 0 00-.761.373l-.42 1.2a.616.616 0 01-.761.373l-1.197-.422a.59.59 0 00-.761.373l-.016.033a.592.592 0 00.372.762l1.197.422c.308.113.47.454.373.762l-.421 1.2a.591.591 0 00.372.763l.032.016a.59.59 0 00.76-.373l.422-1.2a.616.616 0 01.76-.373l1.197.421a.59.59 0 00.76-.373l.017-.032a.592.592 0 00-.372-.763l-1.198-.421a.618.618 0 01-.372-.762l.421-1.2zm5.145 8.937a.624.624 0 00-.776.406l-.356 1.184a.617.617 0 01-.777.406l-1.181-.357a.631.631 0 00-.777.405.634.634 0 00.405.779l2.362.73a.631.631 0 00.777-.406l.728-2.368c.113-.324-.065-.665-.405-.779zM94.22 53.977a2.165 2.165 0 002.362.162.616.616 0 00.065-1.038.616.616 0 00-.664-.049c-.502.292-1.214.081-1.424-.713a.626.626 0 01.13-.552c.825-.957.647-2.4-.34-3.147a2.165 2.165 0 00-2.362-.162.616.616 0 00-.065 1.038.616.616 0 00.663.049c.502-.292 1.214-.081 1.424.714a.622.622 0 01-.13.551c-.808.957-.647 2.4.34 3.147zm2.928-20.357a.644.644 0 00-.68-.048c-.501.292-1.213.08-1.423-.714a.626.626 0 01.129-.551c.825-.957.647-2.4-.34-3.147a2.165 2.165 0 00-2.362-.162.616.616 0 00-.065 1.038.616.616 0 00.664.048c.501-.291 1.213-.08 1.424.714.048.195 0 .39-.13.552-.825.957-.647 2.4.34 3.146a2.165 2.165 0 002.362.163c.405-.227.437-.779.081-1.038zm-9.19 5.418l1.957-1.59c.26-.21.308-.6.097-.876a.632.632 0 00-.873-.097l-2.913 2.368a.635.635 0 00-.097.876l2.362 2.92c.21.26.6.308.874.097.26-.21.308-.6.097-.876l-1.585-1.962a.588.588 0 01.08-.86zm-3.77-32.505l-.21-.195a.464.464 0 00-.664.049L82.31 7.538a.48.48 0 01-.664.05L80.498 6.58a.464.464 0 00-.663.05l-.194.21a.467.467 0 00.048.665l2.072 1.817a.464.464 0 00.663-.049l1.812-2.076a.453.453 0 00-.049-.665zm11.374-.519a.614.614 0 00.696.486h.032a.616.616 0 00.486-.697l-.243-1.314-1.246.049.275 1.476zM81.615 25.948a.62.62 0 10-1.165-.421l-1.31 3.536a.62.62 0 00.371.794l3.528 1.314a.62.62 0 00.42-1.168l-2.362-.875a.62.62 0 01-.372-.795l.89-2.385zm2.605 27.38l-1.618.973a.608.608 0 00-.21.827l.016.033a.604.604 0 00.825.21l1.618-.973a.607.607 0 00.21-.827l-.016-.032a.587.587 0 00-.825-.211zm1.99-30.916c.647.6 1.57.73 2.33.406a.624.624 0 00.178-1.022.621.621 0 00-.663-.114c-.518.228-1.23-.048-1.343-.86-.033-.194.048-.389.178-.534.922-.86.906-2.32 0-3.163a2.18 2.18 0 00-2.33-.406.624.624 0 00-.178 1.022c.178.162.437.21.663.114.518-.228 1.23.048 1.343.86.032.194-.049.388-.178.534a2.14 2.14 0 000 3.163zm27.523 16.253a.58.58 0 00.178.032c2.799 0 3.366-3.536.696-4.412a.588.588 0 00-.178-.032c-2.799 0-3.35 3.536-.696 4.412zm-.469-2.465c.404-1.022 1.78-.812 1.844.291 0 .081-.016.163-.032.244-.405 1.022-1.78.81-1.845-.292a.423.423 0 01.033-.243zM126.16 4.797l-.033.033a.616.616 0 00.113.843l1.505 1.152a.613.613 0 00.842-.114l.016-.032a.616.616 0 00-.113-.844l-1.505-1.151a.59.59 0 00-.825.113zm-11.925-.908l-1.23.032c-.049 1.022.631 2.093 2.055 2.336h.016c1.602-.146 2.362-1.346 2.233-2.482l-1.23.033c.016.08.033.146.049.227v.016c-.211 1.233-1.796 1.152-1.91-.081v-.016s.017-.033.017-.065zM71.308 5.138c-.89.908-1.02 2.287-.42 3.341.193.34.679.39.954.114l.016-.016a.614.614 0 00.097-.73 1.554 1.554 0 01.243-1.833l.323-.325a.757.757 0 00.097-.13 2.58 2.58 0 00.195-.437l-1.424-.049-.049.049-.032.016zm48.946 44.167v-.016a.6.6 0 00-.777-.373l-1.181.422a.6.6 0 01-.777-.373l-.42-1.184a.601.601 0 00-.777-.373h-.016a.602.602 0 00-.372.778l.42 1.184a.602.602 0 01-.372.779l-1.181.422a.602.602 0 00-.372.778v.016a.6.6 0 00.776.373l1.182-.421a.6.6 0 01.776.373l.421 1.184a.6.6 0 00.777.373h.016a.603.603 0 00.372-.779l-.421-1.184a.603.603 0 01.372-.778l1.182-.422a.603.603 0 00.372-.779zM20.89 5.284l.987 1.152c.178.194.469.227.663.048l.21-.178c.195-.179.227-.47.049-.665l-1.23-1.428a3.21 3.21 0 00-.793 1.006c.065.016.097.032.114.065zm85.384 6.715a2.179 2.179 0 00-1.23 2.92 2.144 2.144 0 002.039 1.281.595.595 0 00.518-.843l-.017-.033a.607.607 0 00-.55-.357c-.582.016-1.132-.519-.906-1.33a.595.595 0 01.372-.389 2.177 2.177 0 001.23-2.92 2.144 2.144 0 00-2.039-1.281.595.595 0 00-.517.843l.016.033c.097.21.307.357.55.357.582-.016 1.132.519.906 1.33a.634.634 0 01-.372.389zm3.333 34.971a.6.6 0 00.631-.406l.081-.26a.61.61 0 00-.502-.794 3.825 3.825 0 00-4.142 2.595c-.599 1.768.178 3.682 1.748 4.574.339.195.76.016.873-.34l.081-.26a.596.596 0 00-.259-.714 2.379 2.379 0 01-1.051-2.79c.388-1.086 1.456-1.735 2.54-1.605zm-3.786-14.793a3.727 3.727 0 001.246-4.558c-.162-.34-.599-.47-.906-.243l-.017.016a.589.589 0 00-.194.746c.453 1.054.13 2.336-.841 3.017a3.725 3.725 0 00-1.246 4.558c.162.34.599.47.906.243l.016-.016a.586.586 0 00.194-.746c-.453-1.055-.129-2.336.842-3.017zm13.527-16.723a3.69 3.69 0 004.53 1.265c.356-.146.469-.6.243-.908l-.016-.017a.61.61 0 00-.745-.21 2.47 2.47 0 01-3.009-.86 3.691 3.691 0 00-4.531-1.265c-.356.146-.469.6-.242.908l.016.016a.608.608 0 00.744.211c1.068-.438 2.33-.113 3.01.86zm-45.403-.86c0-.194-.145-.34-.34-.373l-.42-.08a.397.397 0 00-.47.388 2.81 2.81 0 002.314 2.758l.26.048c.032 0 .064.017.096.033.712.34 1.052 1.038.939 1.72v.048l.825.146c.227.032.437-.114.47-.325l.015-.08v-.114c-.129-1.444-1.1-2.466-2.346-2.677h-.048c-.745-.145-1.278-.778-1.295-1.492zm40.451 8.208c.243-.033.421-.227.486-.454v-.017a.606.606 0 00-.68-.746 2.142 2.142 0 00-1.763 1.622 2.2 2.2 0 00.809 2.271c.339.26.841.065.938-.34v-.017a.587.587 0 00-.21-.633.92.92 0 01-.34-.973.91.91 0 01.76-.713zm-14.206 20.47a.631.631 0 00.631-.244.626.626 0 00-.372-.973c-.81-.178-1.7.13-2.217.843a2.174 2.174 0 00-.113 2.368.613.613 0 001.035.05.588.588 0 00.033-.666.909.909 0 01.048-1.022.911.911 0 01.955-.356zm-35.241 7.639c.113.308.453.47.76.373l2.363-.843a.619.619 0 00.372-.763l-.841-2.368a.616.616 0 00-.76-.373l-.033.016a.619.619 0 00-.372.763l.42 1.2a.591.591 0 01-.372.762l-1.197.422a.619.619 0 00-.372.762l.032.05zm-7.896-32.732a.619.619 0 00-.534-.892.63.63 0 00-.582.34.917.917 0 01-.874.536.937.937 0 01-.842-.6.58.58 0 00-.55-.373.626.626 0 00-.599.86 2.16 2.16 0 001.942 1.362c.89.032 1.683-.47 2.039-1.233zM30.776 54.463l.016-.032a.616.616 0 00-.307-.795l-2.104-.908.243 1.46 1.359.584c.308.13.663 0 .793-.309zm-4.029-31.97a.625.625 0 00.113-.665.957.957 0 01.162-1.021.911.911 0 01.987-.244c.227.081.485 0 .647-.178.308-.325.162-.86-.259-1.006a2.192 2.192 0 00-2.297.584c-.599.649-.712 1.573-.389 2.336.195.438.729.535 1.036.194zm46.13 15.977a.635.635 0 01.534.146c.923.86 2.363.746 3.156-.21a2.164 2.164 0 00.258-2.352.616.616 0 00-1.035-.114.626.626 0 00-.081.665c.259.503.032 1.233-.76 1.395a.635.635 0 01-.534-.146 2.172 2.172 0 00-3.156.21 2.164 2.164 0 00-.258 2.353c.21.405.744.47 1.035.113a.626.626 0 00.08-.665c-.258-.519-.031-1.233.761-1.395zM56.665 7.538a.606.606 0 00-.453.503c-.098.568-.696 1.006-1.44.665a.59.59 0 01-.34-.438 2.159 2.159 0 00-2.67-1.703 2.193 2.193 0 00-1.602 1.752.611.611 0 00.76.697.606.606 0 00.454-.502c.097-.568.695-1.006 1.44-.665a.59.59 0 01.34.438 2.159 2.159 0 002.67 1.703 2.193 2.193 0 001.601-1.752c.065-.438-.34-.811-.76-.698zm8.705 6.164a.626.626 0 00-.502-.73l-1.828-.34a.6.6 0 00-.712.502.602.602 0 00.501.714l1.829.34a.606.606 0 00.712-.486zM33.397 36.913l-.016-.016a.724.724 0 00-.874-.243 2.34 2.34 0 01-2.783-.795 2.366 2.366 0 01.097-2.904.757.757 0 00.049-.908l-.016-.016c-.276-.373-.842-.406-1.133-.049a3.856 3.856 0 00-.194 4.753 3.852 3.852 0 004.579 1.297.752.752 0 00.291-1.119zm42.943 14.16l.453.098a.498.498 0 00.162.016c1.44-.081 2.492-.99 2.75-2.222l.017-.049a1.563 1.563 0 011.844-1.184l.453.097a.498.498 0 00.162.017c1.133-.065 2.023-.65 2.492-1.493a.6.6 0 00-.388-.876l-.049-.016a.596.596 0 00-.663.308 1.606 1.606 0 01-1.343.811c-.049 0-.114 0-.162-.016l-.227-.048a2.769 2.769 0 00-3.317 2.124l-.048.227-.049.146c-.372.682-1.084.99-1.747.828l-.049-.017a2.77 2.77 0 00-3.042 1.395.596.596 0 00.389.876l.048.016a.596.596 0 00.664-.308c.275-.551.954-.876 1.65-.73zm45.273-22.123l.971.81c.259.21.647.178.857-.081l.016-.016a.615.615 0 00-.08-.86l-.971-.81a.615.615 0 01-.081-.86l.809-.974a.616.616 0 00-.081-.86l-.016-.016a.612.612 0 00-.858.081l-.809.974a.611.611 0 01-.857.08l-.971-.81a.612.612 0 00-.858.08l-.016.017a.616.616 0 00.081.86l.971.81c.259.212.291.6.081.86l-.809.974a.615.615 0 00.081.86l.016.015a.611.611 0 00.857-.08l.809-.974a.612.612 0 01.858-.08zm-88.426 16.9a.61.61 0 00.76.114 2.471 2.471 0 013.09.487 3.706 3.706 0 004.66.713.587.587 0 00.13-.908l-.032-.032a.612.612 0 00-.76-.114 2.471 2.471 0 01-3.091-.487 3.706 3.706 0 00-4.66-.713.587.587 0 00-.13.908l.033.032zm3.608 10.95a.93.93 0 011.02.064.614.614 0 00.663.032l.016-.016a.602.602 0 00.08-.99 2.204 2.204 0 00-2.41-.178 2.172 2.172 0 00-1.068 2.158.595.595 0 00.89.438l.016-.017a.602.602 0 00.308-.6.94.94 0 01.485-.892zm15.744-7.608c.501.113.938.486 1.148 1.07a.481.481 0 01.033.163l.016.243a2.786 2.786 0 002.929 2.627l.242-.016a.55.55 0 01.162.016c.76.179 1.23.78 1.278 1.46v.049c.065 1.265.987 2.287 2.169 2.563.388.08.76-.211.728-.617v-.048a.62.62 0 00-.47-.552 1.559 1.559 0 01-1.197-1.427l-.032-.454c0-.049-.017-.098-.033-.163-.453-1.362-1.634-2.124-2.88-2.06h-.048a1.544 1.544 0 01-1.635-1.46l-.032-.453c0-.05-.016-.098-.032-.163-.372-1.086-1.165-1.784-2.12-1.995-.388-.08-.76.227-.728.617v.048c.032.26.227.487.502.552zM35.873 22.964l.987-.746a.606.606 0 00.113-.86.602.602 0 00-.858-.114l-.987.747a.612.612 0 01-.857-.114l-.744-.99a.602.602 0 00-.858-.113.605.605 0 00-.113.86l.744.99a.616.616 0 01-.113.859l-.987.746a.605.605 0 00-.114.86c.21.275.6.324.858.113l.987-.746a.612.612 0 01.858.114l.744.99c.21.275.599.324.858.113a.606.606 0 00.113-.86l-.744-.99c-.227-.259-.162-.648.113-.86zm14.465 18.929a2.161 2.161 0 002.152-.99.614.614 0 00-.42-.94.614.614 0 00-.615.275c-.308.487-1.036.65-1.586.049-.049-.195-.097-.357-.146-.535.275-1.233-.566-2.417-1.78-2.612a2.162 2.162 0 00-2.152.99.614.614 0 00.421.94.614.614 0 00.615-.275c.307-.487 1.035-.65 1.586-.049.048.195.097.357.145.535a2.164 2.164 0 001.78 2.612zm12.119-5.515l.356-.292.113-.114c.648-.94.712-2.01.324-2.887a.606.606 0 00-.938-.21l-.033.032a.627.627 0 00-.162.714c.21.47.162 1.054-.161 1.557a.377.377 0 01-.114.113l-.178.146c-1.165.99-1.326 2.758-.34 3.925l.162.179c.033.049.065.08.081.13.308.713.13 1.46-.404 1.897l-.033.033a2.813 2.813 0 00-.744 3.293.601.601 0 00.922.21l.033-.032a.58.58 0 00.161-.698 1.56 1.56 0 01.421-1.816l.356-.292.113-.114c.81-1.184.712-2.579-.097-3.536l-.032-.032c-.534-.665-.453-1.655.194-2.206zm7.006-11.046l1.165-.422a.62.62 0 00-.42-1.168l-1.165.422a.618.618 0 01-.793-.373l-.42-1.168a.62.62 0 10-1.165.422l.42 1.168a.62.62 0 01-.372.795l-1.165.421a.62.62 0 00.42 1.168l1.165-.422a.618.618 0 01.793.373l.42 1.168a.62.62 0 101.165-.422l-.42-1.167a.634.634 0 01.372-.795zm-39.14-13.349l-.049.016a1.56 1.56 0 01-1.925-1.006c0-.016-.016-.016-.032-.016l-1.133.34c-.016 0-.016.017-.016.033a2.786 2.786 0 003.462 1.833l.308-.097c.825-.033 1.456.438 1.65 1.119l.016.049 1.15-.357c.015 0 .015-.017.015-.033l-.145-.486c-.745-1.265-2.088-1.752-3.301-1.395zM33.98 6.89c.161.162.42.178.614.048a2.459 2.459 0 013.188.26 3.69 3.69 0 004.822.34.49.49 0 00.048-.73l-.21-.21a.487.487 0 00-.615-.049 2.459 2.459 0 01-3.187-.26 3.69 3.69 0 00-4.822-.34.49.49 0 00-.049.73l.21.21zm11.423 46.908a.613.613 0 00.841.146l1.538-1.103a.617.617 0 00.145-.843l-.016-.032a.613.613 0 00-.841-.147l-1.538 1.103a.617.617 0 00-.145.844l.016.032zm-2.249-31.564a2.487 2.487 0 012.265 2.644c-.145 2.027 1.376 3.811 3.398 3.974.016 0 .032-.017.032-.033l.081-1.184a.034.034 0 00-.032-.032 2.487 2.487 0 01-2.265-2.644c.145-2.028-1.376-3.812-3.398-3.974a.034.034 0 00-.032.032l-.081 1.184c0 .017.016.033.032.033zm10.792 7.705c1.505 2.481 4.903.989 4.094-1.8-1.489-2.499-4.903-1.007-4.094 1.8zm2.929-1.298c.34 1.2-1.1 1.849-1.748.779v-.017c-.355-1.184 1.1-1.816 1.748-.762zM36.99 34.48c.129.308.485.47.808.34l4.58-1.88a.629.629 0 00.339-.812.626.626 0 00-.809-.34l-4.579 1.881a.615.615 0 00-.34.811zm7.669-22.562a.381.381 0 00-.146-.097c-2.508-1.233-4.563 1.687-2.556 3.65a.38.38 0 00.145.096c2.508 1.233 4.563-1.703 2.557-3.65zm-2.2 1.33a.443.443 0 01.145-.195c.809-.746 1.958.065 1.537 1.087a.442.442 0 01-.146.195c-.809.73-1.957-.081-1.537-1.087z" fill="#FFBA40"/><path d="M43.412 42.769H40.76V40.4h8.365v2.369H46.47v6.715h-3.058v-6.715zm14.013 4.428h-.826v2.287h-3.058V40.4h4.37c.84 0 1.569.146 2.183.422.615.276 1.1.681 1.44 1.2.34.52.502 1.12.502 1.817 0 .649-.146 1.217-.437 1.703a3.007 3.007 0 01-1.262 1.152l1.91 2.806h-3.269l-1.553-2.303zm1.213-4.169c-.21-.178-.518-.276-.938-.276h-1.117v2.125H57.7c.42 0 .728-.097.938-.276.21-.178.308-.454.308-.778 0-.325-.097-.6-.308-.795zM66.81 40.4h3.057v9.084H66.81V40.4zm17.83 0l-3.835 9.084h-3.01L73.962 40.4h3.3l2.169 5.304 2.217-5.304h2.993zm3.932 0h3.058v9.084h-3.058V40.4zm14.32 7.494h-3.447l-.615 1.59h-3.106l3.964-9.084h3.01l3.964 9.084h-3.155l-.615-1.59zm-.842-2.206l-.873-2.287-.874 2.287h1.747z" fill="#313131"/><g opacity=".5" filter="url(#filter0_f)"><path d="M139.984 28.6a7.617 7.617 0 00-2.892-3.17c-1.192-.732-2.527-1.178-4.02-1.338-1.573-.16-3.051.016-4.402.542a7.875 7.875 0 00-1.048.494l.063-.765-2.304-.175.255-3.154-9.248-.733-.254 3.154-1.541-.127-.032.302c-1.287-.812-2.892-1.274-4.83-1.385a13.584 13.584 0 00-3.305.223c-1.16.223-2.193.573-3.067 1.05l-.524.287-.016-.015c-1.208-1.322-2.892-2.04-4.862-2.087a7.21 7.21 0 00-3.098.573c-.207.096-.414.192-.604.303a7.479 7.479 0 00-.604-.35c-.906-.446-1.907-.685-3.003-.717a7.132 7.132 0 00-1.764.16l-2.113-.065.111-.111-3.75.016-2.415-.112v.08l-5.656.016-.016-4.046-9.28.032.016 4.89c-1.287-.669-2.78-.988-4.433-.94-1.62.032-3.114.398-4.433 1.083a8.105 8.105 0 00-2.558 2.04 7.794 7.794 0 00-2.717-1.944 9.54 9.54 0 00-4.163-.733c-1.573.064-3.003.462-4.274 1.195a8.298 8.298 0 00-2.479 2.15 6.053 6.053 0 00-.953-1.051c-1.382-1.195-3.098-1.72-5.1-1.577-.302.016-.588.064-.874.111l-.27-3.886-9.248.653.143 2.039a10.7 10.7 0 00-1.08-.43c-1.446-.478-3.067-.637-4.783-.462-1.89.191-3.59.78-5.053 1.752-1.51 1.003-2.653 2.31-3.4 3.918-.747 1.593-1.033 3.361-.842 5.24.19 1.88.826 3.537 1.89 4.954 1.065 1.418 2.448 2.47 4.132 3.138 1.255.494 2.606.749 4.02.749.413 0 .842-.016 1.287-.064 1.716-.175 3.257-.653 4.576-1.434.159-.095.302-.175.445-.27l.063.812 17.05-1.195-.112-1.56c.43.286.89.541 1.383.764 1.223.526 2.59.796 4.083.796.19 0 .381 0 .572-.015 2.796-.128 4.957-1.052 6.42-2.756a8.295 8.295 0 002.176 1.465c1.271.59 2.685.876 4.21.876h.27c1.542-.032 2.908-.366 4.1-.987v.669l9.28-.032v-.096l.079.096 7.77-.016 21.402.59.016-.303c.874.446 1.891.717 3.051.78.667.032 1.271 0 1.795-.111l8.04.462.08-1.29c1.175 1.13 2.796 1.783 4.83 1.943.334.032.651.032.953.032 1.208 0 2.241-.208 3.114-.622l.636-.302c.159.111.334.223.493.334 1.271.797 2.78 1.29 4.48 1.466.461.047.906.063 1.335.063 2.24 0 4.099-.653 5.545-1.943l1.637-1.465-.509-.637.35.031.365-2.134c.175-1.051.191-1.13.191-1.226.127-1.657-.127-3.17-.778-4.492z" fill="#313131"/></g><path d="M141.175 22.655a7.76 7.76 0 00-2.945-3.228c-1.214-.746-2.573-1.2-4.094-1.362-1.601-.163-3.106.016-4.482.551a8.074 8.074 0 00-1.068.503l.065-.779-2.346-.178.259-3.212-9.417-.746-.259 3.212-1.569-.13-.033.308c-1.31-.827-2.945-1.297-4.919-1.411a13.84 13.84 0 00-3.365.227c-1.181.227-2.233.584-3.123 1.07l-.534.293-.016-.017c-1.23-1.346-2.945-2.076-4.951-2.124a7.342 7.342 0 00-3.156.583c-.21.098-.42.195-.614.309a7.585 7.585 0 00-.615-.357c-.923-.454-1.942-.698-3.058-.73a7.268 7.268 0 00-1.796.162l-2.152-.065.113-.113-3.819.016-2.46-.114v.082l-5.76.016-.016-4.12-9.449.032.016 4.98c-1.31-.681-2.831-1.006-4.514-.957-1.65.032-3.172.405-4.514 1.103a8.252 8.252 0 00-2.606 2.076 7.936 7.936 0 00-2.766-1.979 9.715 9.715 0 00-4.24-.746c-1.602.065-3.058.47-4.352 1.216a8.448 8.448 0 00-2.524 2.19 6.165 6.165 0 00-.971-1.07c-1.408-1.217-3.155-1.752-5.194-1.606-.307.016-.599.065-.89.113l-.275-3.957-9.417.665.145 2.076a11.088 11.088 0 00-1.1-.438c-1.472-.487-3.123-.649-4.87-.47-1.926.194-3.657.794-5.145 1.784-1.538 1.022-2.703 2.352-3.463 3.99-.76 1.622-1.052 3.422-.858 5.336.195 1.914.842 3.601 1.926 5.045 1.084 1.443 2.492 2.514 4.207 3.195a11.12 11.12 0 004.093.763c.421 0 .858-.017 1.311-.065 1.748-.179 3.317-.665 4.66-1.46.162-.097.307-.178.453-.276l.065.827 17.361-1.216-.113-1.59c.437.292.906.552 1.408.779 1.246.535 2.637.81 4.158.81.194 0 .388 0 .583-.015 2.847-.13 5.048-1.07 6.537-2.806a8.453 8.453 0 002.216 1.492c1.295.6 2.735.892 4.288.892h.275c1.57-.033 2.961-.373 4.175-1.006v.681l9.45-.032v-.097l.08.097 7.912-.016 21.795.6.017-.308c.889.454 1.925.73 3.106.795.68.032 1.295 0 1.829-.114l8.187.47.081-1.313c1.197 1.151 2.848 1.816 4.919 1.978.339.033.663.033.97.033 1.23 0 2.282-.21 3.172-.633l.647-.308c.162.114.34.227.502.34 1.294.812 2.831 1.315 4.562 1.493.47.049.923.065 1.36.065 2.281 0 4.174-.665 5.647-1.979l1.666-1.492-.518-.649.356.032.373-2.173c.178-1.07.194-1.152.194-1.249.129-1.687-.13-3.228-.793-4.574z" fill="#fff" stroke="#fff"/><path d="M140.884 22.785a7.537 7.537 0 00-2.816-3.098 9.266 9.266 0 00-3.948-1.313c-1.537-.163-2.993.016-4.336.535-.55.21-1.068.486-1.554.795l.081-1.087-2.346-.179.259-3.211-8.77-.698-.259 3.212-1.569-.13-.049.552c-1.31-.99-3.058-1.541-5.21-1.671a13.231 13.231 0 00-3.284.227c-1.149.211-2.169.568-3.026 1.038l-.761.406c-.064-.065-.113-.146-.178-.211-1.197-1.298-2.783-1.979-4.724-2.028a7.278 7.278 0 00-3.026.552 6.707 6.707 0 00-.76.39 5.613 5.613 0 00-.745-.439c-.874-.438-1.86-.665-2.912-.697a6.808 6.808 0 00-1.748.162l-2.912-.081.08-.098-3.074.017-2.152-.065v.065l-5.954.016-.437.438-.016-4.558-8.802.032.016 5.207a1.406 1.406 0 00-.162-.097c-1.327-.763-2.896-1.136-4.676-1.103-1.602.032-3.074.39-4.369 1.07-1.116.584-2.038 1.347-2.75 2.304a7.44 7.44 0 00-2.897-2.19c-1.262-.535-2.637-.779-4.093-.714-1.554.065-2.961.454-4.207 1.168-1.1.633-2.007 1.46-2.686 2.482a5.826 5.826 0 00-1.181-1.411c-1.327-1.152-3.01-1.671-4.968-1.525a7.29 7.29 0 00-1.213.178l-.275-3.99-8.77.616.162 2.32a8.852 8.852 0 00-1.554-.681c-1.44-.47-3.025-.633-4.724-.454-1.877.194-3.544.778-5 1.735-1.489.99-2.605 2.27-3.35 3.86-.744 1.574-1.019 3.31-.825 5.159.194 1.849.81 3.487 1.861 4.882a9.24 9.24 0 004.061 3.082c1.246.502 2.573.746 3.964.746.421 0 .842-.017 1.263-.065 1.699-.179 3.236-.649 4.53-1.411.308-.179.615-.39.906-.6l.081 1.07 16.715-1.184-.13-1.946a8.307 8.307 0 001.91 1.151c1.197.52 2.556.779 4.028.779.178 0 .372 0 .567-.016 2.815-.13 4.967-1.07 6.407-2.806l.13-.163c.663.681 1.456 1.233 2.378 1.671 1.246.584 2.637.876 4.142.876h.26c1.714-.033 3.235-.454 4.514-1.233v.909l8.802-.033v-.697l.55.697 7.75-.016 21.472.584.016-.52c.081.05.162.114.259.163.89.503 1.958.795 3.171.86.663.032 1.262 0 1.78-.114l7.912.454.097-1.752c.097.114.194.244.308.357 1.148 1.217 2.815 1.914 4.919 2.076.323.033.631.033.938.033 1.181 0 2.184-.195 3.042-.6l.825-.39c.21.146.421.309.631.438 1.246.779 2.735 1.265 4.417 1.444.453.049.89.065 1.311.065 2.201 0 4.029-.633 5.437-1.898l1.44-1.281-.809-1.022.825.08.307-1.88c.178-1.055.194-1.152.194-1.233.178-1.574-.064-3.05-.711-4.364z" fill="#0198E7"/><path d="M15.064 31.69a7.252 7.252 0 01-3.203-2.433c-.825-1.103-1.31-2.384-1.473-3.86-.145-1.476.065-2.839.648-4.088a7.323 7.323 0 012.637-3.033c1.181-.779 2.54-1.249 4.077-1.411 1.424-.146 2.719-.032 3.884.357a7.172 7.172 0 012.993 1.897l-2.831 3.115c-1.02-1.055-2.152-1.509-3.382-1.395-1.036.113-1.829.519-2.395 1.249-.566.73-.777 1.654-.663 2.773.113 1.12.518 1.98 1.213 2.58.696.6 1.553.843 2.59.746 1.229-.13 2.232-.811 3.025-2.044l3.398 2.465a7.129 7.129 0 01-2.54 2.466c-1.069.616-2.314 1.005-3.738 1.151-1.505.163-2.929-.016-4.24-.535zm22.54-11.776c.922.795 1.44 2.06 1.57 3.78l.452 6.569-4.74.34-.405-5.742c-.097-1.313-.615-1.946-1.537-1.881-.534.032-.955.26-1.246.649-.308.389-.42.99-.372 1.784l.372 5.401-4.74.34-1.101-15.603 4.74-.34.357 5.028c.825-.828 1.877-1.282 3.155-1.363 1.407-.097 2.572.243 3.495 1.038zm16.051 5.045l-7.993.357c.194.421.485.746.89.957.404.21.89.308 1.488.275.502-.016.922-.097 1.262-.243.34-.146.696-.373 1.1-.697l2.59 2.4c-1.069 1.282-2.719 1.979-4.936 2.076-1.391.065-2.62-.146-3.689-.6-1.068-.47-1.91-1.135-2.524-2.027a5.654 5.654 0 01-1.003-3.034c-.049-1.151.194-2.19.712-3.13a6 6 0 012.233-2.222c.97-.552 2.07-.844 3.3-.909 1.166-.048 2.233.13 3.22.552a5.382 5.382 0 012.379 1.946c.615.876.938 1.93.987 3.18 0 .08 0 .454-.016 1.119zm-7.589-3.098c-.307.276-.501.665-.582 1.168l3.705-.163c-.113-.47-.34-.843-.68-1.103s-.744-.373-1.23-.357c-.5.017-.905.179-1.213.455zm11.844 7.12c-1.035-.486-1.86-1.168-2.46-2.076a5.624 5.624 0 01-.938-3.082c-.032-1.151.243-2.19.81-3.114.566-.924 1.358-1.638 2.378-2.173 1.02-.536 2.184-.811 3.479-.844 1.407-.032 2.605.243 3.608.827 1.003.584 1.715 1.395 2.12 2.466l-3.641 1.898c-.47-1.006-1.149-1.493-2.039-1.476a1.918 1.918 0 00-1.391.616c-.356.405-.534.957-.518 1.67.016.73.21 1.282.599 1.671.372.39.857.568 1.407.552.89-.017 1.538-.535 1.958-1.557l3.722 1.735c-.356 1.07-1.02 1.93-2.007 2.563-.987.633-2.168.957-3.576.99-1.31.032-2.475-.195-3.51-.666zm15.582-3.227l-.76.827v2.725l-4.757.016-.05-15.652 4.758-.017.016 7.462L76 17.757l5.615-.016-4.741 5.012 5.145 6.52-5.744.017-2.783-3.536zm28.138-6.44c.809.876 1.197 2.19 1.149 3.91l-.178 6.568-4.757-.13.161-5.758c.033-1.313-.372-1.995-1.23-2.01a1.337 1.337 0 00-1.1.47c-.275.324-.436.86-.453 1.59l-.145 5.627-4.757-.13.162-5.757c.032-1.314-.373-1.995-1.23-2.012a1.337 1.337 0 00-1.1.47c-.276.325-.437.86-.454 1.59l-.145 5.629-4.757-.13.307-11.533 4.515.13-.033 1.07c.874-.827 1.974-1.232 3.301-1.2.777.017 1.456.179 2.071.487a3.61 3.61 0 011.473 1.363 4.64 4.64 0 011.715-1.25c.663-.291 1.391-.421 2.184-.389 1.392.065 2.492.52 3.301 1.395zm13.155.827c1.019.974 1.472 2.385 1.359 4.266l-.356 6.196-4.418-.26.081-1.508c-.615 1.12-1.731 1.639-3.349 1.541-.906-.048-1.667-.26-2.298-.6-.614-.357-1.084-.81-1.375-1.362-.291-.552-.421-1.168-.388-1.85.064-1.135.55-1.978 1.456-2.514.906-.535 2.233-.762 3.997-.665l1.909.114c-.097-.908-.793-1.395-2.087-1.476a5.312 5.312 0 00-1.586.146 4.603 4.603 0 00-1.408.584l-1.327-3.228c.68-.373 1.489-.649 2.444-.827a11.686 11.686 0 012.799-.195c2.022.13 3.543.665 4.547 1.638zm-4.159 7.218c.275-.162.486-.421.631-.794l.049-.795-1.181-.065c-.971-.049-1.473.243-1.505.892a.904.904 0 00.259.681c.194.195.469.292.809.308.356.017.663-.048.938-.227zm15.533 3.65c-.744.357-1.731.47-2.961.373-1.602-.13-2.815-.616-3.624-1.46-.809-.843-1.149-2.044-1.019-3.6l.226-2.937-1.569-.13.275-3.47 1.569.13.259-3.212 4.741.373-.259 3.211 2.346.179-.275 3.47-2.346-.177-.227 2.903c-.032.357.049.633.211.843.162.211.388.325.696.357a1.93 1.93 0 001.1-.227l.857 3.374zm13.252-2.919l-7.944-.828c.129.454.372.811.728 1.087.372.276.841.438 1.424.503.501.048.938.032 1.278-.05a4.31 4.31 0 001.181-.534l2.201 2.757c-1.246 1.12-2.978 1.557-5.194 1.33-1.376-.146-2.573-.519-3.56-1.151-.987-.617-1.731-1.412-2.201-2.385-.485-.973-.663-2.011-.534-3.146.114-1.152.502-2.142 1.165-2.985a5.884 5.884 0 012.541-1.865c1.035-.406 2.168-.536 3.398-.406a7.192 7.192 0 013.09 1.022c.906.568 1.602 1.314 2.071 2.27.469.958.647 2.06.518 3.294 0 .064-.049.421-.162 1.086zm-7.055-4.186c-.355.227-.598.584-.744 1.071l3.689.39c-.048-.487-.226-.877-.517-1.185-.292-.308-.68-.486-1.165-.535-.502-.065-.907.016-1.263.26z" fill="#fff"/><defs><filter id="filter0_f" x="5.207" y="13.45" width="139.587" height="31.016" filterUnits="userSpaceOnUse" color-interpolation-filters="sRGB"><feFlood flood-opacity="0" result="BackgroundImageFix"/><feBlend mode="normal" in="SourceGraphic" in2="BackgroundImageFix" result="shape"/><feGaussianBlur stdDeviation="2" result="effect1_foregroundBlur"/></filter></defs></svg>