<svg width="474" height="197" viewBox="0 0 474 197" fill="none" xmlns="http://www.w3.org/2000/svg"><path d="M414.741.45L237.268 6.344h-.725L60.185.45C53.441.223 48.201 6.344 49.316 13.145L78.858 187.24c.947 5.498 5.852 9.408 11.315 8.955l145.869-11.278a7.657 7.657 0 011.616 0l147.039 11.278c5.463.396 10.368-3.457 11.315-8.955L425.61 13.144c1.114-6.8-4.125-12.92-10.869-12.694z" fill="#FFD03F"/><path d="M308.335 28.446c.391-1.077-.167-2.267-1.282-2.664l-.111-.056c-1.059-.397-2.23.17-2.62 1.303l-1.449 4.194a2.116 2.116 0 01-2.62 1.303l-4.124-1.473c-1.059-.397-2.23.17-2.62 1.303l-.056.114c-.39 1.076.167 2.267 1.282 2.663l4.125 1.474c1.059.396 1.616 1.587 1.282 2.663l-1.449 4.194c-.391 1.077.167 2.267 1.282 2.664l.111.056c1.059.397 2.23-.17 2.62-1.303l1.449-4.194a2.116 2.116 0 012.62-1.303l4.124 1.473c1.059.397 2.23-.17 2.62-1.303l.056-.114c.39-1.076-.167-2.267-1.282-2.663l-4.125-1.474c-1.059-.396-1.616-1.587-1.282-2.663l1.449-4.194zm17.725 31.226c-1.114-.34-2.341.284-2.675 1.417l-1.226 4.137c-.335 1.134-1.505 1.757-2.676 1.417l-4.069-1.247c-1.115-.34-2.285.284-2.675 1.417a2.22 2.22 0 001.393 2.72l8.138 2.55c1.115.34 2.285-.283 2.676-1.416l2.508-8.274c.39-1.134-.223-2.324-1.394-2.72zM303.207 176.87a7.37 7.37 0 008.138.567c1.338-.793 1.505-2.664.223-3.627a2.096 2.096 0 00-2.285-.17c-1.728 1.02-4.18.283-4.905-2.494-.167-.68 0-1.36.446-1.926 2.843-3.344 2.229-8.388-1.171-10.995a7.373 7.373 0 00-8.138-.567c-1.337.794-1.505 2.664-.223 3.628a2.1 2.1 0 002.286.17c1.728-1.021 4.18-.284 4.905 2.493.167.68 0 1.36-.446 1.927-2.787 3.344-2.23 8.387 1.17 10.994zm10.089-71.123a2.191 2.191 0 00-2.341-.17c-1.728 1.02-4.18.283-4.905-2.494-.167-.68 0-1.36.446-1.927 2.843-3.343 2.23-8.387-1.171-10.994a7.37 7.37 0 00-8.137-.567c-1.338.794-1.505 2.664-.223 3.627.669.51 1.56.567 2.285.17 1.728-1.02 4.18-.283 4.905 2.494.167.68 0 1.36-.446 1.927-2.843 3.343-2.229 8.387 1.171 10.994a7.37 7.37 0 008.137.567c1.394-.794 1.505-2.72.279-3.627zm-31.66 18.928l6.745-5.554c.892-.736 1.059-2.096.334-3.06a2.155 2.155 0 00-3.01-.34l-10.033 8.274c-.891.737-1.059 2.097-.334 3.061l8.138 10.201a2.157 2.157 0 003.01.34c.892-.737 1.059-2.097.334-3.061l-5.462-6.857c-.781-.907-.669-2.267.278-3.004zM268.649 11.104l-.724-.68c-.669-.623-1.728-.51-2.286.17l-3.455 4.024a1.638 1.638 0 01-2.286.17l-3.957-3.514c-.669-.623-1.728-.51-2.285.17l-.669.737c-.613.68-.502 1.757.167 2.324l7.134 6.347c.669.623 1.728.51 2.286-.17l6.243-7.254c.613-.68.557-1.757-.168-2.324zm39.185-1.814a2.119 2.119 0 002.397 1.7h.111c1.115-.226 1.839-1.303 1.672-2.436l-.836-4.59-4.292.17.948 5.157zm-48.047 69.65c.39-1.133-.167-2.38-1.282-2.776a2.12 2.12 0 00-2.731 1.303l-4.515 12.355c-.39 1.133.167 2.38 1.282 2.777l12.151 4.59a2.12 2.12 0 002.731-1.303c.39-1.134-.167-2.38-1.282-2.777l-8.138-3.06c-1.115-.397-1.672-1.644-1.282-2.777l3.066-8.331zm8.974 95.663l-5.574 3.401c-1.003.623-1.282 1.87-.725 2.89l.056.113c.613 1.021 1.839 1.304 2.843.737l5.574-3.4c1.003-.624 1.282-1.87.724-2.89l-.056-.114a2.007 2.007 0 00-2.842-.737zm6.856-108.017a7.422 7.422 0 008.026 1.417c1.394-.623 1.728-2.493.613-3.57a2.117 2.117 0 00-2.285-.397c-1.784.793-4.236-.17-4.626-3.004-.112-.68.167-1.36.613-1.87 3.177-3.003 3.121-8.104 0-11.05a7.424 7.424 0 00-8.027-1.418c-1.393.624-1.728 2.494-.613 3.57a2.118 2.118 0 002.285.397c1.784-.793 4.237.17 4.627 3.004.111.68-.167 1.36-.613 1.87-3.233 3.004-3.177 8.104 0 11.051zm94.812 56.786c.167.056.39.113.613.113 9.643 0 11.593-12.354 2.396-15.415a1.992 1.992 0 00-.613-.113c-9.643 0-11.538 12.355-2.396 15.415zm-1.617-8.614c1.394-3.571 6.131-2.834 6.354 1.02 0 .283-.055.566-.111.85-1.394 3.57-6.131 2.833-6.354-1.02-.056-.284 0-.567.111-.85zM413.236 5.04l-.111.114c-.669.906-.502 2.21.39 2.947l5.183 4.023c.892.68 2.174.51 2.899-.396l.056-.114c.668-.907.501-2.21-.391-2.947l-5.183-4.023a2.015 2.015 0 00-2.843.396zm-41.08-3.173l-4.236.113c-.167 3.57 2.174 7.31 7.079 8.16h.056c5.518-.51 8.138-4.703 7.692-8.67l-4.236.113c.055.284.111.51.167.794v.056c-.725 4.307-6.187 4.024-6.577-.283v-.057s.055-.113.055-.226zM224.281 6.23c-3.065 3.174-3.511 7.991-1.449 11.675.669 1.19 2.341 1.36 3.289.397l.055-.057c.669-.68.781-1.7.335-2.55a5.49 5.49 0 01.836-6.404l1.115-1.134a3.14 3.14 0 00.334-.453c.279-.51.502-1.02.669-1.53l-4.905-.17-.167.17-.112.056zm168.61 154.319v-.057c-.39-1.133-1.56-1.7-2.675-1.303l-4.069 1.473c-1.115.397-2.285-.17-2.676-1.303l-1.449-4.137c-.39-1.134-1.56-1.701-2.675-1.304h-.056c-1.115.397-1.672 1.587-1.282 2.72l1.449 4.137c.39 1.134-.167 2.324-1.282 2.721l-4.069 1.473c-1.114.397-1.672 1.587-1.282 2.72v.057c.39 1.134 1.561 1.7 2.676 1.304l4.069-1.474c1.115-.397 2.285.17 2.675 1.304l1.449 4.137c.391 1.133 1.561 1.7 2.676 1.303h.056c1.114-.397 1.672-1.587 1.282-2.72l-1.45-4.137c-.39-1.134.168-2.324 1.282-2.721l4.069-1.473c1.115-.397 1.672-1.587 1.282-2.72zM50.599 6.74l3.4 4.024c.613.68 1.616.794 2.285.17l.725-.623c.669-.624.78-1.644.167-2.324L52.94 3a11.197 11.197 0 00-2.731 3.514c.222.056.334.113.39.226zm294.134 23.463c-4.069 1.53-5.964 6.234-4.236 10.2 1.282 2.891 4.069 4.591 7.023 4.478 1.449-.057 2.397-1.587 1.783-2.947l-.055-.113c-.335-.737-1.059-1.247-1.895-1.247-2.007.056-3.902-1.814-3.122-4.647.167-.624.669-1.134 1.282-1.36 4.069-1.53 5.964-6.234 4.236-10.201-1.282-2.89-4.069-4.59-7.023-4.478-1.449.057-2.397 1.587-1.783 2.947l.055.114c.335.736 1.059 1.246 1.895 1.246 2.007-.056 3.902 1.814 3.122 4.648-.223.623-.669 1.133-1.282 1.36zm11.482 122.185c.948.113 1.895-.51 2.174-1.417l.279-.907c.39-1.246-.391-2.607-1.728-2.777-6.132-.85-12.263 2.834-14.269 9.068-2.063 6.177.613 12.865 6.019 15.982 1.171.68 2.62.056 3.01-1.191l.279-.906a2.1 2.1 0 00-.892-2.494c-3.233-1.927-4.849-5.95-3.623-9.747 1.338-3.798 5.017-6.064 8.751-5.611zm-13.043-51.685c5.072-3.627 6.745-10.371 4.292-15.925-.557-1.19-2.062-1.643-3.121-.85l-.056.057c-.836.566-1.115 1.7-.669 2.607 1.561 3.683.446 8.16-2.898 10.54-5.073 3.628-6.745 10.372-4.292 15.925.557 1.191 2.062 1.644 3.121.851l.056-.057c.836-.567 1.115-1.7.669-2.607-1.561-3.684-.446-8.161 2.898-10.541zm46.598-58.429c3.567 5.157 10.144 6.914 15.607 4.42 1.226-.51 1.616-2.097.836-3.173l-.056-.057c-.557-.85-1.672-1.133-2.564-.737-3.623 1.587-8.026.454-10.367-3.003-3.568-5.157-10.145-6.914-15.607-4.42-1.226.51-1.617 2.096-.836 3.173l.056.057c.557.85 1.672 1.133 2.563.736 3.679-1.53 8.027-.396 10.368 3.004zM233.367 39.27c0-.68-.502-1.19-1.171-1.303l-1.449-.283c-.836-.17-1.617.51-1.617 1.36 0 4.647 3.289 8.784 7.971 9.634l.892.17c.111 0 .223.057.334.113 2.453 1.19 3.623 3.627 3.233 6.008v.17l2.843.51c.78.113 1.505-.397 1.616-1.134l.056-.283v-.397c-.446-5.044-3.79-8.614-8.082-9.35h-.167c-2.564-.51-4.404-2.721-4.459-5.215zm139.347 28.676c.836-.113 1.449-.793 1.672-1.586v-.057c.334-1.474-.836-2.834-2.341-2.607-2.898.453-5.351 2.607-6.076 5.667a7.75 7.75 0 002.787 7.934c1.171.907 2.899.227 3.233-1.19v-.056c.223-.85-.055-1.7-.724-2.21-1.004-.737-1.505-2.097-1.171-3.401.335-1.417 1.394-2.323 2.62-2.494zm-48.939 71.521a2.16 2.16 0 002.174-.85c.892-1.247.223-3.061-1.282-3.401-2.787-.623-5.853.454-7.636 2.947-1.784 2.494-1.84 5.781-.39 8.274.78 1.361 2.675 1.474 3.567.17.501-.68.557-1.586.111-2.323-.669-1.077-.613-2.494.167-3.57.725-1.077 2.063-1.531 3.289-1.247zm-121.399 26.692c.39 1.077 1.56 1.644 2.619 1.304l8.138-2.947c1.059-.397 1.617-1.587 1.282-2.664l-2.898-8.274a2.115 2.115 0 00-2.62-1.303l-.111.056c-1.059.397-1.617 1.587-1.282 2.664l1.449 4.194c.39 1.076-.167 2.267-1.282 2.663l-4.125 1.474c-1.059.396-1.616 1.587-1.282 2.663l.112.17zM175.175 51.795c.669-1.417-.279-3.06-1.839-3.117-.836-.057-1.617.453-2.007 1.19a3.153 3.153 0 01-3.01 1.87 3.23 3.23 0 01-2.898-2.097c-.279-.793-1.059-1.303-1.895-1.303-1.561-.057-2.62 1.53-2.063 3.004a7.45 7.45 0 006.689 4.76 7.42 7.42 0 007.023-4.307zm-90.52 126.776l.056-.114c.446-1.077-.056-2.323-1.06-2.777l-7.245-3.173.836 5.1 4.682 2.04c1.059.454 2.285 0 2.731-1.076zM70.776 66.87c.558-.624.725-1.53.39-2.324a3.382 3.382 0 01.558-3.57c.891-.964 2.23-1.304 3.4-.85.78.283 1.672 0 2.23-.624 1.058-1.133.557-3.003-.892-3.513-2.732-.907-5.853-.227-7.915 2.04-2.063 2.267-2.453 5.497-1.338 8.16.669 1.53 2.508 1.87 3.567.68zm158.912 55.822c.669-.114 1.338.056 1.839.51 3.177 3.003 8.138 2.607 10.869-.737 1.951-2.38 2.174-5.667.892-8.217-.725-1.417-2.564-1.644-3.567-.397-.558.68-.613 1.587-.279 2.323.892 1.757.112 4.308-2.62 4.874-.668.114-1.337-.056-1.839-.51-3.177-3.003-8.138-2.607-10.869.737-1.951 2.38-2.174 5.667-.892 8.217.725 1.417 2.564 1.644 3.567.397.558-.68.614-1.587.279-2.323-.892-1.814-.111-4.308 2.62-4.874zM173.837 14.618c-.836.227-1.449.907-1.56 1.757-.335 1.983-2.397 3.513-4.961 2.323a2.057 2.057 0 01-1.171-1.53c-.78-4.364-5.016-7.027-9.196-5.95-2.955.793-5.017 3.23-5.519 6.12-.278 1.53 1.115 2.834 2.62 2.437.836-.227 1.449-.907 1.561-1.757.334-1.983 2.397-3.513 4.961-2.323.613.283 1.059.85 1.17 1.53.78 4.364 5.017 7.027 9.197 5.95 2.954-.793 5.017-3.23 5.518-6.12.223-1.53-1.17-2.834-2.62-2.437zm29.988 21.535a2.184 2.184 0 00-1.728-2.55l-6.298-1.19a2.073 2.073 0 00-2.453 1.757c-.223 1.19.557 2.323 1.728 2.493l6.298 1.19c1.115.227 2.23-.51 2.453-1.7zm-110.14 81.098l-.056-.056c-.669-.964-1.895-1.304-3.01-.851-3.344 1.417-7.357.341-9.587-2.776-2.23-3.117-2.007-7.311.335-10.145.724-.907.836-2.21.167-3.173l-.056-.057c-.947-1.304-2.898-1.417-3.902-.17-3.901 4.59-4.292 11.504-.669 16.605 3.624 5.1 10.256 6.857 15.775 4.534 1.449-.68 1.95-2.551 1.003-3.911zm147.931 49.475l1.561.34c.167.057.334.057.557.057 4.961-.284 8.584-3.457 9.476-7.764l.055-.17c.613-2.891 3.512-4.761 6.355-4.137l1.56.34c.168.056.335.056.558.056 3.901-.226 6.967-2.267 8.583-5.214.669-1.246 0-2.72-1.337-3.06l-.167-.057c-.892-.226-1.84.227-2.286 1.077-.892 1.587-2.508 2.72-4.626 2.834-.167 0-.39 0-.557-.057l-.781-.17c-5.184-1.19-10.312 2.154-11.426 7.424l-.168.794-.167.51c-1.282 2.38-3.734 3.457-6.02 2.89l-.167-.057c-4.236-.963-8.528 1.134-10.479 4.874-.669 1.247 0 2.777 1.338 3.06l.167.057c.892.227 1.84-.227 2.286-1.077.947-1.927 3.288-3.06 5.685-2.55zm155.957-77.301l3.345 2.834c.892.737 2.229.623 2.954-.284l.056-.056c.724-.907.613-2.267-.279-3.004l-3.344-2.834c-.892-.736-1.004-2.096-.279-3.003l2.787-3.4c.724-.907.613-2.267-.279-3.004l-.056-.057c-.891-.737-2.229-.623-2.954.284l-2.787 3.4c-.724.907-2.062 1.02-2.954.283l-3.344-2.833c-.892-.737-2.23-.624-2.954.283l-.056.057c-.725.907-.613 2.267.279 3.003l3.344 2.834c.892.737 1.003 2.097.279 3.004l-2.787 3.4c-.725.907-.613 2.267.278 3.004l.056.056c.892.737 2.23.624 2.954-.283l2.787-3.4c.725-.907 2.063-1.02 2.954-.284zM92.96 148.478c.67.736 1.728.906 2.62.396 3.4-2.04 7.915-1.417 10.646 1.7a12.638 12.638 0 0016.053 2.494 2.07 2.07 0 00.446-3.174l-.112-.113c-.669-.737-1.728-.907-2.619-.397-3.4 2.041-7.915 1.417-10.647-1.7a12.637 12.637 0 00-16.052-2.493 2.069 2.069 0 00-.446 3.173l.111.114zm12.43 38.253c1.171-.68 2.508-.51 3.512.227.668.51 1.56.51 2.285.113l.056-.056c1.282-.737 1.393-2.551.278-3.457-2.341-1.814-5.574-2.154-8.305-.624a7.626 7.626 0 00-3.679 7.538c.168 1.473 1.784 2.267 3.066 1.53l.056-.057a2.115 2.115 0 001.059-2.097c-.112-1.19.502-2.437 1.672-3.117zm54.234-26.579c1.728.397 3.233 1.7 3.957 3.74.056.17.112.34.112.567l.056.85c.278 5.384 4.849 9.464 10.088 9.181l.837-.057c.167 0 .39 0 .557.057 2.62.624 4.236 2.72 4.403 5.101v.17c.223 4.42 3.4 7.99 7.469 8.954 1.338.283 2.62-.737 2.509-2.154v-.17c-.056-.906-.725-1.7-1.617-1.927-2.229-.51-3.957-2.493-4.125-4.987l-.111-1.587c0-.17-.056-.34-.112-.566-1.56-4.761-5.629-7.424-9.921-7.198h-.167c-2.954.17-5.463-2.097-5.63-5.1l-.111-1.587c0-.17-.056-.34-.112-.567-1.282-3.797-4.013-6.234-7.302-6.97-1.337-.284-2.619.793-2.508 2.153v.17c.112.907.78 1.7 1.728 1.927zm-57.411-91.639l3.4-2.607c.948-.737 1.115-2.097.39-3.003-.724-.964-2.062-1.134-2.954-.397l-3.4 2.607a2.09 2.09 0 01-2.954-.397L94.13 61.26c-.725-.963-2.063-1.133-2.954-.397-.948.737-1.115 2.097-.39 3.004l2.563 3.457c.725.964.502 2.324-.39 3.004l-3.4 2.607c-.947.736-1.115 2.096-.39 3.003.725.964 2.062 1.134 2.954.397l3.4-2.607a2.09 2.09 0 012.954.397l2.564 3.457c.725.963 2.063 1.133 2.955.396.947-.736 1.114-2.097.39-3.003l-2.564-3.457c-.781-.907-.558-2.267.39-3.004zm49.831 66.137c3.009.453 5.852-.964 7.413-3.457.836-1.304.056-3.061-1.449-3.287-.837-.114-1.673.226-2.119.963-1.059 1.7-3.567 2.267-5.462.17-.167-.68-.334-1.247-.502-1.87.948-4.307-1.95-8.444-6.131-9.124-3.01-.454-5.852.963-7.413 3.457-.836 1.303-.056 3.06 1.449 3.287.836.113 1.672-.227 2.118-.964 1.059-1.7 3.567-2.267 5.463-.17.167.68.334 1.247.501 1.87-.947 4.307 1.895 8.445 6.132 9.125zm41.748-19.269l1.226-1.02.39-.397c2.23-3.287 2.453-7.027 1.115-10.087-.557-1.247-2.174-1.644-3.233-.737l-.111.113c-.725.624-.892 1.644-.558 2.494.725 1.643.558 3.683-.557 5.44-.111.17-.223.284-.39.397l-.613.51c-4.013 3.457-4.571 9.634-1.171 13.715l.558.623c.111.17.223.283.278.453 1.059 2.494.446 5.101-1.393 6.631l-.112.113c-3.344 2.891-4.292 7.595-2.564 11.505.558 1.247 2.174 1.587 3.177.737l.112-.114c.725-.623.948-1.586.557-2.437-.947-2.153-.39-4.76 1.45-6.347l1.226-1.02.39-.397c2.787-4.137 2.453-9.011-.334-12.354l-.112-.114c-1.839-2.323-1.561-5.78.669-7.707zm24.135-38.594l4.013-1.473c1.115-.397 1.672-1.644 1.282-2.777a2.12 2.12 0 00-2.731-1.304l-4.013 1.474a2.122 2.122 0 01-2.732-1.304l-1.449-4.08a2.12 2.12 0 00-2.731-1.303c-1.115.396-1.672 1.643-1.282 2.776l1.449 4.08c.39 1.134-.167 2.381-1.282 2.778l-4.013 1.473c-1.115.397-1.672 1.644-1.282 2.777a2.12 2.12 0 002.731 1.304l4.013-1.474a2.121 2.121 0 012.732 1.304l1.449 4.08a2.12 2.12 0 002.731 1.304c1.115-.397 1.672-1.644 1.282-2.777l-1.449-4.08c-.39-1.134.223-2.381 1.282-2.778zM83.094 30.146l-.167.057c-2.787.85-5.74-.737-6.633-3.514 0-.057-.055-.057-.111-.057l-3.902 1.19c-.056 0-.056.057-.056.114 1.561 5.1 6.912 7.934 11.928 6.404l1.06-.34c2.842-.114 5.016 1.53 5.685 3.91l.056.17 3.957-1.247c.056 0 .056-.056.056-.113l-.502-1.7c-2.564-4.42-7.19-6.12-11.37-4.874zm12.597-17.795c.558.567 1.45.623 2.118.17 3.345-2.437 7.971-2.154 10.981.907a12.581 12.581 0 0016.61 1.19c.781-.623.892-1.814.168-2.55l-.725-.737c-.557-.567-1.449-.623-2.118-.17-3.345 2.437-7.971 2.154-10.981-.907a12.581 12.581 0 00-16.61-1.19c-.78.623-.892 1.814-.167 2.55l.724.737zm39.352 163.896c.669.963 1.951 1.133 2.899.51l5.295-3.854c.947-.68 1.115-1.983.501-2.947l-.055-.113c-.669-.963-1.951-1.133-2.899-.51l-5.295 3.854c-.948.68-1.115 1.983-.502 2.947l.056.113zm-7.748-110.284c4.627.397 8.138 4.534 7.804 9.238-.502 7.084 4.738 13.317 11.705 13.884.056 0 .112-.056.112-.113l.278-4.137c0-.057-.056-.114-.111-.114-4.627-.396-8.138-4.533-7.804-9.237.502-7.084-4.738-13.318-11.705-13.885-.056 0-.111.057-.111.114l-.279 4.137c0 .056.056.113.111.113zm37.178 26.919c5.184 8.671 16.889 3.457 14.102-6.29-5.128-8.728-16.889-3.514-14.102 6.29zm10.089-4.534c1.171 4.194-3.79 6.461-6.02 2.72v-.056c-1.226-4.137 3.79-6.347 6.02-2.664zm-68.503 20.402c.446 1.077 1.672 1.644 2.787 1.191l15.774-6.574a2.208 2.208 0 001.17-2.834c-.445-1.077-1.672-1.644-2.786-1.19l-15.775 6.574c-1.114.453-1.616 1.7-1.17 2.833zm26.42-78.83a1.307 1.307 0 00-.502-.34c-8.639-4.308-15.718 5.893-8.806 12.75.167.17.334.284.501.34 8.64 4.308 15.719-5.95 8.807-12.75zm-7.58 4.646a1.54 1.54 0 01.501-.68c2.787-2.607 6.745.227 5.295 3.797a1.54 1.54 0 01-.501.68c-2.787 2.55-6.745-.283-5.295-3.797z" fill="#FFBA40"/><path d="M128.187 137.71h-9.141v-8.274h28.817v8.274h-9.141v23.462h-10.535V137.71zm48.27 15.471h-2.843v7.991H163.08v-31.736h15.049c2.899 0 5.407.51 7.525 1.473 2.118.963 3.79 2.38 4.961 4.194 1.17 1.813 1.728 3.91 1.728 6.347 0 2.267-.502 4.25-1.505 5.951-1.004 1.7-2.453 3.06-4.348 4.023l6.577 9.805h-11.259l-5.351-8.048zm4.18-14.565c-.724-.623-1.783-.963-3.232-.963h-3.846v7.424h3.846c1.449 0 2.508-.34 3.232-.963.725-.624 1.059-1.587 1.059-2.721 0-1.133-.334-2.096-1.059-2.777zm28.149-9.18h10.534v31.736h-10.534v-31.736zm61.424 0L257 161.172h-10.368l-13.21-31.736h11.371l7.469 18.531 7.636-18.531h10.312zm13.544 0h10.535v31.736h-10.535v-31.736zm49.329 26.182h-11.872l-2.118 5.554h-10.702l13.656-31.736h10.367l13.657 31.736h-10.87l-2.118-5.554zm-2.898-7.707l-3.01-7.991-3.01 7.991h6.02z" fill="#313131"/><g opacity=".5" filter="url(#filter0_f)"><path d="M460.857 88.205c-2.244-4.62-5.583-8.348-9.962-11.075-4.105-2.56-8.703-4.118-13.848-4.674-5.419-.557-10.509.055-15.162 1.892-1.259.5-2.463 1.057-3.612 1.725l.219-2.671-7.937-.612.876-11.02-31.856-2.56-.876 11.02-5.309-.446-.11 1.058c-4.433-2.839-9.961-4.453-16.639-4.842-3.777-.223-7.608.056-11.385.78-3.996.778-7.554 2.002-10.564 3.672l-1.806 1.002-.055-.056c-4.16-4.619-9.962-7.123-16.749-7.29-3.777-.112-7.389.556-10.673 2.003-.712.334-1.423.668-2.08 1.058-.657-.446-1.369-.835-2.08-1.225-3.12-1.558-6.569-2.393-10.345-2.504-2.08-.056-4.16.111-6.076.556l-7.28-.222.383-.39-12.917.056-8.32-.39v.279l-19.486.055-.054-14.135-31.966.111.055 17.085c-4.434-2.337-9.579-3.45-15.271-3.283-5.583.111-10.728 1.391-15.271 3.784-3.503 1.837-6.459 4.23-8.813 7.124-2.572-2.894-5.692-5.176-9.359-6.79-4.379-1.892-9.251-2.783-14.341-2.56-5.419.223-10.345 1.614-14.724 4.174-3.393 1.948-6.24 4.508-8.539 7.513a21.04 21.04 0 00-3.284-3.673c-4.762-4.174-10.673-6.01-17.57-5.51-1.04.056-2.025.223-3.01.39l-.93-13.58-31.857 2.283.493 7.123a37.265 37.265 0 00-3.722-1.503c-4.98-1.67-10.564-2.226-16.475-1.613-6.514.667-12.37 2.726-17.406 6.121-5.2 3.506-9.14 8.07-11.714 13.69-2.572 5.566-3.557 11.743-2.9 18.31.656 6.567 2.846 12.355 6.513 17.308 3.667 4.953 8.43 8.626 14.231 10.963 4.324 1.725 8.977 2.616 13.848 2.616 1.423 0 2.901-.056 4.434-.223 5.911-.612 11.22-2.282 15.764-5.009.547-.334 1.04-.612 1.532-.946l.22 2.839 58.73-4.174-.383-5.454a32.997 32.997 0 004.762 2.671c4.215 1.837 8.922 2.783 14.067 2.783.657 0 1.314 0 1.97-.056 9.634-.445 17.078-3.673 22.113-9.628 2.19 2.059 4.653 3.785 7.499 5.12 4.379 2.059 9.25 3.061 14.505 3.061h.931c5.309-.111 10.016-1.28 14.121-3.45v2.337l31.966-.111v-.334l.273.334 26.766-.056 73.728 2.059.055-1.057c3.011 1.558 6.514 2.504 10.509 2.727 2.299.111 4.379 0 6.185-.39l27.696 1.614.274-4.508c4.05 3.952 9.633 6.233 16.64 6.79 1.149.111 2.244.111 3.284.111 4.16 0 7.717-.723 10.728-2.17l2.189-1.058c.548.39 1.15.779 1.697 1.169 4.379 2.783 9.579 4.508 15.435 5.12a43.76 43.76 0 004.598.223c7.718 0 14.122-2.282 19.103-6.79l5.638-5.12-1.752-2.226 1.204.111 1.259-7.457c.602-3.673.657-3.951.657-4.285.438-5.788-.438-11.075-2.682-15.694z" fill="#313131"/></g><path d="M464.961 67.436c-2.285-4.704-5.685-8.5-10.144-11.278-4.181-2.607-8.863-4.193-14.102-4.76-5.518-.567-10.702.057-15.44 1.927-1.282.51-2.508 1.077-3.678 1.757l.222-2.72-8.082-.624.892-11.221-32.44-2.607-.892 11.221-5.406-.453-.112 1.076c-4.515-2.89-10.144-4.533-16.944-4.93-3.847-.227-7.748.057-11.594.793-4.069.794-7.692 2.04-10.758 3.74l-1.839 1.02-.056-.056c-4.236-4.704-10.144-7.254-17.056-7.424-3.846-.113-7.525.567-10.869 2.04-.725.34-1.449.68-2.118 1.077-.669-.453-1.394-.85-2.118-1.247-3.177-1.587-6.689-2.437-10.535-2.55-2.118-.057-4.236.113-6.187.567l-7.413-.227.39-.397-13.154.057-8.473-.397v.284l-19.843.056-.056-14.394-32.551.113.056 17.398c-4.515-2.38-9.755-3.513-15.551-3.343-5.686.113-10.925 1.416-15.552 3.853-3.567 1.87-6.577 4.307-8.974 7.254-2.619-2.947-5.796-5.27-9.531-6.914-4.459-1.926-9.42-2.833-14.604-2.607-5.518.227-10.534 1.644-14.993 4.25-3.456 1.984-6.355 4.591-8.696 7.652a21.427 21.427 0 00-3.344-3.74c-4.849-4.251-10.869-6.121-17.892-5.611-1.06.056-2.062.226-3.066.396l-.947-13.828-32.44 2.324.501 7.254a37.958 37.958 0 00-3.79-1.53c-5.072-1.7-10.757-2.267-16.777-1.644-6.633.68-12.597 2.777-17.725 6.234-5.296 3.57-9.309 8.218-11.928 13.942-2.62 5.667-3.623 11.958-2.955 18.645.67 6.687 2.899 12.581 6.633 17.625 3.735 5.044 8.584 8.784 14.492 11.164 4.404 1.757 9.142 2.664 14.102 2.664a41.5 41.5 0 004.515-.227c6.02-.623 11.427-2.323 16.053-5.1.557-.34 1.06-.624 1.56-.964l.224 2.891 59.808-4.251-.391-5.554a33.658 33.658 0 004.85 2.72c4.292 1.871 9.085 2.834 14.325 2.834.668 0 1.337 0 2.006-.057 9.81-.453 17.391-3.74 22.519-9.804 2.229 2.097 4.737 3.854 7.636 5.214 4.459 2.097 9.42 3.117 14.771 3.117h.947c5.407-.113 10.2-1.303 14.381-3.514v2.38l32.551-.113v-.34l.279.34 27.256-.056 75.081 2.096.056-1.076c3.065 1.586 6.632 2.55 10.701 2.777 2.341.113 4.459 0 6.299-.397l28.204 1.643.278-4.59c4.125 4.024 9.811 6.347 16.945 6.914 1.171.113 2.285.113 3.344.113 4.237 0 7.86-.736 10.925-2.21l2.23-1.077c.557.397 1.17.794 1.728 1.19 4.459 2.834 9.754 4.591 15.718 5.214a44.56 44.56 0 004.682.227c7.859 0 14.381-2.324 19.453-6.914l5.741-5.214-1.784-2.267 1.227.114 1.282-7.595c.613-3.74.669-4.023.669-4.363.446-5.894-.446-11.278-2.732-15.982z" fill="#fff" stroke="#fff"/><path d="M463.958 67.89c-2.23-4.534-5.462-8.161-9.699-10.825-4.013-2.493-8.583-4.08-13.6-4.59-5.295-.567-10.312.056-14.938 1.87-1.895.737-3.679 1.7-5.351 2.777l.279-3.797-8.082-.623.892-11.222-30.211-2.436-.892 11.22-5.406-.453-.168 1.927c-4.515-3.457-10.534-5.384-17.948-5.837-3.734-.227-7.524.056-11.315.793-3.957.737-7.469 1.984-10.423 3.627l-2.619 1.417c-.223-.227-.391-.51-.614-.737-4.124-4.533-9.587-6.914-16.275-7.084a24.765 24.765 0 00-10.424 1.927 23.13 23.13 0 00-2.619 1.36c-.781-.566-1.672-1.077-2.564-1.53-3.01-1.53-6.41-2.323-10.033-2.437-2.118-.056-4.125.114-6.02.567l-10.033-.283.279-.34-10.591.056-7.413-.227v.227l-20.512.057-1.505 1.53-.056-15.925-30.322.113.056 18.192a4.856 4.856 0 00-.557-.34c-4.571-2.663-9.978-3.967-16.109-3.853-5.518.113-10.59 1.36-15.049 3.74-3.846 2.04-7.023 4.704-9.476 8.047-2.675-3.343-6.02-5.95-9.977-7.65-4.348-1.87-9.086-2.72-14.102-2.494-5.351.227-10.2 1.587-14.492 4.08-3.79 2.21-6.912 5.1-9.253 8.671-1.115-1.87-2.452-3.513-4.069-4.93-4.57-4.024-10.367-5.837-17.112-5.327-1.449.113-2.842.283-4.18.623l-.948-13.941-30.21 2.153.557 8.104c-1.672-.963-3.511-1.757-5.35-2.38-4.962-1.643-10.424-2.21-16.276-1.587-6.466.68-12.207 2.72-17.224 6.064-5.128 3.457-8.974 7.934-11.538 13.488-2.564 5.497-3.511 11.561-2.842 18.022.668 6.46 2.787 12.184 6.41 17.058 3.623 4.874 8.305 8.501 13.99 10.768 4.292 1.757 8.862 2.607 13.656 2.607 1.45 0 2.898-.057 4.348-.227 5.852-.623 11.148-2.267 15.607-4.93 1.059-.624 2.118-1.36 3.121-2.097l.279 3.74 57.578-4.137-.446-6.8a28.574 28.574 0 006.577 4.023c4.125 1.814 8.807 2.72 13.879 2.72.613 0 1.282 0 1.951-.056 9.699-.454 17.112-3.74 22.073-9.805l.446-.566c2.285 2.38 5.016 4.307 8.193 5.837 4.292 2.04 9.086 3.06 14.269 3.06h.892c5.909-.113 11.148-1.587 15.551-4.307v3.174l30.322-.114v-2.436l1.895 2.436 26.699-.056 73.966 2.04.056-1.814c.278.17.557.397.891.567 3.066 1.757 6.745 2.777 10.925 3.004 2.286.113 4.348 0 6.132-.397l27.256 1.587.334-6.12c.335.396.669.85 1.059 1.246 3.958 4.251 9.699 6.688 16.945 7.254 1.115.114 2.174.114 3.233.114 4.069 0 7.525-.68 10.479-2.097l2.842-1.36c.725.51 1.45 1.076 2.174 1.53 4.292 2.72 9.42 4.42 15.217 5.044 1.561.17 3.066.226 4.515.226 7.58 0 13.879-2.21 18.728-6.63l4.961-4.478-2.787-3.57 2.843.284 1.059-6.575c.613-3.683.668-4.023.668-4.307.614-5.497-.222-10.654-2.452-15.244z" fill="#0198E7"/><path d="M30.532 99.003c-4.514-1.814-8.193-4.647-11.036-8.501-2.842-3.854-4.515-8.331-5.072-13.488-.502-5.157.223-9.918 2.23-14.282 2.006-4.307 5.016-7.877 9.085-10.597 4.069-2.72 8.751-4.364 14.046-4.93 4.905-.51 9.364-.114 13.378 1.246 4.013 1.36 7.469 3.57 10.311 6.63L53.72 65.964c-3.512-3.684-7.413-5.27-11.65-4.874-3.567.397-6.298 1.813-8.249 4.364-1.95 2.55-2.675 5.78-2.285 9.69.39 3.911 1.783 6.915 4.18 9.011 2.397 2.097 5.351 2.948 8.918 2.607 4.237-.453 7.692-2.833 10.424-7.14l11.705 8.614c-2.174 3.57-5.073 6.46-8.751 8.614-3.679 2.154-7.97 3.514-12.876 4.024-5.184.567-10.089-.057-14.604-1.87zm77.645-41.144c3.177 2.777 4.961 7.197 5.406 13.204l1.561 22.953-16.331 1.19-1.394-20.062c-.334-4.59-2.118-6.801-5.295-6.574-1.84.113-3.289.906-4.292 2.267-1.059 1.36-1.45 3.456-1.282 6.233l1.282 18.872-16.331 1.19-3.79-54.518 16.33-1.19 1.227 17.568c2.843-2.89 6.466-4.477 10.87-4.76 4.848-.34 8.862.85 12.039 3.627zm55.293 17.625l-27.535 1.246c.669 1.474 1.672 2.607 3.065 3.344 1.394.737 3.066 1.077 5.128.963 1.728-.056 3.178-.34 4.348-.85 1.171-.51 2.397-1.303 3.79-2.436l8.919 8.387c-3.679 4.477-9.365 6.914-17.001 7.254-4.793.227-9.03-.51-12.708-2.097-3.679-1.643-6.578-3.967-8.696-7.084-2.118-3.117-3.288-6.63-3.455-10.597-.168-4.024.668-7.651 2.452-10.938 1.839-3.23 4.403-5.837 7.692-7.764 3.344-1.927 7.135-2.947 11.371-3.174 4.013-.17 7.692.453 11.092 1.927 3.4 1.473 6.131 3.74 8.193 6.8 2.119 3.06 3.233 6.745 3.401 11.108 0 .284 0 1.587-.056 3.91zm-26.142-10.825c-1.059.964-1.728 2.324-2.006 4.08l12.764-.566c-.39-1.644-1.171-2.947-2.341-3.854-1.171-.907-2.564-1.303-4.236-1.247-1.728.057-3.122.624-4.181 1.587zm40.801 24.879c-3.567-1.7-6.41-4.08-8.472-7.254-2.063-3.173-3.177-6.744-3.233-10.767-.112-4.024.836-7.651 2.787-10.881 1.951-3.23 4.682-5.724 8.194-7.595 3.511-1.87 7.524-2.833 11.983-2.947 4.85-.113 8.974.85 12.43 2.89 3.456 2.041 5.909 4.875 7.302 8.615l-12.541 6.63c-1.617-3.513-3.958-5.213-7.023-5.157-1.951.057-3.512.794-4.794 2.154-1.226 1.417-1.839 3.344-1.784 5.837.056 2.55.725 4.477 2.063 5.837 1.282 1.36 2.954 1.984 4.849 1.927 3.066-.056 5.295-1.87 6.744-5.44l12.82 6.064c-1.226 3.74-3.511 6.744-6.911 8.954-3.4 2.21-7.469 3.344-12.319 3.457-4.514.113-8.528-.68-12.095-2.324zm53.677-11.278l-2.62 2.89v9.522l-16.387.056-.167-54.688 16.387-.057.055 26.07 11.371-11.732 19.342-.056-16.332 17.511 17.725 22.782-19.787.057-9.587-12.354zm96.93-22.498c2.787 3.06 4.124 7.65 3.957 13.658l-.613 22.952-16.387-.453.557-20.119c.112-4.59-1.282-6.97-4.236-7.027-1.561-.057-2.787.51-3.79 1.643-.948 1.134-1.505 3.004-1.561 5.554l-.502 19.665-16.387-.453.558-20.119c.111-4.59-1.282-6.97-4.237-7.027-1.56-.057-2.787.51-3.79 1.643-.947 1.134-1.505 3.004-1.561 5.554l-.501 19.665-16.387-.453 1.059-40.294 15.551.454-.112 3.74c3.01-2.89 6.8-4.307 11.371-4.194 2.676.057 5.017.624 7.135 1.7 2.118 1.077 3.79 2.664 5.072 4.76 1.672-1.926 3.623-3.4 5.908-4.363 2.286-1.02 4.794-1.473 7.525-1.36 4.794.227 8.584 1.813 11.371 4.874zm45.315 2.89c3.512 3.4 5.073 8.33 4.682 14.905l-1.226 21.649-15.217-.907.279-5.27c-2.118 3.91-5.964 5.723-11.538 5.383-3.121-.17-5.741-.907-7.915-2.097-2.118-1.246-3.734-2.833-4.737-4.76-1.004-1.927-1.45-4.08-1.338-6.46.223-3.968 1.895-6.915 5.016-8.785 3.122-1.87 7.692-2.664 13.768-2.323l6.577.396c-.334-3.173-2.731-4.874-7.19-5.157a18.054 18.054 0 00-5.463.51c-1.839.453-3.456 1.133-4.849 2.04L340.329 56.5c2.341-1.304 5.128-2.267 8.417-2.89a39.7 39.7 0 019.643-.68c6.967.453 12.207 2.323 15.662 5.723zm-14.324 25.22c.947-.568 1.672-1.474 2.173-2.778l.168-2.777-4.069-.226c-3.345-.17-5.073.85-5.184 3.117-.056.906.279 1.7.892 2.38.669.68 1.616 1.02 2.787 1.077 1.226.056 2.285-.17 3.233-.794zm53.509 12.75c-2.564 1.247-5.964 1.644-10.2 1.304-5.518-.454-9.699-2.154-12.486-5.1-2.787-2.948-3.957-7.141-3.511-12.582l.78-10.257-5.407-.454.948-12.128 5.407.454.891-11.221 16.332 1.303-.892 11.221 8.082.623-.947 12.128-8.083-.623-.78 10.144c-.111 1.247.167 2.21.725 2.947.557.737 1.337 1.134 2.396 1.247 1.394.113 2.676-.17 3.791-.793l2.954 11.787zm45.65-10.201l-27.368-2.89c.446 1.587 1.282 2.834 2.508 3.797 1.282.964 2.899 1.53 4.905 1.757 1.728.17 3.233.113 4.404-.17 1.226-.34 2.564-.907 4.069-1.87l7.58 9.634c-4.292 3.91-10.256 5.441-17.892 4.647-4.738-.51-8.862-1.813-12.262-4.023-3.401-2.154-5.964-4.931-7.581-8.331-1.672-3.4-2.285-7.028-1.839-10.995.39-4.023 1.728-7.48 4.013-10.427 2.285-2.947 5.184-5.1 8.751-6.518 3.567-1.416 7.469-1.87 11.705-1.416 4.013.396 7.525 1.643 10.646 3.57 3.122 1.983 5.518 4.59 7.135 7.934 1.616 3.344 2.229 7.197 1.783 11.504 0 .227-.167 1.474-.557 3.797zM434.584 71.8c-1.226.793-2.062 2.04-2.564 3.74l12.708 1.36c-.167-1.7-.78-3.06-1.783-4.137-1.004-1.076-2.341-1.7-4.014-1.87-1.727-.227-3.121.057-4.347.907z" fill="#fff"/><defs><filter id="filter0_f" x=".352" y="39.249" width="473.296" height="100.417" filterUnits="userSpaceOnUse" color-interpolation-filters="sRGB"><feFlood flood-opacity="0" result="BackgroundImageFix"/><feBlend mode="normal" in="SourceGraphic" in2="BackgroundImageFix" result="shape"/><feGaussianBlur stdDeviation="5" result="effect1_foregroundBlur"/></filter></defs></svg>