<svg width="341" height="341" viewBox="0 0 341 341" fill="none" xmlns="http://www.w3.org/2000/svg"><path fill-rule="evenodd" clip-rule="evenodd" d="M125.28 338.434l.031.002 3.817 1.094a.078.078 0 01.053.096 6.617 6.617 0 00-.208 1.182.078.078 0 01-.078.072h-3.977a.08.08 0 01-.081-.084c.04-.765.161-1.537.375-2.304a.08.08 0 01.099-.056l-.031-.002zm157.792-1.849a3.361 3.361 0 014.541-1.404.079.079 0 01.033.107l-2.929 5.55a.08.08 0 01-.07.043h-3.71a.08.08 0 01-.071-.117l2.206-4.179zm-67.833-3.546l3.282.041c.044.001.08.038.079.082a10.3 10.3 0 01-3.7 7.699.081.081 0 01-.052.019h-10.952c-.086 0-.11-.117-.031-.152a10.244 10.244 0 014.33-.897 6.887 6.887 0 006.965-6.715.078.078 0 01.079-.077zm-161.75-1.762c5.11.43 9.056 4.543 9.423 9.517a.08.08 0 01-.08.086h-3.3a.079.079 0 01-.078-.07c-.35-3.2-2.918-5.812-6.23-6.103a.078.078 0 01-.072-.084l.25-3.272a.08.08 0 01.087-.074zm29.29-2.716l3.28.117a.078.078 0 01.076.082l-.3 8.437a.08.08 0 01-.082.076l-3.28-.117a.078.078 0 01-.076-.082l.3-8.437a.079.079 0 01.082-.076zm-74.814-7.685a1.72 1.72 0 012.395.428l7.87 11.289a1.72 1.72 0 11-2.823 1.967l-7.869-11.289a1.72 1.72 0 01.427-2.395zm249.901-2.802a1.677 1.677 0 012.241.779l1.537 3.172a1.678 1.678 0 002.242.777l3.172-1.536a1.677 1.677 0 012.241.777l.037.078a1.677 1.677 0 01-.778 2.241l-3.172 1.536a1.679 1.679 0 00-.778 2.243l1.537 3.171a1.676 1.676 0 01-.778 2.241l-.077.038a1.677 1.677 0 01-2.241-.779l-1.537-3.171a1.678 1.678 0 00-2.242-.779l-3.172 1.538a1.678 1.678 0 01-2.241-.779l-.037-.077a1.677 1.677 0 01.778-2.241l3.172-1.536a1.678 1.678 0 00.778-2.242l-1.537-3.172a1.677 1.677 0 01.778-2.241l.077-.038zm-105.085-1.762a1.325 1.325 0 011.796-.536l.693.375c.644.348.885 1.153.537 1.797l-2.011 3.72a1.326 1.326 0 00.535 1.797l3.72 2.011c.644.348.885 1.152.536 1.796l-.375.694a1.326 1.326 0 01-1.797.536l-3.72-2.011a1.327 1.327 0 00-1.797.536l-2.009 3.72a1.327 1.327 0 01-1.797.536l-.694-.375a1.326 1.326 0 01-.537-1.797l2.011-3.72a1.326 1.326 0 00-.535-1.797l-3.72-2.01a1.326 1.326 0 01-.536-1.797l.375-.694a1.326 1.326 0 011.797-.536l3.72 2.011a1.327 1.327 0 001.797-.536l2.011-3.72zm151.519 1.407c5.207-2.203 11.247.212 13.494 5.411a6.89 6.89 0 008.974 3.617.077.077 0 01.102.04l1.302 3.013a.08.08 0 01-.042.106c-5.207 2.203-11.247-.212-13.494-5.411a6.89 6.89 0 00-8.974-3.617.077.077 0 01-.102-.041l-1.303-3.012a.081.081 0 01.043-.106zm-82.906-6.495c4.334-2.533 10.007-1.715 13.422 2.206 3.415 3.922 3.446 9.654.341 13.598a1.679 1.679 0 01-2.585.064l-.512-.587c-.518-.595-.568-1.479-.089-2.106 1.843-2.415 1.803-5.879-.268-8.258-2.071-2.378-5.498-2.894-8.143-1.4-.687.388-1.555.217-2.073-.377l-.512-.588a1.679 1.679 0 01.419-2.552zm-178.612.419c4.323-2.858 9.985-2.147 13.488 1.42a1.72 1.72 0 01-.284 2.636l-.586.387a1.707 1.707 0 01-2.14-.194c-2.15-2.129-5.578-2.54-8.201-.805a6.544 6.544 0 00-2.472 7.862c.296.747.01 1.601-.66 2.044l-.586.387a1.72 1.72 0 01-2.537-.771c-1.91-4.62-.345-10.108 3.978-12.966zm161.155-1.347c.424-.621 1.19-.909 1.906-.679l.093.03a1.68 1.68 0 01.882 2.533c-1.488 2.222-4.105 3.617-7.263 3.487a1.637 1.637 0 01-.433-.079l-1.219-.392a4.305 4.305 0 00-5.409 2.78l-.038.115c-1.065 3.317-4.199 5.6-8.202 5.436a1.637 1.637 0 01-.433-.079l-1.218-.392a4.306 4.306 0 00-4.869 1.673 1.688 1.688 0 01-1.909.667l-.085-.027a1.68 1.68 0 01-.875-2.541c1.876-2.784 5.437-4.124 8.79-3.047l.116.037c1.813.583 3.822-.063 5.05-1.857.086-.124.149-.263.195-.408l.202-.63c1.306-4.064 5.674-6.307 9.738-5.002l.625.202c.145.047.295.077.447.08 1.692.037 3.095-.716 3.909-1.907zm-96.95-.09a1.327 1.327 0 011.357 1.294l.099 4.228a1.325 1.325 0 001.357 1.294l4.227-.099a1.326 1.326 0 011.357 1.294l.018.788a1.325 1.325 0 01-1.294 1.357l-7.667.18a1.324 1.324 0 01-1.356-1.294l-.181-7.667a1.326 1.326 0 011.295-1.356l.788-.019zM59.274 288.44a1.668 1.668 0 012.164-1.557c3.215.991 5.53 4.021 5.462 7.548l-.003.122c-.037 1.905 1.16 3.643 3.232 4.304.143.045.293.066.444.068l.664.013c4.267.083 7.672 3.622 7.59 7.889l-.014.658c-.004.151.01.302.05.447.45 1.633 1.576 2.761 2.951 3.198.717.228 1.214.879 1.199 1.631l-.003.115a1.667 1.667 0 01-2.156 1.56c-2.564-.782-4.659-2.891-5.445-5.96a1.636 1.636 0 01-.047-.435l.025-1.28a4.305 4.305 0 00-4.218-4.383l-.12-.003c-3.484-.067-6.572-2.412-7.565-6.294a1.632 1.632 0 01-.049-.435l.026-1.281a4.308 4.308 0 00-3.011-4.186 1.671 1.671 0 01-1.178-1.624l.002-.115zm-43.265 10.945a6.031 6.031 0 016.639.954 6.027 6.027 0 01.496 8.442.08.08 0 01-.113.007l-1.481-1.335c-.501-.451-.715-1.159-.495-1.796a2.581 2.581 0 00-3.531-3.182c-.611.285-1.337.146-1.838-.306l-.057-.051c-.876-.789-.682-2.223.38-2.733zm262.302-6.507a6.032 6.032 0 016.476-1.747 6.028 6.028 0 013.625 8.011 1.647 1.647 0 00.1 1.492c1.213 1.987 3.352 1.881 4.422.665.435-.493 1.135-.659 1.759-.448l.113.039c1.116.379 1.505 1.773.73 2.66a6.028 6.028 0 01-6.475 1.747 6.026 6.026 0 01-3.625-8.011 1.648 1.648 0 00-.101-1.492c-1.212-1.986-3.351-1.881-4.422-.665a1.639 1.639 0 01-1.758.448l-.114-.039c-1.116-.378-1.505-1.772-.73-2.66zm-116.155-6.468a6.032 6.032 0 016.75 2.614 6.027 6.027 0 01-2.411 8.561 1.323 1.323 0 00-.702.937c-.473 2.503 1.411 3.871 3.093 3.506a1.316 1.316 0 011.391.598l.439.705c.461.741.098 1.733-.742 1.97a6.03 6.03 0 01-6.749-2.614 6.026 6.026 0 012.41-8.561c.367-.185.626-.533.702-.937.474-2.503-1.41-3.871-3.092-3.506a1.318 1.318 0 01-1.392-.598l-.439-.706c-.46-.74-.098-1.732.742-1.969zm167.868 5.94a1.664 1.664 0 012.331-.33l.088.066c.735.552.883 1.596.331 2.331l-2.134 2.839a1.665 1.665 0 00.331 2.331l2.838 2.133c.736.553.884 1.596.331 2.331l-.066.089a1.664 1.664 0 01-2.331.33l-5.589-4.2a1.665 1.665 0 01-.331-2.331l4.201-5.589zm-199.04-3.688a1.326 1.326 0 011.804.511l2.062 3.692a1.326 1.326 0 001.804.511l3.692-2.062a1.326 1.326 0 011.804.511l.385.688c.357.64.128 1.447-.512 1.805l-3.691 2.062a1.325 1.325 0 00-.511 1.804l2.062 3.692a1.326 1.326 0 01-.511 1.804l-.689.384a1.326 1.326 0 01-1.804-.511l-2.062-3.692a1.326 1.326 0 00-1.804-.511l-3.692 2.062a1.325 1.325 0 01-1.804-.511l-.384-.688a1.324 1.324 0 01.511-1.804l3.692-2.062a1.325 1.325 0 00.51-1.804l-2.062-3.692a1.326 1.326 0 01.511-1.804l.689-.385zm111.025 3.712a1.678 1.678 0 011.965-1.33l13.596 2.618a1.678 1.678 0 011.33 1.965l-.016.083a1.678 1.678 0 01-1.965 1.33l-13.596-2.618a1.678 1.678 0 01-1.33-1.965l.016-.083zm-57.001-8.932a1.677 1.677 0 012.177-.943l12.876 5.091a1.678 1.678 0 01.943 2.177l-.031.079a1.677 1.677 0 01-2.177.943l-12.876-5.091a1.677 1.677 0 01-.943-2.177l.031-.079zm-69.051-12.524a1.33 1.33 0 011.887.85l.203.783a1.334 1.334 0 01-.671 1.507 4.307 4.307 0 00-2.123 4.864l.03.117c.876 3.385-.567 7.005-4.067 9.002a1.326 1.326 0 01-1.939-.822l-.529-2.047.118-.031c1.857-.48 3.215-2.12 3.277-4.316a1.293 1.293 0 00-.043-.355l-.178-.687c-.93-3.597.837-7.268 4.035-8.865zm-75.081 2.367l.143.007.11.01a1.665 1.665 0 011.51 1.808l-.95 10.511a1.664 1.664 0 01-1.809 1.508l-10.51-.95a1.664 1.664 0 01-1.509-1.808l.01-.11a1.665 1.665 0 011.808-1.508l7.084.64a1.665 1.665 0 001.808-1.508l.64-7.084a1.666 1.666 0 011.808-1.509l-.143-.007zm49.997-3.553a1.666 1.666 0 012.565.071c3.104 3.953 3.061 9.693-.368 13.609-3.43 3.916-9.113 4.716-13.442 2.161a1.666 1.666 0 01-.408-2.533l.523-.598c.52-.593 1.39-.762 2.075-.372 2.641 1.501 6.068.995 8.146-1.378 2.077-2.372 2.127-5.837.291-8.257-.477-.628-.425-1.512.095-2.105l.523-.598zm137.416 1.111a1.33 1.33 0 011.628 1.277l.009.809a1.336 1.336 0 01-1.013 1.302 4.309 4.309 0 00-3.228 4.213l.001.121c.039 3.496-2.23 6.665-6.107 7.763a1.326 1.326 0 01-1.685-1.262l-.023-2.115.122-.001c1.918-.021 3.63-1.287 4.216-3.404a1.29 1.29 0 00.044-.355l-.008-.71c-.041-3.715 2.556-6.855 6.044-7.638zm55.596-5.505c2.598-.661 5.482.056 7.745 2.273.105.103.194.221.268.349l.642 1.107a4.305 4.305 0 005.878 1.561l.105-.061c3.013-1.748 6.869-1.344 9.731 1.46.105.103.194.221.268.349l.643 1.107a4.309 4.309 0 004.745 2.019 1.67 1.67 0 011.849.777l.058.1c.55.947.055 2.172-1.006 2.444-3.273.839-6.844-.55-8.622-3.613l-.061-.106c-.956-1.648-2.881-2.514-4.995-2.004a1.541 1.541 0 00-.414.171l-.574.333c-3.692 2.142-8.438.881-10.581-2.811l-.329-.57a1.588 1.588 0 00-.276-.356c-1.231-1.162-2.778-1.543-4.181-1.204-.731.176-1.493-.123-1.87-.773l-.058-.1a1.667 1.667 0 011.035-2.452zm-272.94-6.499c.34-1.128 1.72-1.566 2.634-.822a6.032 6.032 0 011.97 6.41 6.027 6.027 0 01-7.881 3.901 1.653 1.653 0 00-1.488.151c-1.943 1.281-1.764 3.415-.512 4.443a1.64 1.64 0 01.509 1.742l-.035.116c-.34 1.128-1.72 1.564-2.633.82a6.027 6.027 0 01-1.97-6.41 6.027 6.027 0 017.88-3.901 1.65 1.65 0 001.488-.151c1.944-1.281 1.764-3.414.512-4.443a1.64 1.64 0 01-.51-1.742l.036-.114zm243.399 6.366a1.678 1.678 0 012.264.712l2.424 4.651c.429.822.11 1.835-.712 2.263l-.075.039a1.676 1.676 0 01-2.263-.712l-2.425-4.651a1.678 1.678 0 01.712-2.263l.075-.039zm-87.779.709a1.665 1.665 0 011.828 1.483l.011.11a1.663 1.663 0 01-1.483 1.828l-13.797 1.437a1.666 1.666 0 01-1.829-1.484l-.011-.11a1.664 1.664 0 011.484-1.828l13.797-1.436zm-99.149-5.936a6.03 6.03 0 016.69.48c.93.724.813 2.167-.21 2.752l-.067.037c-.585.335-1.324.316-1.861-.092a2.585 2.585 0 00-2.846-.19 2.584 2.584 0 00-1.282 2.548c.08.669-.28 1.315-.865 1.65l-.067.039c-1.023.584-2.325-.05-2.476-1.219a6.029 6.029 0 012.984-6.005zm132.691-.704a1.679 1.679 0 012.301.582l.044.073a1.678 1.678 0 01-.582 2.3l-4.505 2.687a1.679 1.679 0 01-2.301-.582l-.044-.073a1.678 1.678 0 01.582-2.3l4.505-2.687zm-89.528-21.12a1.668 1.668 0 012.034-1.717c2.615.586 4.863 2.532 5.877 5.534.046.138.072.283.081.429l.072 1.279a4.303 4.303 0 004.533 4.053l.122-.006c3.479-.195 6.733 1.912 8.016 5.708.047.139.073.284.081.43l.072 1.279a4.307 4.307 0 003.316 3.948 1.671 1.671 0 011.298 1.53l.006.116a1.668 1.668 0 01-2.041 1.715c-3.281-.747-5.817-3.594-6.015-7.116l-.006-.122c-.107-1.902-1.431-3.546-3.546-4.049a1.6 1.6 0 00-.447-.035l-.663.037c-4.262.239-7.923-3.034-8.163-7.295l-.034-.658c-.009-.15-.034-.3-.085-.442-.572-1.594-1.779-2.634-3.183-2.967-.731-.173-1.276-.785-1.318-1.535l-.007-.116zm223.498-6.775a.08.08 0 01.109.031c2.737 4.947.968 11.207-3.968 13.986l-.215.127a6.888 6.888 0 00-2.442 9.176.08.08 0 01-.029.107l-2.86 1.61a.08.08 0 01-.11-.031c-2.736-4.948-.967-11.207 3.968-13.986a6.89 6.89 0 002.657-9.304.077.077 0 01.03-.106l2.86-1.61zM35.602 247.574a1.665 1.665 0 012.186-.874l12.75 5.464a1.665 1.665 0 01.875 2.186l-.044.101a1.665 1.665 0 01-2.186.875l-12.75-5.464a1.665 1.665 0 01-.875-2.186l.044-.102zm61.08-.457a1.665 1.665 0 012.322.387l.063.09a1.664 1.664 0 01-.387 2.322l-4.289 3.063a1.665 1.665 0 01-2.323-.387l-.064-.09a1.666 1.666 0 01.387-2.323l4.29-3.062zm124.823-2.798a.08.08 0 01.104.037 4.305 4.305 0 005.672 2.038l.11-.051c3.22-1.483 7.099-.664 9.686 2.532a.078.078 0 01.011.018l.59 1.282a.079.079 0 01-.039.105l-3.052 1.405-.051-.11c-.823-1.787-2.753-2.841-4.996-2.431a.172.172 0 00-.021.007l-.799.368c-3.852 1.774-8.425.105-10.235-3.72a.08.08 0 01.039-.107l2.981-1.373zm41.557-7.794c1.649-4.926 6.567-7.855 11.535-7.184a1.692 1.692 0 011.376 2.214l-.241.721c-.251.749-.99 1.24-1.774 1.145-3.015-.364-5.98 1.425-6.981 4.415-1.002 2.99.288 6.204 2.914 7.728.684.397.978 1.234.727 1.983l-.242.721a1.692 1.692 0 01-2.432.939c-4.37-2.457-6.531-7.756-4.882-12.682zm-64.851-6.143c.365-.657 1.101-1.015 1.835-.852l.113.025a1.667 1.667 0 011.102 2.422c-1.273 2.359-3.755 3.995-6.919 4.158a1.63 1.63 0 01-.435-.039l-1.251-.277a4.306 4.306 0 00-5.131 3.266l-.026.119c-.755 3.401-3.665 5.964-7.667 6.169a1.64 1.64 0 01-.436-.038l-1.25-.278a4.309 4.309 0 00-4.699 2.123 1.67 1.67 0 01-1.825.834l-.113-.025a1.668 1.668 0 01-1.097-2.43c1.607-2.955 5.035-4.625 8.479-3.861l.119.027c1.86.413 3.801-.416 4.858-2.316.073-.132.123-.275.155-.421l.144-.648c.925-4.167 5.067-6.804 9.234-5.88l.643.144c.147.033.298.048.448.038 1.69-.119 3.018-.998 3.719-2.26zm97.692.249a1.69 1.69 0 012.16 1.027l1.171 3.296a1.692 1.692 0 002.16 1.028l3.296-1.171a1.69 1.69 0 012.16 1.028l.019.054a1.691 1.691 0 01-1.027 2.16l-3.296 1.171a1.691 1.691 0 00-1.028 2.16l1.171 3.296a1.69 1.69 0 01-1.028 2.16l-.054.019a1.693 1.693 0 01-2.16-1.028l-1.171-3.296a1.69 1.69 0 00-2.16-1.027l-3.296 1.17a1.691 1.691 0 01-2.16-1.027l-.019-.054a1.691 1.691 0 011.028-2.16l3.296-1.171a1.691 1.691 0 001.027-2.16l-1.17-3.296a1.691 1.691 0 011.027-2.16l.054-.019zm-144.171 2.918a1.665 1.665 0 012.123 1.018l2.321 6.594a1.664 1.664 0 01-1.017 2.123l-6.595 2.322a1.665 1.665 0 01-2.123-1.018l-.037-.104a1.665 1.665 0 011.018-2.123l3.35-1.179a1.666 1.666 0 001.017-2.124l-1.179-3.349a1.665 1.665 0 011.018-2.123l.104-.037zm-93.334-5.615c4.156-2.477 9.633-1.749 12.976 1.991 2.217 2.481 5.842 2.974 8.608 1.352a1.679 1.679 0 012.108.312l.075.084a1.664 1.664 0 01-.38 2.535c-4.157 2.478-9.633 1.75-12.977-1.99-2.217-2.481-5.842-2.974-8.608-1.353a1.677 1.677 0 01-2.108-.312l-.075-.083a1.664 1.664 0 01.38-2.536zm-29.561-11.568a1.665 1.665 0 011.917 1.367l1.742 10.409a1.665 1.665 0 01-1.367 1.917l-10.41 1.742a1.666 1.666 0 01-1.916-1.368l-.018-.109a1.665 1.665 0 011.367-1.917l7.016-1.174a1.664 1.664 0 001.367-1.917l-1.174-7.015a1.665 1.665 0 011.367-1.917l.109-.018zm210.225 6.005a6.031 6.031 0 016.151-2.35c1.217.263 1.77 1.681 1.04 2.688-.396.546-1.077.834-1.734.682a2.584 2.584 0 00-2.672.999 2.583 2.583 0 00-.118 2.85c.348.578.286 1.314-.109 1.86-.731 1.008-2.251.923-2.878-.152a6.027 6.027 0 01.32-6.577zm-99.96-27.867a1.668 1.668 0 012.595.592c1.103 2.443.9 5.408-.889 8.023-.083.121-.184.23-.297.325l-.978.825a4.306 4.306 0 00-.513 6.06l.079.093c2.246 2.662 2.519 6.529.258 9.836-.083.122-.185.23-.297.325l-.979.826a4.307 4.307 0 00-1.16 5.024 1.67 1.67 0 01-.444 1.956l-.088.075c-.837.706-2.129.432-2.582-.565-1.397-3.077-.651-6.835 2.056-9.12l.093-.078c1.456-1.228 1.973-3.275 1.104-5.267a1.552 1.552 0 00-.241-.379l-.428-.507c-2.753-3.263-2.338-8.156.924-10.908l.504-.425c.115-.097.219-.207.302-.333.93-1.416 1.036-3.005.458-4.327-.302-.689-.14-1.491.435-1.976l.088-.075zm74.648 10.038a1.718 1.718 0 012.419.26 1.716 1.716 0 01-.253 2.413l-5.447 4.415a1.714 1.714 0 00-.253 2.413l4.415 5.447a1.716 1.716 0 01-.253 2.413 1.717 1.717 0 01-2.42-.247l-6.581-8.12a1.716 1.716 0 01.253-2.413l8.12-6.581zm-120.638 4.534a6.03 6.03 0 015.99-2.729 6.026 6.026 0 014.974 7.25l.403 1.498c1.528 1.675 3.564 1.211 4.409-.138a1.712 1.712 0 011.707-.775c1.233.188 1.859 1.58 1.19 2.632a6.028 6.028 0 01-5.988 2.729 6.026 6.026 0 01-4.975-7.25l-.403-1.498c-1.528-1.675-3.566-1.211-4.41.137a1.711 1.711 0 01-1.707.775c-1.233-.187-1.859-1.579-1.19-2.631zm223.98-1.046a1.69 1.69 0 011.742 1.639l.211 6.934a1.692 1.692 0 01-1.639 1.743l-.057.001a1.69 1.69 0 01-1.742-1.639l-.107-3.496a1.691 1.691 0 00-1.742-1.639l-3.496.107a1.692 1.692 0 01-1.742-1.64l-.002-.057a1.691 1.691 0 011.639-1.742l6.935-.211zm-140.446-5.018c.79-.963 2.301-.788 2.864.322a6.026 6.026 0 01-.707 6.546 6.028 6.028 0 01-8.774.58 1.693 1.693 0 00-1.493-.418c-2.221.459-2.862 2.45-2.13 3.865a1.704 1.704 0 01-.204 1.859 1.721 1.721 0 01-2.871-.314 6.034 6.034 0 01.707-6.547 6.028 6.028 0 018.774-.58c.398.373.961.529 1.495.418 2.22-.459 2.86-2.45 2.129-3.865a1.703 1.703 0 01.205-1.858l.005-.008zm107.522-4.652c.165 0 .33.026.487.077 7.409 2.406 5.848 12.233-1.941 12.226-.165 0-.331-.026-.487-.077-7.41-2.406-5.849-12.234 1.941-12.226zm-238.536-6.344c.846-.987 2.402-.899 3.166.153l.05.067c.551.761.49 1.791-.117 2.509-1.892 2.245-2.092 5.575-.292 8.054 1.8 2.48 5.03 3.321 7.748 2.217.872-.354 1.871-.093 2.423.668l.05.067c.763 1.052.363 2.559-.837 3.058-4.454 1.851-9.77.486-12.725-3.584-2.954-4.071-2.606-9.548.534-13.209zM6.206 202.885c1.476-3.223 4.952-5.129 8.997-4.39.007.001.014.004.02.006l1.283.588c.04.019.058.066.039.105l-1.4 3.056-.11-.051c-1.79-.819-3.94-.362-5.374 1.411l-.011.018-.367.8c-1.622 3.54-5.594 5.271-9.225 4.2A.08.08 0 010 208.55v-2.429c0-.012.002-.023.007-.033l.414-.904a.079.079 0 01.103-.039 4.305 4.305 0 005.63-2.15l.05-.11zm334.523 3.549c.036-.077.152-.052.152.033v2.035a.08.08 0 01-.104.076 7.432 7.432 0 01-.802-.303.08.08 0 01-.04-.107l.794-1.734zm-54.659-1.845c-.184-3.058-4.032-3.669-5.154-.818-.083.21-.119.438-.105.663.184 3.058 4.032 3.668 5.154.818.083-.21.119-.437.105-.663zm-24.909-25.328c.865-.61 2.083-.289 2.514.679 1.966 4.408.612 9.747-3.478 12.633-2.712 1.914-3.62 5.447-2.339 8.376.327.748.106 1.621-.561 2.091l-.047.034c-.866.61-2.083.289-2.515-.679-1.966-4.408-.611-9.747 3.478-12.633 2.713-1.914 3.62-5.446 2.339-8.376-.326-.748-.106-1.621.561-2.091l.048-.034zm-38.076 4.546a6.03 6.03 0 016.57.431 6.027 6.027 0 01.948 8.742 1.696 1.696 0 00-.354 1.51c.552 2.2 2.568 2.755 3.951 1.966a1.706 1.706 0 011.873.131c.996.747.885 2.266-.2 2.875a6.03 6.03 0 01-6.571-.431 6.028 6.028 0 01-.948-8.742c.355-.413.488-.981.355-1.51-.552-2.199-2.569-2.755-3.951-1.966a1.704 1.704 0 01-1.866-.125l-.008-.006c-.995-.747-.884-2.265.201-2.875zm-140.75 7.695a1.714 1.714 0 012.237.936 1.718 1.718 0 01-.933 2.247l-12.74 5.224a1.717 1.717 0 01-2.239-.937 1.718 1.718 0 01.934-2.246l12.74-5.224zm33.519-5.155c-2.244-7.76 7.221-11.905 11.402-4.993a.078.078 0 01.009.021c2.244 7.76-7.221 11.904-11.402 4.993a.078.078 0 01-.009-.021zm73.779-12.228a1.716 1.716 0 012.204-1.013 1.717 1.717 0 011.022 2.207l-2.433 6.576a1.716 1.716 0 001.013 2.205l6.576 2.433a1.717 1.717 0 011.014 2.205 1.718 1.718 0 01-2.208 1.022l-9.802-3.628a1.715 1.715 0 01-1.014-2.204l3.628-9.803zm121.575-.416a1.691 1.691 0 012.382-.218l.044.037c.718.598.815 1.664.218 2.382l-2.239 2.688c-.597.718-.5 1.784.218 2.382l2.688 2.238c.717.598.814 1.664.217 2.382l-.037.044a1.691 1.691 0 01-2.382.218l-2.688-2.238a1.69 1.69 0 00-2.382.217l-2.238 2.688a1.691 1.691 0 01-2.382.217l-.045-.037a1.692 1.692 0 01-.217-2.382l2.238-2.687a1.692 1.692 0 00-.217-2.383l-2.688-2.238a1.69 1.69 0 01-.217-2.382l.037-.044a1.69 1.69 0 012.382-.217l2.687 2.238c.718.598 1.785.5 2.383-.218l2.238-2.687zm-187.211 9.078c-1.792-2.952-5.837-1.181-4.885 2.138a.072.072 0 00.01.022c1.792 2.952 5.837 1.181 4.885-2.138a.074.074 0 00-.01-.022zM86.06 161.534c5.636.45 9.878 5.381 9.47 11.03a6.891 6.891 0 006.291 7.352c.043.003.075.04.072.083l-.236 3.274a.08.08 0 01-.086.074c-5.636-.45-9.88-5.381-9.471-11.031a6.888 6.888 0 00-6.29-7.351.078.078 0 01-.072-.084l.236-3.273a.08.08 0 01.086-.074zM.082 175.309l.032.007a7.75 7.75 0 014.479 6.661.08.08 0 01-.076.084l-3.282.119a.078.078 0 01-.08-.075 4.279 4.279 0 00-1.134-2.675.078.078 0 01-.021-.052v-3.989a.08.08 0 01.114-.073l-.032-.007zm152.238-10.282a1.715 1.715 0 012.194 1.035l1.166 3.246a1.716 1.716 0 002.196 1.034l3.246-1.166a1.716 1.716 0 012.194 1.034 1.72 1.72 0 01-1.031 2.204l-3.247 1.166a1.714 1.714 0 00-1.033 2.195l1.166 3.246a1.716 1.716 0 01-1.036 2.194 1.717 1.717 0 01-2.203-1.031l-1.166-3.246a1.715 1.715 0 00-2.194-1.035l-3.246 1.167a1.715 1.715 0 01-2.194-1.035 1.716 1.716 0 011.031-2.203l3.245-1.166a1.716 1.716 0 001.035-2.195l-1.166-3.246a1.715 1.715 0 011.034-2.195l.009-.003zm180.561 5.317l.004.12c.071 1.966 1.446 3.684 3.675 4.169l.021.002.879-.033a7.696 7.696 0 013.372.641.084.084 0 01.048.075v3.896c0 .071-.085.104-.136.054a4.283 4.283 0 00-3.159-1.228l-.122.004c-3.542.129-6.806-2.12-7.963-6.065a.071.071 0 01-.003-.021l-.051-1.412a.08.08 0 01.076-.082l3.359-.12zM30.9 171.467a6.029 6.029 0 016.378-1.634c1.179.399 1.568 1.871.728 2.789-.456.497-1.165.705-1.8.48a2.585 2.585 0 00-2.77.688 2.585 2.585 0 00-.441 2.818c.28.613.135 1.338-.32 1.836-.84.918-2.341.66-2.842-.479a6.03 6.03 0 011.067-6.498zm25.672-10.626a1.717 1.717 0 012.403.337l2.076 2.755c.57.756 1.646.907 2.402.337l2.755-2.076a1.717 1.717 0 012.403.337c.575.764.424 1.84-.332 2.41l-2.755 2.076a1.715 1.715 0 00-.337 2.403l2.076 2.755c.57.756.42 1.832-.337 2.402l-.008.006a1.715 1.715 0 01-2.402-.338l-2.077-2.754a1.715 1.715 0 00-2.402-.338l-2.755 2.077a1.715 1.715 0 01-2.402-.338 1.718 1.718 0 01.331-2.41l2.755-2.076c.757-.57.908-1.646.337-2.402l-2.076-2.755a1.718 1.718 0 01.345-2.408zm226.985 2.295c1.183-.183 2.163.921 1.874 2.083l-.009.037c-.162.654-.686 1.176-1.352 1.282a2.582 2.582 0 00-2.103 1.927 2.584 2.584 0 00.958 2.687c.539.405.758 1.111.595 1.765l-.009.037c-.288 1.162-1.671 1.68-2.631.965a6.03 6.03 0 01-2.252-6.283 6.03 6.03 0 014.929-4.5zm-39.312-2.002a1.716 1.716 0 012.144-1.137 1.719 1.719 0 011.145 2.147l-2.022 6.586a1.716 1.716 0 01-2.144 1.136l-6.586-2.022a1.715 1.715 0 01-1.137-2.143 1.718 1.718 0 012.147-1.145l3.297 1.012a1.717 1.717 0 002.144-1.137l1.012-3.297zm-43.213-11.445a6.03 6.03 0 016.488 1.122 6.027 6.027 0 01.02 8.793 1.694 1.694 0 00-.512 1.464c.317 2.246 2.263 3.011 3.722 2.372a1.701 1.701 0 011.841.321l.008.007c.91.848.64 2.346-.504 2.838a6.03 6.03 0 01-6.488-1.122 6.027 6.027 0 01-.02-8.793c.397-.374.588-.925.512-1.464-.317-2.246-2.263-3.012-3.722-2.372a1.708 1.708 0 01-1.849-.329c-.91-.848-.64-2.346.504-2.837zm-177.795 2.639a1.719 1.719 0 012.42.244 1.715 1.715 0 01-.236 2.414l-3.995 3.282a1.715 1.715 0 01-2.414-.237 1.718 1.718 0 01.23-2.422l3.995-3.281zm91.87-1.325c.673.023 1.293.428 1.534 1.057a2.586 2.586 0 002.322 1.657 2.586 2.586 0 002.43-1.495c.284-.611.929-.972 1.603-.949 1.242.043 2.023 1.349 1.484 2.469a6.03 6.03 0 01-5.635 3.413 6.028 6.028 0 01-5.386-3.787c-.463-1.156.404-2.407 1.648-2.365zm52.934-7.391c.002-.692.64-1.209 1.321-1.09l1.187.205c.518.09.917.524.935 1.05a4.306 4.306 0 003.564 4.094l.12.021c3.453.598 6.161 3.414 6.529 7.44.009.099.004.199-.013.296l-.038.22a1.13 1.13 0 01-1.305.92l-2.277-.395.02-.12c.329-1.898-.614-3.819-2.607-4.776a1.144 1.144 0 00-.291-.091l-.725-.125c-3.769-.653-6.432-3.945-6.42-7.649zm120.024-2.93c4.416-1.95 9.75-.575 12.62 3.526 1.903 2.72 5.433 3.642 8.367 2.371.749-.324 1.621-.099 2.089.569l.033.049c.607.867.281 2.084-.688 2.511-4.416 1.948-9.749.574-12.62-3.526-1.903-2.72-5.432-3.642-8.367-2.373-.749.324-1.621.101-2.088-.567l-.034-.049c-.607-.867-.281-2.084.688-2.511zm52.729.585a.08.08 0 01.086.08v3.299a.08.08 0 01-.071.079 2.347 2.347 0 00-.144.016 4.272 4.272 0 00-2.804 1.723l-.072.098c-2.051 2.827-5.67 3.858-8.811 2.767-1.096-.381-1.524-1.702-.843-2.641a1.737 1.737 0 011.983-.605 4.308 4.308 0 004.886-1.541l.072-.098a7.687 7.687 0 015.718-3.177zm-111.991-7.232a1.664 1.664 0 012.124-1.014l.105.037a1.665 1.665 0 011.014 2.125l-1.184 3.347a1.665 1.665 0 001.014 2.125l3.348 1.184a1.666 1.666 0 011.015 2.125l-.037.104a1.665 1.665 0 01-2.125 1.014l-3.348-1.184a1.665 1.665 0 00-2.124 1.015l-1.184 3.348a1.666 1.666 0 01-2.125 1.014l-.104-.037a1.666 1.666 0 01-1.015-2.125l1.184-3.348a1.664 1.664 0 00-1.014-2.124l-3.348-1.184a1.665 1.665 0 01-1.014-2.125l.037-.104a1.665 1.665 0 012.124-1.015l3.348 1.185a1.666 1.666 0 002.125-1.015l1.184-3.348zm31.058-5.683a6.03 6.03 0 015.675 3.575 6.027 6.027 0 01-3.43 8.096 1.65 1.65 0 00-1.029 1.086c-.638 2.238.89 3.738 2.51 3.701.658-.015 1.254.387 1.521.989l.049.11c.478 1.077-.282 2.307-1.46 2.34a6.03 6.03 0 01-5.675-3.575 6.027 6.027 0 013.43-8.096 1.652 1.652 0 001.029-1.086c.638-2.238-.89-3.739-2.51-3.701-.658.015-1.254-.388-1.521-.989l-.049-.11c-.478-1.077.282-2.308 1.46-2.34zM82.448 146.157c-5.584-5.426.148-13.554 7.134-10.116.15.074.29.172.408.288 5.584 5.426-.147 13.554-7.133 10.116a1.6 1.6 0 01-.409-.288zm-82.372-4.9a7.684 7.684 0 014.931 1.465l.098.072-2.02 2.784-.098-.071a4.266 4.266 0 00-2.9-.798.078.078 0 01-.087-.077v-3.295a.08.08 0 01.076-.08zm88.471 1.211c1.177-2.822-2-5.063-4.263-3.006-.17.154-.304.345-.392.556-1.178 2.823 2 5.063 4.263 3.006.17-.154.304-.345.392-.556zm-44.005-8.742a.079.079 0 01.097.052 4.305 4.305 0 005.337 2.801l.116-.035c3.393-1.024 7.122.321 9.243 3.843l.01.019.407 1.352a.08.08 0 01-.053.099l-3.218.971-.035-.117c-.568-1.883-2.335-3.194-4.613-3.096a.066.066 0 00-.02.003l-.843.254c-4.06 1.226-8.36-1.058-9.624-5.096a.081.081 0 01.053-.101l3.143-.949zm94.631 6.015a1.715 1.715 0 011.996-1.379l5.086.93a1.714 1.714 0 011.378 1.996 1.716 1.716 0 01-1.998 1.388l-5.084-.93a1.715 1.715 0 01-1.38-1.996l.002-.009zm58.375-18.753a1.324 1.324 0 011.869-.124l.596.521c.55.482.605 1.319.124 1.869l-5.055 5.773a1.323 1.323 0 01-1.868.123l-5.773-5.054a1.324 1.324 0 01-.124-1.868l.522-.596a1.324 1.324 0 011.868-.124l3.185 2.788c.55.482 1.386.426 1.868-.124l2.788-3.184zm-89.769-2.479a6.026 6.026 0 017.412 4.73c.101.536.461.995.956 1.222 2.061.946 3.757-.279 4.006-1.852a1.705 1.705 0 011.265-1.377l.01-.002c1.206-.309 2.32.728 2.117 1.956a6.03 6.03 0 01-4.448 4.855 6.027 6.027 0 01-7.412-4.731 1.692 1.692 0 00-.956-1.221c-2.061-.946-3.756.279-4.006 1.852a1.702 1.702 0 01-1.265 1.376l-.01.003c-1.205.308-2.32-.728-2.116-1.956a6.029 6.029 0 014.447-4.855zm57.174-25.45a1.678 1.678 0 012.658.336c1.332 2.319 1.419 5.283-.099 8.056-.071.13-.162.249-.265.355l-.891.917a4.305 4.305 0 00.088 6.081l.087.085c2.498 2.427 3.152 6.248 1.228 9.762-.071.13-.162.249-.265.355l-.891.916a4.31 4.31 0 00-.666 5.102 1.694 1.694 0 01-.251 2.014l-.06.062c-.768.79-2.092.645-2.642-.31-1.686-2.922-1.312-6.729 1.152-9.265l.085-.087c1.327-1.366 1.64-3.453.579-5.35a1.546 1.546 0 00-.279-.355l-.475-.461c-3.061-2.975-3.131-7.885-.157-10.947l.459-.471c.106-.108.199-.23.27-.364.784-1.5.733-3.091.027-4.35-.368-.655-.286-1.47.238-2.008l.07-.073zM4.473 120.965c.432-8.065 10.733-8.869 12.41-.968a.062.062 0 01.002.023c-.431 8.066-10.733 8.87-12.41.969l-.001-.024zm8.864-.692c-.723-3.376-5.125-3.033-5.317.414 0 .008 0 .017.002.025.723 3.377 5.126 3.034 5.317-.414 0-.008 0-.017-.002-.025zm303.456-3.694a1.665 1.665 0 012.332-.326l4.207 3.176c.734.554.88 1.598.326 2.332l-.067.088a1.665 1.665 0 01-2.332.326l-4.207-3.176a1.664 1.664 0 01-.326-2.331l.067-.089zm-30.295-7.026l.011.001c7.956 1.397 7.516 11.721-.53 12.436a.087.087 0 01-.023-.001c-7.956-1.397-7.516-11.721.53-12.436a.059.059 0 01.023.001l-.011-.001zm-59.923-.638a1.664 1.664 0 012.335.298l6.46 8.346a1.665 1.665 0 01-.298 2.335l-.088.068a1.664 1.664 0 01-2.335-.297l-4.354-5.626a1.665 1.665 0 00-2.335-.298l-5.626 4.354a1.664 1.664 0 01-2.335-.297l-.068-.088a1.664 1.664 0 01.297-2.335l8.347-6.46zm62.322 6.957c-.312-3.438-4.724-3.626-5.328-.227-.001.008-.002.017-.001.025.312 3.439 4.724 3.627 5.328.227.001-.008.002-.016.001-.025zm-229.044-4.39c4.03-3.002 9.773-2.683 13.44.966 2.42 2.408 6.198 2.641 8.88.703a1.308 1.308 0 011.697.116l.583.58a1.327 1.327 0 01-.147 2.006c-4.03 3.001-9.773 2.682-13.44-.966-2.42-2.409-6.198-2.641-8.88-.703a1.31 1.31 0 01-1.697-.116l-.583-.58a1.328 1.328 0 01.147-2.006zm-21.026-5.277a1.326 1.326 0 011.4 1.246l.441 7.659a1.326 1.326 0 01-1.246 1.399l-.79.045a1.325 1.325 0 01-1.399-1.246l-.244-4.224a1.324 1.324 0 00-1.398-1.246l-4.225.244a1.324 1.324 0 01-1.398-1.246l-.046-.79a1.325 1.325 0 011.246-1.399l7.66-.442zm80.815-18.782a1.667 1.667 0 012.253-1.424c3.15 1.18 5.28 4.344 5.002 7.86l-.009.122c-.151 1.899.94 3.706 2.968 4.489.14.054.289.083.439.095l.661.052c4.256.337 7.443 4.073 7.107 8.328l-.053.657c-.013.15-.007.302.024.449.353 1.656 1.408 2.85 2.755 3.368.701.27 1.158.95 1.099 1.699l-.009.115a1.669 1.669 0 01-2.246 1.429c-2.513-.934-4.478-3.163-5.079-6.274a1.599 1.599 0 01-.022-.437l.101-1.278a4.306 4.306 0 00-3.948-4.626l-.121-.01c-3.473-.275-6.415-2.8-7.175-6.734a1.601 1.601 0 01-.022-.437l.101-1.278a4.308 4.308 0 00-2.756-4.358 1.673 1.673 0 01-1.08-1.691l.01-.116zm132.874 2.912a1.664 1.664 0 012.291.539l5.556 8.973a1.665 1.665 0 01-.539 2.292l-8.973 5.556a1.666 1.666 0 01-2.292-.539l-.058-.095a1.664 1.664 0 01.539-2.291l6.048-3.745a1.665 1.665 0 00.539-2.292l-3.745-6.048a1.665 1.665 0 01.539-2.292l.095-.058zm57.255-2.031l.25.005c.007 0 .015.002.023.004 7.73 2.343 6.053 12.539-2.021 12.282a.066.066 0 01-.023-.004c-7.73-2.343-6.053-12.54 2.021-12.282l-.25-.005zM195.37 95.268c2.481-2.464 6.334-3.044 9.824-1.029a1.324 1.324 0 01.27 2.087l-1.502 1.491-.086-.086c-1.351-1.36-3.453-1.707-5.38-.652-.105.057-.2.132-.284.216l-.504.5c-2.636 2.617-6.696 2.943-9.688.99a1.33 1.33 0 01-.222-2.059l.577-.573a1.333 1.333 0 011.638-.18 4.307 4.307 0 005.271-.619l.086-.086zM94.769 80.062a1.72 1.72 0 012.734.34 1.737 1.737 0 01-.265 2.056 4.307 4.307 0 00-.608 5.087l.06.105c1.759 3.081 1.28 7.021-1.686 9.877l-.153.088a1.324 1.324 0 01-1.807-.494l-1.05-1.837.107-.06c1.666-.95 2.546-2.89 2.028-5.026a1.253 1.253 0 00-.135-.33l-.352-.617c-1.737-3.042-1.177-6.777 1.127-9.189zm216.886 14.81c.103-3.451-4.255-4.167-5.262-.864a.064.064 0 00-.004.024c-.103 3.45 4.254 4.167 5.262.865a.1.1 0 00.004-.024zm24.235-11.095a1.665 1.665 0 012.341.249l.07.086a1.666 1.666 0 01-.249 2.34l-2.763 2.233a1.665 1.665 0 00-.249 2.34l2.232 2.763a1.665 1.665 0 01-.249 2.34l-.086.07a1.665 1.665 0 01-2.341-.248l-4.393-5.44a1.665 1.665 0 01.248-2.34l5.439-4.393zm-317.175 1.27a1.691 1.691 0 012.39.09l3.549 3.826a1.691 1.691 0 01-.09 2.39l-.042.039a1.692 1.692 0 01-2.391-.09l-3.548-3.825a1.691 1.691 0 01.09-2.39l.042-.04zm42.645.71A1.692 1.692 0 0163.1 87.4l.002.057a1.692 1.692 0 01-1.642 1.74l-13.813.4a1.692 1.692 0 01-1.74-1.643l-.001-.057a1.692 1.692 0 011.642-1.74l13.812-.399zm164.375-13.494a1.664 1.664 0 012.228.758l4.664 9.468a1.666 1.666 0 01-.758 2.23l-9.468 4.662a1.665 1.665 0 01-2.229-.758l-.049-.1a1.664 1.664 0 01.758-2.228l6.381-3.144a1.664 1.664 0 00.758-2.228l-3.143-6.382a1.665 1.665 0 01.758-2.229l.1-.049zm46.819 5.726a1.667 1.667 0 012.008-1.598l.778.163c.772.162 1.345.837 1.341 1.625-.013 3.038 2.11 5.777 5.196 6.424 3.087.647 6.13-1.009 7.339-3.796.313-.723 1.109-1.111 1.881-.95l.778.164a1.665 1.665 0 011.196 2.269c-1.923 4.644-6.946 7.422-12.041 6.354-5.095-1.069-8.58-5.63-8.476-10.655zm-123.331-6.283h.011c7.966 1.34 7.602 11.667-.438 12.44a.059.059 0 01-.023 0c-7.966-1.338-7.602-11.665.438-12.44a.17.17 0 01.023 0h-.011zm2.446 6.302c-.338-3.436-4.751-3.591-5.33-.188l-.001.025c.338 3.436 4.751 3.592 5.33.188a.103.103 0 00.001-.025zm23.513-21.078a6.03 6.03 0 015.743 3.532 6.027 6.027 0 01-3.37 8.12l-1.021 1.094c-.623 2.248.926 3.74 2.55 3.681.649-.022 1.242.374 1.51.966l.072.16a1.636 1.636 0 01-1.418 2.311 6.031 6.031 0 01-5.744-3.53 6.028 6.028 0 013.371-8.123l1.021-1.093c.623-2.248-.926-3.74-2.55-3.681-.65.023-1.242-.374-1.51-.966l-.073-.16a1.637 1.637 0 011.419-2.312zM61.343 61.16a1.692 1.692 0 012.079-1.184l10.126 2.781a1.691 1.691 0 011.183 2.08l-2.78 10.124a1.693 1.693 0 01-2.079 1.184l-.056-.016a1.691 1.691 0 01-1.183-2.079l1.869-6.808a1.69 1.69 0 00-1.183-2.079l-6.808-1.869a1.691 1.691 0 01-1.183-2.079l.015-.055zm186.458 3.86c-.032-1.178 1.156-2.005 2.257-1.586l.073.028c.63.239 1.085.822 1.11 1.495a2.586 2.586 0 001.662 2.319 2.584 2.584 0 002.782-.629c.467-.487 1.194-.62 1.824-.38l.073.027c1.101.419 1.439 1.826.633 2.685a6.032 6.032 0 01-6.535 1.513 6.033 6.033 0 01-3.879-5.472zm-42.241-7.74c8.036.817 8.345 11.145.372 12.441a.06.06 0 01-.023.001c-8.036-.818-8.345-11.146-.372-12.442.008 0 .016-.002.023 0zM11.075 44.371c.629-.853 1.885-.932 2.6-.15 3.256 3.563 3.655 9.057.685 13.086-1.97 2.672-1.717 6.31.423 8.686.546.607.612 1.504.127 2.161l-.034.047c-.63.853-1.886.931-2.6.15-3.256-3.563-3.656-9.057-.685-13.086 1.97-2.672 1.717-6.31-.423-8.686-.546-.607-.612-1.504-.127-2.161l.034-.047zm99.265 17.034a1.664 1.664 0 012.006-1.233l13.492 3.22a1.664 1.664 0 011.233 2.006l-.025.107a1.666 1.666 0 01-2.006 1.233l-13.493-3.22a1.664 1.664 0 01-1.233-2.006l.026-.107zm205.358-.237c2.484-3.471 7.329-4.274 10.8-1.79l.535.384c.122.088.255.162.397.21 1.601.554 3.168.266 4.307-.62.593-.462 1.411-.503 2.022-.065l.094.067c.901.645.931 1.97.065 2.66-2.096 1.672-5.02 2.204-7.994 1.114a1.61 1.61 0 01-.386-.206l-1.043-.746a4.305 4.305 0 00-6 .994l-.071.099c-2.027 2.833-5.71 4.05-9.472 2.67a1.597 1.597 0 01-.386-.207l-1.041-.745a4.308 4.308 0 00-5.155.11 1.67 1.67 0 01-2.005.054l-.095-.068a1.667 1.667 0 01-.057-2.665c2.637-2.09 6.446-2.282 9.315-.23l.099.073c1.549 1.108 3.659 1.106 5.377-.227.118-.092.22-.205.307-.327l.387-.54zm-107.299 2.24c-.561-3.407-4.975-3.274-5.33.16a.07.07 0 00.001.025c.56 3.407 4.975 3.274 5.33-.16a.07.07 0 00-.001-.025zm66.425-3.905c-3.73-6.844 4.166-12.91 9.818-7.543.117.112.218.243.295.385 3.731 6.844-4.165 12.91-9.817 7.543a1.545 1.545 0 01-.296-.385zM35.118 51.78a1.692 1.692 0 012.364.367l2.064 2.824c.552.754 1.61.918 2.364.367l2.823-2.064a1.691 1.691 0 012.364.367l.034.046a1.692 1.692 0 01-.367 2.364l-5.6 4.095a1.692 1.692 0 01-2.365-.367l-4.094-5.601a1.691 1.691 0 01.367-2.364l.046-.034zm246.631 2.29c-2.349-1.974-5.444.405-4.139 3.183.094.2.232.38.402.524 2.35 1.976 5.445-.403 4.14-3.182a1.542 1.542 0 00-.403-.524zM144.066 38.32a1.637 1.637 0 012.06 1.055l1.107 3.434a1.636 1.636 0 002.059 1.055l3.434-1.107a1.637 1.637 0 012.06 1.055l.051.16a1.636 1.636 0 01-1.055 2.059l-3.434 1.107a1.638 1.638 0 00-1.056 2.06l1.108 3.434a1.636 1.636 0 01-1.056 2.059l-.159.052a1.638 1.638 0 01-2.06-1.056l-1.107-3.434a1.636 1.636 0 00-2.059-1.055l-3.434 1.107a1.635 1.635 0 01-2.059-1.055l-.052-.16a1.636 1.636 0 011.055-2.06l3.434-1.106a1.636 1.636 0 001.055-2.06l-1.107-3.433a1.637 1.637 0 011.056-2.06l.159-.051zm70.135-10.568a1.667 1.667 0 012.179-1.527c2.552.82 4.616 2.96 5.355 6.041.034.143.046.29.041.435l-.044 1.281a4.306 4.306 0 004.151 4.445l.121.004c3.482.12 6.535 2.512 7.47 6.41.034.142.046.29.041.435l-.044 1.28a4.308 4.308 0 002.948 4.23 1.672 1.672 0 011.154 1.641l-.004.116a1.668 1.668 0 01-2.188 1.524c-3.2-1.04-5.469-4.104-5.348-7.63l.004-.122c.066-1.904-1.105-3.66-3.167-4.35a1.576 1.576 0 00-.442-.077l-.663-.023c-4.266-.146-7.617-3.736-7.471-8l.023-.66a1.534 1.534 0 00-.044-.448c-.426-1.639-1.534-2.783-2.902-3.24-.713-.24-1.2-.898-1.174-1.649l.004-.116zM92.347 41.33c.007 0 .015 0 .023.003 7.775 2.19 6.3 12.416-1.777 12.32a.085.085 0 01-.023-.003c-7.776-2.19-6.3-12.417 1.777-12.32zm1.763 6.53c.035-3.453-4.336-4.084-5.278-.762a.107.107 0 00-.003.025c-.035 3.452 4.336 4.083 5.278.76a.099.099 0 00.003-.023zm156.477-16.63a1.666 1.666 0 011.989-1.26l10.298 2.311a1.666 1.666 0 011.26 1.99l-2.311 10.297a1.666 1.666 0 01-1.989 1.26l-.108-.025a1.664 1.664 0 01-1.26-1.988l1.558-6.94a1.665 1.665 0 00-1.26-1.99l-6.941-1.558a1.665 1.665 0 01-1.26-1.989l.024-.108zm-63.442-5.352a1.636 1.636 0 011.656 1.616l.046 3.608a1.635 1.635 0 001.656 1.615l3.608-.045a1.636 1.636 0 011.657 1.616l.002.167a1.636 1.636 0 01-1.616 1.657l-3.607.045a1.637 1.637 0 00-1.616 1.657l.045 3.608a1.636 1.636 0 01-1.615 1.656l-.168.002a1.636 1.636 0 01-1.657-1.615l-.045-3.608a1.636 1.636 0 00-1.657-1.615l-3.607.045a1.636 1.636 0 01-1.657-1.616l-.002-.167a1.636 1.636 0 011.616-1.657l3.607-.045a1.638 1.638 0 001.616-1.657l-.046-3.608a1.638 1.638 0 011.616-1.657l.168-.002zm142.085 6.618a6.029 6.029 0 016.697-.372c1.014.6 1.082 2.045.141 2.755l-.061.046c-.538.406-1.274.482-1.858.145a2.584 2.584 0 00-2.847.172 2.584 2.584 0 00-.948 2.691c.164.654-.111 1.34-.649 1.746l-.062.047c-.941.71-2.312.247-2.61-.893a6.03 6.03 0 012.197-6.337zm-216.095-12a1.664 1.664 0 012.352.104l7.128 7.783a1.664 1.664 0 01-.104 2.352l-7.783 7.127a1.665 1.665 0 01-2.352-.103l-.075-.082a1.664 1.664 0 01.104-2.352l5.246-4.804a1.665 1.665 0 00.103-2.352l-4.804-5.246a1.665 1.665 0 01.104-2.352l.081-.075zm173.996 12.838c1.646-4.749 6.497-7.817 11.646-7.05 5.149.765 8.896 5.113 9.088 10.136a1.668 1.668 0 01-1.91 1.714l-.786-.117c-.78-.116-1.392-.756-1.435-1.544a6.548 6.548 0 00-5.565-6.107c-3.119-.464-6.06 1.368-7.102 4.222-.27.741-1.042 1.175-1.822 1.06l-.787-.118a1.667 1.667 0 01-1.327-2.196zM52.215 22.803l.03.004 3.749 1.311a.079.079 0 01.048.1 6.544 6.544 0 004.037 8.254 6.545 6.545 0 008.302-3.938.078.078 0 01.099-.048l3.748 1.311a.08.08 0 01.049.102c-1.97 5.502-8.036 8.402-13.561 6.47-5.525-1.933-8.46-7.982-6.572-13.512a.08.08 0 01.102-.05l-.032-.004zm105.351-5.182c.888-.872 2.373-.534 2.812.631a6.03 6.03 0 01-1.413 6.431 6.029 6.029 0 01-6.458 1.29c-1.354-.542-1.618-1.802-.577-2.823l.922-.905a.08.08 0 01.11.001c1 .962 2.596.96 3.594-.019.761-.747.96-1.855.592-2.79-.247-.628-.063-1.344.418-1.816zM29.486 9.437c.93-.91 2.479-.733 3.147.38 2.482 4.137 1.907 9.596-1.689 13.111-3.595 3.517-9.064 3.973-13.145 1.4-1.1-.694-1.24-2.247-.311-3.155l.059-.057c.672-.659 1.7-.747 2.5-.253 2.497 1.544 5.82 1.256 8.01-.886a6.55 6.55 0 001.065-7.989c-.477-.81-.366-1.835.305-2.493l.06-.058zM96.36 7.298a.08.08 0 01.113-.016 6.027 6.027 0 011.208 8.37 6.028 6.028 0 01-8.353 1.32.08.08 0 01-.019-.112l1.95-2.644a.077.077 0 01.107-.016 2.585 2.585 0 003.546-.59 2.583 2.583 0 00-.484-3.56.078.078 0 01-.016-.11l1.948-2.642zM306.3 6.37a1.665 1.665 0 012.321-.395L319.935 14c.75.532.926 1.57.394 2.32l-.064.09a1.665 1.665 0 01-2.321.396L306.63 8.78a1.665 1.665 0 01-.395-2.321l.064-.09zm-67.971 1.983a1.72 1.72 0 012.411-.325l5.472 4.172a1.72 1.72 0 11-2.086 2.735l-2.736-2.085a1.719 1.719 0 00-2.41.325l-2.086 2.736a1.72 1.72 0 01-2.736-2.086l4.171-5.472zM62.842 0a.08.08 0 01.08.075c.027.459.025.923-.01 1.393a6.89 6.89 0 006.257 7.379.078.078 0 01.072.084l-.25 3.272a.08.08 0 01-.086.074c-5.635-.474-9.856-5.424-9.424-11.071a6.743 6.743 0 00-.012-1.12.079.079 0 01.078-.086h3.295zm108.331 5.454a1.713 1.713 0 012.425.034l3.604 3.705c.661.68.646 1.766-.033 2.427a1.72 1.72 0 01-2.433-.028l-3.603-3.706a1.715 1.715 0 01.034-2.426l.006-.006zm169.568.048a.08.08 0 01.139.052v5.023a.081.081 0 01-.019.052 1.5 1.5 0 01-2.114.156l-.335-.29a1.5 1.5 0 01-.156-2.114l2.485-2.879zM128.967.001c-.219 3.019 1.696 5.889 4.718 6.755 2.945.844 6.007-.482 7.469-3.026.469-.816 1.416-1.227 2.32-.968l.079.023c1.25.358 1.864 1.79 1.225 2.924-2.367 4.202-7.395 6.402-12.23 5.016-4.832-1.385-7.928-5.91-7.715-10.724h4.134zM1.965 3.065a.08.08 0 01.112-.008L4.56 5.2a.08.08 0 01.008.112l-4.43 5.133A.08.08 0 010 10.393V5.37c0-.02.006-.038.019-.052l1.945-2.254zM214.654 0c.074 0 .109.095.05.14a10.27 10.27 0 01-6.552 2.25 6.887 6.887 0 00-6.965 6.716.078.078 0 01-.079.077l-3.282-.041a.081.081 0 01-.079-.082c.081-3.98 2.422-7.4 5.776-9.052a.073.073 0 01.036-.008h11.095zm69.909 0c.06 0 .098.063.07.116l-4.176 7.913a1.72 1.72 0 11-3.042-1.606l3.367-6.381a.08.08 0 01.071-.042h3.71z" fill="#fff" fill-opacity=".1"/></svg>