<svg width="71" height="87" viewBox="0 0 71 87" fill="none" xmlns="http://www.w3.org/2000/svg"><g filter="url(#filter0_d)"><path d="M7.64 30c0-15.464 12.537-28 28-28 15.465 0 28 12.536 28 28v2c0 15.464-12.535 28-28 28-15.463 0-28-12.536-28-28v-2z" fill="#fff"/><path fill-rule="evenodd" clip-rule="evenodd" d="M65.64 30v2c0 16.569-13.43 30-30 30-16.568 0-30-13.431-30-30v-2c0-16.569 13.432-30 30-30 16.57 0 30 13.431 30 30zm-30-28c-15.463 0-28 12.536-28 28v2c0 15.464 12.537 28 28 28 15.465 0 28-12.536 28-28v-2c0-15.464-12.535-28-28-28z" fill="#fff"/><path d="M19.64 46h32v24l-8-5-8 5-8-5-8 5V46z" fill="#fff"/><path fill-rule="evenodd" clip-rule="evenodd" d="M17.64 44h36v29.609l-10-6.25-8 5-8-5-10 6.25V44zm10 21l8 5 8-5 8 5V46h-32v24l8-5z" fill="#fff"/><path d="M7.64 30c0-15.464 12.537-28 28-28 15.465 0 28 12.536 28 28v2c0 15.464-12.535 28-28 28-15.463 0-28-12.536-28-28v-2z" fill="#FF9534"/><path d="M19.64 46h32v24l-8-5-8 5-8-5-8 5V46z" fill="url(#paint0_linear)"/><path d="M7.64 30c0-15.464 12.537-28 28-28 15.465 0 28 12.536 28 28s-12.535 28-28 28c-15.463 0-28-12.536-28-28z" fill="#FF9534"/><path d="M63.64 29c0 14.912-12.535 27-28 27-15.463 0-28-12.088-28-27s12.537-27 28-27c15.465 0 28 12.088 28 27z" fill="url(#paint1_linear)"/><path fill-rule="evenodd" clip-rule="evenodd" d="M35.64 54c14.43 0 26-11.26 26-25s-11.57-25-26-25c-14.428 0-26 11.26-26 25s11.572 25 26 25zm0 2c15.465 0 28-12.088 28-27s-12.535-27-28-27c-15.463 0-28 12.088-28 27s12.537 27 28 27z" fill="#FFAE34"/><path fill-rule="evenodd" clip-rule="evenodd" d="M63.628 29.821a26.363 26.363 0 00.012-1H7.641a26.59 26.59 0 00.012 1h55.975zm-.136 1.978H7.789c.036.335.078.669.127 1h55.45a26.1 26.1 0 00.126-1zm-.494 2.978H8.283c.076.335.158.669.247 1h54.22c.09-.331.171-.665.247-1zm-.65 2.357H8.934c.11.336.226.67.35 1h52.714c.123-.33.24-.664.35-1zm-1.18 2.978H10.113c.158.337.323.67.495 1h50.063c.172-.33.337-.663.495-1zm-1.637 2.977H11.75c.215.339.437.672.667 1h46.445c.23-.328.453-.661.668-1zm-2.193 2.978H13.943c.288.34.585.674.89 1h41.616c.304-.326.601-.66.89-1zM54.4 49.045H16.88c.396.344.801.677 1.216 1h35.087c.415-.323.82-.656 1.216-1zm-4.124 2.977H21.005a28.22 28.22 0 001.84 1h25.59a28.223 28.223 0 001.841-1zM43.216 55H28.065c2.41.652 4.951 1 7.577 1a28.98 28.98 0 007.576-1zM7.73 26.844h55.824a25.91 25.91 0 00-.102-1H7.83c-.04.331-.074.665-.101 1zm.417-2.978h54.99a26.1 26.1 0 00-.221-1H8.366c-.08.331-.153.664-.22 1zm.78-2.978h53.429c-.11-.336-.226-.67-.349-1H9.276c-.124.33-.24.664-.35 1zm1.178-2.977h51.074c-.158-.337-.323-.67-.494-1H10.597c-.171.33-.336.663-.493 1zm1.632-2.978h47.809a26.819 26.819 0 00-.666-1H12.402c-.229.328-.451.662-.666 1zm2.188-2.978h43.433c-.287-.34-.583-.673-.888-1H14.812c-.304.327-.6.66-.888 1zm2.932-2.977h37.57a27.865 27.865 0 00-1.213-1H18.069a26.49 26.49 0 00-1.213 1zM20.967 6h29.347a28.25 28.25 0 00-1.833-1H22.8c-.626.312-1.237.645-1.834 1z" fill="#FFAE34" fill-opacity=".5"/><path fill-rule="evenodd" clip-rule="evenodd" d="M35.64 54c14.43 0 26-11.26 26-25s-11.57-25-26-25c-14.428 0-26 11.26-26 25s11.572 25 26 25zm0 2c15.465 0 28-12.088 28-27s-12.535-27-28-27c-15.463 0-28 12.088-28 27s12.537 27 28 27z" fill="#FFAE34"/><path d="M34.709 10.637c.33-.85 1.533-.85 1.864 0l2.11 5.423a1 1 0 001.413.514l5.104-2.797c.8-.438 1.72.335 1.427 1.198l-1.868 5.511a1 1 0 00.751 1.302l5.708 1.138c.894.178 1.102 1.362.323 1.835l-4.974 3.021a1 1 0 00-.26 1.48l3.64 4.54c.57.712-.03 1.753-.932 1.614l-5.752-.883a1 1 0 00-1.151.967l-.13 5.818c-.02.911-1.15 1.322-1.751.637l-3.839-4.374a1 1 0 00-1.503 0l-3.839 4.374c-.601.685-1.73.274-1.75-.637l-.13-5.818a1 1 0 00-1.152-.967l-5.752.883c-.9.139-1.502-.902-.932-1.614l3.641-4.54a1 1 0 00-.26-1.48l-4.975-3.02c-.779-.474-.57-1.658.324-1.836l5.707-1.138a1 1 0 00.752-1.302l-1.869-5.51c-.293-.864.628-1.637 1.428-1.199l5.103 2.797a1 1 0 001.412-.514l2.112-5.423z" fill="#FF9534"/><path fill-rule="evenodd" clip-rule="evenodd" d="M37.505 10.274l2.11 5.423L44.72 12.9c1.599-.876 3.44.67 2.855 2.396l-1.868 5.512 5.707 1.137c1.788.357 2.206 2.724.647 3.67l-4.974 3.022 3.641 4.54c1.141 1.422-.061 3.505-1.863 3.228l-5.753-.883-.129 5.818c-.04 1.823-2.3 2.645-3.502 1.275l-3.84-4.374-3.838 4.374c-1.203 1.37-3.462.548-3.503-1.275l-.129-5.818-5.752.883c-1.802.276-3.004-1.806-1.864-3.228l3.641-4.54-4.974-3.021c-1.558-.947-1.14-3.314.647-3.67l5.708-1.138-1.869-5.512c-.585-1.727 1.257-3.272 2.856-2.396l5.103 2.797 2.111-5.423c.662-1.699 3.066-1.699 3.727 0zm-.932.363c-.331-.85-1.533-.85-1.864 0l-2.111 5.423a1 1 0 01-1.413.514l-5.103-2.797c-.8-.438-1.72.335-1.428 1.198l1.869 5.511a1 1 0 01-.752 1.302l-5.707 1.138c-.894.178-1.103 1.362-.324 1.835l4.974 3.021a1 1 0 01.261 1.48l-3.64 4.54c-.57.712.03 1.753.931 1.614l5.752-.883a1 1 0 011.152.967l.13 5.818c.02.911 1.149 1.322 1.75.637l3.84-4.374a1 1 0 011.502 0l3.84 4.374c.6.685 1.73.274 1.75-.637l.13-5.818a1 1 0 011.151-.967l5.752.883c.901.139 1.502-.902.932-1.614l-3.64-4.54a1 1 0 01.26-1.48l4.974-3.02c.78-.474.57-1.658-.323-1.836l-5.708-1.138a1 1 0 01-.751-1.302l1.868-5.51c.293-.864-.628-1.637-1.427-1.199l-5.104 2.797a1 1 0 01-1.412-.514l-2.111-5.423z" fill="#FF9534"/><path d="M34.709 9.637c.33-.85 1.533-.85 1.864 0l2.11 5.423a1 1 0 001.413.514l5.104-2.797c.8-.438 1.72.335 1.427 1.198l-1.868 5.511a1 1 0 00.751 1.302l5.708 1.138c.894.178 1.102 1.362.323 1.835l-4.974 3.021a1 1 0 00-.26 1.48l3.64 4.54c.57.712-.03 1.753-.932 1.614l-5.752-.883a1 1 0 00-1.151.967l-.13 5.818c-.02.911-1.15 1.322-1.751.637l-3.839-4.374a1 1 0 00-1.503 0l-3.839 4.374c-.601.685-1.73.274-1.75-.637l-.13-5.818a1 1 0 00-1.152-.967l-5.752.883c-.9.139-1.502-.902-.932-1.614l3.641-4.54a1 1 0 00-.26-1.48l-4.975-3.02c-.779-.474-.57-1.658.324-1.836l5.707-1.138a1 1 0 00.752-1.302l-1.869-5.51c-.293-.864.628-1.637 1.428-1.199l5.103 2.797a1 1 0 001.412-.514l2.112-5.423z" fill="url(#paint2_linear)"/><path fill-rule="evenodd" clip-rule="evenodd" d="M37.505 9.274l2.11 5.423L44.72 11.9c1.599-.876 3.44.67 2.855 2.396l-1.868 5.512 5.707 1.137c1.788.357 2.206 2.724.647 3.67l-4.974 3.022 3.641 4.54c1.141 1.422-.061 3.505-1.863 3.228l-5.753-.883-.129 5.818c-.04 1.823-2.3 2.645-3.502 1.275l-3.84-4.374-3.838 4.374c-1.203 1.37-3.462.548-3.503-1.275l-.129-5.818-5.752.883c-1.802.276-3.004-1.806-1.864-3.228l3.641-4.54-4.974-3.021c-1.558-.947-1.14-3.314.647-3.67l5.708-1.138-1.869-5.512c-.585-1.727 1.257-3.272 2.856-2.396l5.103 2.797 2.111-5.423c.662-1.699 3.066-1.699 3.727 0zm-.932.363c-.331-.85-1.533-.85-1.864 0l-2.111 5.423a1 1 0 01-1.413.514l-5.103-2.797c-.8-.438-1.72.335-1.428 1.198l1.869 5.511a1 1 0 01-.752 1.302l-5.707 1.138c-.894.178-1.103 1.362-.324 1.835l4.974 3.021a1 1 0 01.261 1.48l-3.64 4.54c-.57.712.03 1.753.931 1.614l5.752-.883a1 1 0 011.152.967l.13 5.818c.02.911 1.149 1.322 1.75.637l3.84-4.374a1 1 0 011.502 0l3.84 4.374c.6.685 1.73.274 1.75-.637l.13-5.818a1 1 0 011.151-.967l5.752.883c.901.139 1.502-.902.932-1.614l-3.64-4.54a1 1 0 01.26-1.48l4.974-3.02c.78-.474.57-1.658-.323-1.836l-5.708-1.138a1 1 0 01-.751-1.302l1.868-5.51c.293-.864-.628-1.637-1.427-1.199l-5.104 2.797a1 1 0 01-1.412-.514l-2.111-5.423z" fill="#FFAE34"/></g><defs><linearGradient id="paint0_linear" x1="35.641" y1="46" x2="35.641" y2="70" gradientUnits="userSpaceOnUse"><stop stop-color="#FFDD75"/><stop offset="1" stop-color="#FCBB14"/></linearGradient><linearGradient id="paint1_linear" x1="35.641" y1="2" x2="35.641" y2="56" gradientUnits="userSpaceOnUse"><stop stop-color="#FFDD75"/><stop offset="1" stop-color="#FCBB14"/></linearGradient><linearGradient id="paint2_linear" x1="37.336" y1="9" x2="37.265" y2="41.298" gradientUnits="userSpaceOnUse"><stop offset=".448" stop-color="#fff"/><stop offset=".448" stop-color="#F4F4F4"/><stop offset="1" stop-color="#fff"/></linearGradient><filter id="filter0_d" x=".641" y="0" width="70" height="87" filterUnits="userSpaceOnUse" color-interpolation-filters="sRGB"><feFlood flood-opacity="0" result="BackgroundImageFix"/><feColorMatrix in="SourceAlpha" type="matrix" values="0 0 0 0 0 0 0 0 0 0 0 0 0 0 0 0 0 0 127 0"/><feOffset dy="8"/><feGaussianBlur stdDeviation="2.5"/><feColorMatrix type="matrix" values="0 0 0 0 0.808333 0 0 0 0 0.527909 0 0 0 0 0.198715 0 0 0 0.5 0"/><feBlend mode="normal" in2="BackgroundImageFix" result="effect1_dropShadow"/><feBlend mode="normal" in="SourceGraphic" in2="effect1_dropShadow" result="shape"/></filter></defs></svg>