<svg width="71" height="86" viewBox="0 0 71 86" fill="none" xmlns="http://www.w3.org/2000/svg"><g clip-path="url(#clip0)" filter="url(#filter0_d)"><path d="M7.974 30c0-15.464 12.536-28 28-28s28 12.536 28 28v2c0 15.464-12.536 28-28 28s-28-12.536-28-28v-2z" fill="#fff"/><path fill-rule="evenodd" clip-rule="evenodd" d="M65.974 30v2c0 16.569-13.432 30-30 30-16.569 0-30-13.431-30-30v-2c0-16.569 13.431-30 30-30 16.568 0 30 13.431 30 30zm-30-28c-15.464 0-28 12.536-28 28v2c0 15.464 12.536 28 28 28s28-12.536 28-28v-2c0-15.464-12.536-28-28-28z" fill="#fff"/><path d="M19.974 46h32v24l-16-5-16 5V46z" fill="#fff"/><path fill-rule="evenodd" clip-rule="evenodd" d="M17.974 44h36v28.72l-18-5.625-18 5.625V44zm18 21l16 5V46h-32v24l16-5z" fill="#fff"/><path d="M7.974 30c0-15.464 12.536-28 28-28s28 12.536 28 28v2c0 15.464-12.536 28-28 28s-28-12.536-28-28v-2z" fill="#505050"/><path d="M19.974 46h32v24l-16-5-16 5V46z" fill="url(#paint0_linear)"/><path d="M7.974 30c0-15.464 12.536-28 28-28s28 12.536 28 28-12.536 28-28 28-28-12.536-28-28z" fill="#505050"/><path d="M63.974 29c0 14.912-12.536 27-28 27s-28-12.088-28-27 12.536-27 28-27 28 12.088 28 27z" fill="url(#paint1_linear)"/><path fill-rule="evenodd" clip-rule="evenodd" d="M35.974 54c14.428 0 26-11.26 26-25s-11.572-25-26-25c-14.429 0-26 11.26-26 25s11.571 25 26 25zm0 2c15.464 0 28-12.088 28-27s-12.536-27-28-27-28 12.088-28 27 12.536 27 28 27z" fill="url(#paint2_linear)"/><path fill-rule="evenodd" clip-rule="evenodd" d="M63.96 29.821a26.363 26.363 0 00.013-1H7.974a26.59 26.59 0 00.012 1h55.975zm-.135 1.978H8.122c.036.335.078.669.127 1h55.45a26.1 26.1 0 00.126-1zm-.494 2.978H8.616c.076.335.158.669.247 1h54.221c.09-.331.171-.665.247-1zm-.65 2.357H9.267c.11.336.226.67.35 1H62.33c.123-.33.24-.664.35-1zm-1.18 2.978H10.446c.158.337.323.67.495 1h50.063c.172-.33.337-.663.495-1zm-1.637 2.977h-47.78c.215.339.437.672.667 1h46.445c.23-.328.453-.661.668-1zm-2.193 2.978H14.276c.288.34.585.674.89 1h41.616c.304-.326.601-.66.89-1zm-2.938 2.978H17.214c.396.344.801.677 1.216 1h35.087c.415-.323.82-.656 1.216-1zm-4.124 2.977H21.338c.599.355 1.213.689 1.84 1h25.59a28.223 28.223 0 001.841-1zM43.55 55H28.398c2.41.652 4.951 1 7.577 1a28.98 28.98 0 007.576-1zM8.063 26.844h55.824a25.91 25.91 0 00-.102-1H8.163c-.04.331-.074.665-.101 1zm.417-2.978h54.99a26.1 26.1 0 00-.221-1H8.699c-.08.331-.153.664-.22 1zm.78-2.978h53.429c-.11-.336-.226-.67-.349-1H9.61c-.124.33-.24.664-.35 1zm1.178-2.977H61.51c-.158-.337-.323-.67-.494-1H10.93c-.171.33-.336.663-.493 1zm1.632-2.978h47.809a26.819 26.819 0 00-.666-1H12.735c-.229.328-.451.662-.666 1zm2.188-2.978H57.69c-.287-.34-.583-.673-.888-1H15.145c-.304.327-.6.66-.888 1zm2.932-2.977h37.57a27.865 27.865 0 00-1.213-1H18.402a26.49 26.49 0 00-1.213 1zM21.3 6h29.347a28.25 28.25 0 00-1.833-1h-25.68c-.626.312-1.237.645-1.834 1z" fill="#C2C2C2" fill-opacity=".5"/><path fill-rule="evenodd" clip-rule="evenodd" d="M35.974 54c14.428 0 26-11.26 26-25s-11.572-25-26-25c-14.429 0-26 11.26-26 25s11.571 25 26 25zm0 2c15.464 0 28-12.088 28-27s-12.536-27-28-27-28 12.088-28 27 12.536 27 28 27z" fill="#B9B9B9"/><path d="M48.81 35.801v7.805H24.885v-6.184l10.79-9.98c.938-.881 1.564-1.634 1.876-2.26.313-.625.47-1.237.47-1.834 0-.739-.256-1.308-.768-1.706-.483-.426-1.194-.64-2.133-.64-.91 0-1.762.242-2.558.726-.796.483-1.408 1.165-1.834 2.047l-7.591-3.796c1.137-2.132 2.8-3.81 4.99-5.032 2.189-1.251 4.833-1.877 7.932-1.877 2.36 0 4.45.384 6.269 1.152 1.82.767 3.241 1.862 4.265 3.284 1.023 1.421 1.535 3.056 1.535 4.904 0 1.649-.355 3.198-1.066 4.648-.683 1.422-2.033 3.043-4.052 4.862l-4.264 3.881H48.81z" fill="#505050"/><path fill-rule="evenodd" clip-rule="evenodd" d="M49.81 34.801v9.805H23.885v-7.622l11.108-10.273c.91-.856 1.431-1.511 1.664-1.976.255-.51.363-.97.363-1.387 0-.48-.15-.736-.381-.916l-.025-.02-.023-.02c-.233-.205-.667-.39-1.47-.39a3.85 3.85 0 00-2.04.58c-.623.378-1.106.911-1.453 1.628l-.441.912-9.416-4.708.483-.905c1.23-2.307 3.032-4.12 5.38-5.433 2.37-1.353 5.193-2.006 8.425-2.006 2.467 0 4.693.402 6.657 1.23 1.967.83 3.544 2.032 4.688 3.621 1.153 1.602 1.724 3.444 1.724 5.489 0 1.797-.389 3.496-1.167 5.085-.765 1.593-2.227 3.316-4.28 5.166 0 .001 0 .002-.002.002l-2.349 2.138h8.48zm-11.065 1H48.81v7.805H24.885v-6.184l10.79-9.98c.938-.881 1.563-1.634 1.876-2.26.313-.625.47-1.237.47-1.834 0-.739-.257-1.308-.768-1.706-.484-.426-1.194-.64-2.133-.64-.91 0-1.762.242-2.558.726a4.728 4.728 0 00-1.834 2.047l-7.591-3.796c.158-.297.327-.585.506-.865 1.104-1.726 2.6-3.115 4.483-4.167 2.19-1.251 4.833-1.877 7.933-1.877 2.36 0 4.449.384 6.269 1.152 1.82.767 3.24 1.862 4.264 3.284 1.024 1.421 1.536 3.056 1.536 4.904a10.43 10.43 0 01-1.066 4.648c-.683 1.422-2.033 3.043-4.052 4.862l-4.265 3.881z" fill="#505050"/><path d="M48.81 34.801v7.805H24.885v-6.184l10.79-9.98c.938-.881 1.564-1.634 1.876-2.26.313-.625.47-1.237.47-1.834 0-.739-.256-1.308-.768-1.706-.483-.426-1.194-.64-2.133-.64-.91 0-1.762.242-2.558.726-.796.483-1.408 1.165-1.834 2.047l-7.591-3.796c1.137-2.132 2.8-3.81 4.99-5.032 2.189-1.251 4.833-1.877 7.932-1.877 2.36 0 4.45.384 6.269 1.152 1.82.767 3.241 1.862 4.265 3.284 1.023 1.421 1.535 3.056 1.535 4.904 0 1.649-.355 3.198-1.066 4.648-.683 1.422-2.033 3.043-4.052 4.862l-4.264 3.881H48.81z" fill="url(#paint3_linear)"/><path fill-rule="evenodd" clip-rule="evenodd" d="M49.81 33.801v9.805H23.885v-7.622l11.108-10.273c.91-.856 1.431-1.511 1.664-1.976.255-.51.363-.97.363-1.387 0-.48-.15-.736-.381-.916l-.025-.02-.023-.02c-.233-.205-.667-.39-1.47-.39a3.85 3.85 0 00-2.04.58c-.623.378-1.106.911-1.453 1.628l-.441.912-9.416-4.708.483-.905c1.23-2.307 3.032-4.12 5.38-5.433 2.37-1.353 5.193-2.006 8.425-2.006 2.467 0 4.693.402 6.657 1.23 1.967.83 3.544 2.032 4.688 3.621 1.153 1.602 1.724 3.444 1.724 5.489 0 1.797-.389 3.496-1.167 5.085-.765 1.593-2.227 3.316-4.28 5.166 0 .001 0 .002-.002.002l-2.349 2.138h8.48zm-11.065 1H48.81v7.805H24.885v-6.184l10.79-9.98c.938-.881 1.563-1.634 1.876-2.26.313-.625.47-1.237.47-1.834 0-.739-.257-1.308-.768-1.706-.484-.426-1.194-.64-2.133-.64-.91 0-1.762.242-2.558.726a4.728 4.728 0 00-1.834 2.047l-7.591-3.796c.158-.297.327-.585.506-.865 1.104-1.726 2.6-3.115 4.483-4.167 2.19-1.251 4.833-1.877 7.933-1.877 2.36 0 4.449.384 6.269 1.152 1.82.767 3.24 1.862 4.264 3.284 1.024 1.421 1.536 3.056 1.536 4.904a10.43 10.43 0 01-1.066 4.648c-.683 1.422-2.033 3.043-4.052 4.862l-4.265 3.881z" fill="#828080"/></g><defs><linearGradient id="paint0_linear" x1="35.974" y1="46" x2="35.974" y2="70" gradientUnits="userSpaceOnUse"><stop stop-color="#F1F1F1"/><stop offset="1" stop-color="#CECECE"/></linearGradient><linearGradient id="paint1_linear" x1="35.974" y1="2" x2="35.974" y2="56" gradientUnits="userSpaceOnUse"><stop stop-color="#F1F1F1"/><stop offset="1" stop-color="#CECECE"/></linearGradient><linearGradient id="paint2_linear" x1="35.974" y1="2" x2="35.974" y2="56" gradientUnits="userSpaceOnUse"><stop stop-color="#F1F1F1"/><stop offset="1" stop-color="#CECECE"/></linearGradient><linearGradient id="paint3_linear" x1="37.301" y1="12.07" x2="37.221" y2="42.606" gradientUnits="userSpaceOnUse"><stop offset=".448" stop-color="#fff"/><stop offset=".448" stop-color="#F4F4F4"/><stop offset="1" stop-color="#fff"/></linearGradient><filter id="filter0_d" x=".974" y="0" width="70" height="87" filterUnits="userSpaceOnUse" color-interpolation-filters="sRGB"><feFlood flood-opacity="0" result="BackgroundImageFix"/><feColorMatrix in="SourceAlpha" type="matrix" values="0 0 0 0 0 0 0 0 0 0 0 0 0 0 0 0 0 0 127 0"/><feOffset dy="8"/><feGaussianBlur stdDeviation="2.5"/><feColorMatrix type="matrix" values="0 0 0 0 0.5625 0 0 0 0 0.5625 0 0 0 0 0.5625 0 0 0 0.5 0"/><feBlend mode="normal" in2="BackgroundImageFix" result="effect1_dropShadow"/><feBlend mode="normal" in="SourceGraphic" in2="effect1_dropShadow" result="shape"/></filter></defs></svg>