<svg width="71" height="86" viewBox="0 0 71 86" fill="none" xmlns="http://www.w3.org/2000/svg"><g clip-path="url(#clip0)" filter="url(#filter0_d)"><path d="M7.307 30c0-15.464 12.536-28 28-28s28 12.536 28 28v2c0 15.464-12.536 28-28 28s-28-12.536-28-28v-2z" fill="#fff"/><path fill-rule="evenodd" clip-rule="evenodd" d="M65.307 30v2c0 16.569-13.432 30-30 30-16.569 0-30-13.431-30-30v-2c0-16.569 13.431-30 30-30 16.568 0 30 13.431 30 30zm-30-28c-15.464 0-28 12.536-28 28v2c0 15.464 12.536 28 28 28s28-12.536 28-28v-2c0-15.464-12.536-28-28-28z" fill="#fff"/><path d="M19.307 46h32v19l-16 5-16-5V46z" fill="#fff"/><path fill-rule="evenodd" clip-rule="evenodd" d="M17.307 44h36v22.47l-18 5.625-18-5.625V44zm2 21V46h32v19l-16 5-16-5z" fill="#fff"/><path d="M7.307 30c0-15.464 12.536-28 28-28s28 12.536 28 28v2c0 15.464-12.536 28-28 28s-28-12.536-28-28v-2z" fill="#8C6D3D"/><path d="M19.307 46h32v19l-16 5-16-5V46z" fill="url(#paint0_linear)"/><path d="M7.307 30c0-15.464 12.536-28 28-28s28 12.536 28 28-12.536 28-28 28-28-12.536-28-28z" fill="#8C6D3D"/><path d="M63.307 29c0 14.912-12.536 27-28 27s-28-12.088-28-27 12.536-27 28-27 28 12.088 28 27z" fill="url(#paint1_linear)"/><path fill-rule="evenodd" clip-rule="evenodd" d="M35.307 54c14.428 0 26-11.26 26-25s-11.572-25-26-25c-14.429 0-26 11.26-26 25s11.571 25 26 25zm0 2c15.464 0 28-12.088 28-27s-12.536-27-28-27-28 12.088-28 27 12.536 27 28 27z" fill="url(#paint2_linear)"/><path fill-rule="evenodd" clip-rule="evenodd" d="M63.294 29.821a26.363 26.363 0 00.012-1H7.307a26.59 26.59 0 00.012 1h55.975zm-.136 1.978H7.455c.036.335.078.669.127 1h55.45a26.1 26.1 0 00.126-1zm-.494 2.978H7.95c.076.335.158.669.247 1h54.221c.09-.331.171-.665.247-1zm-.65 2.357H8.6c.11.336.226.67.35 1h52.714c.123-.33.24-.664.35-1zm-1.18 2.978H9.78c.158.337.323.67.495 1h50.063c.172-.33.337-.663.495-1zm-1.637 2.977h-47.78c.215.339.437.672.667 1h46.445c.23-.328.453-.661.668-1zm-2.193 2.978H13.61c.288.34.585.674.89 1h41.616c.304-.326.601-.66.89-1zm-2.938 2.978H16.547c.396.344.801.677 1.216 1H52.85c.415-.323.82-.656 1.216-1zm-4.124 2.977H20.671c.599.355 1.213.689 1.84 1h25.59a28.223 28.223 0 001.841-1zM42.882 55h-15.15c2.41.652 4.95 1 7.576 1a28.98 28.98 0 007.576-1zM7.396 26.844H63.22a26.11 26.11 0 00-.102-1H7.496c-.04.331-.074.665-.101 1zm.417-2.978h54.99a25.91 25.91 0 00-.221-1H8.032c-.08.331-.153.664-.22 1zm.78-2.978h53.429c-.11-.336-.226-.67-.349-1H8.942c-.124.33-.24.664-.35 1zm1.178-2.977h51.074c-.158-.337-.323-.67-.494-1H10.263c-.171.33-.336.663-.493 1zm1.632-2.978h47.809a26.819 26.819 0 00-.666-1H12.068c-.229.328-.451.662-.666 1zm2.188-2.978h43.433c-.287-.34-.583-.673-.888-1H14.478c-.304.327-.6.66-.888 1zm2.932-2.977h37.57a27.865 27.865 0 00-1.213-1H17.735a26.49 26.49 0 00-1.213 1zM20.633 6H49.98a28.25 28.25 0 00-1.833-1h-25.68c-.626.312-1.237.645-1.834 1z" fill="#D8B98C" fill-opacity=".5"/><path fill-rule="evenodd" clip-rule="evenodd" d="M35.307 54c14.428 0 26-11.26 26-25s-11.572-25-26-25c-14.429 0-26 11.26-26 25s11.571 25 26 25zm0 2c15.464 0 28-12.088 28-27s-12.536-27-28-27-28 12.088-28 27 12.536 27 28 27z" fill="#CC9D57"/><path d="M34.443 10.497a1 1 0 011.728 0l4.854 8.334a1 1 0 00.653.474l9.426 2.042a1 1 0 01.534 1.643l-6.426 7.193a1 1 0 00-.25.767l.972 9.596a1 1 0 01-1.398 1.016l-8.826-3.89a1 1 0 00-.807 0l-8.826 3.89a1 1 0 01-1.398-1.016l.972-9.596a1 1 0 00-.25-.767l-6.426-7.193a1 1 0 01.534-1.643l9.427-2.042a1 1 0 00.652-.474l4.855-8.334z" fill="#8C6D3D"/><path fill-rule="evenodd" clip-rule="evenodd" d="M37.035 9.993l4.854 8.335 9.427 2.041c1.498.325 2.09 2.145 1.068 3.288l-6.427 7.192.972 9.596c.154 1.525-1.394 2.65-2.796 2.032l-8.827-3.89-8.826 3.89c-1.402.618-2.95-.507-2.796-2.032l.971-9.596-6.426-7.192c-1.021-1.143-.43-2.963 1.068-3.288l9.427-2.041 4.854-8.335c.772-1.324 2.685-1.324 3.457 0zm-.864.504a1 1 0 00-1.729 0l-4.854 8.334a1 1 0 01-.653.474l-9.426 2.042a1 1 0 00-.534 1.643l6.426 7.193a1 1 0 01.25.767l-.972 9.596a1 1 0 001.398 1.016l8.826-3.89a1 1 0 01.807 0l8.826 3.89a1 1 0 001.398-1.016l-.972-9.596a1 1 0 01.25-.767l6.426-7.193a1 1 0 00-.534-1.643l-9.427-2.042a1 1 0 01-.652-.474l-4.855-8.334z" fill="#8C6D3D"/><path d="M34.443 9.497a1 1 0 011.728 0l4.854 8.334a1 1 0 00.653.474l9.426 2.042a1 1 0 01.534 1.643l-6.426 7.193a1 1 0 00-.25.767l.972 9.596a1 1 0 01-1.398 1.016l-8.826-3.89a1 1 0 00-.807 0l-8.826 3.89a1 1 0 01-1.398-1.016l.972-9.596a1 1 0 00-.25-.767l-6.426-7.193a1 1 0 01.534-1.643l9.427-2.042a1 1 0 00.652-.474l4.855-8.334z" fill="url(#paint3_linear)"/><path fill-rule="evenodd" clip-rule="evenodd" d="M37.035 8.993l4.854 8.335 9.427 2.041c1.498.325 2.09 2.145 1.068 3.288l-6.427 7.192.972 9.596c.154 1.525-1.394 2.65-2.796 2.032l-8.827-3.89-8.826 3.89c-1.402.618-2.95-.507-2.796-2.032l.971-9.596-6.426-7.192c-1.021-1.143-.43-2.963 1.068-3.288l9.427-2.041 4.854-8.335c.772-1.324 2.685-1.324 3.457 0zm-.864.504a1 1 0 00-1.729 0l-4.854 8.334a1 1 0 01-.653.474l-9.426 2.042a1 1 0 00-.534 1.643l6.426 7.193a1 1 0 01.25.767l-.972 9.596a1 1 0 001.398 1.016l8.826-3.89a1 1 0 01.807 0l8.826 3.89a1 1 0 001.398-1.016l-.972-9.596a1 1 0 01.25-.767l6.426-7.193a1 1 0 00-.534-1.643l-9.427-2.042a1 1 0 01-.652-.474L36.17 9.497z" fill="#B48134"/></g><defs><linearGradient id="paint0_linear" x1="35.307" y1="46" x2="35.307" y2="70" gradientUnits="userSpaceOnUse"><stop stop-color="#E9B76E"/><stop offset="1" stop-color="#AA8042"/></linearGradient><linearGradient id="paint1_linear" x1="35.307" y1="2" x2="35.307" y2="56" gradientUnits="userSpaceOnUse"><stop stop-color="#E9B76E"/><stop offset="1" stop-color="#AA8042"/></linearGradient><linearGradient id="paint2_linear" x1="35.307" y1="2" x2="35.307" y2="56" gradientUnits="userSpaceOnUse"><stop stop-color="#E9B76E"/><stop offset="1" stop-color="#AA8042"/></linearGradient><linearGradient id="paint3_linear" x1="37.023" y1="9" x2="36.955" y2="40.648" gradientUnits="userSpaceOnUse"><stop offset=".448" stop-color="#fff"/><stop offset=".448" stop-color="#F4F4F4"/><stop offset="1" stop-color="#fff"/></linearGradient><filter id="filter0_d" x=".307" y="0" width="70" height="87" filterUnits="userSpaceOnUse" color-interpolation-filters="sRGB"><feFlood flood-opacity="0" result="BackgroundImageFix"/><feColorMatrix in="SourceAlpha" type="matrix" values="0 0 0 0 0 0 0 0 0 0 0 0 0 0 0 0 0 0 127 0"/><feOffset dy="8"/><feGaussianBlur stdDeviation="2.5"/><feColorMatrix type="matrix" values="0 0 0 0 0.5875 0 0 0 0 0.402829 0 0 0 0 0.186042 0 0 0 0.5 0"/><feBlend mode="normal" in2="BackgroundImageFix" result="effect1_dropShadow"/><feBlend mode="normal" in="SourceGraphic" in2="effect1_dropShadow" result="shape"/></filter></defs></svg>