<svg width="71" height="86" viewBox="0 0 71 86" fill="none" xmlns="http://www.w3.org/2000/svg"><g clip-path="url(#clip0)" filter="url(#filter0_d)"><path d="M7.307 30c0-15.464 12.536-28 28-28s28 12.536 28 28v2c0 15.464-12.536 28-28 28s-28-12.536-28-28v-2z" fill="#fff"/><path fill-rule="evenodd" clip-rule="evenodd" d="M65.307 30v2c0 16.569-13.432 30-30 30-16.569 0-30-13.431-30-30v-2c0-16.569 13.431-30 30-30 16.568 0 30 13.431 30 30zm-30-28c-15.464 0-28 12.536-28 28v2c0 15.464 12.536 28 28 28s28-12.536 28-28v-2c0-15.464-12.536-28-28-28z" fill="#fff"/><path d="M19.307 46h32v19l-16 5-16-5V46z" fill="#fff"/><path fill-rule="evenodd" clip-rule="evenodd" d="M17.307 44h36v22.47l-18 5.625-18-5.625V44zm2 21V46h32v19l-16 5-16-5z" fill="#fff"/><path d="M7.307 30c0-15.464 12.536-28 28-28s28 12.536 28 28v2c0 15.464-12.536 28-28 28s-28-12.536-28-28v-2z" fill="#8C6D3D"/><path d="M19.307 46h32v19l-16 5-16-5V46z" fill="url(#paint0_linear)"/><path d="M7.307 30c0-15.464 12.536-28 28-28s28 12.536 28 28-12.536 28-28 28-28-12.536-28-28z" fill="#8C6D3D"/><path d="M63.307 29c0 14.912-12.536 27-28 27s-28-12.088-28-27 12.536-27 28-27 28 12.088 28 27z" fill="url(#paint1_linear)"/><path fill-rule="evenodd" clip-rule="evenodd" d="M35.307 54c14.428 0 26-11.26 26-25s-11.572-25-26-25c-14.429 0-26 11.26-26 25s11.571 25 26 25zm0 2c15.464 0 28-12.088 28-27s-12.536-27-28-27-28 12.088-28 27 12.536 27 28 27z" fill="url(#paint2_linear)"/><path fill-rule="evenodd" clip-rule="evenodd" d="M63.294 29.821a26.363 26.363 0 00.012-1H7.307a26.59 26.59 0 00.012 1h55.975zm-.136 1.978H7.455c.036.335.078.669.127 1h55.45a26.1 26.1 0 00.126-1zm-.494 2.978H7.95c.076.335.158.669.247 1h54.221c.09-.331.171-.665.247-1zm-.65 2.357H8.6c.11.336.226.67.35 1h52.714c.123-.33.24-.664.35-1zm-1.18 2.978H9.78c.158.337.323.67.495 1h50.063c.172-.33.337-.663.495-1zm-1.637 2.977h-47.78c.215.339.437.672.667 1h46.445c.23-.328.453-.661.668-1zm-2.193 2.978H13.61c.288.34.585.674.89 1h41.616c.304-.326.601-.66.89-1zm-2.938 2.978H16.547c.396.344.801.677 1.216 1H52.85c.415-.323.82-.656 1.216-1zm-4.124 2.977H20.671c.599.355 1.213.689 1.84 1h25.59a28.223 28.223 0 001.841-1zM42.882 55h-15.15c2.41.652 4.95 1 7.576 1a28.98 28.98 0 007.576-1zM7.396 26.844H63.22a26.11 26.11 0 00-.102-1H7.496c-.04.331-.074.665-.101 1zm.417-2.978h54.99a25.91 25.91 0 00-.221-1H8.032c-.08.331-.153.664-.22 1zm.78-2.978h53.429c-.11-.336-.226-.67-.349-1H8.942c-.124.33-.24.664-.35 1zm1.178-2.977h51.074c-.158-.337-.323-.67-.494-1H10.263c-.171.33-.336.663-.493 1zm1.632-2.978h47.809a26.819 26.819 0 00-.666-1H12.068c-.229.328-.451.662-.666 1zm2.188-2.978h43.433c-.287-.34-.583-.673-.888-1H14.478c-.304.327-.6.66-.888 1zm2.932-2.977h37.57a27.865 27.865 0 00-1.213-1H17.735a26.49 26.49 0 00-1.213 1zM20.633 6H49.98a28.25 28.25 0 00-1.833-1h-25.68c-.626.312-1.237.645-1.834 1z" fill="#D8B98C" fill-opacity=".5"/><path fill-rule="evenodd" clip-rule="evenodd" d="M35.307 54c14.428 0 26-11.26 26-25s-11.572-25-26-25c-14.429 0-26 11.26-26 25s11.571 25 26 25zm0 2c15.464 0 28-12.088 28-27s-12.536-27-28-27-28 12.088-28 27 12.536 27 28 27z" fill="#CC9D57"/><path d="M40.85 24.887c2.302.568 4.065 1.606 5.287 3.112 1.25 1.478 1.876 3.27 1.876 5.373 0 1.79-.497 3.468-1.492 5.031-.967 1.535-2.473 2.786-4.52 3.753-2.047.966-4.591 1.45-7.633 1.45a29.78 29.78 0 01-6.31-.683c-2.076-.455-3.895-1.123-5.458-2.004l3.41-7.42a15.826 15.826 0 003.924 1.621c1.421.37 2.785.554 4.093.554 1.166 0 2.104-.199 2.814-.596.711-.399 1.066-.967 1.066-1.706 0-1.365-1.18-2.047-3.539-2.047h-3.965v-6.183l4.392-4.477h-10.66v-7.59h22.258v6.183l-5.543 5.629z" fill="#505050"/><path fill-rule="evenodd" clip-rule="evenodd" d="M26.892 33.975c.965.481 1.978.863 3.041 1.145 1.422.37 2.786.554 4.094.554 1.165 0 2.103-.199 2.814-.596.71-.399 1.066-.967 1.066-1.706 0-1.365-1.18-2.047-3.539-2.047h-3.966v-6.183l4.392-4.477h-10.66v-7.59h22.259v6.183l-5.544 5.629c.378.093.742.199 1.09.317 1.777.604 3.176 1.536 4.198 2.795 1.25 1.478 1.876 3.27 1.876 5.373 0 1.79-.498 3.468-1.492 5.031-.967 1.535-2.474 2.786-4.52 3.753-2.047.966-4.591 1.45-7.633 1.45a29.78 29.78 0 01-6.31-.683c-2.076-.455-3.895-1.123-5.459-2.004l3.412-7.42c.289.169.583.328.881.476zm20.473 4.963c-1.09 1.731-2.762 3.095-4.937 4.122-2.218 1.047-4.919 1.545-8.06 1.545a30.82 30.82 0 01-6.522-.704l-.003-.001c-2.155-.472-4.07-1.172-5.735-2.11l-.802-.452 4.256-9.256.951.553a14.86 14.86 0 003.675 1.518c1.348.35 2.627.521 3.839.521 1.064 0 1.815-.183 2.326-.469.434-.243.554-.499.554-.833 0-.326-.105-.507-.385-.67-.364-.21-1.038-.377-2.154-.377h-4.966v-7.591l3.01-3.069h-9.277v-9.59h24.258v7.593l-4.68 4.752c1.715.656 3.126 1.628 4.194 2.941 1.413 1.673 2.106 3.696 2.106 6.01 0 1.988-.555 3.85-1.648 5.567z" fill="#8C6D3D"/><path d="M40.85 23.887c2.302.568 4.065 1.606 5.287 3.112 1.25 1.478 1.876 3.27 1.876 5.373 0 1.79-.497 3.468-1.492 5.031-.967 1.535-2.473 2.786-4.52 3.753-2.047.966-4.591 1.45-7.633 1.45a29.78 29.78 0 01-6.31-.683c-2.076-.455-3.895-1.123-5.458-2.004l3.41-7.42a15.826 15.826 0 003.924 1.621c1.421.37 2.785.554 4.093.554 1.166 0 2.104-.199 2.814-.596.711-.399 1.066-.967 1.066-1.706 0-1.365-1.18-2.047-3.539-2.047h-3.965v-6.183l4.392-4.477h-10.66v-7.59h22.258v6.183l-5.543 5.629z" fill="url(#paint3_linear)"/><path fill-rule="evenodd" clip-rule="evenodd" d="M26.892 32.975c.965.481 1.978.863 3.041 1.145 1.422.37 2.786.554 4.094.554 1.165 0 2.103-.199 2.814-.596.71-.399 1.066-.967 1.066-1.706 0-1.365-1.18-2.047-3.539-2.047h-3.966v-6.183l4.392-4.477h-10.66v-7.59h22.259v6.183l-5.544 5.629c.378.093.742.199 1.09.317 1.777.604 3.176 1.536 4.198 2.795 1.25 1.478 1.876 3.27 1.876 5.373 0 1.79-.498 3.468-1.492 5.031-.967 1.535-2.474 2.786-4.52 3.753-2.047.966-4.591 1.45-7.633 1.45a29.78 29.78 0 01-6.31-.683c-2.076-.455-3.895-1.123-5.459-2.004l3.412-7.42c.289.169.583.328.881.476zm20.473 4.963c-1.09 1.731-2.762 3.095-4.937 4.122-2.218 1.047-4.919 1.545-8.06 1.545a30.82 30.82 0 01-6.522-.704l-.003-.001c-2.155-.472-4.07-1.172-5.735-2.11l-.802-.452 4.256-9.256.951.553a14.86 14.86 0 003.675 1.518c1.348.35 2.627.521 3.839.521 1.064 0 1.815-.183 2.326-.469.434-.243.554-.499.554-.833 0-.326-.105-.507-.385-.67-.364-.21-1.038-.377-2.154-.377h-4.966v-7.591l3.01-3.069h-9.277v-9.59h24.258v7.593l-4.68 4.752c1.715.656 3.126 1.628 4.194 2.941 1.413 1.673 2.106 3.696 2.106 6.01 0 1.988-.555 3.85-1.648 5.567z" fill="#B48134"/></g><defs><linearGradient id="paint0_linear" x1="35.307" y1="46" x2="35.307" y2="70" gradientUnits="userSpaceOnUse"><stop stop-color="#E9B76E"/><stop offset="1" stop-color="#AA8042"/></linearGradient><linearGradient id="paint1_linear" x1="35.307" y1="2" x2="35.307" y2="56" gradientUnits="userSpaceOnUse"><stop stop-color="#E9B76E"/><stop offset="1" stop-color="#AA8042"/></linearGradient><linearGradient id="paint2_linear" x1="35.307" y1="2" x2="35.307" y2="56" gradientUnits="userSpaceOnUse"><stop stop-color="#E9B76E"/><stop offset="1" stop-color="#AA8042"/></linearGradient><linearGradient id="paint3_linear" x1="36.621" y1="12.075" x2="36.539" y2="42.606" gradientUnits="userSpaceOnUse"><stop offset=".448" stop-color="#fff"/><stop offset=".448" stop-color="#F4F4F4"/><stop offset="1" stop-color="#fff"/></linearGradient><filter id="filter0_d" x=".307" y="0" width="70" height="87" filterUnits="userSpaceOnUse" color-interpolation-filters="sRGB"><feFlood flood-opacity="0" result="BackgroundImageFix"/><feColorMatrix in="SourceAlpha" type="matrix" values="0 0 0 0 0 0 0 0 0 0 0 0 0 0 0 0 0 0 127 0"/><feOffset dy="8"/><feGaussianBlur stdDeviation="2.5"/><feColorMatrix type="matrix" values="0 0 0 0 0.5875 0 0 0 0 0.402829 0 0 0 0 0.186042 0 0 0 0.5 0"/><feBlend mode="normal" in2="BackgroundImageFix" result="effect1_dropShadow"/><feBlend mode="normal" in="SourceGraphic" in2="effect1_dropShadow" result="shape"/></filter></defs></svg>