<svg width="71" height="86" viewBox="0 0 71 86" fill="none" xmlns="http://www.w3.org/2000/svg"><g clip-path="url(#clip0)" filter="url(#filter0_d)"><path d="M7.974 30c0-15.464 12.536-28 28-28s28 12.536 28 28v2c0 15.464-12.536 28-28 28s-28-12.536-28-28v-2z" fill="#fff"/><path fill-rule="evenodd" clip-rule="evenodd" d="M65.974 30v2c0 16.569-13.432 30-30 30-16.569 0-30-13.431-30-30v-2c0-16.569 13.431-30 30-30 16.568 0 30 13.431 30 30zm-30-28c-15.464 0-28 12.536-28 28v2c0 15.464 12.536 28 28 28s28-12.536 28-28v-2c0-15.464-12.536-28-28-28z" fill="#fff"/><path d="M19.974 46h32v24l-16-5-16 5V46z" fill="#fff"/><path fill-rule="evenodd" clip-rule="evenodd" d="M17.974 44h36v28.72l-18-5.625-18 5.625V44zm18 21l16 5V46h-32v24l16-5z" fill="#fff"/><path d="M7.974 30c0-15.464 12.536-28 28-28s28 12.536 28 28v2c0 15.464-12.536 28-28 28s-28-12.536-28-28v-2z" fill="#505050"/><path d="M19.974 46h32v24l-16-5-16 5V46z" fill="url(#paint0_linear)"/><path d="M7.974 30c0-15.464 12.536-28 28-28s28 12.536 28 28-12.536 28-28 28-28-12.536-28-28z" fill="#505050"/><path d="M63.974 29c0 14.912-12.536 27-28 27s-28-12.088-28-27 12.536-27 28-27 28 12.088 28 27z" fill="url(#paint1_linear)"/><path fill-rule="evenodd" clip-rule="evenodd" d="M35.974 54c14.428 0 26-11.26 26-25s-11.572-25-26-25c-14.429 0-26 11.26-26 25s11.571 25 26 25zm0 2c15.464 0 28-12.088 28-27s-12.536-27-28-27-28 12.088-28 27 12.536 27 28 27z" fill="url(#paint2_linear)"/><path fill-rule="evenodd" clip-rule="evenodd" d="M63.96 29.821a26.363 26.363 0 00.013-1H7.974a26.59 26.59 0 00.012 1h55.975zm-.135 1.978H8.122c.036.335.078.669.127 1h55.45a26.1 26.1 0 00.126-1zm-.494 2.978H8.616c.076.335.158.669.247 1h54.221c.09-.331.171-.665.247-1zm-.65 2.357H9.267c.11.336.226.67.35 1H62.33c.123-.33.24-.664.35-1zm-1.18 2.978H10.446c.158.337.323.67.495 1h50.063c.172-.33.337-.663.495-1zm-1.637 2.977h-47.78c.215.339.437.672.667 1h46.445c.23-.328.453-.661.668-1zm-2.193 2.978H14.276c.288.34.585.674.89 1h41.616c.304-.326.601-.66.89-1zm-2.938 2.978H17.214c.396.344.801.677 1.216 1h35.087c.415-.323.82-.656 1.216-1zm-4.124 2.977H21.338c.599.355 1.213.689 1.84 1h25.59a28.223 28.223 0 001.841-1zM43.55 55H28.398c2.41.652 4.951 1 7.577 1a28.98 28.98 0 007.576-1zM8.063 26.844h55.824a25.91 25.91 0 00-.102-1H8.163c-.04.331-.074.665-.101 1zm.417-2.978h54.99a26.1 26.1 0 00-.221-1H8.699c-.08.331-.153.664-.22 1zm.78-2.978h53.429c-.11-.336-.226-.67-.349-1H9.61c-.124.33-.24.664-.35 1zm1.178-2.977H61.51c-.158-.337-.323-.67-.494-1H10.93c-.171.33-.336.663-.493 1zm1.632-2.978h47.809a26.819 26.819 0 00-.666-1H12.735c-.229.328-.451.662-.666 1zm2.188-2.978H57.69c-.287-.34-.583-.673-.888-1H15.145c-.304.327-.6.66-.888 1zm2.932-2.977h37.57a27.865 27.865 0 00-1.213-1H18.402a26.49 26.49 0 00-1.213 1zM21.3 6h29.347a28.25 28.25 0 00-1.833-1h-25.68c-.626.312-1.237.645-1.834 1z" fill="#C2C2C2" fill-opacity=".5"/><path fill-rule="evenodd" clip-rule="evenodd" d="M35.974 54c14.428 0 26-11.26 26-25s-11.572-25-26-25c-14.429 0-26 11.26-26 25s11.571 25 26 25zm0 2c15.464 0 28-12.088 28-27s-12.536-27-28-27-28 12.088-28 27 12.536 27 28 27z" fill="#B9B9B9"/><path d="M35.07 10.572a1 1 0 011.808 0l3.135 6.628a1 1 0 001.133.546l7.136-1.681a1 1 0 011.128 1.413l-3.227 6.583a1 1 0 00.28 1.227l5.763 4.53a1 1 0 01-.402 1.763l-7.159 1.582a1 1 0 00-.784.984l.05 7.33a1 1 0 01-1.628.785l-5.7-4.61a1 1 0 00-1.258 0l-5.7 4.61a1 1 0 01-1.629-.784l.05-7.331a1 1 0 00-.783-.984l-7.16-1.582a1 1 0 01-.402-1.762l5.764-4.531a1 1 0 00.28-1.227l-3.227-6.583a1 1 0 011.127-1.414l7.137 1.682a1 1 0 001.133-.546l3.135-6.628z" fill="#505050"/><path fill-rule="evenodd" clip-rule="evenodd" d="M37.782 10.145l3.135 6.627 7.136-1.68c1.643-.388 2.997 1.31 2.254 2.826l-3.227 6.583 5.764 4.532c1.328 1.043.844 3.16-.805 3.525l-7.158 1.581.05 7.332c.012 1.688-1.944 2.63-3.257 1.569l-5.7-4.611-5.7 4.61c-1.313 1.063-3.27.12-3.258-1.568l.05-7.331-7.158-1.582c-1.649-.364-2.132-2.482-.805-3.525l5.764-4.532-3.227-6.583c-.743-1.516.61-3.214 2.254-2.827l7.137 1.681 3.135-6.627c.722-1.527 2.894-1.527 3.616 0zm-.904.427a1 1 0 00-1.808 0L31.934 17.2a1 1 0 01-1.133.546l-7.136-1.681a1 1 0 00-1.127 1.413l3.227 6.583a1 1 0 01-.28 1.227l-5.764 4.53a1 1 0 00.402 1.763l7.16 1.582a1 1 0 01.784.984l-.051 7.33a1 1 0 001.629.785l5.7-4.61a1 1 0 011.258 0l5.7 4.61a1 1 0 001.629-.784l-.051-7.331a1 1 0 01.784-.984l7.159-1.582a1 1 0 00.402-1.762l-5.764-4.531a1 1 0 01-.28-1.227l3.227-6.583a1 1 0 00-1.127-1.414l-7.136 1.682a1 1 0 01-1.133-.546l-3.136-6.628z" fill="#505050"/><path d="M35.07 9.572a1 1 0 011.808 0l3.135 6.628a1 1 0 001.133.546l7.136-1.681a1 1 0 011.128 1.413l-3.227 6.583a1 1 0 00.28 1.227l5.763 4.53a1 1 0 01-.402 1.763l-7.159 1.582a1 1 0 00-.784.984l.05 7.33a1 1 0 01-1.628.785l-5.7-4.61a1 1 0 00-1.258 0l-5.7 4.61a1 1 0 01-1.629-.784l.05-7.331a1 1 0 00-.783-.984l-7.16-1.582a1 1 0 01-.402-1.762l5.764-4.531a1 1 0 00.28-1.227l-3.227-6.583a1 1 0 011.127-1.414l7.137 1.682a1 1 0 001.133-.546l3.135-6.628z" fill="url(#paint3_linear)"/><path fill-rule="evenodd" clip-rule="evenodd" d="M37.782 9.145l3.135 6.627 7.136-1.68c1.643-.388 2.997 1.31 2.254 2.826l-3.227 6.583 5.764 4.532c1.328 1.043.844 3.16-.805 3.525l-7.158 1.581.05 7.332c.012 1.688-1.944 2.63-3.257 1.569l-5.7-4.611-5.7 4.61c-1.313 1.063-3.27.12-3.258-1.568l.05-7.331-7.158-1.582c-1.649-.364-2.132-2.482-.805-3.525l5.764-4.532-3.227-6.583c-.743-1.516.61-3.214 2.254-2.827l7.137 1.681 3.135-6.627c.722-1.527 2.894-1.527 3.616 0zm-.904.427a1 1 0 00-1.808 0L31.934 16.2a1 1 0 01-1.133.546l-7.136-1.681a1 1 0 00-1.127 1.413l3.227 6.583a1 1 0 01-.28 1.227l-5.764 4.53a1 1 0 00.402 1.763l7.16 1.582a1 1 0 01.784.984l-.051 7.33a1 1 0 001.629.785l5.7-4.61a1 1 0 011.258 0l5.7 4.61a1 1 0 001.629-.784l-.051-7.331a1 1 0 01.784-.984l7.159-1.582a1 1 0 00.402-1.762l-5.764-4.531a1 1 0 01-.28-1.227l3.227-6.583a1 1 0 00-1.127-1.414l-7.136 1.682a1 1 0 01-1.133-.546l-3.136-6.628z" fill="#828080"/></g><defs><linearGradient id="paint0_linear" x1="35.974" y1="46" x2="35.974" y2="70" gradientUnits="userSpaceOnUse"><stop stop-color="#F1F1F1"/><stop offset="1" stop-color="#CECECE"/></linearGradient><linearGradient id="paint1_linear" x1="35.974" y1="2" x2="35.974" y2="56" gradientUnits="userSpaceOnUse"><stop stop-color="#F1F1F1"/><stop offset="1" stop-color="#CECECE"/></linearGradient><linearGradient id="paint2_linear" x1="35.974" y1="2" x2="35.974" y2="56" gradientUnits="userSpaceOnUse"><stop stop-color="#F1F1F1"/><stop offset="1" stop-color="#CECECE"/></linearGradient><linearGradient id="paint3_linear" x1="37.695" y1="9" x2="37.624" y2="41.487" gradientUnits="userSpaceOnUse"><stop offset=".448" stop-color="#fff"/><stop offset=".448" stop-color="#F4F4F4"/><stop offset="1" stop-color="#fff"/></linearGradient><filter id="filter0_d" x=".974" y="0" width="70" height="87" filterUnits="userSpaceOnUse" color-interpolation-filters="sRGB"><feFlood flood-opacity="0" result="BackgroundImageFix"/><feColorMatrix in="SourceAlpha" type="matrix" values="0 0 0 0 0 0 0 0 0 0 0 0 0 0 0 0 0 0 127 0"/><feOffset dy="8"/><feGaussianBlur stdDeviation="2.5"/><feColorMatrix type="matrix" values="0 0 0 0 0.5625 0 0 0 0 0.5625 0 0 0 0 0.5625 0 0 0 0.5 0"/><feBlend mode="normal" in2="BackgroundImageFix" result="effect1_dropShadow"/><feBlend mode="normal" in="SourceGraphic" in2="effect1_dropShadow" result="shape"/></filter></defs></svg>