<svg width="32" height="33" viewBox="0 0 32 33" fill="none" xmlns="http://www.w3.org/2000/svg"><path d="M0 16.5C0 7.663 7.163.5 16 .5s16 7.163 16 16-7.163 16-16 16-16-7.163-16-16z" fill="#313131"/><path fill-rule="evenodd" clip-rule="evenodd" d="M12.654 23.5c6.793 0 10.51-5.388 10.51-10.052 0-.152 0-.303-.008-.455A7.35 7.35 0 0025 11.16a7.753 7.753 0 01-2.125.559 3.588 3.588 0 001.628-1.957 7.552 7.552 0 01-2.348.854A3.767 3.767 0 0019.46 9.5c-2.038 0-3.695 1.585-3.695 3.534 0 .276.036.545.094.807-3.069-.145-5.792-1.557-7.614-3.693a3.417 3.417 0 00-.497 1.777c0 1.227.656 2.308 1.642 2.942a3.865 3.865 0 01-1.67-.44v.047c0 1.71 1.274 3.142 2.96 3.466-.31.083-.634.124-.973.124-.237 0-.468-.02-.691-.062.468 1.405 1.837 2.425 3.45 2.453a7.624 7.624 0 01-4.588 1.516c-.296 0-.59-.014-.879-.049a10.856 10.856 0 005.654 1.578z" fill="#fff"/></svg>