<svg width="128" height="20" viewBox="0 0 128 20" fill="none" xmlns="http://www.w3.org/2000/svg"><path d="M82.917 0c-5.651 0-10.224 4.463-10.224 9.979 0 5.516 4.573 9.979 10.224 9.979 5.652 0 10.225-4.463 10.225-9.979C93.142 4.463 88.569 0 82.917 0zm0 17.853c-4.443 0-8.024-3.495-8.024-7.832s3.58-7.832 8.024-7.832c4.444 0 8.025 3.495 8.025 7.832 0 4.295-3.581 7.832-8.025 7.832zm0-11.495c2.071 0 3.754 1.642 3.754 3.663s-1.683 3.663-3.754 3.663c-2.07 0-3.753-1.642-3.753-3.663s1.683-3.663 3.753-3.663zM128 7.495c0-.927-.777-1.684-1.726-1.684h-5.349c-.13 0-.216.084-.216.21v1.263c0 .127.086.21.216.21h4.918c.216 0 .431.17.431.422v9.979c0 .21-.172.42-.431.42h-15.358a.428.428 0 01-.432-.42v-9.98c0-.21.173-.42.432-.42h4.918c.129 0 .215-.084.215-.21V6.02c0-.126-.086-.21-.215-.21h-5.35c-.949 0-1.725.757-1.725 1.684v10.82c0 .927.776 1.685 1.725 1.685h16.221c.949 0 1.726-.758 1.726-1.684V7.495zm-11.13 1.684c0 .674.56 1.263 1.294 1.263.69 0 1.294-.547 1.294-1.263V4.8c0-.126.086-.21.216-.21h1.51a.856.856 0 00.863-.843.824.824 0 00-.259-.59L118.811.254a.848.848 0 00-1.208 0l-2.977 2.905a.8.8 0 000 1.179.864.864 0 00.604.252h1.51c.13 0 .216.085.216.211V9.18h-.086zM24.59 17.01c.044 0 .13-.042.13-.084.043-.042.043-.084.043-.168a8.364 8.364 0 00-.69-2.232c-.604-1.179-2.502-1.852-5.134-2.779l-.647-.21c-.216-.463-.216-1.01-.086-1.516C19.37 8.8 19.93 7.116 19.802 5.474c.172-2.274-1.51-4.253-3.84-4.421h-.259a3.77 3.77 0 00-1.768.42c-.173.085-.216.253-.173.422 0 0 0 .042.043.042a6.29 6.29 0 011.122 3.579 7.96 7.96 0 01-1.208 4.631c-.043.085-.086.169-.043.295.043.084.086.168.216.21 2.502.927 4.314 1.685 5.09 3.243a9.83 9.83 0 01.863 2.905c.043.168.172.295.345.295l4.4-.084zm-6.902 1.937c.345 0 .647-.294.647-.631 0-1.305-.302-2.569-.82-3.748-.604-1.178-2.502-1.852-5.004-2.778l-.69-.253c-.216-.463-.216-1.01-.087-1.516C12.9 8.8 13.46 7.116 13.331 5.474c.172-2.274-1.51-4.253-3.84-4.421h-.259c-2.33.042-4.184 1.936-4.141 4.21v.253c-.173 1.642.431 3.284 1.553 4.505.172.505.172 1.01 0 1.516l-.69.252c-2.632.927-4.53 1.643-5.134 2.78C.302 15.746 0 17.01 0 18.315c0 .337.302.631.647.631h17.04zm39-18.189H38.654c-.776 0-1.423.631-1.423 1.39v12.041c0 .758.647 1.39 1.423 1.39h4.013c.13 0 .215.084.215.21v2.99c0 .253.216.463.475.463.13 0 .259-.042.345-.126l3.58-3.495c.044-.042.087-.084.173-.084h9.233c.776 0 1.423-.632 1.423-1.39v-12c0-.8-.647-1.39-1.423-1.39z" fill="#fff"/></svg>