<svg width="57" height="20" viewBox="0 0 57 20" fill="none" xmlns="http://www.w3.org/2000/svg"><path d="M29.423 2.19h15.82a1.23 1.23 0 011.237 1.22v13.222a1.23 1.23 0 01-1.236 1.22h-15.82a1.23 1.23 0 01-1.237-1.22V3.368c0-.631.554-1.178 1.236-1.178zm27.079.673c-.171-.126-.384-.126-.598-.042l-7.291 3.621c-.214.084-.341.295-.341.548v6.02c0 .211.127.422.34.548l7.292 3.621c.299.169.683.042.81-.253a.592.592 0 00.086-.252V3.41c0-.21-.128-.421-.298-.548zM6.738 13.347c2.089 0 3.795-1.684 3.795-3.747V3.747C10.533 1.684 8.827 0 6.738 0c-2.09 0-3.796 1.684-3.796 3.747V9.6c0 2.063 1.706 3.747 3.796 3.747zm5.927-6.694a.85.85 0 00-.853.842V9.6c0 2.779-2.26 5.01-5.074 5.01A5.018 5.018 0 011.706 9.6V7.495a.85.85 0 00-.853-.842.85.85 0 00-.853.842V9.6a6.648 6.648 0 005.714 6.568c.085 0 .17.085.17.21v2.78a.85.85 0 00.854.842.85.85 0 00.852-.842v-2.78c0-.083.086-.21.171-.21 3.326-.505 5.757-3.284 5.757-6.568V7.495a.85.85 0 00-.853-.842z" fill="#fff"/></svg>